<svg xmlns="http://www.w3.org/2000/svg" width="420" height="360" viewBox="0 0 420 360" version="1.1">
	<path d="M 255.655 31.829 C 252.246 35.595, 254.928 41, 260.206 41 C 263.292 41, 265.250 38.865, 265.250 35.500 C 265.250 34.128, 264.689 32.330, 264.003 31.503 C 262.286 29.435, 257.658 29.616, 255.655 31.829 M 271.712 32.012 C 268.300 34.696, 268.202 38.293, 271.455 41.545 C 274.795 44.886, 279.218 44.810, 281.927 41.365 C 283.067 39.916, 284 37.698, 284 36.437 C 284 33.994, 281.633 31.009, 279.679 30.986 C 279.030 30.979, 277.583 30.726, 276.462 30.425 C 275.222 30.092, 273.365 30.712, 271.712 32.012 M 289.046 33.445 C 287.292 35.558, 288.170 39.355, 290.666 40.451 C 293.561 41.722, 294.542 46.204, 293.416 53.020 C 292.671 57.532, 295.451 60.382, 300.413 60.196 C 302.341 60.123, 304.346 60.712, 305.047 61.557 C 306.063 62.781, 306.005 62.939, 304.720 62.446 C 302.325 61.527, 299 63.788, 299 66.335 C 299 69.194, 300.772 71, 303.578 71 C 306.497 71, 308.343 68.573, 307.756 65.506 C 307.357 63.418, 307.662 63, 309.580 63 C 310.846 63, 312.177 62.523, 312.538 61.939 C 312.904 61.346, 313.929 62.337, 314.863 64.189 C 316.464 67.364, 316.449 67.559, 314.516 68.940 C 313.407 69.731, 312.168 70.919, 311.763 71.578 C 311.357 72.237, 309.972 73.041, 308.684 73.364 C 306.027 74.031, 303.659 78.350, 304.499 80.996 C 304.847 82.094, 304.437 83.002, 303.414 83.394 C 302.055 83.916, 301.848 83.488, 302.224 80.930 C 302.581 78.495, 302.178 77.507, 300.333 76.299 C 295.599 73.197, 289.767 78.176, 291.294 84.016 C 291.734 85.697, 291.312 86, 288.529 86 C 286.723 86, 284.689 86.670, 284.009 87.489 C 283.329 88.308, 282.363 88.724, 281.861 88.414 C 281.359 88.104, 282.085 86.499, 283.474 84.848 C 284.863 83.197, 286 81.401, 286 80.858 C 286 79.418, 283.880 75.620, 282.600 74.765 C 280.575 73.413, 276.327 73.981, 274.655 75.829 C 272.822 77.854, 272.417 83.521, 274.034 84.521 C 274.635 84.892, 273.968 86.024, 272.438 87.227 C 270.293 88.914, 269.920 89.849, 270.410 92.302 C 271.356 97.032, 272.910 98.275, 277.160 97.705 C 280.281 97.287, 281.156 97.589, 282.425 99.526 C 283.262 100.803, 284.971 102.170, 286.223 102.563 C 287.476 102.956, 289.504 104.354, 290.730 105.669 C 292.707 107.789, 293.663 108.020, 299.154 107.704 C 304.136 107.417, 305.704 107.704, 307.174 109.174 C 309.374 111.374, 313.895 111.547, 316.559 109.532 C 318.899 107.762, 320.888 107.512, 319.200 109.200 C 318.540 109.860, 318 111.226, 318 112.235 C 318 114.141, 320.694 118.954, 322.477 120.235 C 324.155 121.440, 327.673 121.099, 328.908 119.611 C 329.542 118.847, 331.153 118.013, 332.488 117.758 L 334.914 117.294 332.957 119.782 C 330.463 122.953, 330.476 125.476, 333 128 C 335.222 130.222, 339.949 130.651, 341.800 128.800 C 342.649 127.951, 343 127.930, 343 128.729 C 343 129.349, 343.717 130.574, 344.594 131.451 C 346.053 132.910, 346.516 132.683, 350.053 128.773 C 352.179 126.423, 353.936 123.946, 353.959 123.269 C 354.020 121.433, 349.232 120.584, 346.176 121.889 C 343.683 122.954, 343.633 122.929, 345.441 121.516 C 346.509 120.682, 348.560 120, 350 120 C 353.009 120, 355.557 118.380, 357.292 115.365 C 357.956 114.210, 359.351 112.062, 360.392 110.591 C 361.941 108.403, 362.081 107.472, 361.163 105.459 C 360.142 103.218, 360.256 103, 362.449 103 C 364.975 103, 369 98.858, 369 96.259 C 369 95.450, 370.125 93.903, 371.500 92.821 C 373.283 91.419, 374 89.888, 374 87.486 C 374 85.634, 373.590 83.865, 373.088 83.555 C 372.553 83.224, 372.627 81.798, 373.270 80.097 C 374.691 76.330, 372.175 72.185, 367.955 71.341 C 365.731 70.896, 365 70.193, 365 68.497 C 365 65.425, 362.608 63.684, 359.097 64.199 C 356.558 64.572, 356.103 64.263, 355.618 61.841 C 354.954 58.518, 351.145 57.157, 347.348 58.887 C 345.186 59.873, 344.586 59.719, 342.955 57.764 C 341.916 56.519, 341.052 54.093, 341.033 52.372 C 341.015 50.652, 340.352 48.707, 339.560 48.050 C 337.345 46.211, 332.706 47.178, 331.434 49.744 C 330.065 52.506, 328.827 51.609, 329.920 48.647 C 332.344 42.082, 323.841 37.034, 319.039 42.189 C 316.815 44.576, 316.463 47.127, 317.968 49.940 C 318.694 51.297, 318.461 52.178, 317.033 53.470 C 315.231 55.101, 314.997 55.094, 312.597 53.346 C 311.203 52.331, 310.049 50.712, 310.031 49.750 C 310.014 48.787, 309.100 47.100, 308 46 C 306.649 44.649, 306.437 44, 307.345 44 C 310.973 44, 313.586 36.514, 310.750 34.245 C 307.740 31.837, 305.055 31.854, 302.613 34.296 C 299.429 37.480, 296 38.419, 296 36.106 C 296 32.402, 291.379 30.634, 289.046 33.445 M 230.243 35.157 C 229.559 35.841, 229 37.033, 229 37.806 C 229 38.579, 227.818 40.616, 226.374 42.332 C 224.347 44.740, 223.081 45.382, 220.824 45.145 C 217.055 44.750, 215 46.507, 215 50.122 C 215 53.174, 214.777 53.273, 208.464 53.030 C 201.220 52.752, 195.546 60.046, 197.996 66.490 L 199.052 69.267 196.125 66.134 C 190.508 60.121, 181 63.326, 181 71.232 C 181 75.935, 183.200 78.512, 188.994 80.595 C 193.473 82.206, 193.860 82.569, 192.519 83.909 C 191.344 85.085, 190.750 85.150, 189.807 84.207 C 186.888 81.288, 180.941 83.460, 179.510 87.968 C 178.201 92.094, 183.201 96.545, 187.796 95.343 C 189.232 94.968, 189.998 95.419, 190.474 96.920 C 191.445 99.978, 196.598 102.317, 201.050 101.720 C 204.527 101.254, 204.833 101.428, 205.671 104.348 C 207.392 110.349, 215.968 110.594, 218.524 104.715 C 219.607 102.223, 219.931 101.971, 219.961 103.595 C 220.005 105.967, 222.912 109, 225.141 109 C 225.956 109, 227.622 110.350, 228.842 112 C 231.760 115.947, 236.925 116.166, 240.591 112.500 C 241.966 111.125, 243.667 110, 244.371 110 C 246.738 110, 250 105.472, 250 102.186 C 250 98.811, 247.083 95, 244.500 95 C 243.457 95, 243 93.951, 243 91.557 C 243 85.992, 236.935 83.069, 232.441 86.468 C 230.582 87.874, 230.616 87.938, 233.250 87.968 C 235.992 88, 240 91.033, 240 93.077 C 240 94.647, 234.395 100, 232.751 100 C 230.727 100, 227 95.714, 227 93.386 C 227 90.652, 225.100 89, 221.955 89 C 218.913 89, 216 91.753, 216 94.628 C 216 96.267, 215.447 96.534, 212.711 96.214 C 209.572 95.848, 209.441 95.664, 209.845 92.204 C 210.110 89.936, 211.155 87.879, 212.634 86.716 C 215.820 84.210, 215.897 78.742, 212.777 76.557 C 209.348 74.155, 206.324 74.643, 203.842 78 C 202.458 79.872, 200.729 81, 199.244 81 L 196.864 81 198.932 78.096 C 200.069 76.498, 201 74.457, 201 73.560 C 201 72.258, 201.389 72.138, 202.934 72.965 C 205.614 74.399, 217.323 74.277, 218.800 72.800 C 219.733 71.867, 220 71.943, 220 73.145 C 220 77.386, 227.612 79.566, 231.171 76.345 C 232.885 74.794, 233 74.816, 233 76.690 C 233 81.418, 240.259 83.741, 243.840 80.160 C 245.627 78.373, 245.740 78.388, 247.764 80.660 C 248.930 81.968, 250.984 83, 252.424 83 C 255.063 83, 259 79.913, 259 77.845 C 259 77.154, 259.735 77.355, 260.829 78.345 C 264.883 82.014, 272 78.880, 272 73.424 C 272 71.969, 270.960 69.923, 269.611 68.720 C 267.398 66.750, 267.333 66.422, 268.726 64.296 C 269.676 62.845, 271.218 62, 272.915 62 C 274.392 62, 276.140 61.460, 276.800 60.800 C 277.733 59.867, 278 60.054, 278 61.645 C 278 62.770, 278.875 64.482, 279.944 65.449 C 281.013 66.416, 282.025 68.353, 282.194 69.753 C 282.699 73.953, 285.080 74.624, 290.377 72.059 C 297.567 68.579, 299.100 63.797, 294.250 59.982 C 292.738 58.792, 291.444 57.410, 291.375 56.909 C 291.306 56.409, 291.194 55.401, 291.125 54.668 C 290.979 53.112, 281.908 47, 279.745 47 C 278.934 47, 277.126 47.900, 275.727 49 C 274.329 50.100, 272.538 51, 271.747 51 C 270.957 51, 269.554 51.835, 268.630 52.857 C 266.456 55.258, 262.277 54.547, 261.474 51.640 C 259.058 42.879, 256.216 40.152, 250.619 41.222 C 249.058 41.520, 247.880 41.038, 247.093 39.777 C 246.208 38.361, 244.979 37.962, 242.205 38.192 C 239.318 38.432, 238.274 38.059, 237.477 36.500 C 236.279 34.158, 232.030 33.370, 230.243 35.157 M 185.655 45.829 C 183.458 48.256, 183.550 53.283, 185.829 55.345 C 189.853 58.987, 197 55.887, 197 50.500 C 197 45.024, 189.265 41.839, 185.655 45.829 M 222.963 55.023 C 222.068 55.576, 221.652 57.179, 221.839 59.350 C 222.002 61.246, 221.655 63.095, 221.068 63.458 C 220.481 63.821, 220 65.012, 220 66.106 C 220 68.038, 220.069 68.043, 222.469 66.297 C 223.826 65.309, 224.951 63.683, 224.969 62.684 C 224.986 61.686, 225.409 60.104, 225.909 59.170 C 227.132 56.884, 224.942 53.800, 222.963 55.023 M 153.954 62.750 C 149.664 66.583, 148.960 72.213, 152.171 77 C 153.462 78.925, 155.062 81.725, 155.725 83.222 C 157.374 86.942, 161.384 87.848, 164.837 85.280 C 166.302 84.191, 167.654 82.219, 167.841 80.900 C 168.029 79.580, 168.756 77.825, 169.457 77 C 173.228 72.562, 171.450 64.319, 166.128 61.566 C 161.553 59.200, 157.484 59.596, 153.954 62.750 M 238 63.423 C 238 64.340, 236.875 66.216, 235.500 67.591 C 232.643 70.448, 232.046 73.173, 234.829 70.655 C 237.573 68.171, 241.719 68.594, 244.548 71.646 C 245.896 73.101, 247 73.763, 247 73.116 C 247 72.436, 248.220 72.842, 249.890 74.077 C 252.483 75.994, 253.066 76.074, 255.541 74.857 C 257.059 74.111, 258.643 72.558, 259.061 71.406 C 259.713 69.607, 259.495 69.374, 257.508 69.754 C 255.198 70.195, 251.728 67.685, 250.800 64.900 C 250.491 63.973, 248.834 63.616, 245.510 63.760 C 242.848 63.876, 240.069 63.472, 239.335 62.863 C 238.312 62.014, 238 62.145, 238 63.423 M 130.923 69.923 C 128.526 72.320, 128 73.687, 128 77.522 C 128 81.463, 128.488 82.653, 131.106 85.099 C 132.814 86.694, 134.839 88, 135.606 88 C 138.129 88, 137.164 91.742, 134.466 92.419 C 128.972 93.798, 128.957 101.656, 134.444 104.157 C 136.446 105.068, 137.426 104.951, 139.579 103.540 C 141.043 102.581, 142.464 100.942, 142.737 99.898 C 143.054 98.686, 144.118 98, 145.682 98 C 149.289 98, 151.569 96.456, 152.976 93.058 C 154.478 89.431, 153.700 85.700, 150.847 82.847 C 149.512 81.512, 148.674 79.279, 148.550 76.726 C 148.122 67.899, 137.172 63.674, 130.923 69.923 M 338.633 71.750 L 337.215 74.500 342.107 74.507 C 344.798 74.512, 347 74.174, 347 73.757 C 347 73.341, 346.329 73, 345.508 73 C 344.688 73, 343.455 72.100, 342.768 71 C 341.103 68.334, 340.322 68.476, 338.633 71.750 M 352.221 71.609 C 351.395 72.493, 351.582 72.919, 352.954 73.278 C 353.967 73.543, 355.567 74.935, 356.508 76.372 C 358.960 80.113, 357.771 83.780, 353.533 85.551 C 349.010 87.440, 348.431 88.664, 351.760 89.295 C 353.267 89.580, 355.400 90.086, 356.500 90.420 C 359.571 91.351, 361.018 89.756, 361.020 85.435 C 361.024 77.962, 360.509 75, 359.205 75 C 358.492 75, 356.879 73.970, 355.620 72.711 C 353.873 70.964, 353.067 70.703, 352.221 71.609 M 323.840 74.827 C 324.072 76.847, 324.790 79.263, 325.436 80.195 C 326.504 81.735, 326.865 81.621, 329.390 78.945 C 331.262 76.961, 331.692 76, 330.707 76 C 329.903 76, 328.664 75.300, 327.955 74.445 C 327.245 73.590, 325.934 72.500, 325.042 72.023 C 323.653 71.279, 323.480 71.684, 323.840 74.827 M 261.635 89.073 C 258.653 91.418, 258.270 94.512, 260.557 97.777 C 262.825 101.016, 263.955 100.500, 263.309 96.519 C 262.931 94.186, 263.281 92.220, 264.372 90.555 C 267.134 86.339, 265.935 85.690, 261.635 89.073 M 298.500 89 C 298.160 89.550, 298.359 90, 298.941 90 C 299.523 90, 300 89.550, 300 89 C 300 88.450, 299.802 88, 299.559 88 C 299.316 88, 298.840 88.450, 298.500 89 M 309.010 93.488 C 308.006 94.698, 308.095 95.099, 309.488 95.634 C 311.237 96.305, 313.294 94.284, 312.375 92.798 C 311.625 91.584, 310.378 91.839, 309.010 93.488 M 168 95 C 164.077 98.923, 166.752 105, 172.402 105 C 176.262 105, 179 102.438, 179 98.826 C 179 93.518, 171.938 91.062, 168 95 M 81.923 96.923 C 76.168 102.678, 79.630 111, 87.780 111 C 92.870 111, 96 107.816, 96 102.640 C 96 94.629, 87.621 91.226, 81.923 96.923 M 328.607 96.582 C 328.273 97.452, 328 99.307, 328 100.704 C 328 102.845, 328.235 103.050, 329.494 102.005 C 330.316 101.323, 332.116 100.980, 333.494 101.244 C 334.872 101.507, 336 101.372, 336 100.943 C 336 100.514, 336.237 99.546, 336.526 98.792 C 336.865 97.909, 335.862 96.990, 333.705 96.210 C 329.457 94.674, 329.336 94.683, 328.607 96.582 M 251 98.389 C 251 102.463, 254.035 105.219, 258.024 104.766 L 261.500 104.372 258.220 103.077 C 256.415 102.366, 254.266 100.482, 253.444 98.892 C 251.625 95.374, 251 95.246, 251 98.389 M 150.750 100.080 C 148.632 101.314, 148.350 107.518, 150.359 108.700 C 151.106 109.140, 152.267 111.191, 152.939 113.258 C 154.243 117.270, 156.434 119, 160.212 119 C 168.715 119, 170.466 106.410, 162.249 104.348 C 160.750 103.971, 158.698 102.614, 157.689 101.332 C 155.725 98.834, 153.559 98.444, 150.750 100.080 M 183.655 104.829 C 181.228 107.510, 181.526 112.554, 184.223 114.443 C 187.377 116.653, 195.247 116.489, 197.345 114.171 C 200.743 110.417, 199.094 106.370, 193.352 104.371 C 188.112 102.547, 185.613 102.665, 183.655 104.829 M 346.660 106.131 C 345.647 106.719, 343.510 107.008, 341.910 106.773 C 339.715 106.451, 339 106.746, 339 107.972 C 339 110.232, 345.286 109.446, 347.592 106.898 C 349.531 104.756, 349.321 104.584, 346.660 106.131 M 324 107 C 322.718 107.828, 322.754 107.972, 324.250 107.985 C 325.212 107.993, 326 107.550, 326 107 C 326 105.780, 325.887 105.780, 324 107 M 131.174 115.314 C 128.203 118.478, 128.347 123.038, 131.513 126.012 C 133.211 127.607, 133.698 128.702, 133.013 129.387 C 132.456 129.944, 132 132.110, 132 134.200 C 132 136.689, 131.543 138, 130.674 138 C 128.934 138, 125 142.224, 125 144.092 C 125 146.999, 128.048 150, 131 150 C 134.065 150, 137 146.972, 137 143.809 C 137 142.658, 137.518 142.261, 138.518 142.645 C 140.783 143.515, 145.560 141.191, 146.986 138.525 C 147.676 137.237, 148.051 134.567, 147.821 132.591 C 147.590 130.616, 147.729 129, 148.129 129 C 149.958 129, 152 125.545, 152 122.452 C 152 118.715, 148.616 115.542, 145.311 116.179 C 144.327 116.368, 142.730 115.730, 141.761 114.761 C 139.213 112.213, 133.823 112.495, 131.174 115.314 M 205.679 116.241 C 203.861 118.169, 201.377 120.063, 200.160 120.449 C 197.098 121.421, 194.648 125.461, 195.372 128.344 C 196.229 131.761, 195.219 132.128, 192.485 129.394 C 191.168 128.077, 189.243 127, 188.206 127 C 186.261 127, 184 123.295, 184 120.108 C 184 115.547, 175.927 113.213, 172.655 116.829 C 171.745 117.835, 171 119.645, 171 120.852 C 171 122.949, 171.108 122.975, 173.442 121.446 C 176.738 119.287, 179.875 119.930, 182.364 123.275 C 184.389 125.998, 184.393 126.114, 182.590 129.463 C 181.419 131.637, 180.984 133.798, 181.390 135.419 C 181.945 137.630, 181.565 138.155, 178.478 139.445 C 175.180 140.823, 174.789 140.789, 172.964 138.964 C 170.022 136.022, 164.654 136.353, 162.073 139.635 C 159.323 143.130, 159.455 146.546, 162.455 149.545 C 165.693 152.784, 170.348 152.806, 173.322 149.598 C 175.269 147.497, 175.779 147.365, 177.397 148.548 C 180.975 151.165, 189 147.912, 189 143.845 C 189 141.089, 190.930 141.619, 192.298 144.750 C 192.959 146.262, 194.063 147.545, 194.750 147.600 C 198.166 147.873, 198.243 148.190, 195.213 149.507 C 189.597 151.947, 186.968 161.851, 190.974 165.477 C 192.524 166.879, 193.859 167.118, 197.175 166.588 C 199.499 166.216, 201.980 165.432, 202.688 164.844 C 203.395 164.257, 204.604 164.018, 205.372 164.313 C 207.898 165.282, 211.241 162.043, 210.691 159.162 C 210.375 157.513, 210.888 155.687, 212.097 154.149 C 213.144 152.819, 214 150.243, 214 148.424 C 214 146.606, 214.450 144.840, 215 144.500 C 217.028 143.246, 216.071 138.219, 213.439 136.301 L 210.878 134.435 214.843 134.814 C 217.871 135.102, 219.304 134.696, 220.904 133.096 C 223.641 130.359, 223.691 124.935, 221 122.500 C 219.900 121.505, 219 119.690, 219 118.467 C 219 115.600, 217.064 114.047, 212.582 113.320 C 209.407 112.804, 208.598 113.147, 205.679 116.241 M 224.200 115.200 C 223.540 115.860, 223 117.345, 223 118.500 C 223 119.655, 223.540 121.140, 224.200 121.800 C 224.860 122.460, 226.345 123, 227.500 123 C 228.655 123, 230.140 122.460, 230.800 121.800 C 231.460 121.140, 232 119.655, 232 118.500 C 232 117.345, 231.460 115.860, 230.800 115.200 C 230.140 114.540, 228.655 114, 227.500 114 C 226.345 114, 224.860 114.540, 224.200 115.200 M 72.736 124.250 C 68.679 127.331, 69.148 135.691, 73.471 137.350 C 78.700 139.357, 85 135.614, 85 130.500 C 85 124.972, 77.092 120.942, 72.736 124.250 M 112.455 127.455 C 106.960 132.949, 110.384 142.035, 117.924 141.968 C 121.861 141.933, 124.069 140.635, 125.837 137.316 C 127.712 133.794, 127.197 131.043, 124.077 127.923 C 120.347 124.193, 115.895 124.014, 112.455 127.455 M 153.500 127.203 C 150.801 128.723, 150.033 130.021, 150.015 133.095 C 149.985 138.280, 156.879 141.001, 160.345 137.171 C 164.892 132.147, 159.267 123.956, 153.500 127.203 M 169.633 128.701 C 168.556 129.778, 168.936 134.536, 170.200 135.800 C 172.550 138.150, 179 136.684, 179 133.800 C 179 133.360, 177.908 133, 176.573 133 C 175.183 133, 173.316 131.945, 172.205 130.534 C 171.138 129.178, 169.981 128.353, 169.633 128.701 M 146.635 145.073 C 141.783 148.889, 144.298 156, 150.500 156 C 154.246 156, 157 153.183, 157 149.350 C 157 147.126, 152.777 143, 150.500 143 C 149.823 143, 148.084 143.933, 146.635 145.073 M 83.455 154.455 C 78.629 159.280, 81.640 167, 88.348 167 C 90.146 167, 92.435 166.402, 93.435 165.671 C 95.007 164.522, 95.566 164.657, 97.580 166.671 C 104.290 173.381, 114.865 164.183, 109.006 156.734 C 107.336 154.611, 106.004 154, 103.050 154 C 100.897 154, 98.707 154.648, 98.007 155.492 C 96.928 156.791, 96.388 156.663, 93.808 154.492 C 90.058 151.337, 86.585 151.324, 83.455 154.455 M 168.441 156.439 C 166.809 157.649, 166.694 158.196, 167.718 159.874 C 168.511 161.174, 168.750 164.126, 168.404 168.333 C 167.931 174.070, 168.104 174.959, 169.938 176.244 C 171.747 177.511, 171.867 178.083, 170.904 180.845 C 170.114 183.112, 169.177 184, 167.576 184 C 164.783 184, 161 187.920, 161 190.814 C 161 196.119, 168.365 198.866, 172.436 195.080 C 173.853 193.762, 175.362 193.328, 177.250 193.697 C 180.765 194.382, 180.767 195.591, 177.256 196.472 C 173.205 197.489, 172 198.871, 172 202.500 C 172 206.398, 173.575 207.895, 178.523 208.697 C 182.196 209.293, 182.219 209.275, 181.573 206.333 C 181.090 204.135, 181.468 202.675, 183.034 200.684 C 185.286 197.820, 187.861 197.320, 191.187 199.100 C 193.110 200.129, 193.215 199.969, 192.822 196.600 C 192.449 193.403, 192.655 193, 194.666 193 C 197.678 193, 199.294 196.096, 198.025 199.435 C 197.387 201.113, 197.394 202.906, 198.046 204.622 C 199.104 207.404, 198.979 207.658, 193.887 213.117 C 191.661 215.503, 190.736 215.831, 187.645 215.330 C 185.391 214.964, 183.446 215.215, 182.508 215.993 C 180.381 217.759, 180.625 222.699, 182.938 224.679 C 184.667 226.160, 184.721 226.560, 183.438 228.392 C 182.647 229.521, 182 231.443, 182 232.663 C 182 235.340, 180.246 236.646, 178.713 235.113 C 177.059 233.459, 174 233.766, 174 235.587 C 174 236.460, 172.650 237.683, 171 238.306 C 169.214 238.980, 168 240.159, 168 241.219 C 168 243.695, 171.548 246.994, 174.250 247.030 C 176.308 247.058, 176.345 247.151, 174.689 248.114 C 173.693 248.693, 172.343 248.964, 171.689 248.715 C 171.035 248.466, 169.375 248.715, 168 249.268 C 166.625 249.821, 164.719 250.361, 163.765 250.468 C 161.298 250.746, 158 253.983, 158 256.125 C 158 257.123, 159.350 258.938, 161 260.158 C 164.814 262.978, 164.818 264.114, 161.012 263.352 C 156.580 262.466, 153 265.154, 153 269.368 C 153 271.316, 153.756 273.374, 154.829 274.345 C 157.396 276.669, 162.552 276.478, 164.291 273.995 C 165.377 272.445, 166.386 272.127, 168.734 272.597 C 171.671 273.184, 172.369 274.058, 174.864 280.273 C 175.611 282.131, 176.937 283.237, 178.885 283.627 C 181.094 284.069, 181.931 284.906, 182.373 287.115 C 182.728 288.891, 183.919 290.462, 185.433 291.152 L 187.912 292.281 185.456 294.213 C 180.452 298.149, 184.078 305.822, 190.349 304.568 C 197.133 303.211, 197.466 303.305, 197.998 306.734 C 199 313.187, 204.977 316.698, 210.028 313.799 C 212.268 312.513, 212.949 312.490, 214.525 313.642 C 215.546 314.389, 217.871 315, 219.691 315 C 221.511 315, 223 315.450, 223 316 C 223 318.259, 227.112 321, 230.500 321 C 235.009 321, 238 318.089, 238 313.700 C 238 311.885, 237.471 309.871, 236.824 309.224 C 235.922 308.322, 236.038 307.615, 237.324 306.195 C 238.246 305.176, 239 303.824, 239 303.190 C 239 302.401, 240.411 302.232, 243.486 302.653 C 246.604 303.080, 248.484 302.846, 249.650 301.884 C 251.176 300.625, 251.219 300.704, 250.129 302.750 C 249.416 304.088, 247.993 305, 246.620 305 C 242.215 305, 239.403 310.295, 241.579 314.490 C 242.361 315.996, 243.007 317.740, 243.017 318.364 C 243.040 319.964, 251.123 327.587, 253.643 328.387 C 256.640 329.338, 260.837 327.452, 262.154 324.562 C 263.191 322.286, 263.452 322.203, 265.364 323.542 C 268.220 325.543, 270.663 325.372, 274.680 322.889 C 277.835 320.939, 278.233 320.901, 279.877 322.389 C 282.165 324.459, 289.165 324.483, 293.128 322.434 C 294.800 321.569, 296.788 319.359, 297.564 317.502 C 298.337 315.651, 299.427 313.854, 299.985 313.509 C 301.718 312.438, 301.101 307.101, 299 305 C 297.109 303.109, 293.023 302.311, 291.750 303.583 C 291.429 303.904, 292.029 305.029, 293.083 306.083 C 296.943 309.943, 294.005 312.679, 288.922 309.958 C 287.385 309.136, 287.188 308.517, 287.987 307.024 C 289.552 304.100, 289.195 301.195, 287 299 C 284.284 296.284, 280.424 296.485, 277.409 299.500 C 274.126 302.783, 273 302.655, 273 299 C 273 295.344, 269.894 292, 266.500 292 C 262.873 292, 259.706 295.547, 260.219 299.037 C 260.592 301.577, 260.433 301.767, 258.706 300.842 C 257.644 300.274, 255.701 300.015, 254.388 300.266 C 251.985 300.725, 251.140 299.650, 253 298.500 C 255 297.264, 254.093 291.002, 251.545 288.455 C 248.677 285.586, 242.044 285.038, 240 287.500 C 239.315 288.325, 237.460 289, 235.878 289 C 233.526 289, 233 288.572, 233 286.655 C 233 283.518, 230.028 281, 226.326 281 C 223.243 281, 220.056 283.531, 219.930 286.079 C 219.888 286.924, 219.511 286.690, 219 285.500 C 217.517 282.049, 217.903 281.241, 221.340 280.596 C 231.814 278.631, 232.601 265.330, 222.500 261 C 218.689 259.366, 218.024 258.619, 217.433 255.310 C 217.059 253.214, 215.909 250.572, 214.878 249.437 C 213.033 247.407, 213.047 247.341, 215.772 245.327 C 217.679 243.916, 219.528 243.424, 221.711 243.744 C 225.882 244.357, 230 240.494, 230 235.969 C 230 232.278, 225.310 227, 222.031 227 C 219.328 227, 215 231.280, 215 233.955 C 215 235.434, 214.351 236, 212.655 236 C 209.999 236, 207 238.826, 207 241.329 C 207 242.248, 207.900 243.900, 209 245 C 210.556 246.556, 210.667 247, 209.500 247 C 207.230 247, 204 250.703, 204 253.306 C 204 254.574, 205.113 257.120, 206.474 258.965 C 208.780 262.091, 208.831 262.405, 207.224 263.599 C 205.761 264.687, 205.359 264.578, 204.570 262.879 C 204.058 261.779, 202.403 260.631, 200.892 260.328 C 198.490 259.848, 198.268 259.506, 199.131 257.611 C 200.506 254.594, 198.662 250.202, 195.518 249.007 C 192.635 247.911, 188.252 249.180, 187.418 251.352 C 187.026 252.374, 186.142 251.988, 184.021 249.867 C 182.444 248.290, 180.169 247, 178.966 247 L 176.778 247 179.063 245.150 C 181.022 243.564, 181.699 243.481, 183.799 244.571 C 186.240 245.837, 188.358 245.574, 190.769 243.707 C 191.642 243.031, 192.602 243.235, 193.847 244.362 C 197.097 247.302, 202.583 246.228, 204.052 242.364 C 205.220 239.291, 203.721 235.363, 201.057 234.518 C 199.926 234.159, 199 233.056, 199 232.067 C 199 231.079, 198.092 229.115, 196.982 227.705 C 195.873 226.294, 195.344 224.906, 195.806 224.620 C 196.599 224.130, 198.103 225.420, 202.953 230.750 C 204.079 231.988, 206.125 233, 207.500 233 C 209.835 233, 214 229.948, 214 228.237 C 214 227.818, 215.011 227.030, 216.246 226.487 C 221.798 224.046, 221.658 215.344, 216.026 212.851 C 214.402 212.132, 213.425 211.056, 213.714 210.303 C 213.989 209.586, 213.872 208.213, 213.453 207.250 C 213.035 206.287, 212.798 204.664, 212.928 203.642 C 213.450 199.510, 211.915 196.864, 207.974 195.100 L 204.018 193.328 206.556 191.970 C 208.787 190.776, 209.058 190.061, 208.797 186.056 L 208.500 181.500 204.762 181.792 C 199.597 182.195, 197.250 180.644, 196 176 C 194.848 171.722, 192.082 169.560, 188.610 170.224 C 186.701 170.589, 186.488 170.262, 186.814 167.464 C 187.108 164.951, 186.617 163.844, 184.458 162.145 C 182.958 160.965, 181.194 160, 180.539 160 C 179.885 160, 178.292 158.875, 177 157.500 C 174.355 154.685, 171.315 154.308, 168.441 156.439 M 114.923 158.923 C 113.161 160.685, 112 162.900, 112 164.500 C 112 168.274, 116.987 173, 120.969 173 C 128.146 173, 131.733 163.643, 126.545 158.455 C 123.105 155.014, 118.653 155.193, 114.923 158.923 M 200.015 157.750 C 200.024 158.713, 200.508 160.175, 201.091 161 C 202.034 162.333, 202.103 162.333, 201.711 161 C 201.469 160.175, 201.675 158.713, 202.170 157.750 C 202.838 156.452, 202.673 156, 201.535 156 C 200.691 156, 200.007 156.787, 200.015 157.750 M 143.357 160.992 C 140.643 162.087, 138 165.815, 138 168.548 C 138 170.996, 141.887 175, 144.264 175 C 145.164 175, 147.900 176.350, 150.345 178 C 156.424 182.103, 160.932 182.058, 164.464 177.860 C 166.166 175.837, 166.998 173.797, 166.803 172.122 C 166.551 169.958, 165.856 169.420, 162.646 168.902 C 158.939 168.305, 157.048 166.778, 157.015 164.357 C 156.997 163.006, 154.201 161.758, 152.939 162.538 C 152.455 162.837, 150.718 162.388, 149.079 161.541 C 147.440 160.693, 145.964 160.029, 145.800 160.063 C 145.635 160.098, 144.536 160.516, 143.357 160.992 M 75.235 167.475 C 73.439 168.268, 71.707 169.599, 71.387 170.433 C 70.871 171.778, 70.481 171.783, 67.952 170.475 C 64.154 168.511, 62.764 168.611, 59.635 171.073 C 52.548 176.647, 61.156 187.993, 68.435 182.671 C 70.005 181.523, 70.562 181.653, 72.540 183.631 C 77.683 188.774, 85.787 187.146, 88.605 180.404 C 92.199 171.801, 83.810 163.688, 75.235 167.475 M 182 174 C 182 174.550, 182.450 175, 183 175 C 183.550 175, 184 174.550, 184 174 C 184 173.450, 183.550 173, 183 173 C 182.450 173, 182 173.450, 182 174 M 136.077 181.589 C 131.958 185.055, 131.827 189.982, 135.750 193.902 C 138.287 196.437, 138.487 197.212, 138.328 203.903 C 138.133 212.160, 139.801 215, 144.845 215 C 148.358 215, 150.595 212.589, 151.338 208 C 151.650 206.075, 152.199 203.064, 152.557 201.309 C 153.084 198.731, 152.736 197.645, 150.740 195.649 C 149.101 194.010, 148.556 192.729, 149.120 191.840 C 149.587 191.103, 149.976 189.078, 149.985 187.339 C 150.003 183.630, 145.292 179, 141.500 179 C 140.209 179, 137.769 180.165, 136.077 181.589 M 113.455 184.455 C 110.594 187.315, 110.421 188.728, 112.557 191.777 C 115.590 196.108, 123 193.549, 123 188.171 C 123 185.658, 119.713 182, 117.455 182 C 116.605 182, 114.805 183.105, 113.455 184.455 M 37.911 184.871 C 36.238 186.225, 35.600 187.780, 35.600 190.500 C 35.600 194.972, 38.651 198, 43.156 198 C 46.837 198, 51 194.019, 51 190.500 C 51 184.433, 42.804 180.909, 37.911 184.871 M 119.500 197.105 C 118.400 197.734, 116.974 198.903, 116.332 199.703 C 115.436 200.820, 114.695 200.907, 113.148 200.079 C 107.158 196.873, 100 200.864, 100 207.409 C 100 210.277, 100.962 211.910, 105.328 216.455 C 108.585 219.844, 111.501 222, 112.828 222 C 115.190 222, 119 218.759, 119 216.750 C 119 215.936, 120.562 215.500, 123.477 215.500 C 135.914 215.500, 137.248 198.194, 124.946 196.449 C 123.051 196.180, 120.600 196.475, 119.500 197.105 M 74.500 204.155 C 71.272 205.921, 70 208.142, 70 212.017 C 70 219.625, 79.033 223.058, 84.545 217.545 C 87.986 214.105, 87.807 209.653, 84.077 205.923 C 81.029 202.875, 77.897 202.297, 74.500 204.155 M 161.223 207.557 C 158.774 209.272, 158.211 213.811, 160.200 215.800 C 161.899 217.499, 166.569 217.288, 168.429 215.429 C 170.684 213.173, 170.370 209.372, 167.777 207.557 C 166.555 206.701, 165.080 206, 164.500 206 C 163.920 206, 162.445 206.701, 161.223 207.557 M 52.388 220.980 C 48.544 222.533, 45.758 227.123, 46.370 230.893 C 47.845 239.980, 58.430 242.790, 64.228 235.633 C 67.600 231.469, 65.951 224.060, 61.093 221.548 C 57.788 219.839, 55.570 219.694, 52.388 220.980 M 152.308 231.010 C 149.198 232.262, 146.702 236.512, 147.175 239.748 C 147.529 242.173, 147.244 242.513, 144.775 242.607 C 140.631 242.766, 138 245.637, 138 250 C 138 257.664, 146.929 260.324, 151.718 254.087 C 152.388 253.214, 152.951 251.305, 152.968 249.844 C 152.993 247.796, 153.408 247.294, 154.780 247.653 C 157.758 248.431, 161.814 246.260, 163.511 242.980 C 165.022 240.057, 164.993 239.617, 163.021 235.543 C 160.502 230.340, 157.317 228.992, 152.308 231.010 M 328.200 233.200 C 327.540 233.860, 327 235.200, 327 236.179 C 327 237.718, 326.660 237.802, 324.471 236.805 C 322.345 235.836, 321.508 235.979, 319.221 237.701 C 317.087 239.307, 316.497 240.586, 316.484 243.625 C 316.475 245.756, 316.120 248.474, 315.694 249.664 L 314.920 251.829 312.505 249.414 C 308.842 245.751, 303.817 246.721, 302.024 251.437 C 300.841 254.548, 295.653 255.379, 293.343 252.827 C 291.125 250.375, 286.485 250.515, 283.887 253.113 C 282.267 254.733, 281.903 256.014, 282.325 258.613 C 282.823 261.686, 282.649 262, 280.437 262 C 277.468 262, 274 265.257, 274 268.045 C 274 270.212, 278.145 275, 280.020 275 C 280.631 275, 281.938 274.568, 282.924 274.041 C 284.444 273.227, 285.115 273.898, 287.358 278.478 C 288.811 281.446, 290 284.551, 290 285.378 C 290 286.205, 290.427 287.146, 290.950 287.469 C 291.472 287.792, 291.643 290.218, 291.330 292.861 C 290.811 297.241, 291.005 297.859, 293.515 299.833 C 297.052 302.616, 300.507 302.586, 303.330 299.750 C 304.762 298.312, 306.504 297.610, 308.159 297.804 C 309.583 297.972, 311.480 297.377, 312.374 296.483 C 314.143 294.715, 314.566 290.468, 313.066 289.541 C 312.552 289.223, 312.369 287.504, 312.658 285.720 C 313.596 279.941, 309.023 277.722, 301.878 280.488 C 300.597 280.984, 300.351 280.614, 300.710 278.736 C 301.144 276.464, 299.958 274.518, 294.646 268.791 C 293.347 267.391, 291.995 266.951, 290.135 267.323 C 288.085 267.733, 287.245 267.358, 286.452 265.677 C 285.494 263.646, 285.674 263.502, 289.136 263.526 C 291.177 263.540, 293.669 264.222, 294.674 265.042 C 302.900 271.752, 307.784 272.786, 310.643 268.423 C 311.900 266.503, 312.098 265.187, 311.416 263.269 C 310.666 261.158, 310.952 260.195, 313 257.941 C 315.293 255.419, 315.645 255.320, 317.250 256.750 C 318.212 257.608, 319 259.130, 319 260.132 C 319 261.134, 320.139 262.700, 321.530 263.612 C 324.036 265.254, 324.041 265.283, 322.030 266.691 C 319.087 268.753, 319.338 273.520, 322.500 275.592 C 325.176 277.346, 325.872 280, 323.655 280 C 321.612 280, 319 283.367, 319 286 C 319 287.288, 319.745 289.165, 320.655 290.171 C 322.205 291.884, 322.185 292, 320.329 292 C 316.989 292, 313.636 296.428, 314.334 299.918 C 314.664 301.570, 314.499 303.191, 313.967 303.520 C 313.435 303.849, 313 305.216, 313 306.559 C 313 308.439, 312.472 309, 310.700 309 C 307.645 309, 306 310.795, 306 314.129 C 306 320.138, 312.823 322.213, 315.760 317.096 C 317.753 313.623, 323.332 312.189, 325.687 314.544 C 328.962 317.819, 337 315.221, 337 310.887 C 337 309.236, 341.953 306, 344.481 306 C 347.324 306, 352 300.490, 352 297.140 C 352 294.225, 352.121 294.145, 355.684 294.724 C 358.914 295.248, 359.685 294.949, 361.934 292.301 C 363.345 290.640, 365.557 288.728, 366.849 288.052 C 368.764 287.051, 369.125 286.196, 368.802 283.428 L 368.405 280.032 370.517 282.016 C 373.162 284.501, 378.165 284.580, 380.345 282.171 C 384.467 277.617, 380.519 270.329, 374.462 271.312 C 371.209 271.840, 371.159 271.792, 371.673 268.629 C 372.034 266.401, 371.703 264.998, 370.598 264.081 C 369.719 263.352, 369 261.995, 369 261.066 C 369 260.136, 367.650 258.378, 366 257.158 C 364.193 255.822, 363 254.034, 363 252.661 C 363 251.408, 362.438 249.646, 361.750 248.746 C 359.729 246.099, 351.002 243.266, 346.372 243.753 C 342.915 244.116, 341.981 243.811, 340.622 241.871 C 339.730 240.597, 339 238.530, 339 237.277 C 339 236.010, 338.389 235, 337.622 235 C 336.865 235, 335.685 234.325, 335 233.500 C 333.505 231.698, 329.863 231.537, 328.200 233.200 M 230 241 C 228.900 242.100, 228 243.675, 228 244.500 C 228 245.422, 227.063 246, 225.571 246 C 218.831 246, 218.146 255.429, 224.580 259.644 C 227.023 261.245, 227.479 261.262, 229.958 259.839 C 232.212 258.545, 232.968 258.503, 234.451 259.588 C 235.945 260.680, 236.061 261.386, 235.169 263.946 C 234.427 266.074, 234.419 267.904, 235.143 269.980 C 235.973 272.362, 235.863 273.280, 234.591 274.552 C 231.209 277.934, 233.665 284, 238.416 284 C 241.150 284, 244 281.107, 244 278.332 C 244 277.169, 245.032 275.851, 246.447 275.206 C 249.908 273.629, 252.308 269.551, 251.802 266.106 C 251.509 264.107, 251.756 263.353, 252.598 263.676 C 253.270 263.934, 255.210 263.426, 256.910 262.547 L 260 260.949 260 263.819 C 260 267.437, 262.768 270, 266.674 270 C 270.105 270, 273 267.355, 273 264.218 C 273 263.050, 273.528 260.935, 274.174 259.518 C 275.165 257.342, 275.036 256.526, 273.343 254.257 C 271.789 252.176, 269.895 251.294, 264.919 250.333 C 256.470 248.701, 250.499 250.158, 247.843 254.500 L 246.007 257.500 246.004 253.702 C 246.001 250.939, 245.319 249.273, 243.500 247.588 C 242.125 246.313, 241 244.560, 241 243.692 C 241 241.653, 237.200 239, 234.277 239 C 233.025 239, 231.100 239.900, 230 241 M 82.635 249.073 C 80.620 250.657, 80 252.033, 80 254.918 C 80 259.633, 82.425 262, 87.256 262 C 94.073 262, 97.341 254.250, 92.545 249.455 C 89.546 246.455, 86.130 246.323, 82.635 249.073 M 329.956 253.671 C 332.571 256.995, 332.557 260.443, 329.919 263.081 C 328.010 264.990, 327.969 265.308, 329.419 266.910 C 330.288 267.871, 331 269.153, 331 269.759 C 331 270.365, 332.012 271.005, 333.250 271.180 C 334.915 271.417, 335.890 270.720, 337.003 268.500 C 338.242 266.026, 339.075 265.526, 341.753 265.647 C 344.424 265.769, 345 265.425, 345 263.712 C 345 262.566, 345.945 260.622, 347.101 259.392 L 349.202 257.156 346.191 255.599 C 344.536 254.743, 343.006 253.518, 342.793 252.878 C 342.500 251.999, 341.880 251.994, 340.268 252.857 C 337.386 254.399, 334.072 254.286, 330.706 252.530 L 327.912 251.073 329.956 253.671 M 119 254 C 115.039 257.961, 117.919 265, 123.500 265 C 126.709 265, 130 261.709, 130 258.500 C 130 257.125, 129.100 255.100, 128 254 C 126.900 252.900, 124.875 252, 123.500 252 C 122.125 252, 120.100 252.900, 119 254 M 185.561 257.773 C 184.002 259.331, 185.191 264.005, 187.635 265.927 C 191.126 268.674, 192.844 268.541, 194.025 265.435 C 195.321 262.026, 195.313 262, 192.955 262 C 191.830 262, 189.832 260.923, 188.515 259.606 C 187.198 258.289, 185.869 257.464, 185.561 257.773 M 170.500 259.868 C 172.586 260.308, 173.957 261.483, 175 263.728 C 175.825 265.504, 176.968 266.966, 177.540 266.978 C 179.821 267.026, 187 274.378, 187 276.668 C 187 278.333, 187.572 279, 189 279 C 191.595 279, 195 282.431, 195 285.045 C 195 286.170, 193.902 288.188, 192.561 289.530 C 190.438 291.653, 190.327 292.084, 191.705 292.855 C 192.737 293.432, 194.217 293.209, 195.951 292.214 C 199.427 290.218, 203.721 291.293, 205.195 294.528 C 205.814 295.887, 206.889 297, 207.584 297 C 208.278 297, 210.157 298.103, 211.758 299.450 L 214.670 301.900 213.591 298.450 C 212.884 296.194, 211.888 295, 210.710 295 C 208.033 295, 204 290.473, 204 287.469 C 204 285.910, 205.173 283.673, 206.891 281.955 C 209.293 279.553, 209.547 278.869, 208.391 277.910 C 207.626 277.275, 207 276.119, 207 275.342 C 207 274.565, 206.268 272.813, 205.374 271.447 C 204.108 269.515, 203.446 269.215, 202.387 270.094 C 200.898 271.329, 196 270.521, 196 269.040 C 196 268.533, 194.827 268.727, 193.394 269.470 C 188.464 272.028, 182.737 267.787, 183.809 262.371 C 183.958 261.614, 182.613 261.402, 179.727 261.727 C 176.552 262.085, 175.071 261.791, 174.088 260.606 C 173.355 259.723, 171.573 259.053, 170.128 259.118 C 167.600 259.232, 167.614 259.261, 170.500 259.868 M 310.570 272.204 C 309.257 274.078, 309.228 274.713, 310.378 276.454 C 312.115 279.084, 315.304 279.553, 317.375 277.482 C 319.421 275.436, 319.438 273.581, 317.429 271.571 C 315.215 269.358, 312.380 269.620, 310.570 272.204 M 249.661 275.822 C 248.747 276.832, 248 278.565, 248 279.674 C 248 282.122, 250.976 285, 253.508 285 C 255.820 285, 261.652 286.817, 265.154 288.627 C 268.609 290.414, 271.038 290.362, 273.777 288.443 C 275.789 287.034, 276 287.034, 276 288.443 C 276 293.147, 284.114 295.742, 287.415 292.094 C 291.955 287.077, 286.499 279.241, 280.138 281.642 C 277.367 282.688, 277.168 282.591, 276.636 279.930 C 275.839 275.945, 273.726 275.177, 261.822 274.545 C 252.480 274.049, 251.139 274.189, 249.661 275.822 M 123.073 277.635 C 120.708 280.641, 120.549 281.916, 122.110 285.343 C 123.206 287.749, 126.775 290, 129.491 290 C 130.260 290, 132.109 288.950, 133.601 287.667 C 136.781 284.932, 137.156 279.934, 134.409 276.899 C 131.736 273.945, 125.665 274.339, 123.073 277.635 M 342.443 275.709 C 340.009 276.019, 339.194 276.751, 338.443 279.299 C 337.753 281.642, 336.672 282.744, 334.411 283.411 C 332.185 284.068, 331.068 285.185, 330.411 287.411 C 329.755 289.635, 328.602 290.790, 326.293 291.537 C 323.279 292.511, 323.204 292.646, 325.043 293.795 C 326.119 294.467, 327 295.692, 327 296.517 C 327 297.767, 327.334 297.809, 329 296.768 C 330.100 296.081, 331 294.693, 331 293.683 C 331 291.257, 336.061 286.274, 339.367 285.444 C 341.073 285.016, 343.339 285.453, 345.850 286.696 L 349.710 288.606 350.701 285.982 C 351.577 283.662, 351.363 283.171, 348.845 281.726 C 346.366 280.303, 345.453 278.463, 345.882 275.750 C 345.947 275.337, 345.887 275.072, 345.750 275.160 C 345.613 275.248, 344.124 275.495, 342.443 275.709 M 150.110 283.396 C 143.306 287.167, 143.531 298.643, 150.472 301.805 C 155.203 303.961, 158.914 303.286, 162.600 299.600 C 165.241 296.959, 166 295.375, 166 292.500 C 166 289.625, 165.241 288.041, 162.600 285.400 C 158.864 281.664, 154.499 280.963, 150.110 283.396 M 226 295.918 C 226 296.973, 225.727 298.548, 225.393 299.418 C 224.354 302.125, 226.431 301.134, 227.750 298.293 C 229.372 294.799, 229.326 294, 227.500 294 C 226.675 294, 226 294.863, 226 295.918 M 261.803 306.111 C 262.101 308.141, 261.530 309.531, 259.705 311.222 L 257.198 313.546 259.566 314.663 C 261.577 315.612, 262.025 315.495, 262.535 313.889 C 262.865 312.849, 264.005 311.533, 265.068 310.964 C 268.029 309.379, 267.534 305.640, 264.197 304.380 C 261.503 303.364, 261.410 303.431, 261.803 306.111 M 276.500 311 C 276.160 311.550, 276.557 312, 277.382 312 C 278.207 312, 279.160 311.550, 279.500 311 C 279.840 310.450, 279.443 310, 278.618 310 C 277.793 310, 276.840 310.450, 276.500 311" stroke="none" fill="black" fill-rule="evenodd"/>
</svg>