<?xml version="1.0" encoding="UTF-8" standalone="no"?>
<svg
   xmlns="http://www.w3.org/2000/svg"
   version="1.1"
   id="svg10"
   width="1505.2489"
   height="398.04736"
   viewBox="0 0 1505.2489 398.04736">
  <title
     id="title754">Caspita</title>
  <defs
     id="defs14">
    <rect
       x="545.50586"
       y="102.77647"
       width="860.61176"
       height="347.85883"
       id="rect4383" />
  </defs>
  <g
     id="g18"
     transform="translate(-49.143921,-39.863143)">
    <path
       style="fill:#940b98;fill-opacity:0.976471"
       id="path53"
       d="m 70.357124,255.00038 a 10.606602,10.69499 0 0 1 -10.606231,10.69499 10.606602,10.69499 0 0 1 -10.606972,-10.69424 10.606602,10.69499 0 0 1 10.605491,-10.69574 10.606602,10.69499 0 0 1 10.607712,10.6935 l -10.606601,0.001 z" />
    <path
       style="fill:#2b5cee;fill-opacity:0.870588"
       id="path63"
       d="m 98.111069,236.43883 a 10.429825,10.518213 0 0 1 -10.429461,10.51821 10.429825,10.518213 0 0 1 -10.430189,-10.51748 10.429825,10.518213 0 0 1 10.428733,-10.51895 10.429825,10.518213 0 0 1 10.430917,10.51675 l -10.429825,10e-4 z" />
    <path
       style="fill:#4ebde6;fill-opacity:0.980392"
       id="path71"
       d="m 123.21336,236.96916 a 14.849242,14.053747 0 0 1 -14.84873,14.05375 14.849242,14.053747 0 0 1 -14.849759,-14.05277 14.849242,14.053747 0 0 1 14.847689,-14.05473 14.849242,14.053747 0 0 1 14.85079,14.05179 l -14.84924,0.002 z" />
    <path
       style="fill:#cd31d2;fill-opacity:0.980392"
       id="path75"
       d="m 131.16831,214.07658 a 10.871767,10.960155 0 0 1 -10.87139,10.96016 10.871767,10.960155 0 0 1 -10.87215,-10.95939 10.871767,10.960155 0 0 1 10.87063,-10.96092 10.871767,10.960155 0 0 1 10.87291,10.95862 l -10.87177,0.002 z" />
    <path
       style="fill:#940b98;fill-opacity:0.980392"
       id="path77"
       d="m 150.9673,216.19789 a 11.136931,10.960155 0 0 1 -11.13654,10.96016 11.136931,10.960155 0 0 1 -11.13732,-10.95939 11.136931,10.960155 0 0 1 11.13576,-10.96092 11.136931,10.960155 0 0 1 11.1381,10.95862 l -11.13693,0.002 z" />
    <path
       style="fill:#c2b6c2;fill-opacity:0.984314"
       id="path79"
       d="m 135.7645,188.44395 a 10.606602,10.253048 0 0 1 -10.60623,10.25305 10.606602,10.253048 0 0 1 -10.60697,-10.25233 10.606602,10.253048 0 0 1 10.60549,-10.25376 10.606602,10.253048 0 0 1 10.60771,10.25161 l -10.6066,0.001 z" />
    <path
       style="fill:#2b5cee;fill-opacity:0.980392"
       id="path81"
       d="m 116.14229,174.74376 a 10.960155,10.871767 0 0 1 -10.95977,10.87177 10.960155,10.871767 0 0 1 -10.960538,-10.87101 10.960155,10.871767 0 0 1 10.959008,-10.87253 10.960155,10.871767 0 0 1 10.9613,10.87025 l -10.96015,0.002 z" />
    <path
       style="fill:#e014d9;fill-opacity:0.980392"
       id="path87"
       d="m 131.69864,138.06259 a 12.374369,12.374369 0 0 1 -12.37394,12.37437 12.374369,12.374369 0 0 1 -12.3748,-12.3735 12.374369,12.374369 0 0 1 12.37308,-12.37524 12.374369,12.374369 0 0 1 12.37566,12.37264 l -12.37437,0.002 z" />
    <path
       style="fill:#000000;fill-opacity:0"
       id="path89"
       d="m 154.14928,122.8598 a 10.871767,10.606602 0 0 1 -10.87139,10.6066 10.871767,10.606602 0 0 1 -10.87215,-10.60586 10.871767,10.606602 0 0 1 10.87063,-10.60734 10.871767,10.606602 0 0 1 10.87291,10.60512 l -10.87177,10e-4 z" />
    <path
       style="fill:#14bba5;fill-opacity:0.984314"
       id="path93"
       d="m 193.3937,132.49413 a 8.9272232,8.7504463 0 0 1 -8.92691,8.75044 8.9272232,8.7504463 0 0 1 -8.92754,-8.74983 8.9272232,8.7504463 0 0 1 8.92629,-8.75106 8.9272232,8.7504463 0 0 1 8.92816,8.74922 l -8.92722,0.001 z" />
    <path
       style="fill:#e014d8;fill-opacity:0.984314"
       id="path101"
       d="m 207.00551,121.40139 a 11.269517,11.092734 0 0 1 -11.26912,11.09273 11.269517,11.092734 0 0 1 -11.26991,-11.09196 11.269517,11.092734 0 0 1 11.26833,-11.0935 11.269517,11.092734 0 0 1 11.2707,11.09118 l -11.26952,0.002 z" />
    <path
       style="fill:#d63ff0;fill-opacity:0.984314"
       id="path103"
       d="m 201.34866,104.38663 a 14.230524,13.87697 0 0 1 -14.23003,13.87697 14.230524,13.87697 0 0 1 -14.23102,-13.876 14.230524,13.87697 0 0 1 14.22903,-13.877943 14.230524,13.87697 0 0 1 14.23202,13.875033 l -14.23053,0.002 z" />
    <path
       style="fill:#c2b6c2;fill-opacity:0.984314"
       id="path105"
       d="m 152.73507,123.39014 a 9.3691645,9.5459414 0 0 1 -9.36884,9.54594 9.3691645,9.5459414 0 0 1 -9.36949,-9.54528 9.3691645,9.5459414 0 0 1 9.36818,-9.5466 9.3691645,9.5459414 0 0 1 9.37015,9.5446 l -9.36916,10e-4 z" />
    <path
       style="fill:#f20ce7;fill-opacity:0.980392"
       id="path107"
       d="m 226.98128,108.36411 a 8.7504463,9.0156116 0 0 1 -8.75014,9.01561 8.7504463,9.0156116 0 0 1 -8.75075,-9.01498 8.7504463,9.0156116 0 0 1 8.74953,-9.016239 8.7504463,9.0156116 0 0 1 8.75136,9.014349 l -8.75045,0.001 z" />
    <path
       style="fill:#050f98;fill-opacity:0.984314"
       id="path109"
       d="m 230.16325,87.32769 a 14.142136,14.495689 0 0 1 -14.14164,14.49569 14.142136,14.495689 0 0 1 -14.14263,-14.494678 14.142136,14.495689 0 0 1 14.14066,-14.496701 14.142136,14.495689 0 0 1 14.14361,14.493665 l -14.14213,0.002 z" />
    <path
       style="fill:#f20ce7;fill-opacity:0.980392"
       id="path111"
       d="m 263.9276,69.473244 a 8.5736694,9.0156116 0 0 1 -8.57337,9.015611 8.5736694,9.0156116 0 0 1 -8.57397,-9.014982 8.5736694,9.0156116 0 0 1 8.57277,-9.016241 8.5736694,9.0156116 0 0 1 8.57457,9.014353 l -8.57367,0.0013 z" />
    <path
       style="fill:#f20be7;fill-opacity:0.792157"
       id="path113"
       d="m 268.34701,103.76792 a 7.6897864,7.2478447 0 0 1 -7.68952,7.24785 7.6897864,7.2478447 0 0 1 -7.69005,-7.24734 7.6897864,7.2478447 0 0 1 7.68898,-7.248353 7.6897864,7.2478447 0 0 1 7.69059,7.246833 l -7.68978,0.001 z" />
    <path
       style="fill:#e014d9;fill-opacity:0.980392"
       id="path117"
       d="m 266.40248,96.166519 a 11.313708,12.020815 0 0 1 -11.31331,12.020811 11.313708,12.020815 0 0 1 -11.3141,-12.019972 11.313708,12.020815 0 0 1 11.31252,-12.021654 11.313708,12.020815 0 0 1 11.31489,12.019137 l -11.3137,0.0017 z" />
    <path
       style="fill:#1b2671;fill-opacity:0.921569"
       id="path119"
       d="m 270.11479,99.43689 a 7.5130095,7.5130095 0 0 1 -7.51275,7.51301 7.5130095,7.5130095 0 0 1 -7.51327,-7.512486 7.5130095,7.5130095 0 0 1 7.51222,-7.513534 7.5130095,7.5130095 0 0 1 7.5138,7.511961 l -7.51301,0.001 z" />
    <path
       style="fill:#f20ce7;fill-opacity:0.858824"
       id="path121"
       d="m 258.375,120 a 8.625,9 0 0 1 -8.6247,9 8.625,9 0 0 1 -8.6253,-8.99937 8.625,9 0 0 1 8.6241,-9.00063 8.625,9 0 0 1 8.6259,8.99874 L 249.75,120 Z" />
    <path
       style="fill:#232ee9;fill-opacity:0.878431"
       id="path123"
       d="m 290.125,110.5 a 9.3125,9.375 0 0 1 -9.31217,9.375 9.3125,9.375 0 0 1 -9.31283,-9.37435 9.3125,9.375 0 0 1 9.31152,-9.37565 9.3125,9.375 0 0 1 9.31348,9.37369 l -9.3125,0.001 z" />
    <path
       style="fill:#d653ee;fill-opacity:0.980392"
       id="path125"
       d="M 281.75,122.875 A 13.4375,13.875 0 0 1 268.31297,136.75 13.4375,13.875 0 0 1 254.875,122.87597 13.4375,13.875 0 0 1 268.31109,109 13.4375,13.875 0 0 1 281.75,122.87306 l -13.4375,0.002 z" />
    <path
       style="fill:#f20ce7;fill-opacity:0.866667"
       id="path127"
       d="m 241.56535,133.06866 a 8.8388348,9.0598059 0 0 1 -8.83852,9.05981 8.8388348,9.0598059 0 0 1 -8.83915,-9.05917 8.8388348,9.0598059 0 0 1 8.83791,-9.06044 8.8388348,9.0598059 0 0 1 8.83976,9.05854 l -8.83883,0.001 z" />
    <path
       style="fill:#2a9155;fill-opacity:0.980392"
       id="path129"
       d="m 260.9224,147.07822 a 7.9107571,8.6620579 0 0 1 -7.91048,8.66205 7.9107571,8.6620579 0 0 1 -7.91103,-8.66145 7.9107571,8.6620579 0 0 1 7.90992,-8.66266 7.9107571,8.6620579 0 0 1 7.91159,8.66085 l -7.91076,0.001 z" />
    <path
       style="fill:#1f8f78;fill-opacity:0.980392"
       id="path131"
       d="m 267.81669,148.58081 a 7.2478447,7.4246211 0 0 1 -7.24759,7.42462 7.2478447,7.4246211 0 0 1 -7.2481,-7.4241 7.2478447,7.4246211 0 0 1 7.24709,-7.42514 7.2478447,7.4246211 0 0 1 7.2486,7.42358 l -7.24784,0.001 z" />
    <path
       style="fill:#1f8e78;fill-opacity:0.866667"
       id="path133"
       d="m 214.16498,140.13972 a 7.2920384,7.4688153 0 0 1 -7.29179,7.46882 7.2920384,7.4688153 0 0 1 -7.29229,-7.46829 7.2920384,7.4688153 0 0 1 7.29128,-7.46934 7.2920384,7.4688153 0 0 1 7.2928,7.46777 l -7.29204,0.001 z" />
    <path
       style="fill:#2b5cee;fill-opacity:0.980392"
       id="path135"
       d="m 226.22998,149.70776 a 10.672893,9.7890091 0 0 1 -10.67252,9.78901 10.672893,9.7890091 0 0 1 -10.67327,-9.78832 10.672893,9.7890091 0 0 1 10.67178,-9.7897 10.672893,9.7890091 0 0 1 10.67401,9.78765 l -10.6729,0.001 z" />
    <path
       style="fill:#f20ce7;fill-opacity:0.980392"
       id="path139"
       d="m 205.875,164.75 a 9.09375,9.4375 0 0 1 -9.09343,9.4375 9.09375,9.4375 0 0 1 -9.09407,-9.43684 9.09375,9.4375 0 0 1 9.0928,-9.43816 9.09375,9.4375 0 0 1 9.0947,9.43618 l -9.09375,0.001 z" />
    <path
       style="fill:#14bba5;fill-opacity:0.866667"
       id="path141"
       d="m 185.8125,193.84375 a 8.75,8.53125 0 0 1 -8.74969,8.53125 8.75,8.53125 0 0 1 -8.75031,-8.53065 8.75,8.53125 0 0 1 8.74908,-8.53185 8.75,8.53125 0 0 1 8.75092,8.53006 l -8.75,0.001 z" />
    <path
       style="fill:#e014d9;fill-opacity:0.866667"
       id="path143"
       d="M 199.8125,180.4375 A 11.375,11.4375 0 0 1 188.4379,191.875 11.375,11.4375 0 0 1 177.0625,180.4383 11.375,11.4375 0 0 1 188.43631,169 11.375,11.4375 0 0 1 199.8125,180.4359 l -11.375,0.002 z" />
    <path
       style="fill:#940b98;fill-opacity:0.980392"
       id="path145"
       d="M 195.8125,162.46875 A 10.84375,11.15625 0 0 1 184.96913,173.625 10.84375,11.15625 0 0 1 174.125,162.46953 10.84375,11.15625 0 0 1 184.96761,151.3125 10.84375,11.15625 0 0 1 195.8125,162.46719 l -10.84375,0.002 z" />
    <path
       style="fill:#e014d9;fill-opacity:0.980392"
       id="path149"
       d="m 171.625,179.25 a 11.59375,11.9375 0 0 1 -11.59335,11.9375 11.59375,11.9375 0 0 1 -11.59415,-11.93667 11.59375,11.9375 0 0 1 11.59254,-11.93833 11.59375,11.9375 0 0 1 11.59496,11.93583 l -11.59375,0.002 z" />
    <path
       style="fill:#323eac;fill-opacity:0.858824"
       id="path151"
       d="m 174.8125,220.28125 a 11.5,11.46875 0 0 1 -11.4996,11.46875 11.5,11.46875 0 0 1 -11.5004,-11.46795 11.5,11.46875 0 0 1 11.4988,-11.46955 11.5,11.46875 0 0 1 11.5012,11.46715 l -11.5,0.002 z" />
    <path
       style="fill:#4ebde6;fill-opacity:0.980392"
       id="path153"
       d="M 92.125,306.8125 A 14.5,14.3125 0 0 1 77.625506,321.125 14.5,14.3125 0 0 1 63.125,306.8135 14.5,14.3125 0 0 1 77.623482,292.5 14.5,14.3125 0 0 1 92.125,306.8105 l -14.5,0.002 z" />
    <path
       style="fill:#e7f0ef;fill-opacity:0.980392"
       id="path157"
       d="M 129.125,290.1875 A 8.8125,8.8125 0 0 1 120.31281,299 8.8125,8.8125 0 0 1 111.5,290.18812 a 8.8125,8.8125 0 0 1 8.81158,-8.81312 8.8125,8.8125 0 0 1 8.81342,8.81127 l -8.8125,0.001 z" />
    <path
       style="fill:#e014d9;fill-opacity:0.980392"
       id="path159"
       d="M 118.5,283.5625 A 12,12.1875 0 0 1 106.50042,295.75 12,12.1875 0 0 1 94.5,283.56335 12,12.1875 0 0 1 106.49874,271.375 12,12.1875 0 0 1 118.5,283.5608 l -12,0.002 z" />
    <path
       style="fill:#f20ce7;fill-opacity:0.866667"
       id="path161"
       d="m 161.875,288 a 9.5,9.25 0 0 1 -9.49967,9.25 9.5,9.25 0 0 1 -9.50033,-9.24935 9.5,9.25 0 0 1 9.49901,-9.25065 9.5,9.25 0 0 1 9.50099,9.24871 l -9.5,10e-4 z" />
    <path
       style="fill:#323eac;fill-opacity:0.980392"
       id="path163"
       d="M 158.75,277.4375 A 11.5625,11.5625 0 0 1 147.1879,289 11.5625,11.5625 0 0 1 135.625,277.43831 11.5625,11.5625 0 0 1 147.18629,265.875 11.5625,11.5625 0 0 1 158.75,277.43589 l -11.5625,0.002 z" />
    <path
       style="fill:#4ebde6;fill-opacity:0.980392"
       id="path170"
       d="M 180.375,275.5 A 13.5,14.25 0 0 1 166.87547,289.75 13.5,14.25 0 0 1 153.375,275.50099 13.5,14.25 0 0 1 166.87359,261.25 13.5,14.25 0 0 1 180.375,275.49801 l -13.5,0.002 z" />
    <path
       style="fill:#14bba5;fill-opacity:0.866667"
       id="path172"
       d="M 167.5,252.375 A 9,8.875 0 0 1 158.50031,261.25 9,8.875 0 0 1 149.5,252.37562 9,8.875 0 0 1 158.49906,243.5 9,8.875 0 0 1 167.5,252.37376 l -9,0.001 z" />
    <path
       style="fill:#cd31d2;fill-opacity:0.980392"
       id="path174"
       d="M 129,340.625 A 10.75,10.625 0 0 1 118.25038,351.25 10.75,10.625 0 0 1 107.5,340.62574 10.75,10.625 0 0 1 118.24887,330 10.75,10.625 0 0 1 129,340.62352 l -10.75,0.001 z" />
    <path
       style="fill:#e7f0ef;fill-opacity:0.866667"
       id="path176"
       d="m 162.125,324.625 a 8.75,8.75 0 0 1 -8.74969,8.75 8.75,8.75 0 0 1 -8.75031,-8.74939 8.75,8.75 0 0 1 8.74908,-8.75061 8.75,8.75 0 0 1 8.75092,8.74878 l -8.75,10e-4 z" />
    <path
       style="fill:#c2b5c2;fill-opacity:0.866667"
       id="path178"
       d="M 172.375,318.0625 A 10.75,10.6875 0 0 1 161.62538,328.75 10.75,10.6875 0 0 1 150.875,318.06325 10.75,10.6875 0 0 1 161.62387,307.375 10.75,10.6875 0 0 1 172.375,318.06101 l -10.75,10e-4 z" />
    <path
       style="fill:#f20ce7;fill-opacity:0.862745"
       id="path180"
       d="M 176.125,345.5 A 9.375,9.5 0 0 1 166.75033,355 9.375,9.5 0 0 1 157.375,345.50066 9.375,9.5 0 0 1 166.74902,336 9.375,9.5 0 0 1 176.125,345.49867 L 166.75,345.5 Z" />
    <path
       style="fill:#e7f0ef;fill-opacity:0.866667"
       id="path182"
       d="m 207.875,316.625 a 9.8125,9.5 0 0 1 -9.81216,9.5 9.8125,9.5 0 0 1 -9.81284,-9.49934 9.8125,9.5 0 0 1 9.81147,-9.50066 9.8125,9.5 0 0 1 9.81353,9.49867 l -9.8125,10e-4 z" />
    <path
       style="fill:#0c0c60;fill-opacity:0.980392"
       id="path184"
       d="M 223,319.6875 A 12.5,12.5625 0 0 1 210.50044,332.25 12.5,12.5625 0 0 1 198,319.68838 12.5,12.5625 0 0 1 210.49869,307.125 12.5,12.5625 0 0 1 223,319.68575 l -12.5,0.002 z" />
    <path
       style="fill:#2b5cee;fill-opacity:0.984314"
       id="path186"
       d="M 207.5,334.875 A 11.0625,10.875 0 0 1 196.43789,345.75 11.0625,10.875 0 0 1 185.375,334.87576 11.0625,10.875 0 0 1 196.43634,324 11.0625,10.875 0 0 1 207.5,334.87348 l -11.0625,0.002 z" />
    <path
       style="fill:#b433db;fill-opacity:0.984314"
       id="path188"
       d="m 244.25,321.875 a 9,9 0 0 1 -8.99969,9 9,9 0 0 1 -9.00031,-8.99937 9,9 0 0 1 8.99906,-9.00063 9,9 0 0 1 9.00094,8.99874 l -9,10e-4 z" />
    <path
       style="fill:#ead924;fill-opacity:0.870588"
       id="path190"
       d="m 235.25,312.5 a 9.0625,9.375 0 0 1 -9.06218,9.375 9.0625,9.375 0 0 1 -9.06282,-9.37435 9.0625,9.375 0 0 1 9.06155,-9.37565 9.0625,9.375 0 0 1 9.06345,9.37369 l -9.0625,10e-4 z" />
    <path
       style="fill:#ec14da;fill-opacity:0.862745"
       id="path192"
       d="M 275.375,321.375 A 8.4375,8.625 0 0 1 266.93779,330 8.4375,8.625 0 0 1 258.5,321.3756 a 8.4375,8.625 0 0 1 8.43662,-8.6256 8.4375,8.625 0 0 1 8.43838,8.6238 l -8.4375,10e-4 z" />
    <path
       style="fill:#1f8f78;fill-opacity:0.980392"
       id="path194"
       d="m 257.875,295.25 a 7.4375,7.5 0 0 1 -7.43724,7.5 7.4375,7.5 0 0 1 -7.43776,-7.49948 7.4375,7.5 0 0 1 7.43672,-7.50052 7.4375,7.5 0 0 1 7.43828,7.49895 l -7.4375,0.001 z" />
    <path
       style="fill:#eb14da;fill-opacity:0.854902"
       id="path196"
       d="M 272.5,289.375 A 7.5,7.125 0 0 1 265.00026,296.5 7.5,7.125 0 0 1 257.5,289.3755 7.5,7.125 0 0 1 264.99921,282.25 7.5,7.125 0 0 1 272.5,289.37401 L 265,289.375 Z" />
    <path
       style="fill:#0d2969;fill-opacity:0.862745"
       id="path198"
       d="m 263.375,297.125 a 6.75,6.75 0 0 1 -6.74976,6.75 6.75,6.75 0 0 1 -6.75024,-6.74953 6.75,6.75 0 0 1 6.74929,-6.75047 6.75,6.75 0 0 1 6.75071,6.74906 l -6.75,9.4e-4 z" />
    <path
       style="fill:#0c0c60;fill-opacity:0.980392"
       id="path200"
       d="M 268.375,312.375 A 12.3125,12.25 0 0 1 256.06293,324.625 12.3125,12.25 0 0 1 243.75,312.37586 12.3125,12.25 0 0 1 256.06121,300.125 12.3125,12.25 0 0 1 268.375,312.37329 l -12.3125,0.002 z" />
    <path
       style="fill:#d509ef;fill-opacity:0.858824"
       id="path202"
       d="m 259.625,320.5625 a 9,8.9375 0 0 1 -8.99969,8.9375 9,8.9375 0 0 1 -9.00031,-8.93688 9,8.9375 0 0 1 8.99906,-8.93812 9,8.9375 0 0 1 9.00094,8.93625 l -9,0.001 z" />
    <path
       style="fill:#14bba5;fill-opacity:0.980392"
       id="path204"
       d="m 219.625,177.875 a 9.125,9.375 0 0 1 -9.12468,9.375 9.125,9.375 0 0 1 -9.12532,-9.37435 9.125,9.375 0 0 1 9.12404,-9.37565 9.125,9.375 0 0 1 9.12596,9.37369 l -9.125,10e-4 z" />
    <path
       style="fill:#242eea;fill-opacity:0.980392"
       id="path206"
       d="m 248.28287,162.98811 a 9.4575529,9.280776 0 0 1 -9.45722,9.28078 9.4575529,9.280776 0 0 1 -9.45789,-9.28013 9.4575529,9.280776 0 0 1 9.45657,-9.28142 9.4575529,9.280776 0 0 1 9.45854,9.27948 l -9.45755,0.001 z" />
    <path
       style="fill:#1f8f79;fill-opacity:0.862745"
       id="path208"
       d="m 241.74214,178.67705 a 7.9991455,7.9991455 0 0 1 -7.99886,7.99914 7.9991455,7.9991455 0 0 1 -7.99943,-7.99858 7.9991455,7.9991455 0 0 1 7.99831,-7.99971 7.9991455,7.9991455 0 0 1 7.99998,7.99803 l -7.99914,0.001 z" />
    <path
       style="fill:#e7d824;fill-opacity:0.890196"
       id="path210"
       d="m 247.66414,168.60077 a 9.4575529,9.3249702 0 0 1 -9.45722,9.32497 9.4575529,9.3249702 0 0 1 -9.45788,-9.32432 9.4575529,9.3249702 0 0 1 9.45656,-9.32562 9.4575529,9.3249702 0 0 1 9.45854,9.32367 l -9.45755,0.001 z" />
    <path
       style="fill:#1d248c;fill-opacity:0.980392"
       id="path224"
       d="m 263.04373,195.16147 a 7.3804269,7.1594563 0 0 1 -7.38017,7.15945 7.3804269,7.1594563 0 0 1 -7.38069,-7.15895 7.3804269,7.1594563 0 0 1 7.37966,-7.15996 7.3804269,7.1594563 0 0 1 7.3812,7.15846 l -7.38043,0.001 z" />
    <path
       style="fill:#e5eeee;fill-opacity:0.878431"
       id="path228"
       d="m 260.125,200.6875 a 7.9375,7.5625 0 0 1 -7.93722,7.5625 7.9375,7.5625 0 0 1 -7.93778,-7.56197 7.9375,7.5625 0 0 1 7.93667,-7.56303 7.9375,7.5625 0 0 1 7.93833,7.56144 l -7.9375,0.001 z" />
    <path
       style="fill:#2a9054;fill-opacity:0.984314"
       id="path230"
       d="m 261.3125,179.0625 a 8.625,8.625 0 0 1 -8.6247,8.625 8.625,8.625 0 0 1 -8.6253,-8.6244 8.625,8.625 0 0 1 8.6241,-8.6256 8.625,8.625 0 0 1 8.6259,8.6238 l -8.625,0.001 z" />
    <path
       style="fill:#1f8f78;fill-opacity:0.996078"
       id="path232"
       d="m 251.5,193.25 a 8.21875,8.5625 0 0 1 -8.21846,8.5625 8.21875,8.5625 0 0 1 -8.21904,-8.5619 8.21875,8.5625 0 0 1 8.21789,-8.5631 8.21875,8.5625 0 0 1 8.21961,8.5613 l -8.21875,0.001 z" />
    <path
       style="fill:#2b5cee;fill-opacity:0.984314"
       id="path234"
       d="m 236.4375,194.0625 a 10.6875,10.625 0 0 1 -10.68713,10.625 10.6875,10.625 0 0 1 -10.68787,-10.62426 10.6875,10.625 0 0 1 10.68638,-10.62574 10.6875,10.625 0 0 1 10.68862,10.62352 l -10.6875,10e-4 z" />
    <path
       style="fill:#f20ce7;fill-opacity:0.866667"
       id="path236"
       d="m 211.69009,200.81833 a 8.8388348,9.1040001 0 0 1 -8.83852,9.104 8.8388348,9.1040001 0 0 1 -8.83915,-9.10337 8.8388348,9.1040001 0 0 1 8.83791,-9.10463 8.8388348,9.1040001 0 0 1 8.83976,9.10273 l -8.83883,0.001 z" />
    <path
       style="fill:#0c0c60;fill-opacity:0.980392"
       id="path238"
       d="m 225.56706,231.66586 a 11.578874,11.755651 0 0 1 -11.57847,11.75565 11.578874,11.755651 0 0 1 -11.57927,-11.75483 11.578874,11.755651 0 0 1 11.57766,-11.75647 11.578874,11.755651 0 0 1 11.58008,11.75401 l -11.57887,0.002 z" />
    <path
       style="fill:#df13d8;fill-opacity:0.823529"
       id="path240"
       d="m 217.96567,228.79323 a 11.00435,10.915961 0 0 1 -11.00397,10.91596 11.00435,10.915961 0 0 1 -11.00473,-10.9152 11.00435,10.915961 0 0 1 11.0032,-10.91672 11.00435,10.915961 0 0 1 11.0055,10.91443 l -11.00435,0.002 z" />
    <path
       style="fill:#930a98;fill-opacity:0.882353"
       id="path242"
       d="m 205.5913,224.68318 a 10.16466,10.606602 0 0 1 -10.16431,10.6066 10.16466,10.606602 0 0 1 -10.16501,-10.60586 10.16466,10.606602 0 0 1 10.16359,-10.60734 10.16466,10.606602 0 0 1 10.16573,10.60512 l -10.16466,0.001 z" />
    <path
       style="fill:#ead823;fill-opacity:0.854902"
       id="path244"
       d="m 227.42322,218.89374 a 8.5736694,8.6178637 0 0 1 -8.57337,8.61786 8.5736694,8.6178637 0 0 1 -8.57397,-8.61726 8.5736694,8.6178637 0 0 1 8.57277,-8.61847 8.5736694,8.6178637 0 0 1 8.57457,8.61666 l -8.57367,0.001 z" />
    <path
       style="fill:#080e82;fill-opacity:0.862745"
       id="path246"
       d="m 240.59308,215.66757 a 8.6178637,8.6620579 0 0 1 -8.61756,8.66206 8.6178637,8.6620579 0 0 1 -8.61816,-8.66145 8.6178637,8.6620579 0 0 1 8.61696,-8.66267 8.6178637,8.6620579 0 0 1 8.61876,8.66085 l -8.61786,0.001 z" />
    <path
       style="fill:#1e8f77;fill-opacity:0.854902"
       id="path248"
       d="m 240.59308,229.8539 a 7.6897864,8.087534 0 0 1 -7.68952,8.08753 7.6897864,8.087534 0 0 1 -7.69006,-8.08697 7.6897864,8.087534 0 0 1 7.68898,-8.0881 7.6897864,8.087534 0 0 1 7.6906,8.08641 l -7.68979,0.001 z" />
    <path
       style="fill:#d50aef;fill-opacity:0.980392"
       id="path250"
       d="m 251.55323,223.44574 a 8.6620579,8.9272232 0 0 1 -8.66175,8.92722 8.6620579,8.9272232 0 0 1 -8.66236,-8.9266 8.6620579,8.9272232 0 0 1 8.66115,-8.92784 8.6620579,8.9272232 0 0 1 8.66296,8.92597 l -8.66206,0.001 z" />
    <path
       style="fill:#323eac;fill-opacity:0.980392"
       id="path252"
       d="m 202.32092,250.93452 a 11.711456,11.578874 0 0 1 -11.71104,11.57888 11.711456,11.578874 0 0 1 -11.71187,-11.57807 11.711456,11.578874 0 0 1 11.71023,-11.57968 11.711456,11.578874 0 0 1 11.71268,11.57726 l -11.71145,0.002 z" />
    <path
       style="fill:#242eea;fill-opacity:0.866667"
       id="path254"
       d="m 233.87556,255.17715 a 8.8388348,9.1923885 0 0 1 -8.83852,9.19239 8.8388348,9.1923885 0 0 1 -8.83915,-9.19174 8.8388348,9.1923885 0 0 1 8.83791,-9.19303 8.8388348,9.1923885 0 0 1 8.83976,9.1911 l -8.83883,0.001 z" />
    <path
       style="fill:#2a7a90;fill-opacity:0.866667"
       id="path256"
       d="m 264.01599,235.24559 a 8.4410868,8.2643108 0 0 1 -8.44079,8.26431 8.4410868,8.2643108 0 0 1 -8.44138,-8.26373 8.4410868,8.2643108 0 0 1 8.4402,-8.26489 8.4410868,8.2643108 0 0 1 8.44197,8.26316 l -8.44108,0.001 z" />
    <path
       style="fill:#4ebde6;fill-opacity:0.980392"
       id="path258"
       d="m 255.88427,247.00124 a 14.805048,13.567612 0 0 1 -14.80453,13.56761 14.805048,13.567612 0 0 1 -14.80556,-13.56667 14.805048,13.567612 0 0 1 14.80349,-13.56856 14.805048,13.567612 0 0 1 14.8066,13.56572 l -14.80505,0.002 z" />
    <path
       style="fill:#ead924;fill-opacity:0.866667"
       id="path260"
       d="m 223.0038,267.99347 a 9.1040001,8.9272232 0 0 1 -9.10369,8.92722 9.1040001,8.9272232 0 0 1 -9.10431,-8.9266 9.1040001,8.9272232 0 0 1 9.10304,-8.92784 9.1040001,8.9272232 0 0 1 9.10496,8.92597 l -9.104,0.001 z" />
    <path
       style="fill:#2b5cee;fill-opacity:0.980392"
       id="path262"
       d="m 206.2984,268.56799 a 10.16466,10.385631 0 0 1 -10.1643,10.38563 10.16466,10.385631 0 0 1 -10.16502,-10.3849 10.16466,10.385631 0 0 1 10.1636,-10.38636 10.16466,10.385631 0 0 1 10.16572,10.38418 l -10.16466,0.001 z" />
    <path
       style="fill:#f29c13;fill-opacity:0.862745"
       id="path264"
       d="m 243.86345,281.51688 a 9.280776,8.8388348 0 0 1 -9.28045,8.83883 9.280776,8.8388348 0 0 1 -9.2811,-8.83822 9.280776,8.8388348 0 0 1 9.2798,-8.83945 9.280776,8.8388348 0 0 1 9.28175,8.8376 l -9.28078,10e-4 z" />
    <path
       style="fill:#1f8f78;fill-opacity:0.980392"
       id="path266"
       d="m 228.92583,283.94757 a 7.9991455,8.3526993 0 0 1 -7.99887,8.3527 7.9991455,8.3526993 0 0 1 -7.99942,-8.35212 7.9991455,8.3526993 0 0 1 7.9983,-8.35328 7.9991455,8.3526993 0 0 1 7.99999,8.35153 l -7.99915,0.001 z" />
    <path
       style="fill:#f29c12;fill-opacity:0.866667"
       id="path268"
       d="m 215.75596,289.95798 a 8.9714174,8.7946405 0 0 1 -8.9711,8.79464 8.9714174,8.7946405 0 0 1 -8.97173,-8.79403 8.9714174,8.7946405 0 0 1 8.97048,-8.79525 8.9714174,8.7946405 0 0 1 8.97235,8.79341 l -8.97141,10e-4 z" />
    <path
       style="fill:#2a9155;fill-opacity:0.862745"
       id="path270"
       d="m 204.0887,280.14688 a 8.9714174,8.6178637 0 0 1 -8.97111,8.61786 8.9714174,8.6178637 0 0 1 -8.97173,-8.61726 8.9714174,8.6178637 0 0 1 8.97048,-8.61846 8.9714174,8.6178637 0 0 1 8.97236,8.61666 l -8.97142,10e-4 z" />
    <path
       style="fill:#2b5cee;fill-opacity:0.980392"
       id="path272"
       d="M 184.375,376.96875 A 10.9375,10.78125 0 0 1 173.43788,387.75 10.9375,10.78125 0 0 1 162.5,376.9695 a 10.9375,10.78125 0 0 1 10.93635,-10.782 10.9375,10.78125 0 0 1 10.93865,10.77974 l -10.9375,0.002 z" />
    <path
       style="fill:#e7f0ef;fill-opacity:0.866667"
       id="path274"
       d="m 206.75,368.8125 a 9.21875,9.25 0 0 1 -9.21843,9.25 9.21875,9.25 0 0 1 -9.21907,-9.24935 9.21875,9.25 0 0 1 9.21778,-9.25065 9.21875,9.25 0 0 1 9.21972,9.24871 l -9.21875,10e-4 z" />
    <path
       style="fill:#f20ce7;fill-opacity:0.980392"
       id="path279"
       d="M 224,360.9375 A 9.25,9.1875 0 0 1 214.75032,370.125 9.25,9.1875 0 0 1 205.5,360.93814 9.25,9.1875 0 0 1 214.74903,351.75 9.25,9.1875 0 0 1 224,360.93622 l -9.25,0.001 z" />
    <path
       style="fill:#b638e7;fill-opacity:0.87451"
       id="path283"
       d="m 236.625,356.625 a 9.5,9.25 0 0 1 -9.49967,9.25 9.5,9.25 0 0 1 -9.50033,-9.24935 9.5,9.25 0 0 1 9.49901,-9.25065 9.5,9.25 0 0 1 9.50099,9.24871 l -9.5,10e-4 z" />
    <path
       style="fill:#23917a;fill-opacity:1"
       id="path285"
       d="m 227.75,342.9375 a 8.0625,7.8125 0 0 1 -8.06222,7.8125 8.0625,7.8125 0 0 1 -8.06278,-7.81195 8.0625,7.8125 0 0 1 8.06166,-7.81305 8.0625,7.8125 0 0 1 8.06334,7.81141 l -8.0625,10e-4 z" />
    <path
       style="fill:#b433db;fill-opacity:0.980392"
       id="path287"
       d="m 252.875,371 a 9.6875,9.125 0 0 1 -9.68716,9.125 9.6875,9.125 0 0 1 -9.68784,-9.12436 9.6875,9.125 0 0 1 9.68649,-9.12564 9.6875,9.125 0 0 1 9.68851,9.12373 L 243.1875,371 Z" />
    <path
       style="fill:#b63ae7;fill-opacity:0.882353"
       id="path289"
       d="m 238,339.75 a 8.125,7.625 0 0 1 -8.12472,7.625 8.125,7.625 0 0 1 -8.12528,-7.62447 8.125,7.625 0 0 1 8.12415,-7.62553 8.125,7.625 0 0 1 8.12585,7.62394 l -8.125,10e-4 z" />
    <path
       style="fill:#1f8e77;fill-opacity:0.870588"
       id="path291"
       d="m 245.125,363.375 a 8.125,7.875 0 0 1 -8.12472,7.875 8.125,7.875 0 0 1 -8.12528,-7.87445 8.125,7.875 0 0 1 8.12415,-7.87555 8.125,7.875 0 0 1 8.12585,7.8739 L 237,363.375 Z" />
    <path
       style="fill:#2b5cee;fill-opacity:0.980392"
       id="path293"
       d="M 251.375,340.25 A 11.4375,10.875 0 0 1 239.9379,351.125 11.4375,10.875 0 0 1 228.5,340.25076 11.4375,10.875 0 0 1 239.9363,329.375 11.4375,10.875 0 0 1 251.375,340.24848 l -11.4375,0.002 z" />
    <path
       style="fill:#080e81;fill-opacity:0.976471"
       id="path297"
       d="m 264.625,353.6875 a 8.9375,8.6875 0 0 1 -8.93719,8.6875 8.9375,8.6875 0 0 1 -8.93781,-8.68689 8.9375,8.6875 0 0 1 8.93656,-8.68811 8.9375,8.6875 0 0 1 8.93844,8.68629 l -8.9375,0.001 z" />
    <path
       style="fill:#e7f0ef;fill-opacity:0.984314"
       id="path299"
       d="m 269,341.0625 a 9.3125,9.1875 0 0 1 -9.31217,9.1875 9.3125,9.1875 0 0 1 -9.31283,-9.18686 9.3125,9.1875 0 0 1 9.31152,-9.18814 9.3125,9.1875 0 0 1 9.31348,9.18622 l -9.3125,0.001 z" />
    <path
       style="fill:#080e82;fill-opacity:0.870588"
       id="path303"
       d="m 293.75,373.0625 a 8.75,8.8125 0 0 1 -8.74969,8.8125 8.75,8.8125 0 0 1 -8.75031,-8.81188 8.75,8.8125 0 0 1 8.74908,-8.81312 8.75,8.8125 0 0 1 8.75092,8.81127 l -8.75,0.001 z" />
    <path
       style="fill:#b639e7;fill-opacity:0.866667"
       id="path305"
       d="m 275.875,354.9375 a 7.5,7.6875 0 0 1 -7.49974,7.6875 7.5,7.6875 0 0 1 -7.50026,-7.68696 7.5,7.6875 0 0 1 7.49921,-7.68804 7.5,7.6875 0 0 1 7.50079,7.68643 l -7.5,0.001 z" />
    <path
       style="fill:#d653ee;fill-opacity:0.984314"
       id="path307"
       d="m 224.25,391.375 a 14.9375,14.5 0 0 1 -14.93698,14.5 A 14.9375,14.5 0 0 1 194.375,391.37601 14.9375,14.5 0 0 1 209.31094,376.875 14.9375,14.5 0 0 1 224.25,391.37298 l -14.9375,0.002 z" />
    <path
       style="fill:#0fab0f;fill-opacity:0.984314"
       id="path309"
       d="m 263.125,381.75 a 9.5,9 0 0 1 -9.49967,9 9.5,9 0 0 1 -9.50033,-8.99937 9.5,9 0 0 1 9.49901,-9.00063 9.5,9 0 0 1 9.50099,8.99874 l -9.5,10e-4 z" />
    <path
       style="fill:#b433db;fill-opacity:0.870588"
       id="path313"
       d="m 261.375,401.8125 a 9.25,9.4375 0 0 1 -9.24968,9.4375 9.25,9.4375 0 0 1 -9.25032,-9.43684 9.25,9.4375 0 0 1 9.24903,-9.43816 9.25,9.4375 0 0 1 9.25097,9.43618 l -9.25,0.001 z" />
    <path
       style="fill:#f20ce7;fill-opacity:0.866667"
       id="path315"
       d="m 278.125,398.125 a 9.5625,9.5 0 0 1 -9.56217,9.5 9.5625,9.5 0 0 1 -9.56283,-9.49934 9.5625,9.5 0 0 1 9.5615,-9.50066 9.5625,9.5 0 0 1 9.5635,9.49867 l -9.5625,10e-4 z" />
    <path
       style="fill:#0d0d61;fill-opacity:0.984314"
       id="path317"
       d="M 289.5,409.0625 A 11.75,12.3125 0 0 1 277.75041,421.375 11.75,12.3125 0 0 1 266,409.06336 11.75,12.3125 0 0 1 277.74877,396.75 11.75,12.3125 0 0 1 289.5,409.06078 l -11.75,0.002 z" />
    <path
       style="fill:#b433db;fill-opacity:0.866667"
       id="path321"
       d="m 304.5,397.25 a 9.75,9.625 0 0 1 -9.74966,9.625 A 9.75,9.625 0 0 1 285,397.25067 9.75,9.625 0 0 1 294.74898,387.625 9.75,9.625 0 0 1 304.5,397.24866 l -9.75,0.001 z" />
    <path
       style="fill:#e7f0ef;fill-opacity:0.858824"
       id="path323"
       d="m 282.875,378.8125 a 8.5625,8.8125 0 0 1 -8.5622,8.8125 8.5625,8.8125 0 0 1 -8.5628,-8.81188 8.5625,8.8125 0 0 1 8.5616,-8.81312 8.5625,8.8125 0 0 1 8.5634,8.81127 l -8.5625,0.001 z" />
    <path
       style="fill:#1f8e78;fill-opacity:0.866667"
       id="path325"
       d="m 288.375,357.375 a 7.625,7.75 0 0 1 -7.62473,7.75 7.625,7.75 0 0 1 -7.62527,-7.74946 7.625,7.75 0 0 1 7.6242,-7.75054 7.625,7.75 0 0 1 7.6258,7.74892 l -7.625,10e-4 z" />
    <path
       style="fill:#1a2e63;fill-opacity:0.929412"
       id="path327"
       d="m 293.75,345.75 a 7.5625,7.125 0 0 1 -7.56224,7.125 7.5625,7.125 0 0 1 -7.56276,-7.1245 7.5625,7.125 0 0 1 7.56171,-7.1255 7.5625,7.125 0 0 1 7.56329,7.12401 l -7.5625,9.9e-4 z" />
    <path
       style="fill:#2b5cee;fill-opacity:0.980392"
       id="path329"
       d="M 295.75,384.6875 A 10.875,10.6875 0 0 1 284.87538,395.375 10.875,10.6875 0 0 1 274,384.68825 10.875,10.6875 0 0 1 284.87386,374 10.875,10.6875 0 0 1 295.75,384.68601 l -10.875,10e-4 z" />
    <path
       style="fill:#b433db;fill-opacity:0.890196"
       id="path331"
       d="m 325.375,394.625 a 9.3125,9.125 0 0 1 -9.31217,9.125 9.3125,9.125 0 0 1 -9.31283,-9.12436 9.3125,9.125 0 0 1 9.31152,-9.12564 9.3125,9.125 0 0 1 9.31348,9.12373 l -9.3125,10e-4 z" />
    <path
       style="fill:#f20ce7;fill-opacity:0.866667"
       id="path333"
       d="m 323.375,403.875 a 9.625,9.25 0 0 1 -9.62466,9.25 9.625,9.25 0 0 1 -9.62534,-9.24935 9.625,9.25 0 0 1 9.62399,-9.25065 9.625,9.25 0 0 1 9.62601,9.24871 l -9.625,10e-4 z" />
    <path
       style="fill:#3f6dee;fill-opacity:0.976471"
       id="path335"
       d="m 304.75,411.58395 a 9.5625,9.8125 0 0 1 -9.56217,9.8125 9.5625,9.8125 0 0 1 -9.56283,-9.81181 9.5625,9.8125 0 0 1 9.5615,-9.81319 9.5625,9.8125 0 0 1 9.5635,9.81113 l -9.5625,10e-4 z" />
    <path
       style="fill:#2c5cee;fill-opacity:0.988235"
       id="path337"
       d="M 321,419.6875 A 10.625,10.0625 0 0 1 310.37537,429.75 10.625,10.0625 0 0 1 299.75,419.6882 10.625,10.0625 0 0 1 310.37389,409.625 10.625,10.0625 0 0 1 321,419.6861 l -10.625,10e-4 z" />
    <path
       style="fill:#d50eef;fill-opacity:1"
       id="path339"
       d="M 313,384.4375 A 8.375,8.8125 0 0 1 304.62529,393.25 8.375,8.8125 0 0 1 296.25,384.43812 8.375,8.8125 0 0 1 304.62412,375.625 8.375,8.8125 0 0 1 313,384.43627 l -8.375,0.001 z" />
    <path
       style="fill:#51bce2;fill-opacity:1"
       id="path341"
       d="M 309.25,361.5625 A 13.0625,14.0625 0 0 1 296.18796,375.625 13.0625,14.0625 0 0 1 283.125,361.56348 13.0625,14.0625 0 0 1 296.18613,347.5 13.0625,14.0625 0 0 1 309.25,361.56054 l -13.0625,0.002 z" />
    <path
       style="fill:#0fac0f;fill-opacity:0.87451"
       id="path343"
       d="M 292.25,338.8125 A 9.375,9.1875 0 0 1 282.87533,348 9.375,9.1875 0 0 1 273.5,338.81314 a 9.375,9.1875 0 0 1 9.37402,-9.18814 9.375,9.1875 0 0 1 9.37598,9.18622 l -9.375,0.001 z" />
    <path
       style="fill:#1f8f78;fill-opacity:0.984314"
       id="path345"
       d="m 294.25,322.3125 a 8.5,8.0625 0 0 1 -8.4997,8.0625 8.5,8.0625 0 0 1 -8.5003,-8.06194 8.5,8.0625 0 0 1 8.49911,-8.06306 8.5,8.0625 0 0 1 8.50089,8.06137 l -8.5,10e-4 z" />
    <path
       style="fill:#041f6f;fill-opacity:1"
       id="path347"
       d="M 310.125,314.9375 A 10.625,11.3125 0 0 1 299.50037,326.25 10.625,11.3125 0 0 1 288.875,314.93829 10.625,11.3125 0 0 1 299.49889,303.625 10.625,11.3125 0 0 1 310.125,314.93592 l -10.625,0.002 z" />
    <path
       style="fill:#080d82;fill-opacity:0.980392"
       id="path349"
       d="M 312.75,342.6875 A 7.625,7.3125 0 0 1 305.12527,350 7.625,7.3125 0 0 1 297.5,342.68801 a 7.625,7.3125 0 0 1 7.6242,-7.31301 7.625,7.3125 0 0 1 7.6258,7.31148 l -7.625,10e-4 z" />
    <path
       style="fill:#1c7e78;fill-opacity:0.996078"
       id="path351"
       d="m 308.625,335.5 a 6.9375,7 0 0 1 -6.93726,7 6.9375,7 0 0 1 -6.93774,-6.99951 6.9375,7 0 0 1 6.93677,-7.00049 6.9375,7 0 0 1 6.93823,6.99902 l -6.9375,9.8e-4 z" />
    <path
       style="fill:#091482;fill-opacity:0.8"
       id="path355"
       d="m 322.80545,324.76959 a 8.4375,8.3125 0 0 1 -8.43721,8.3125 8.4375,8.3125 0 0 1 -8.43779,-8.31192 8.4375,8.3125 0 0 1 8.43662,-8.31308 8.4375,8.3125 0 0 1 8.43838,8.31134 l -8.4375,10e-4 z" />
    <path
       style="fill:#297991;fill-opacity:0.996078"
       id="path357"
       d="m 320.5,331.8125 a 7.875,7.6875 0 0 1 -7.87473,7.6875 7.875,7.6875 0 0 1 -7.87527,-7.68696 7.875,7.6875 0 0 1 7.87418,-7.68804 7.875,7.6875 0 0 1 7.87582,7.68643 l -7.875,0.001 z" />
    <path
       style="fill:#0d2768;fill-opacity:0.862745"
       id="path359"
       d="m 327.625,372.6875 a 7.375,7.4375 0 0 1 -7.37474,7.4375 7.375,7.4375 0 0 1 -7.37526,-7.43698 7.375,7.4375 0 0 1 7.37423,-7.43802 7.375,7.4375 0 0 1 7.37577,7.43646 l -7.375,10e-4 z" />
    <path
       style="fill:#0c0c60;fill-opacity:0.980392"
       id="path361"
       d="M 338.375,357.4375 A 11.875,10.9375 0 0 1 326.50041,368.375 11.875,10.9375 0 0 1 314.625,357.43826 11.875,10.9375 0 0 1 326.49876,346.5 11.875,10.9375 0 0 1 338.375,357.43597 l -11.875,0.002 z" />
    <path
       style="fill:#297b91;fill-opacity:0.870588"
       id="path365"
       d="m 339.875,359.5 a 5.875,6 0 0 1 -5.87479,6 5.875,6 0 0 1 -5.87521,-5.99958 5.875,6 0 0 1 5.87438,-6.00042 5.875,6 0 0 1 5.87562,5.99916 L 334,359.5 Z" />
    <path
       style="fill:#122f84;fill-opacity:0.984314"
       id="path367"
       d="M 331.125,338.625 A 10.1875,10.375 0 0 1 320.93786,349 10.1875,10.375 0 0 1 310.75,338.62572 10.1875,10.375 0 0 1 320.93643,328.25 10.1875,10.375 0 0 1 331.125,338.62355 l -10.1875,10e-4 z" />
    <path
       style="fill:#080e81;fill-opacity:0.866667"
       id="path369"
       d="M 349.5,343.6875 A 9.25,9.8125 0 0 1 340.25032,353.5 9.25,9.8125 0 0 1 331,343.68818 9.25,9.8125 0 0 1 340.24903,333.875 9.25,9.8125 0 0 1 349.5,343.68613 l -9.25,0.001 z" />
    <path
       style="fill:#2a7b91;fill-opacity:0.866667"
       id="path371"
       d="m 357.875,340.875 a 8.0625,8.125 0 0 1 -8.06222,8.125 8.0625,8.125 0 0 1 -8.06278,-8.12443 8.0625,8.125 0 0 1 8.06166,-8.12557 8.0625,8.125 0 0 1 8.06334,8.12387 l -8.0625,10e-4 z" />
    <path
       style="fill:#080e82;fill-opacity:0.870588"
       id="path373"
       d="m 366.625,353 a 9.125,8.625 0 0 1 -9.12468,8.625 9.125,8.625 0 0 1 -9.12532,-8.6244 9.125,8.625 0 0 1 9.12404,-8.6256 9.125,8.625 0 0 1 9.12596,8.6238 L 357.5,353 Z" />
    <path
       style="fill:#2a7b91;fill-opacity:0.984314"
       id="path375"
       d="m 368.5,343.6875 a 7.8125,8.0625 0 0 1 -7.81223,8.0625 7.8125,8.0625 0 0 1 -7.81277,-8.06194 7.8125,8.0625 0 0 1 7.81168,-8.06306 7.8125,8.0625 0 0 1 7.81332,8.06137 l -7.8125,10e-4 z" />
    <path
       style="fill:#0d2869;fill-opacity:0.980392"
       id="path377"
       d="m 347.625,373.875 a 7.5,7.75 0 0 1 -7.49974,7.75 7.5,7.75 0 0 1 -7.50026,-7.74946 7.5,7.75 0 0 1 7.49921,-7.75054 7.5,7.75 0 0 1 7.50079,7.74892 l -7.5,10e-4 z" />
    <path
       style="fill:#0fab0f;fill-opacity:0.984314"
       id="path379"
       d="m 361.875,375.6875 a 9.75,9.4375 0 0 1 -9.74966,9.4375 9.75,9.4375 0 0 1 -9.75034,-9.43684 9.75,9.4375 0 0 1 9.74898,-9.43816 9.75,9.4375 0 0 1 9.75102,9.43618 l -9.75,0.001 z" />
    <path
       style="fill:#b433db;fill-opacity:0.980392"
       id="path381"
       d="m 388.375,384.875 a 9.125,9 0 0 1 -9.12468,9 9.125,9 0 0 1 -9.12532,-8.99937 9.125,9 0 0 1 9.12404,-9.00063 9.125,9 0 0 1 9.12596,8.99874 l -9.125,10e-4 z" />
    <path
       style="fill:#2b5cee;fill-opacity:0.980392"
       id="path383"
       d="M 371.875,377.1875 A 10,10.8125 0 0 1 361.87535,388 10,10.8125 0 0 1 351.875,377.18825 10,10.8125 0 0 1 361.87395,366.375 10,10.8125 0 0 1 371.875,377.18599 l -10,0.002 z" />
    <path
       style="fill:#0f0e5f;fill-opacity:0.996078"
       id="path387"
       d="M 341.75,393.9375 A 11.1875,11.4375 0 0 1 330.56289,405.375 11.1875,11.4375 0 0 1 319.375,393.9383 11.1875,11.4375 0 0 1 330.56133,382.5 11.1875,11.4375 0 0 1 341.75,393.9359 l -11.1875,0.002 z" />
    <path
       style="fill:#b433db;fill-opacity:0.980392"
       id="path389"
       d="m 509.74478,369.15012 a 9,9.25 0 0 1 -8.99968,9.25 9,9.25 0 0 1 -9.00032,-9.24936 9,9.25 0 0 1 8.99906,-9.25064 9,9.25 0 0 1 9.00094,9.2487 l -9,10e-4 z" />
    <path
       style="fill:#2f8e0f;fill-opacity:0.980392"
       id="path391"
       d="m 495.125,380.375 a 5.8125,5.875 0 0 1 -5.8123,5.875 5.8125,5.875 0 0 1 -5.8127,-5.87459 5.8125,5.875 0 0 1 5.81189,-5.87541 5.8125,5.875 0 0 1 5.81311,5.87418 l -5.8125,8.2e-4 z" />
    <path
       style="fill:#308b11;fill-opacity:1"
       id="path393"
       d="m 500.75,354.5625 a 8.1875,8.1875 0 0 1 -8.18721,8.1875 8.1875,8.1875 0 0 1 -8.18779,-8.18693 8.1875,8.1875 0 0 1 8.18664,-8.18807 8.1875,8.1875 0 0 1 8.18836,8.18636 l -8.1875,0.001 z" />
    <path
       style="fill:#ec14da;fill-opacity:0.980392"
       id="path397"
       d="m 479.25,354.1875 a 8.75,8.5625 0 0 1 -8.74969,8.5625 8.75,8.5625 0 0 1 -8.75031,-8.5619 8.75,8.5625 0 0 1 8.74908,-8.5631 8.75,8.5625 0 0 1 8.75092,8.5613 l -8.75,10e-4 z" />
    <path
       style="fill:#940b99;fill-opacity:0.996078"
       id="path399"
       d="M 491.375,341.875 A 11.5625,10.875 0 0 1 479.8129,352.75 11.5625,10.875 0 0 1 468.25,341.87576 11.5625,10.875 0 0 1 479.81129,331 11.5625,10.875 0 0 1 491.375,341.87348 l -11.5625,0.002 z" />
    <path
       style="fill:#d63ef0;fill-opacity:1"
       id="path401"
       d="M 495.5,365.8125 A 15.625,15.3125 0 0 1 479.87555,381.125 15.625,15.3125 0 0 1 464.25,365.81357 15.625,15.3125 0 0 1 479.87336,350.5 15.625,15.3125 0 0 1 495.5,365.81036 l -15.625,0.002 z" />
    <path
       style="fill:#f00a5f;fill-opacity:0.980392"
       id="path403"
       d="m 487.125,386.0625 a 9,9.3125 0 0 1 -8.99969,9.3125 9,9.3125 0 0 1 -9.00031,-9.31185 9,9.3125 0 0 1 8.99906,-9.31315 9,9.3125 0 0 1 9.00094,9.3112 l -9,0.001 z" />
    <path
       style="fill:#d641f0;fill-opacity:1"
       id="path405"
       d="M 472.625,396.1875 A 15.4375,15.3125 0 0 1 457.18804,411.5 15.4375,15.3125 0 0 1 441.75,396.18857 15.4375,15.3125 0 0 1 457.18588,380.875 15.4375,15.3125 0 0 1 472.625,396.18536 l -15.4375,0.002 z" />
    <path
       style="fill:#f20ce7;fill-opacity:0.980392"
       id="path407"
       d="m 450.81433,414.2215 a 9.0625,8.9375 0 0 1 -9.06218,8.9375 9.0625,8.9375 0 0 1 -9.06282,-8.93688 9.0625,8.9375 0 0 1 9.06155,-8.93812 9.0625,8.9375 0 0 1 9.06345,8.93625 l -9.0625,10e-4 z" />
    <path
       style="fill:#b433db;fill-opacity:0.980392"
       id="path409"
       d="m 438.625,398.8125 a 9.5,9.4375 0 0 1 -9.49967,9.4375 9.5,9.4375 0 0 1 -9.50033,-9.43684 9.5,9.4375 0 0 1 9.49901,-9.43816 9.5,9.4375 0 0 1 9.50099,9.43618 l -9.5,0.001 z" />
    <path
       style="fill:#b639e7;fill-opacity:0.976471"
       id="path411"
       d="m 425.125,420.4375 a 7.9375,8.3125 0 0 1 -7.93722,8.3125 7.9375,8.3125 0 0 1 -7.93778,-8.31192 7.9375,8.3125 0 0 1 7.93667,-8.31308 7.9375,8.3125 0 0 1 7.93833,8.31134 l -7.9375,0.001 z" />
    <path
       style="fill:#0fab0f;fill-opacity:0.984314"
       id="path415"
       d="M 437.5,412.125 A 9.25,9.125 0 0 1 428.25032,421.25 9.25,9.125 0 0 1 419,412.12564 9.25,9.125 0 0 1 428.24903,403 9.25,9.125 0 0 1 437.5,412.12373 l -9.25,10e-4 z" />
    <path
       style="fill:#2b5cee;fill-opacity:0.980392"
       id="path417"
       d="M 457.25,405.9375 A 10.625,11.0625 0 0 1 446.62537,417 10.625,11.0625 0 0 1 436,405.93827 10.625,11.0625 0 0 1 446.62389,394.875 10.625,11.0625 0 0 1 457.25,405.93596 l -10.625,0.002 z" />
    <path
       style="fill:#f29c13;fill-opacity:0.862745"
       id="path419"
       d="m 461.75,349.375 a 8.25,8.25 0 0 1 -8.24971,8.25 8.25,8.25 0 0 1 -8.25029,-8.24942 8.25,8.25 0 0 1 8.24914,-8.25058 8.25,8.25 0 0 1 8.25086,8.24885 l -8.25,10e-4 z" />
    <path
       style="fill:#0d2769;fill-opacity:0.866667"
       id="path421"
       d="m 464.625,362.6875 a 7.75,7.5625 0 0 1 -7.74973,7.5625 7.75,7.5625 0 0 1 -7.75027,-7.56197 7.75,7.5625 0 0 1 7.74919,-7.56303 7.75,7.5625 0 0 1 7.75081,7.56144 l -7.75,10e-4 z" />
    <path
       style="fill:#0d2869;fill-opacity:0.984314"
       id="path423"
       d="M 443.75,362.3125 A 7.625,7.3125 0 0 1 436.12527,369.625 7.625,7.3125 0 0 1 428.5,362.31301 7.625,7.3125 0 0 1 436.1242,355 a 7.625,7.3125 0 0 1 7.6258,7.31148 l -7.625,10e-4 z" />
    <path
       style="fill:#f29c12;fill-opacity:0.980392"
       id="path425"
       d="m 444.75,381.9375 a 9.5,9.4375 0 0 1 -9.49967,9.4375 9.5,9.4375 0 0 1 -9.50033,-9.43684 9.5,9.4375 0 0 1 9.49901,-9.43816 9.5,9.4375 0 0 1 9.50099,9.43618 l -9.5,0.001 z" />
    <path
       style="fill:#d50aef;fill-opacity:0.980392"
       id="path427"
       d="m 454.25,372.125 a 8.75,9 0 0 1 -8.74969,9 8.75,9 0 0 1 -8.75031,-8.99937 8.75,9 0 0 1 8.74908,-9.00063 8.75,9 0 0 1 8.75092,8.99874 l -8.75,10e-4 z" />
    <path
       style="fill:#2f8f0f;fill-opacity:0.917647"
       id="path429"
       d="m 450.375,315.3125 a 6.375,6.3125 0 0 1 -6.37478,6.3125 6.375,6.3125 0 0 1 -6.37522,-6.31206 6.375,6.3125 0 0 1 6.37433,-6.31294 6.375,6.3125 0 0 1 6.37567,6.31162 L 444,315.3125 Z" />
    <path
       style="fill:#b333db;fill-opacity:0.870588"
       id="path431"
       d="m 439.375,338.1875 a 8.625,8.9375 0 0 1 -8.6247,8.9375 8.625,8.9375 0 0 1 -8.6253,-8.93688 8.625,8.9375 0 0 1 8.6241,-8.93812 8.625,8.9375 0 0 1 8.6259,8.93625 l -8.625,0.001 z" />
    <path
       style="fill:#d50aef;fill-opacity:0.980392"
       id="path433"
       d="m 445.625,346.0625 a 9.1875,9.0625 0 0 1 -9.18718,9.0625 9.1875,9.0625 0 0 1 -9.18782,-9.06187 9.1875,9.0625 0 0 1 9.18654,-9.06313 9.1875,9.0625 0 0 1 9.18846,9.06123 l -9.1875,10e-4 z" />
    <path
       style="fill:#ec13d9;fill-opacity:0.87451"
       id="path435"
       d="m 440.85355,325.95709 a 9.125,9.25 0 0 1 -9.12469,9.25 9.125,9.25 0 0 1 -9.12531,-9.24935 9.125,9.25 0 0 1 9.12404,-9.25065 9.125,9.25 0 0 1 9.12596,9.24871 l -9.125,10e-4 z" />
    <path
       style="fill:#ead924;fill-opacity:0.980392"
       id="path437"
       d="m 463.60355,306.87131 a 8.375,7.625 0 0 1 -8.37471,7.625 8.375,7.625 0 0 1 -8.37529,-7.62447 8.375,7.625 0 0 1 8.37412,-7.62553 8.375,7.625 0 0 1 8.37588,7.62393 l -8.375,10e-4 z" />
    <path
       style="fill:#ead924;fill-opacity:0.980392"
       id="path439"
       d="m 473.125,318.0625 a 8.4375,8.1875 0 0 1 -8.43721,8.1875 8.4375,8.1875 0 0 1 -8.43779,-8.18693 8.4375,8.1875 0 0 1 8.43662,-8.18807 8.4375,8.1875 0 0 1 8.43838,8.18636 l -8.4375,0.001 z" />
    <path
       style="fill:#d640ed;fill-opacity:0.996078"
       id="path441"
       d="M 461.75,327.4375 A 12.875,12.8125 0 0 1 448.87545,340.25 12.875,12.8125 0 0 1 436,327.43839 12.875,12.8125 0 0 1 448.87365,314.625 12.875,12.8125 0 0 1 461.75,327.43571 l -12.875,0.002 z" />
    <path
       style="fill:#2f8e0f;fill-opacity:0.980392"
       id="path443"
       d="m 476.625,334.8125 a 9.5625,9.3125 0 0 1 -9.56217,9.3125 9.5625,9.3125 0 0 1 -9.56283,-9.31185 9.5625,9.3125 0 0 1 9.5615,-9.31315 9.5625,9.3125 0 0 1 9.5635,9.3112 l -9.5625,0.001 z" />
    <path
       style="fill:#2f8e0f;fill-opacity:0.980392"
       id="path445"
       d="m 427.25,367.625 a 6.375,6.125 0 0 1 -6.37478,6.125 6.375,6.125 0 0 1 -6.37522,-6.12457 6.375,6.125 0 0 1 6.37433,-6.12543 6.375,6.125 0 0 1 6.37567,6.12414 l -6.375,8.6e-4 z" />
    <path
       style="fill:#080e82;fill-opacity:0.996078"
       id="path447"
       d="m 411.5,348.75 a 9.25,9.5 0 0 1 -9.24968,9.5 A 9.25,9.5 0 0 1 393,348.75066 9.25,9.5 0 0 1 402.24903,339.25 9.25,9.5 0 0 1 411.5,348.74867 l -9.25,10e-4 z" />
    <path
       style="fill:#b432db;fill-opacity:0.862745"
       id="path449"
       d="m 418,356.125 a 8.1875,8 0 0 1 -8.18721,8 8.1875,8 0 0 1 -8.18779,-7.99944 8.1875,8 0 0 1 8.18664,-8.00056 8.1875,8 0 0 1 8.18836,7.99888 l -8.1875,0.001 z" />
    <path
       style="fill:#ec14da;fill-opacity:0.980392"
       id="path451"
       d="M 421.875,339.625 A 9.4375,9.375 0 0 1 412.43783,349 9.4375,9.375 0 0 1 403,339.62565 a 9.4375,9.375 0 0 1 9.43651,-9.37565 9.4375,9.375 0 0 1 9.43849,9.37369 l -9.4375,10e-4 z" />
    <path
       style="fill:#2a7b91;fill-opacity:0.980392"
       id="path453"
       d="m 395.375,344.25 a 8.9375,9.125 0 0 1 -8.93719,9.125 8.9375,9.125 0 0 1 -8.93781,-9.12436 8.9375,9.125 0 0 1 8.93656,-9.12564 8.9375,9.125 0 0 1 8.93844,9.12373 l -8.9375,10e-4 z" />
    <path
       style="fill:#b433db;fill-opacity:0.866667"
       id="path455"
       d="M 385.125,358.9375 A 8.8125,8.9375 0 0 1 376.31281,367.875 8.8125,8.9375 0 0 1 367.5,358.93812 8.8125,8.9375 0 0 1 376.31158,350 a 8.8125,8.9375 0 0 1 8.81342,8.93625 l -8.8125,0.001 z" />
    <path
       style="fill:#0d2869;fill-opacity:0.996078"
       id="path457"
       d="m 398.25,364.6875 a 8.25,7.9375 0 0 1 -8.24971,7.9375 8.25,7.9375 0 0 1 -8.25029,-7.93695 8.25,7.9375 0 0 1 8.24914,-7.93805 8.25,7.9375 0 0 1 8.25086,7.93639 l -8.25,10e-4 z" />
    <path
       style="fill:#0d2768;fill-opacity:0.866667"
       id="path459"
       d="m 421.125,392.0625 a 6.3125,6.8125 0 0 1 -6.31228,6.8125 6.3125,6.8125 0 0 1 -6.31272,-6.81202 6.3125,6.8125 0 0 1 6.31184,-6.81298 6.3125,6.8125 0 0 1 6.31316,6.81155 l -6.3125,9.5e-4 z" />
    <path
       style="fill:#232a79;fill-opacity:0.980392"
       id="path461"
       d="M 401,382.9375 A 6.25,6.4375 0 0 1 394.75022,389.375 6.25,6.4375 0 0 1 388.5,382.93795 6.25,6.4375 0 0 1 394.74935,376.5 6.25,6.4375 0 0 1 401,382.9366 l -6.25,9e-4 z" />
    <path
       style="fill:#b432dc;fill-opacity:0.733333"
       id="path478"
       d="m 416,380.875 a 7.875,8.25 0 0 1 -7.87473,8.25 7.875,8.25 0 0 1 -7.87527,-8.24942 7.875,8.25 0 0 1 7.87418,-8.25058 7.875,8.25 0 0 1 7.87582,8.24885 l -7.875,10e-4 z" />
    <path
       style="fill:#2b5cee;fill-opacity:0.980392"
       id="path480"
       d="M 410.375,395.125 A 10.25,10.375 0 0 1 400.12536,405.5 10.25,10.375 0 0 1 389.875,395.12572 10.25,10.375 0 0 1 400.12393,384.75 10.25,10.375 0 0 1 410.375,395.12355 l -10.25,10e-4 z" />
    <path
       style="fill:#0fab0f;fill-opacity:0.980392"
       id="path482"
       d="m 403.625,371.875 a 9.0625,9.625 0 0 1 -9.06218,9.625 9.0625,9.625 0 0 1 -9.06282,-9.62433 9.0625,9.625 0 0 1 9.06155,-9.62567 9.0625,9.625 0 0 1 9.06345,9.62366 l -9.0625,0.001 z" />
    <path
       style="fill:#f20ce7;fill-opacity:0.980392"
       id="path484"
       d="m 408.25,413.375 a 9.125,9.25 0 0 1 -9.12468,9.25 9.125,9.25 0 0 1 -9.12532,-9.24935 9.125,9.25 0 0 1 9.12404,-9.25065 9.125,9.25 0 0 1 9.12596,9.24871 l -9.125,10e-4 z" />
    <path
       style="fill:#0d2869;fill-opacity:0.866667"
       id="path490"
       d="m 401.98743,425.50183 a 9,8.9375 0 0 1 -8.99969,8.9375 9,8.9375 0 0 1 -9.00031,-8.93688 9,8.9375 0 0 1 8.99905,-8.93812 9,8.9375 0 0 1 9.00095,8.93625 l -9,10e-4 z" />
    <path
       style="fill:#2d5deb;fill-opacity:0.996078"
       id="path492"
       d="m 389.68933,424.26959 a 9.25,10.0625 0 0 1 -9.24968,10.0625 9.25,10.0625 0 0 1 -9.25032,-10.0618 9.25,10.0625 0 0 1 9.24903,-10.0632 9.25,10.0625 0 0 1 9.25097,10.0611 l -9.25,10e-4 z" />
    <path
       style="fill:#b333db;fill-opacity:0.866667"
       id="path496"
       d="m 366.5,399.625 a 9.1875,9.5 0 0 1 -9.18718,9.5 9.1875,9.5 0 0 1 -9.18782,-9.49934 9.1875,9.5 0 0 1 9.18654,-9.50066 9.1875,9.5 0 0 1 9.18846,9.49867 l -9.1875,10e-4 z" />
    <path
       style="fill:#0d2869;fill-opacity:0.870588"
       id="path498"
       d="m 372.625,411.0625 a 6.9375,7.3125 0 0 1 -6.93726,7.3125 6.9375,7.3125 0 0 1 -6.93774,-7.31199 6.9375,7.3125 0 0 1 6.93677,-7.31301 6.9375,7.3125 0 0 1 6.93823,7.31148 l -6.9375,10e-4 z" />
    <path
       style="fill:#d50aef;fill-opacity:0.980392"
       id="path500"
       d="M 387,405.8125 A 8,8.8125 0 0 1 379.00028,414.625 8,8.8125 0 0 1 371,405.81312 8,8.8125 0 0 1 378.99916,397 8,8.8125 0 0 1 387,405.81127 l -8,0.001 z" />
    <path
       style="fill:#2c5bee;fill-opacity:0.984314"
       id="path502"
       d="m 371.22855,423.38757 a 9.6875,9.875 0 0 1 -9.68717,9.875 9.6875,9.875 0 0 1 -9.68783,-9.87431 9.6875,9.875 0 0 1 9.68648,-9.87569 9.6875,9.875 0 0 1 9.68852,9.87362 l -9.6875,10e-4 z" />
    <path
       style="fill:#b639e6;fill-opacity:0.968627"
       id="path504"
       d="m 336.375,427.6875 a 6.0625,6.0625 0 0 1 -6.06229,6.0625 6.0625,6.0625 0 0 1 -6.06271,-6.06208 6.0625,6.0625 0 0 1 6.06187,-6.06292 6.0625,6.0625 0 0 1 6.06313,6.06165 l -6.0625,8.5e-4 z" />
    <path
       style="fill:#b432dc;fill-opacity:0.87451"
       id="path506"
       d="m 351.625,410.25 a 8.6875,8.75 0 0 1 -8.6872,8.75 8.6875,8.75 0 0 1 -8.6878,-8.74939 8.6875,8.75 0 0 1 8.68659,-8.75061 8.6875,8.75 0 0 1 8.68841,8.74878 l -8.6875,10e-4 z" />
    <path
       style="fill:#2d5bee;fill-opacity:0.988235"
       id="path510"
       d="m 351.64645,428.0965 a 9.4375,9.8125 0 0 1 -9.43717,9.8125 9.4375,9.8125 0 0 1 -9.43783,-9.81182 9.4375,9.8125 0 0 1 9.43652,-9.81318 9.4375,9.8125 0 0 1 9.43848,9.81113 l -9.4375,0.001 z" />
    <path
       style="fill:#0faa0f;fill-opacity:0.980392"
       id="path512"
       d="m 339.875,417.4375 a 8.875,9.5625 0 0 1 -8.87469,9.5625 8.875,9.5625 0 0 1 -8.87531,-9.56183 8.875,9.5625 0 0 1 8.87407,-9.56317 8.875,9.5625 0 0 1 8.87593,9.56117 l -8.875,10e-4 z" />
    <path
       style="fill:#0808cd;fill-opacity:0.980392"
       id="path514"
       d="m 288.375,279.8125 a 4.5,4.3125 0 0 1 -4.49984,4.3125 4.5,4.3125 0 0 1 -4.50016,-4.3122 4.5,4.3125 0 0 1 4.49953,-4.3128 4.5,4.3125 0 0 1 4.50047,4.3119 l -4.5,6e-4 z" />
    <path
       style="fill:#4dbce4;fill-opacity:1"
       id="path516"
       d="M 288.875,292.3125 A 13.75,13.6875 0 0 1 275.12548,306 13.75,13.6875 0 0 1 261.375,292.31346 13.75,13.6875 0 0 1 275.12356,278.625 13.75,13.6875 0 0 1 288.875,292.31059 l -13.75,0.002 z" />
    <path
       style="fill:#0fab0f;fill-opacity:0.980392"
       id="path518"
       d="m 287.875,304 a 8.9375,8.375 0 0 1 -8.93719,8.375 8.9375,8.375 0 0 1 -8.93781,-8.37442 8.9375,8.375 0 0 1 8.93656,-8.37558 8.9375,8.375 0 0 1 8.93844,8.37383 L 278.9375,304 Z" />
    <path
       style="fill:#041d6f;fill-opacity:0.984314"
       id="path520"
       d="M 296,293.625 A 9.625,9.625 0 0 1 286.37534,303.25 9.625,9.625 0 0 1 276.75,293.62567 9.625,9.625 0 0 1 286.37399,284 9.625,9.625 0 0 1 296,293.62366 l -9.625,0.001 z" />
    <path
       style="fill:#041e6f;fill-opacity:0.980392"
       id="path522"
       d="M 287.375,270.5625 A 10.25,10.0625 0 0 1 277.12536,280.625 10.25,10.0625 0 0 1 266.875,270.5632 10.25,10.0625 0 0 1 277.12393,260.5 10.25,10.0625 0 0 1 287.375,270.5611 l -10.25,10e-4 z" />
    <path
       style="fill:#1f8d78;fill-opacity:0.996078"
       id="path524"
       d="M 246.25,271.375 A 7.625,7.875 0 0 1 238.62527,279.25 7.625,7.875 0 0 1 231,271.37555 7.625,7.875 0 0 1 238.6242,263.5 a 7.625,7.875 0 0 1 7.6258,7.8739 l -7.625,0.001 z" />
    <path
       style="fill:#0fab0f;fill-opacity:0.980392"
       id="path526"
       d="m 259.625,263.125 a 8.75,8.5 0 0 1 -8.74969,8.5 8.75,8.5 0 0 1 -8.75031,-8.49941 8.75,8.5 0 0 1 8.74908,-8.50059 8.75,8.5 0 0 1 8.75092,8.49881 l -8.75,0.001 z" />
    <path
       style="fill:#ead924;fill-opacity:0.980392"
       id="path528"
       d="m 260.875,274.5625 a 7.625,8.0625 0 0 1 -7.62473,8.0625 7.625,8.0625 0 0 1 -7.62527,-8.06194 7.625,8.0625 0 0 1 7.6242,-8.06306 7.625,8.0625 0 0 1 7.6258,8.06137 l -7.625,10e-4 z" />
    <path
       style="fill:#0c0e61;fill-opacity:0.996078"
       id="path530"
       d="m 281.25,249.875 a 10,10 0 0 1 -9.99965,10 10,10 0 0 1 -10.00035,-9.9993 10,10 0 0 1 9.99895,-10.0007 10,10 0 0 1 10.00105,9.9986 l -10,10e-4 z" />
    <path
       style="fill:#0f326a;fill-opacity:0.996078"
       id="path532"
       d="M 269.125,247.125 A 10.125,10.125 0 0 1 259.00035,257.25 10.125,10.125 0 0 1 248.875,247.12571 10.125,10.125 0 0 1 258.99894,237 10.125,10.125 0 0 1 269.125,247.12359 L 259,247.125 Z" />
    <path
       style="fill:#ead924;fill-opacity:0.980392"
       id="path534"
       d="m 280.5,235.6875 a 9.125,8.8125 0 0 1 -9.12468,8.8125 9.125,8.8125 0 0 1 -9.12532,-8.81188 9.125,8.8125 0 0 1 9.12404,-8.81312 9.125,8.8125 0 0 1 9.12596,8.81127 l -9.125,0.001 z" />
    <path
       style="fill:#0d2869;fill-opacity:1"
       id="path536"
       d="M 276.875,212 A 11.0625,10.875 0 0 1 265.81289,222.875 11.0625,10.875 0 0 1 254.75,212.00076 11.0625,10.875 0 0 1 265.81134,201.125 11.0625,10.875 0 0 1 276.875,211.99848 L 265.8125,212 Z" />
    <path
       style="fill:#0808cd;fill-opacity:0.980392"
       id="path538"
       d="M 284.5,214.5625 A 6.375,6.4375 0 0 1 278.12522,221 6.375,6.4375 0 0 1 271.75,214.56295 6.375,6.4375 0 0 1 278.12433,208.125 6.375,6.4375 0 0 1 284.5,214.5616 l -6.375,9e-4 z" />
    <path
       style="fill:#0c2768;fill-opacity:0.968627"
       id="path540"
       d="m 291.875,189.6875 a 6.5625,6.9375 0 0 1 -6.56227,6.9375 6.5625,6.9375 0 0 1 -6.56273,-6.93702 6.5625,6.9375 0 0 1 6.56181,-6.93798 6.5625,6.9375 0 0 1 6.56319,6.93653 l -6.5625,9.7e-4 z" />
    <path
       style="fill:#11ab16;fill-opacity:1"
       id="path542"
       d="m 289.125,192.875 a 9.0625,9 0 0 1 -9.06218,9 9.0625,9 0 0 1 -9.06282,-8.99937 9.0625,9 0 0 1 9.06155,-9.00063 9.0625,9 0 0 1 9.06345,8.99874 l -9.0625,0.001 z" />
    <path
       style="fill:#041e6f;fill-opacity:0.980392"
       id="path550"
       d="m 284.25,200.375 a 8.0625,8.75 0 0 1 -8.06222,8.75 8.0625,8.75 0 0 1 -8.06278,-8.74939 8.0625,8.75 0 0 1 8.06166,-8.75061 8.0625,8.75 0 0 1 8.06334,8.74878 l -8.0625,10e-4 z" />
    <path
       style="fill:#4dbbe5;fill-opacity:0.996078"
       id="path552"
       d="M 285.125,187.3125 A 13.5,12.9375 0 0 1 271.62547,200.25 13.5,12.9375 0 0 1 258.125,187.3134 13.5,12.9375 0 0 1 271.62359,174.375 13.5,12.9375 0 0 1 285.125,187.31069 l -13.5,0.002 z" />
    <path
       style="fill:#0f1062;fill-opacity:1"
       id="path554"
       d="M 294.75,162.4375 A 10.6875,10.3125 0 0 1 284.06287,172.75 10.6875,10.3125 0 0 1 273.375,162.43822 10.6875,10.3125 0 0 1 284.06138,152.125 10.6875,10.3125 0 0 1 294.75,162.43606 l -10.6875,0.001 z" />
    <path
       style="fill:#041e6f;fill-opacity:0.996078"
       id="path556"
       d="M 300.75,172.125 A 10.1875,10.125 0 0 1 290.56286,182.25 10.1875,10.125 0 0 1 280.375,172.12571 10.1875,10.125 0 0 1 290.56143,162 10.1875,10.125 0 0 1 300.75,172.12359 l -10.1875,0.001 z" />
    <path
       style="fill:#d50aef;fill-opacity:0.980392"
       id="path558"
       d="m 279.125,170.1875 a 8.9375,9.5625 0 0 1 -8.93719,9.5625 8.9375,9.5625 0 0 1 -8.93781,-9.56183 8.9375,9.5625 0 0 1 8.93656,-9.56317 8.9375,9.5625 0 0 1 8.93844,9.56117 l -8.9375,0.001 z" />
    <path
       style="fill:#0808cd;fill-opacity:0.980392"
       id="path560"
       d="m 312.125,158.875 a 6.625,6.75 0 0 1 -6.62477,6.75 6.625,6.75 0 0 1 -6.62523,-6.74953 6.625,6.75 0 0 1 6.62431,-6.75047 6.625,6.75 0 0 1 6.62569,6.74906 l -6.625,9.4e-4 z" />
    <path
       style="fill:#080e82;fill-opacity:0.980392"
       id="path562"
       d="M 294,138.5625 A 9.5,9.0625 0 0 1 284.50033,147.625 9.5,9.0625 0 0 1 275,138.56313 9.5,9.0625 0 0 1 284.49901,129.5 9.5,9.0625 0 0 1 294,138.56123 l -9.5,0.001 z" />
    <path
       style="fill:#f20be7;fill-opacity:0.870588"
       id="path564"
       d="m 307.125,128.4375 a 9,8.9375 0 0 1 -8.99969,8.9375 9,8.9375 0 0 1 -9.00031,-8.93688 9,8.9375 0 0 1 8.99906,-8.93812 9,8.9375 0 0 1 9.00094,8.93625 l -9,0.001 z" />
    <path
       style="fill:#0fab0f;fill-opacity:0.870588"
       id="path566"
       d="m 313.25,139.375 a 9.1875,9.125 0 0 1 -9.18718,9.125 9.1875,9.125 0 0 1 -9.18782,-9.12436 9.1875,9.125 0 0 1 9.18654,-9.12564 9.1875,9.125 0 0 1 9.18846,9.12373 l -9.1875,0.001 z" />
    <path
       style="fill:#080e82;fill-opacity:0.870588"
       id="path568"
       d="m 326.25,122.875 a 8.375,8.5 0 0 1 -8.37471,8.5 8.375,8.5 0 0 1 -8.37529,-8.49941 8.375,8.5 0 0 1 8.37412,-8.50059 8.375,8.5 0 0 1 8.37588,8.49881 l -8.375,10e-4 z" />
    <path
       style="fill:#e6efee;fill-opacity:0.866667"
       id="path570"
       d="m 319.625,129.375 a 8.75,9 0 0 1 -8.74969,9 8.75,9 0 0 1 -8.75031,-8.99937 8.75,9 0 0 1 8.74908,-9.00063 8.75,9 0 0 1 8.75092,8.99874 l -8.75,0.001 z" />
    <path
       style="fill:#122f83;fill-opacity:0.984314"
       id="path572"
       d="m 335.75,137.625 a 9.25,10 0 0 1 -9.24968,10 9.25,10 0 0 1 -9.25032,-9.9993 9.25,10 0 0 1 9.24903,-10.0007 9.25,10 0 0 1 9.25097,9.9986 l -9.25,10e-4 z" />
    <path
       style="fill:#061e70;fill-opacity:0.992157"
       id="path574"
       d="m 325.125,145.1875 a 9.5,9.9375 0 0 1 -9.49967,9.9375 9.5,9.9375 0 0 1 -9.50033,-9.93681 9.5,9.9375 0 0 1 9.49901,-9.93819 9.5,9.9375 0 0 1 9.50099,9.93611 l -9.5,10e-4 z" />
    <path
       style="fill:#ec13d9;fill-opacity:0.898039"
       id="path576"
       d="m 355.125,133 a 9.1875,9 0 0 1 -9.18718,9 A 9.1875,9 0 0 1 336.75,133.00063 9.1875,9 0 0 1 345.93654,124 9.1875,9 0 0 1 355.125,132.99874 L 345.9375,133 Z" />
    <path
       style="fill:#0fab0f;fill-opacity:0.956863"
       id="path578"
       d="M 367,127.125 A 10.0625,10.125 0 0 1 356.93785,137.25 10.0625,10.125 0 0 1 346.875,127.12571 10.0625,10.125 0 0 1 356.93645,117 10.0625,10.125 0 0 1 367,127.12359 l -10.0625,0.001 z" />
    <path
       style="fill:#2a7b91;fill-opacity:0.878431"
       id="path580"
       d="m 379.375,123.375 a 8.625,8.875 0 0 1 -8.6247,8.875 8.625,8.875 0 0 1 -8.6253,-8.87438 8.625,8.875 0 0 1 8.6241,-8.87562 8.625,8.875 0 0 1 8.6259,8.87376 l -8.625,10e-4 z" />
    <path
       style="fill:#0fab0f;fill-opacity:0.980392"
       id="path582"
       d="m 384.125,108.375 a 9.5,9.125 0 0 1 -9.49967,9.125 9.5,9.125 0 0 1 -9.50033,-9.12436 9.5,9.125 0 0 1 9.49901,-9.12564 9.5,9.125 0 0 1 9.50099,9.12373 l -9.5,0.001 z" />
    <path
       style="fill:#f20ce7;fill-opacity:0.980392"
       id="path586"
       d="M 409.125,133.3125 A 11.375,12.0625 0 0 1 397.7504,145.375 11.375,12.0625 0 0 1 386.375,133.31334 11.375,12.0625 0 0 1 397.74881,121.25 11.375,12.0625 0 0 1 409.125,133.31082 l -11.375,0.002 z" />
    <path
       style="fill:#f20ce7;fill-opacity:0.984314"
       id="path588"
       d="m 407.375,110.4375 a 8.8125,8.9375 0 0 1 -8.81219,8.9375 8.8125,8.9375 0 0 1 -8.81281,-8.93688 8.8125,8.9375 0 0 1 8.81158,-8.93812 8.8125,8.9375 0 0 1 8.81342,8.93625 l -8.8125,0.001 z" />
    <path
       style="fill:#0c0c60;fill-opacity:0.980392"
       id="path590"
       d="M 399.625,126.6875 A 12.1875,12.3125 0 0 1 387.43793,139 12.1875,12.3125 0 0 1 375.25,126.68836 12.1875,12.3125 0 0 1 387.43622,114.375 12.1875,12.3125 0 0 1 399.625,126.68578 l -12.1875,0.002 z" />
    <path
       style="fill:#041e6f;fill-opacity:0.996078"
       id="path592"
       d="M 415.25,136.375 A 8.375,8.625 0 0 1 406.87529,145 8.375,8.625 0 0 1 398.5,136.3756 a 8.375,8.625 0 0 1 8.37412,-8.6256 8.375,8.625 0 0 1 8.37588,8.6238 l -8.375,0.001 z" />
    <path
       style="fill:#0d2869;fill-opacity:0.984314"
       id="path594"
       d="m 417.875,119.8125 a 7.8125,8.0625 0 0 1 -7.81223,8.0625 7.8125,8.0625 0 0 1 -7.81277,-8.06194 7.8125,8.0625 0 0 1 7.81168,-8.06306 7.8125,8.0625 0 0 1 7.81332,8.06137 l -7.8125,0.001 z" />
    <path
       style="fill:#2a4690;fill-opacity:0.992157"
       id="path596"
       d="M 427.125,139.1875 A 9.3125,9.8125 0 0 1 417.81283,149 9.3125,9.8125 0 0 1 408.5,139.18818 a 9.3125,9.8125 0 0 1 9.31152,-9.81318 9.3125,9.8125 0 0 1 9.31348,9.81113 l -9.3125,0.001 z" />
    <path
       style="fill:#f20ce7;fill-opacity:0.988235"
       id="path598"
       d="M 443,124.5625 A 7.8125,7.4375 0 0 1 435.18777,132 7.8125,7.4375 0 0 1 427.375,124.56302 7.8125,7.4375 0 0 1 435.18668,117.125 7.8125,7.4375 0 0 1 443,124.56146 l -7.8125,0.001 z" />
    <path
       style="fill:#0d2869;fill-opacity:0.870588"
       id="path600"
       d="m 437.75,113.4375 a 7.6875,7.5625 0 0 1 -7.68723,7.5625 7.6875,7.5625 0 0 1 -7.68777,-7.56197 7.6875,7.5625 0 0 1 7.6867,-7.56303 7.6875,7.5625 0 0 1 7.6883,7.56144 l -7.6875,10e-4 z" />
    <path
       style="fill:#294690;fill-opacity:1"
       id="path604"
       d="m 429.625,119.8125 a 6.75,6.5625 0 0 1 -6.74976,6.5625 6.75,6.5625 0 0 1 -6.75024,-6.56204 6.75,6.5625 0 0 1 6.74929,-6.56296 6.75,6.5625 0 0 1 6.75071,6.56158 l -6.75,9.2e-4 z" />
    <path
       style="fill:#20176c;fill-opacity:0.945098"
       id="path606"
       d="M 440.5,133.875 A 11.4375,10.875 0 0 1 429.0629,144.75 11.4375,10.875 0 0 1 417.625,133.87576 11.4375,10.875 0 0 1 429.0613,123 11.4375,10.875 0 0 1 440.5,133.87348 l -11.4375,0.002 z" />
    <path
       style="fill:#f20ce7;fill-opacity:0.952941"
       id="path612"
       d="M 434.125,98.8125 A 8.875,7.8125 0 0 1 425.25031,106.625 8.875,7.8125 0 0 1 416.375,98.813045 8.875,7.8125 0 0 1 425.24907,91 8.875,7.8125 0 0 1 434.125,98.811409 l -8.875,0.0011 z" />
    <path
       style="fill:#0fa911;fill-opacity:0.996078"
       id="path614"
       d="m 434.25,106.125 a 6.875,6.75 0 0 1 -6.87476,6.75 6.875,6.75 0 0 1 -6.87524,-6.74953 6.875,6.75 0 0 1 6.87428,-6.75047 6.875,6.75 0 0 1 6.87572,6.74906 l -6.875,9.4e-4 z" />
    <path
       style="fill:#ef2571;fill-opacity:0.976471"
       id="path616"
       d="m 424.375,107.25 a 8.5625,8.625 0 0 1 -8.5622,8.625 8.5625,8.625 0 0 1 -8.5628,-8.6244 8.5625,8.625 0 0 1 8.5616,-8.6256 8.5625,8.625 0 0 1 8.5634,8.6238 l -8.5625,10e-4 z" />
    <path
       style="fill:#0808cd;fill-opacity:0.980392"
       id="path618"
       d="m 437.25,151.125 a 5.4375,5.5 0 0 1 -5.43731,5.5 5.4375,5.5 0 0 1 -5.43769,-5.49962 5.4375,5.5 0 0 1 5.43693,-5.50038 5.4375,5.5 0 0 1 5.43807,5.49923 l -5.4375,7.7e-4 z" />
    <path
       style="fill:#0808cd;fill-opacity:0.980392"
       id="path620"
       d="m 442.125,157.5 a 6.125,5.75 0 0 1 -6.12479,5.75 6.125,5.75 0 0 1 -6.12521,-5.7496 6.125,5.75 0 0 1 6.12436,-5.7504 6.125,5.75 0 0 1 6.12564,5.7492 L 436,157.5 Z" />
    <path
       style="fill:#b433dc;fill-opacity:0.878431"
       id="path628"
       d="m 469,168.6875 a 8.5625,8.8125 0 0 1 -8.5622,8.8125 8.5625,8.8125 0 0 1 -8.5628,-8.81188 8.5625,8.8125 0 0 1 8.5616,-8.81312 8.5625,8.8125 0 0 1 8.5634,8.81127 l -8.5625,0.001 z" />
    <path
       style="fill:#b432dc;fill-opacity:0.87451"
       id="path630"
       d="m 468.125,155 a 8.3125,8.375 0 0 1 -8.31221,8.375 8.3125,8.375 0 0 1 -8.31279,-8.37442 8.3125,8.375 0 0 1 8.31163,-8.37558 8.3125,8.375 0 0 1 8.31337,8.37383 L 459.8125,155 Z" />
    <path
       style="fill:#f20ce7;fill-opacity:1"
       id="path632"
       d="M 453,145.5625 A 7.6875,7.5625 0 0 1 445.31277,153.125 7.6875,7.5625 0 0 1 437.625,145.56303 7.6875,7.5625 0 0 1 445.3117,138 7.6875,7.5625 0 0 1 453,145.56144 l -7.6875,0.001 z" />
    <path
       style="fill:#f20ce7;fill-opacity:0.980392"
       id="path634"
       d="m 461,165.625 a 8.875,9.25 0 0 1 -8.87469,9.25 8.875,9.25 0 0 1 -8.87531,-9.24935 8.875,9.25 0 0 1 8.87407,-9.25065 8.875,9.25 0 0 1 8.87593,9.24871 l -8.875,0.001 z" />
    <path
       style="fill:#ef0a60;fill-opacity:0.996078"
       id="path636"
       d="m 479.375,152.75 a 8.875,8.875 0 0 1 -8.87469,8.875 8.875,8.875 0 0 1 -8.87531,-8.87438 8.875,8.875 0 0 1 8.87407,-8.87562 8.875,8.875 0 0 1 8.87593,8.87376 l -8.875,0.001 z" />
    <path
       style="fill:#f20ce7;fill-opacity:0.980392"
       id="path638"
       d="m 478,128.0625 a 7.9375,8.6875 0 0 1 -7.93722,8.6875 7.9375,8.6875 0 0 1 -7.93778,-8.68689 7.9375,8.6875 0 0 1 7.93667,-8.68811 7.9375,8.6875 0 0 1 7.93833,8.68629 l -7.9375,10e-4 z" />
    <path
       style="fill:#f20ce7;fill-opacity:0.980392"
       id="path640"
       d="M 466.5,134.9375 A 8.0625,8.0625 0 0 1 458.43778,143 8.0625,8.0625 0 0 1 450.375,134.93806 8.0625,8.0625 0 0 1 458.43666,126.875 8.0625,8.0625 0 0 1 466.5,134.93637 l -8.0625,10e-4 z" />
    <path
       style="fill:#080e81;fill-opacity:0.984314"
       id="path642"
       d="M 478.5,107.4375 A 7.5,8.4375 0 0 1 471.00026,115.875 7.5,8.4375 0 0 1 463.5,107.43809 7.5,8.4375 0 0 1 470.99921,99 7.5,8.4375 0 0 1 478.5,107.43632 l -7.5,0.001 z" />
    <path
       style="fill:#050f99;fill-opacity:0.980392"
       id="path646"
       d="M 465.875,115.4375 A 14.375,13.5625 0 0 1 451.5005,129 14.375,13.5625 0 0 1 437.125,115.43845 14.375,13.5625 0 0 1 451.49849,101.875 14.375,13.5625 0 0 1 465.875,115.43561 l -14.375,0.002 z" />
    <path
       style="fill:#b433db;fill-opacity:0.988235"
       id="path648"
       d="m 485.07525,144.1172 a 9.0598059,8.1759224 0 0 1 -9.05949,8.17593 9.0598059,8.1759224 0 0 1 -9.06012,-8.17536 9.0598059,8.1759224 0 0 1 9.05885,-8.17649 9.0598059,8.1759224 0 0 1 9.06076,8.17478 l -9.05981,0.001 z" />
    <path
       style="fill:#b639e7;fill-opacity:0.984314"
       id="path650"
       d="m 489.40627,93.338097 a 7.601398,7.6897864 0 0 1 -7.60113,7.689783 7.601398,7.6897864 0 0 1 -7.60167,-7.689247 7.601398,7.6897864 0 0 1 7.6006,-7.690323 7.601398,7.6897864 0 0 1 7.6022,7.688713 l -7.6014,0.0011 z" />
    <path
       style="fill:#991010;fill-opacity:1"
       id="path652"
       d="m 501.42709,104.56342 a 9.3691645,9.1040001 0 0 1 -9.36884,9.104 9.3691645,9.1040001 0 0 1 -9.36949,-9.10336 9.3691645,9.1040001 0 0 1 9.36818,-9.104637 9.3691645,9.1040001 0 0 1 9.37015,9.102727 l -9.36917,10e-4 z" />
    <path
       style="fill:#d50aef;fill-opacity:0.984314"
       id="path654"
       d="m 501.69226,118.66135 a 9.1040001,8.5294752 0 0 1 -9.10369,8.52947 9.1040001,8.5294752 0 0 1 -9.10431,-8.52888 9.1040001,8.5294752 0 0 1 9.10304,-8.53007 9.1040001,8.5294752 0 0 1 9.10496,8.52829 l -9.104,10e-4 z" />
    <path
       style="fill:#f00a5f;fill-opacity:0.980392"
       id="path656"
       d="m 494.88637,129.88667 a 9.5901356,9.1481943 0 0 1 -9.5898,9.1482 9.5901356,9.1481943 0 0 1 -9.59047,-9.14756 9.5901356,9.1481943 0 0 1 9.58913,-9.14883 9.5901356,9.1481943 0 0 1 9.59114,9.14692 l -9.59014,0.001 z" />
    <path
       style="fill:#0c246c;fill-opacity:0.996078"
       id="path658"
       d="m 461.38718,83.306015 a 8.5736694,9.0598059 0 0 1 -8.57337,9.059806 8.5736694,9.0598059 0 0 1 -8.57397,-9.059174 8.5736694,9.0598059 0 0 1 8.57277,-9.060438 8.5736694,9.0598059 0 0 1 8.57457,9.058541 l -8.57367,0.0013 z" />
    <path
       style="fill:#ec14da;fill-opacity:0.976471"
       id="path660"
       d="m 454.58128,94.001007 a 8.9714174,9.0598059 0 0 1 -8.9711,9.059803 8.9714174,9.0598059 0 0 1 -8.97173,-9.059171 8.9714174,9.0598059 0 0 1 8.97047,-9.060438 8.9714174,9.0598059 0 0 1 8.97236,9.058541 l -8.97142,0.0013 z" />
    <path
       style="fill:#b639e7;fill-opacity:0.862745"
       id="path662"
       d="m 458.11681,69.473244 a 7.0710678,7.2478447 0 0 1 -7.07082,7.247844 7.0710678,7.2478447 0 0 1 -7.07131,-7.247338 7.0710678,7.2478447 0 0 1 7.07033,-7.248351 7.0710678,7.2478447 0 0 1 7.0718,7.246833 l -7.07106,10e-4 z" />
    <path
       style="fill:#f20ce7;fill-opacity:0.984314"
       id="path666"
       d="m 474.11511,92.012268 a 8.8388348,7.9549513 0 0 1 -8.83853,7.954951 8.8388348,7.9549513 0 0 1 -8.83914,-7.954396 8.8388348,7.9549513 0 0 1 8.83791,-7.955506 8.8388348,7.9549513 0 0 1 8.83976,7.95384 l -8.83883,0.0011 z" />
    <path
       style="fill:#b639e7;fill-opacity:0.984314"
       id="path668"
       d="m 477.29708,86.620583 a 7.9549513,8.8388348 0 0 1 -7.95467,8.838834 7.9549513,8.8388348 0 0 1 -7.95523,-8.838217 7.9549513,8.8388348 0 0 1 7.95412,-8.839452 7.9549513,8.8388348 0 0 1 7.95578,8.837601 l -7.95495,0.0012 z" />
    <path
       style="fill:#4a2e91;fill-opacity:0.756863"
       id="path672"
       d="m 446.00763,90.686447 a 7.4246211,7.4246211 0 0 1 -7.42436,7.424621 7.4246211,7.4246211 0 0 1 -7.42488,-7.424103 7.4246211,7.4246211 0 0 1 7.42384,-7.425139 7.4246211,7.4246211 0 0 1 7.4254,7.423585 l -7.42462,0.001 z" />
    <path
       style="fill:#d743f0;fill-opacity:0.890196"
       id="path676"
       d="m 447.15664,80.875343 a 12.462757,11.755651 0 0 1 -12.46233,11.755652 12.462757,11.755651 0 0 1 -12.46319,-11.754831 12.462757,11.755651 0 0 1 12.46145,-11.756472 12.462757,11.755651 0 0 1 12.46407,11.75401 l -12.46276,0.0016 z" />
    <path
       style="fill:#d50aef;fill-opacity:0.976471"
       id="path678"
       d="m 443.35596,63.020893 a 9.5017471,9.1923885 0 0 1 -9.50141,9.192389 9.5017471,9.1923885 0 0 1 -9.50208,-9.191747 9.5017471,9.1923885 0 0 1 9.50075,-9.19303 9.5017471,9.1923885 0 0 1 9.50274,9.191105 l -9.50174,0.0013 z" />
    <path
       style="fill:#2f8e0f;fill-opacity:0.980392"
       id="path680"
       d="m 412.24325,90.20031 a 6.2755728,6.319767 0 0 1 -6.27535,6.319767 6.2755728,6.319767 0 0 1 -6.27579,-6.319326 6.2755728,6.319767 0 0 1 6.27491,-6.320208 6.2755728,6.319767 0 0 1 6.27623,6.318884 l -6.27557,8.83e-4 z" />
    <path
       style="fill:#102a6b;fill-opacity:0.996078"
       id="path682"
       d="m 421.34724,77.428192 a 6.7175145,7.3362327 0 0 1 -6.71728,7.336233 6.7175145,7.3362327 0 0 1 -6.71774,-7.335721 6.7175145,7.3362327 0 0 1 6.71681,-7.336744 6.7175145,7.3362327 0 0 1 6.71821,7.335208 l -6.71751,0.001 z" />
    <path
       style="fill:#080e82;fill-opacity:0.980392"
       id="path684"
       d="m 407.47027,73.936852 a 7.6897864,7.9107571 0 0 1 -7.68951,7.910757 7.6897864,7.9107571 0 0 1 -7.69006,-7.910205 7.6897864,7.9107571 0 0 1 7.68898,-7.91131 7.6897864,7.9107571 0 0 1 7.69059,7.909653 l -7.68978,0.0011 z" />
    <path
       style="fill:#2a7b91;fill-opacity:0.980392"
       id="path686"
       d="m 408.88451,59.131805 a 8.1759224,8.3085051 0 0 1 -8.17564,8.308505 8.1759224,8.3085051 0 0 1 -8.1762,-8.307925 8.1759224,8.3085051 0 0 1 8.17506,-8.309085 8.1759224,8.3085051 0 0 1 8.17678,8.307345 l -8.17592,0.0012 z" />
    <path
       style="fill:#f00a5f;fill-opacity:0.984314"
       id="path688"
       d="m 416.30911,68.324196 a 8.5736694,9.0156116 0 0 1 -8.57337,9.015612 8.5736694,9.0156116 0 0 1 -8.57397,-9.014983 8.5736694,9.0156116 0 0 1 8.57278,-9.016241 8.5736694,9.0156116 0 0 1 8.57456,9.014353 l -8.57367,0.0013 z" />
    <path
       style="fill:#0d2869;fill-opacity:0.980392"
       id="path690"
       d="m 418.34205,52.370094 a 7.4688153,7.8223686 0 0 1 -7.46856,7.822369 7.4688153,7.8223686 0 0 1 -7.46908,-7.821823 7.4688153,7.8223686 0 0 1 7.46804,-7.822914 7.4688153,7.8223686 0 0 1 7.4696,7.821276 l -7.46882,0.0011 z" />
    <path
       style="fill:#2e8e0f;fill-opacity:0.866667"
       id="path692"
       d="m 397.21724,49.983612 a 5.833631,5.9662132 0 0 1 -5.83343,5.966213 5.833631,5.9662132 0 0 1 -5.83384,-5.965796 5.833631,5.9662132 0 0 1 5.83303,-5.96663 5.833631,5.9662132 0 0 1 5.83424,5.96538 l -5.83363,8.33e-4 z" />
    <path
       style="fill:#297b90;fill-opacity:0.803922"
       id="path694"
       d="m 376.18081,49.895222 a 8.7946405,9.0598059 0 0 1 -8.79433,9.059806 8.7946405,9.0598059 0 0 1 -8.79495,-9.059174 8.7946405,9.0598059 0 0 1 8.79372,-9.060438 8.7946405,9.0598059 0 0 1 8.79556,9.058541 l -8.79464,0.0013 z" />
    <path
       style="fill:#0c2768;fill-opacity:0.890196"
       id="path696"
       d="m 379.71635,57.71759 a 6.9826794,7.1594563 0 0 1 -6.98243,7.159457 6.9826794,7.1594563 0 0 1 -6.98293,-7.158957 6.9826794,7.1594563 0 0 1 6.98195,-7.159956 6.9826794,7.1594563 0 0 1 6.98341,7.158457 l -6.98268,9.99e-4 z" />
    <path
       style="fill:#2f8e0f;fill-opacity:0.996078"
       id="path698"
       d="m 380.24668,46.050327 a 6.0546017,6.1871843 0 0 1 -6.05439,6.187185 6.0546017,6.1871843 0 0 1 -6.05481,-6.186753 6.0546017,6.1871843 0 0 1 6.05396,-6.187616 6.0546017,6.1871843 0 0 1 6.05524,6.186321 l -6.0546,8.63e-4 z" />
    <path
       style="fill:#0d2869;fill-opacity:0.980392"
       id="path700"
       d="m 356.73538,48.569397 a 8.2201166,7.9991455 0 0 1 -8.21983,7.999145 8.2201166,7.9991455 0 0 1 -8.22041,-7.998587 8.2201166,7.9991455 0 0 1 8.21926,-7.999703 8.2201166,7.9991455 0 0 1 8.22098,7.998028 l -8.22012,0.0011 z" />
    <path
       style="fill:#ec17da;fill-opacity:1"
       id="path702"
       d="m 398.45466,87.416077 a 8.087534,8.485281 0 0 1 -8.08725,8.485281 8.087534,8.485281 0 0 1 -8.08782,-8.484689 8.087534,8.485281 0 0 1 8.08669,-8.485873 8.087534,8.485281 0 0 1 8.08838,8.484096 l -8.08753,0.0012 z" />
    <path
       style="fill:#0d2768;fill-opacity:0.866667"
       id="path704"
       d="m 385.10804,82.510521 a 5.7894368,6.1429901 0 0 1 -5.78923,6.14299 5.7894368,6.1429901 0 0 1 -5.78964,-6.142561 5.7894368,6.1429901 0 0 1 5.78883,-6.143419 5.7894368,6.1429901 0 0 1 5.79004,6.142132 l -5.78944,8.58e-4 z" />
    <path
       style="fill:#080e81;fill-opacity:0.866667"
       id="path706"
       d="m 382.72155,72.345863 a 8.2201166,8.5294752 0 0 1 -8.21983,8.529476 8.2201166,8.5294752 0 0 1 -8.2204,-8.52888 8.2201166,8.5294752 0 0 1 8.21925,-8.530071 8.2201166,8.5294752 0 0 1 8.22098,8.528285 l -8.22012,0.0012 z" />
    <path
       style="fill:#0d2769;fill-opacity:0.87451"
       id="path708"
       d="m 390.23456,75.26268 a 6.0104074,5.8778253 0 0 1 -6.0102,5.877825 6.0104074,5.8778253 0 0 1 -6.01062,-5.877415 6.0104074,5.8778253 0 0 1 6.00978,-5.878235 6.0104074,5.8778253 0 0 1 6.01104,5.877004 l -6.01041,8.21e-4 z" />
    <path
       style="fill:#328f13;fill-opacity:0.996078"
       id="path710"
       d="m 389.9694,94.177788 a 6.6733203,6.408155 0 0 1 -6.67309,6.408152 6.6733203,6.408155 0 0 1 -6.67355,-6.407705 6.6733203,6.408155 0 0 1 6.67262,-6.408602 6.6733203,6.408155 0 0 1 6.67402,6.40726 l -6.67332,8.95e-4 z" />
    <path
       style="fill:#080e82;fill-opacity:0.878431"
       id="path712"
       d="m 363.71806,79.947258 a 8.087534,7.9991455 0 0 1 -8.08725,7.999145 8.087534,7.9991455 0 0 1 -8.08782,-7.998587 8.087534,7.9991455 0 0 1 8.08669,-7.999703 8.087534,7.9991455 0 0 1 8.08838,7.998028 l -8.08754,0.0011 z" />
    <path
       style="fill:#0d2869;fill-opacity:0.980392"
       id="path714"
       d="m 373.08722,76.721085 a 8.0433397,8.0433397 0 0 1 -8.04305,8.043339 8.0433397,8.0433397 0 0 1 -8.04363,-8.042778 8.0433397,8.0433397 0 0 1 8.0425,-8.043901 8.0433397,8.0433397 0 0 1 8.04418,8.042217 l -8.04334,0.0011 z" />
    <path
       style="fill:#2f8e0f;fill-opacity:0.980392"
       id="path716"
       d="m 319.96582,52.458485 a 6.5849319,6.319767 0 0 1 -6.5847,6.319767 6.5849319,6.319767 0 0 1 -6.58516,-6.319326 6.5849319,6.319767 0 0 1 6.58424,-6.320208 6.5849319,6.319767 0 0 1 6.58562,6.318884 l -6.58493,8.83e-4 z" />
    <path
       style="fill:#2a7a90;fill-opacity:0.94902"
       id="path718"
       d="M 348,60.9375 A 7.75,8.0625 0 0 1 340.25027,69 7.75,8.0625 0 0 1 332.5,60.938063 7.75,8.0625 0 0 1 340.24919,52.875 7.75,8.0625 0 0 1 348,60.936374 l -7.75,0.0011 z" />
    <path
       style="fill:#0d2869;fill-opacity:0.980392"
       id="path720"
       d="M 332.5,58.8125 A 7.625,7.4375 0 0 1 324.87527,66.25 7.625,7.4375 0 0 1 317.25,58.813019 7.625,7.4375 0 0 1 324.8742,51.375 7.625,7.4375 0 0 1 332.5,58.811462 l -7.625,10e-4 z" />
    <path
       style="fill:#0d2869;fill-opacity:0.870588"
       id="path722"
       d="M 331.25,80.4375 A 6.0625,6.0625 0 0 1 325.18771,86.5 6.0625,6.0625 0 0 1 319.125,80.437923 6.0625,6.0625 0 0 1 325.18687,74.375 6.0625,6.0625 0 0 1 331.25,80.436654 l -6.0625,8.46e-4 z" />
    <path
       style="fill:#0808cd;fill-opacity:0.980392"
       id="path724"
       d="M 350.875,73.3125 A 13.25,12.6875 0 0 1 337.62546,86 13.25,12.6875 0 0 1 324.375,73.313386 13.25,12.6875 0 0 1 337.62361,60.625 13.25,12.6875 0 0 1 350.875,73.310729 l -13.25,0.0018 z" />
    <path
       style="fill:#ec14da;fill-opacity:0.980392"
       id="path726"
       d="m 346.875,74.75 a 6.0625,6 0 0 1 -6.06229,6 A 6.0625,6 0 0 1 334.75,74.750419 6.0625,6 0 0 1 340.81187,68.75 6.0625,6 0 0 1 346.875,74.749162 L 340.8125,74.75 Z" />
    <path
       style="fill:#2a7b91;fill-opacity:0.980392"
       id="path728"
       d="M 299.25,79.875 A 8.1875,8.125 0 0 1 291.06279,88 8.1875,8.125 0 0 1 282.875,79.875567 8.1875,8.125 0 0 1 291.06164,71.75 8.1875,8.125 0 0 1 299.25,79.873866 l -8.1875,0.0011 z" />
    <path
       style="fill:#0c2868;fill-opacity:0.882353"
       id="path730"
       d="M 295.5,93.125 A 6.3125,6.125 0 0 1 289.18772,99.25 6.3125,6.125 0 0 1 282.875,93.125428 6.3125,6.125 0 0 1 289.18684,87 6.3125,6.125 0 0 1 295.5,93.124145 l -6.3125,8.55e-4 z" />
    <path
       style="fill:#d653ee;fill-opacity:0.984314"
       id="path732"
       d="m 293.625,85.75 a 13.875,14 0 0 1 -13.87452,14 A 13.875,14 0 0 1 265.875,85.750977 13.875,14 0 0 1 279.74855,71.75 13.875,14 0 0 1 293.625,85.748045 L 279.75,85.75 Z" />
    <path
       style="fill:#080e82;fill-opacity:0.866667"
       id="path734"
       d="m 318.375,85.875 a 8.3125,8.75 0 0 1 -8.31221,8.75 8.3125,8.75 0 0 1 -8.31279,-8.749389 8.3125,8.75 0 0 1 8.31163,-8.750611 8.3125,8.75 0 0 1 8.31337,8.748778 l -8.3125,0.0012 z" />
    <path
       style="fill:#080e82;fill-opacity:0.980392"
       id="path736"
       d="m 311.875,96.375 a 8.5,8.75 0 0 1 -8.4997,8.75 8.5,8.75 0 0 1 -8.5003,-8.749389 8.5,8.75 0 0 1 8.49911,-8.750611 8.5,8.75 0 0 1 8.50089,8.748778 l -8.5,0.0012 z" />
    <path
       style="fill:#0d2869;fill-opacity:0.866667"
       id="path738"
       d="M 302.25,67.9375 A 6.9375,7.1875 0 0 1 295.31274,75.125 6.9375,7.1875 0 0 1 288.375,67.938002 6.9375,7.1875 0 0 1 295.31177,60.75 6.9375,7.1875 0 0 1 302.25,67.936497 l -6.9375,10e-4 z" />
    <path
       style="fill:#d353ed;fill-opacity:0.996078"
       id="path740"
       d="M 327.75,67.5 A 14.3125,15.375 0 0 1 313.438,82.875 14.3125,15.375 0 0 1 299.125,67.501073 14.3125,15.375 0 0 1 313.436,52.125 14.3125,15.375 0 0 1 327.75,67.497854 L 313.4375,67.5 Z" />
    <path
       style="fill:#d50aef;fill-opacity:0.980392"
       id="path742"
       d="m 330.125,102 a 9.0625,9.375 0 0 1 -9.06218,9.375 A 9.0625,9.375 0 0 1 312,102.00065 9.0625,9.375 0 0 1 321.06155,92.625 9.0625,9.375 0 0 1 330.125,101.99869 L 321.0625,102 Z" />
    <path
       style="fill:#080e82;fill-opacity:0.866667"
       id="path744"
       d="M 347.5,103.875 A 8.5,8.125 0 0 1 339.0003,112 8.5,8.125 0 0 1 330.5,103.87557 8.5,8.125 0 0 1 338.99911,95.75 8.5,8.125 0 0 1 347.5,103.87387 l -8.5,0.001 z" />
    <path
       style="fill:#e7f0ef;fill-opacity:0.866667"
       id="path746"
       d="m 348.75,93.1875 a 8.5625,8.3125 0 0 1 -8.5622,8.3125 8.5625,8.3125 0 0 1 -8.5628,-8.31192 8.5625,8.3125 0 0 1 8.5616,-8.31308 8.5625,8.3125 0 0 1 8.5634,8.31134 l -8.5625,0.0012 z" />
    <path
       style="fill:#ec14da;fill-opacity:0.980392"
       id="path748"
       d="m 365.5,98.875 a 9,8.75 0 0 1 -8.99969,8.75 A 9,8.75 0 0 1 347.5,98.875611 9,8.75 0 0 1 356.49906,90.125 9,8.75 0 0 1 365.5,98.873778 l -9,0.0012 z" />
    <path
       style="fill:#0c2769;fill-opacity:0.996078"
       id="path752"
       d="M 358.375,86.0625 A 8,7.5625 0 0 1 350.37528,93.625 8,7.5625 0 0 1 342.375,86.063028 8,7.5625 0 0 1 350.37416,78.5 8,7.5625 0 0 1 358.375,86.061444 l -8,0.0011 z" />
  </g>
  <text
     xml:space="preserve"
     id="text4381"
     style="font-style:normal;font-variant:normal;font-weight:normal;font-stretch:normal;font-size:86.0336px;line-height:1.25;font-family:'Baskerville Old Face';-inkscape-font-specification:'Baskerville Old Face, Normal';font-variant-ligatures:normal;font-variant-caps:normal;font-variant-numeric:normal;font-variant-east-asian:normal;white-space:pre;shape-inside:url(#rect4383);mix-blend-mode:normal;fill:#b648deff;fill-opacity:1;stroke:none;stroke-width:1.00021;stroke-miterlimit:4;stroke-dasharray:none;"
     transform="matrix(5.4800814,0,0,3.5104855,-2542.4453,-296.54622)"><tspan
       x="545.50586"
       y="181.81526"><tspan
         style="font-style:normal;font-variant:normal;font-weight:normal;font-stretch:normal;font-size:86.0336px;font-family:'Baskerville Old Face';-inkscape-font-specification:'Baskerville Old Face, Normal';font-variant-ligatures:normal;font-variant-caps:normal;font-variant-numeric:normal;font-variant-east-asian:normal;fill:#b648deff;fill-opacity:1;stroke-width:1.00021;stroke-miterlimit:4;stroke-dasharray:none">aspita</tspan></tspan></text>
</svg>
