<svg xmlns="http://www.w3.org/2000/svg" width="350" height="300" viewBox="0 0 350 300" version="1.1">
	<path d="M 220.655 1.829 C 217.246 5.595, 219.928 11, 225.206 11 C 228.292 11, 230.250 8.865, 230.250 5.500 C 230.250 4.128, 229.689 2.330, 229.003 1.503 C 227.286 -0.565, 222.658 -0.384, 220.655 1.829 M 236.556 2.353 C 235.150 3.759, 234 5.850, 234 7 C 234 10.105, 238.385 14, 241.882 14 C 245.317 14, 249 10.087, 249 6.437 C 249 3.994, 246.633 1.009, 244.679 0.986 C 244.030 0.979, 242.513 0.708, 241.306 0.384 C 239.763 -0.029, 238.355 0.554, 236.556 2.353 M 254.046 3.445 C 252.292 5.558, 253.170 9.355, 255.666 10.451 C 258.561 11.722, 259.542 16.204, 258.416 23.020 C 257.671 27.532, 260.451 30.382, 265.413 30.196 C 267.341 30.123, 269.346 30.712, 270.047 31.557 C 271.063 32.781, 271.005 32.939, 269.720 32.446 C 267.325 31.527, 264 33.788, 264 36.335 C 264 39.194, 265.772 41, 268.578 41 C 271.497 41, 273.343 38.573, 272.756 35.506 C 272.357 33.418, 272.662 33, 274.580 33 C 275.846 33, 277.177 32.523, 277.538 31.939 C 277.904 31.346, 278.929 32.337, 279.863 34.189 C 281.464 37.364, 281.449 37.559, 279.516 38.940 C 278.407 39.731, 277.168 40.919, 276.763 41.578 C 276.357 42.237, 274.972 43.041, 273.684 43.364 C 271.027 44.031, 268.659 48.350, 269.499 50.996 C 269.847 52.094, 269.437 53.002, 268.414 53.394 C 267.055 53.916, 266.848 53.488, 267.224 50.930 C 267.581 48.495, 267.178 47.507, 265.333 46.299 C 260.599 43.197, 254.767 48.176, 256.294 54.016 C 256.734 55.697, 256.312 56, 253.529 56 C 251.723 56, 249.689 56.670, 249.009 57.489 C 248.329 58.308, 247.363 58.724, 246.861 58.414 C 246.359 58.104, 247.085 56.499, 248.474 54.848 C 249.863 53.197, 251 51.401, 251 50.858 C 251 49.418, 248.880 45.620, 247.600 44.765 C 245.575 43.413, 241.327 43.981, 239.655 45.829 C 237.822 47.854, 237.417 53.521, 239.034 54.521 C 239.635 54.892, 238.968 56.024, 237.438 57.227 C 235.293 58.914, 234.920 59.849, 235.410 62.302 C 236.356 67.032, 237.910 68.275, 242.160 67.705 C 245.281 67.287, 246.156 67.589, 247.425 69.526 C 248.262 70.803, 249.971 72.170, 251.223 72.563 C 252.476 72.956, 254.504 74.354, 255.730 75.669 C 257.707 77.789, 258.663 78.020, 264.154 77.704 C 269.136 77.417, 270.704 77.704, 272.174 79.174 C 274.374 81.374, 278.895 81.547, 281.559 79.532 C 283.899 77.762, 285.888 77.512, 284.200 79.200 C 283.540 79.860, 283 81.226, 283 82.235 C 283 84.141, 285.694 88.954, 287.477 90.235 C 289.155 91.440, 292.673 91.099, 293.908 89.611 C 294.542 88.847, 296.153 88.013, 297.488 87.758 L 299.914 87.294 297.957 89.782 C 295.463 92.953, 295.476 95.476, 298 98 C 300.222 100.222, 304.949 100.651, 306.800 98.800 C 307.649 97.951, 308 97.930, 308 98.729 C 308 99.349, 308.717 100.574, 309.594 101.451 C 311.053 102.910, 311.516 102.683, 315.053 98.773 C 317.179 96.423, 318.936 93.946, 318.959 93.269 C 319.020 91.433, 314.232 90.584, 311.176 91.889 C 308.683 92.954, 308.633 92.929, 310.441 91.516 C 311.509 90.682, 313.560 90, 315 90 C 318.009 90, 320.557 88.380, 322.292 85.365 C 322.956 84.210, 324.351 82.062, 325.392 80.591 C 326.941 78.403, 327.081 77.472, 326.163 75.459 C 325.142 73.218, 325.256 73, 327.449 73 C 329.975 73, 334 68.858, 334 66.259 C 334 65.450, 335.125 63.903, 336.500 62.821 C 338.283 61.419, 339 59.888, 339 57.486 C 339 55.634, 338.590 53.865, 338.088 53.555 C 337.553 53.224, 337.627 51.798, 338.270 50.097 C 339.691 46.330, 337.175 42.185, 332.955 41.341 C 330.731 40.896, 330 40.193, 330 38.497 C 330 35.425, 327.608 33.684, 324.097 34.199 C 321.558 34.572, 321.103 34.263, 320.618 31.841 C 319.954 28.518, 316.145 27.157, 312.348 28.887 C 310.186 29.873, 309.586 29.719, 307.955 27.764 C 306.916 26.519, 306.052 24.093, 306.033 22.372 C 306.015 20.652, 305.352 18.707, 304.560 18.050 C 302.345 16.211, 297.706 17.178, 296.434 19.744 C 295.065 22.506, 293.827 21.609, 294.920 18.647 C 297.344 12.082, 288.841 7.034, 284.039 12.189 C 281.815 14.576, 281.463 17.127, 282.968 19.940 C 283.694 21.297, 283.461 22.178, 282.033 23.470 C 280.231 25.101, 279.997 25.094, 277.597 23.346 C 276.203 22.331, 275.049 20.712, 275.031 19.750 C 275.014 18.787, 274.100 17.100, 273 16 C 271.649 14.649, 271.437 14, 272.345 14 C 276.176 14, 278.534 6.518, 275.497 3.997 C 273.245 2.128, 268.828 2.494, 267.044 4.697 C 264.822 7.441, 261 8.332, 261 6.106 C 261 2.402, 256.379 0.634, 254.046 3.445 M 195.243 5.157 C 194.559 5.841, 194 7.033, 194 7.806 C 194 8.579, 192.818 10.616, 191.374 12.332 C 189.347 14.740, 188.081 15.382, 185.824 15.145 C 182.055 14.750, 180 16.507, 180 20.122 C 180 23.163, 179.709 23.297, 173.697 23.017 C 166.517 22.682, 161.064 29.251, 162.979 35.927 L 163.886 39.090 161.042 36.045 C 155.505 30.118, 146 33.395, 146 41.232 C 146 45.935, 148.200 48.512, 153.994 50.595 C 158.473 52.206, 158.860 52.569, 157.519 53.909 C 156.344 55.085, 155.750 55.150, 154.807 54.207 C 153.475 52.875, 149.122 52.615, 147.400 53.765 C 141.467 57.727, 145.862 67.156, 152.796 65.343 C 154.232 64.968, 154.998 65.419, 155.474 66.920 C 156.445 69.978, 161.598 72.317, 166.050 71.720 C 169.527 71.254, 169.833 71.428, 170.671 74.348 C 172.392 80.349, 180.968 80.594, 183.524 74.715 C 184.607 72.223, 184.931 71.971, 184.961 73.595 C 185.005 75.967, 187.912 79, 190.141 79 C 190.956 79, 192.622 80.350, 193.842 82 C 196.760 85.947, 201.925 86.166, 205.591 82.500 C 206.966 81.125, 208.667 80, 209.371 80 C 211.738 80, 215 75.472, 215 72.186 C 215 68.811, 212.083 65, 209.500 65 C 208.457 65, 208 63.951, 208 61.557 C 208 55.992, 201.935 53.069, 197.441 56.468 C 195.582 57.874, 195.616 57.938, 198.250 57.968 C 200.992 58, 205 61.033, 205 63.077 C 205 64.647, 199.395 70, 197.751 70 C 195.727 70, 192 65.714, 192 63.386 C 192 60.652, 190.100 59, 186.955 59 C 183.913 59, 181 61.753, 181 64.628 C 181 66.267, 180.447 66.534, 177.711 66.214 C 174.572 65.848, 174.441 65.664, 174.845 62.204 C 175.110 59.936, 176.155 57.879, 177.634 56.716 C 180.820 54.210, 180.897 48.742, 177.777 46.557 C 174.348 44.155, 171.324 44.643, 168.842 48 C 167.458 49.872, 165.729 51, 164.244 51 L 161.864 51 163.932 48.096 C 165.069 46.498, 166 44.457, 166 43.560 C 166 42.258, 166.389 42.138, 167.934 42.965 C 170.614 44.399, 182.323 44.277, 183.800 42.800 C 184.733 41.867, 185 41.943, 185 43.145 C 185 47.386, 192.612 49.566, 196.171 46.345 C 197.885 44.794, 198 44.816, 198 46.690 C 198 51.418, 205.259 53.741, 208.840 50.160 C 210.627 48.373, 210.740 48.388, 212.764 50.660 C 213.930 51.968, 215.984 53, 217.424 53 C 220.063 53, 224 49.913, 224 47.845 C 224 47.154, 224.735 47.355, 225.829 48.345 C 229.883 52.014, 237 48.880, 237 43.424 C 237 41.969, 235.960 39.923, 234.611 38.720 C 232.398 36.750, 232.333 36.422, 233.726 34.296 C 234.676 32.845, 236.218 32, 237.915 32 C 239.392 32, 241.140 31.460, 241.800 30.800 C 242.733 29.867, 243 30.054, 243 31.645 C 243 32.770, 243.875 34.482, 244.944 35.449 C 246.013 36.416, 247.025 38.353, 247.194 39.753 C 247.699 43.953, 250.080 44.624, 255.377 42.059 C 262.567 38.579, 264.100 33.797, 259.250 29.982 C 257.738 28.792, 256.444 27.410, 256.375 26.909 C 256.306 26.409, 256.194 25.401, 256.125 24.668 C 255.979 23.112, 246.908 17, 244.745 17 C 243.934 17, 242.126 17.900, 240.727 19 C 239.329 20.100, 237.538 21, 236.747 21 C 235.957 21, 234.554 21.835, 233.630 22.857 C 231.456 25.258, 227.277 24.547, 226.474 21.640 C 224.058 12.879, 221.216 10.152, 215.619 11.222 C 214.058 11.520, 212.880 11.038, 212.093 9.777 C 211.208 8.361, 209.979 7.962, 207.205 8.192 C 204.318 8.432, 203.274 8.059, 202.477 6.500 C 201.279 4.158, 197.030 3.370, 195.243 5.157 M 150.655 15.829 C 148.458 18.256, 148.550 23.283, 150.829 25.345 C 154.853 28.987, 162 25.887, 162 20.500 C 162 15.024, 154.265 11.839, 150.655 15.829 M 187.963 25.023 C 187.068 25.576, 186.652 27.179, 186.839 29.350 C 187.002 31.246, 186.655 33.095, 186.068 33.458 C 185.481 33.821, 185 35.012, 185 36.106 C 185 38.038, 185.069 38.043, 187.469 36.297 C 188.826 35.309, 189.951 33.683, 189.969 32.684 C 189.986 31.686, 190.409 30.104, 190.909 29.170 C 192.132 26.884, 189.942 23.800, 187.963 25.023 M 118.954 32.750 C 114.664 36.583, 113.960 42.213, 117.171 47 C 118.462 48.925, 120.041 51.680, 120.679 53.122 C 123.074 58.529, 131.191 57.248, 132.618 51.237 C 132.976 49.732, 133.823 47.825, 134.500 47 C 138.213 42.477, 136.428 34.307, 131.128 31.566 C 126.553 29.200, 122.484 29.596, 118.954 32.750 M 203 33.423 C 203 34.340, 201.875 36.216, 200.500 37.591 C 197.643 40.448, 197.046 43.173, 199.829 40.655 C 202.573 38.171, 206.719 38.594, 209.548 41.646 C 210.896 43.101, 212 43.763, 212 43.116 C 212 42.436, 213.220 42.842, 214.890 44.077 C 217.483 45.994, 218.066 46.074, 220.541 44.857 C 222.059 44.111, 223.643 42.558, 224.061 41.406 C 224.713 39.607, 224.495 39.374, 222.508 39.754 C 220.198 40.195, 216.728 37.685, 215.800 34.900 C 215.491 33.973, 213.834 33.616, 210.510 33.760 C 207.848 33.876, 205.069 33.472, 204.335 32.863 C 203.312 32.014, 203 32.145, 203 33.423 M 97.775 38.559 C 94.228 40.484, 93 42.920, 93 48.033 C 93 51.402, 93.593 52.752, 96.106 55.099 C 97.814 56.694, 99.839 58, 100.606 58 C 103.129 58, 102.164 61.742, 99.466 62.419 C 93.972 63.798, 93.957 71.656, 99.444 74.157 C 101.446 75.068, 102.426 74.951, 104.579 73.540 C 106.043 72.581, 107.464 70.942, 107.737 69.898 C 108.054 68.686, 109.118 68, 110.682 68 C 114.289 68, 116.569 66.456, 117.976 63.058 C 119.487 59.411, 118.711 55.740, 115.870 53.093 C 114.468 51.787, 113.695 49.722, 113.559 46.919 C 113.176 39.013, 104.958 34.661, 97.775 38.559 M 303.633 41.750 L 302.215 44.500 307.107 44.507 C 309.798 44.512, 312 44.174, 312 43.757 C 312 43.341, 311.329 43, 310.508 43 C 309.688 43, 308.455 42.100, 307.768 41 C 306.103 38.334, 305.322 38.476, 303.633 41.750 M 317.221 41.609 C 316.395 42.493, 316.582 42.919, 317.954 43.278 C 318.967 43.543, 320.567 44.935, 321.508 46.372 C 323.960 50.113, 322.771 53.780, 318.533 55.551 C 314.010 57.440, 313.431 58.664, 316.760 59.295 C 318.267 59.580, 320.400 60.086, 321.500 60.420 C 324.571 61.351, 326.018 59.756, 326.020 55.435 C 326.024 47.962, 325.509 45, 324.205 45 C 323.492 45, 321.879 43.970, 320.620 42.711 C 318.873 40.964, 318.067 40.703, 317.221 41.609 M 288.831 44.750 C 289.068 46.813, 289.790 49.263, 290.436 50.195 C 291.504 51.735, 291.865 51.621, 294.390 48.945 C 296.172 47.057, 296.663 46, 295.759 46 C 294.983 46, 293.292 44.875, 292 43.500 C 288.839 40.135, 288.326 40.338, 288.831 44.750 M 226.635 59.073 C 223.653 61.418, 223.270 64.512, 225.557 67.777 C 227.825 71.016, 228.955 70.500, 228.309 66.519 C 227.931 64.186, 228.281 62.220, 229.372 60.555 C 232.134 56.339, 230.935 55.690, 226.635 59.073 M 263.570 58.887 C 263.269 59.374, 263.657 60.300, 264.432 60.944 C 265.585 61.900, 265.744 61.738, 265.305 60.057 C 264.711 57.786, 264.386 57.567, 263.570 58.887 M 274.010 63.488 C 273.006 64.698, 273.095 65.099, 274.488 65.634 C 276.237 66.305, 278.294 64.284, 277.375 62.798 C 276.625 61.584, 275.378 61.839, 274.010 63.488 M 133 65 C 129.077 68.923, 131.752 75, 137.402 75 C 141.262 75, 144 72.438, 144 68.826 C 144 63.518, 136.938 61.062, 133 65 M 46.923 66.923 C 41.168 72.678, 44.630 81, 52.780 81 C 57.870 81, 61 77.816, 61 72.640 C 61 64.629, 52.621 61.226, 46.923 66.923 M 293.607 66.582 C 293.273 67.452, 293 69.307, 293 70.704 C 293 72.845, 293.235 73.050, 294.494 72.005 C 295.316 71.323, 297.116 70.980, 298.494 71.244 C 299.872 71.507, 301 71.372, 301 70.943 C 301 70.514, 301.237 69.546, 301.526 68.792 C 301.865 67.909, 300.862 66.990, 298.705 66.210 C 294.457 64.674, 294.336 64.683, 293.607 66.582 M 216 68.389 C 216 72.463, 219.035 75.219, 223.024 74.766 L 226.500 74.372 223.220 73.077 C 221.415 72.366, 219.266 70.482, 218.444 68.892 C 216.625 65.374, 216 65.246, 216 68.389 M 115.750 70.080 C 113.632 71.314, 113.350 77.518, 115.359 78.700 C 116.106 79.140, 117.267 81.191, 117.939 83.258 C 119.243 87.270, 121.434 89, 125.212 89 C 133.715 89, 135.466 76.410, 127.249 74.348 C 125.750 73.971, 123.698 72.614, 122.689 71.332 C 120.725 68.834, 118.559 68.444, 115.750 70.080 M 148.655 74.829 C 146.228 77.510, 146.526 82.554, 149.223 84.443 C 152.377 86.653, 160.247 86.489, 162.345 84.171 C 165.743 80.417, 164.094 76.370, 158.352 74.371 C 153.112 72.547, 150.613 72.665, 148.655 74.829 M 311.660 76.131 C 310.647 76.719, 308.510 77.008, 306.910 76.773 C 304.715 76.451, 304 76.746, 304 77.972 C 304 80.232, 310.286 79.446, 312.592 76.898 C 314.531 74.756, 314.321 74.584, 311.660 76.131 M 289 77 C 287.718 77.828, 287.754 77.972, 289.250 77.985 C 290.212 77.993, 291 77.550, 291 77 C 291 75.780, 290.887 75.780, 289 77 M 96.174 85.314 C 93.203 88.478, 93.347 93.038, 96.513 96.012 C 98.211 97.607, 98.698 98.702, 98.013 99.387 C 97.456 99.944, 97 102.110, 97 104.200 C 97 106.689, 96.543 108, 95.674 108 C 93.934 108, 90 112.224, 90 114.092 C 90 116.999, 93.048 120, 96 120 C 99.065 120, 102 116.972, 102 113.809 C 102 112.658, 102.518 112.261, 103.518 112.645 C 105.783 113.515, 110.560 111.191, 111.986 108.525 C 112.676 107.237, 113.051 104.567, 112.821 102.591 C 112.590 100.616, 112.729 99, 113.129 99 C 114.851 99, 117 95.629, 117 92.929 C 117 89.330, 113.659 85.764, 110.689 86.192 C 109.485 86.366, 107.628 85.718, 106.561 84.754 C 103.787 82.244, 98.806 82.513, 96.174 85.314 M 170.679 86.241 C 168.861 88.169, 166.377 90.063, 165.160 90.449 C 162.098 91.421, 159.648 95.461, 160.372 98.344 C 161.229 101.761, 160.219 102.128, 157.485 99.394 C 156.168 98.077, 154.243 97, 153.206 97 C 151.261 97, 149 93.295, 149 90.108 C 149 85.547, 140.927 83.213, 137.655 86.829 C 136.745 87.835, 136 89.645, 136 90.852 C 136 92.949, 136.108 92.975, 138.442 91.446 C 141.738 89.287, 144.875 89.930, 147.364 93.275 C 149.389 95.998, 149.393 96.114, 147.590 99.463 C 146.419 101.637, 145.984 103.798, 146.390 105.419 C 146.945 107.630, 146.565 108.155, 143.478 109.445 C 140.180 110.823, 139.789 110.789, 137.964 108.964 C 133.710 104.710, 125 108.429, 125 114.500 C 125 120.933, 133.921 124.347, 138.322 119.598 C 140.269 117.497, 140.779 117.365, 142.397 118.548 C 145.975 121.165, 154 117.912, 154 113.845 C 154 111.089, 155.930 111.619, 157.298 114.750 C 157.959 116.263, 159.063 117.545, 159.750 117.600 C 163.166 117.873, 163.243 118.190, 160.213 119.507 C 154.597 121.947, 151.968 131.851, 155.974 135.477 C 157.524 136.879, 158.859 137.118, 162.175 136.588 C 164.499 136.216, 166.980 135.432, 167.688 134.844 C 168.395 134.257, 169.604 134.018, 170.372 134.313 C 172.898 135.282, 176.241 132.043, 175.691 129.162 C 175.375 127.513, 175.888 125.687, 177.097 124.149 C 178.144 122.819, 179 120.243, 179 118.424 C 179 116.606, 179.450 114.840, 180 114.500 C 180.550 114.160, 181 112.552, 181 110.926 C 181 108.698, 180.243 107.510, 177.923 106.099 L 174.846 104.228 179.306 104.731 C 182.935 105.140, 184.161 104.839, 185.883 103.117 C 188.641 100.359, 188.701 94.944, 186 92.500 C 184.900 91.505, 184 89.690, 184 88.467 C 184 85.600, 182.064 84.047, 177.582 83.320 C 174.407 82.804, 173.598 83.147, 170.679 86.241 M 189.200 85.200 C 188.540 85.860, 188 87.345, 188 88.500 C 188 89.655, 188.540 91.140, 189.200 91.800 C 189.860 92.460, 191.345 93, 192.500 93 C 193.655 93, 195.140 92.460, 195.800 91.800 C 196.460 91.140, 197 89.655, 197 88.500 C 197 87.345, 196.460 85.860, 195.800 85.200 C 195.140 84.540, 193.655 84, 192.500 84 C 191.345 84, 189.860 84.540, 189.200 85.200 M 37.736 94.250 C 33.679 97.331, 34.148 105.691, 38.471 107.350 C 43.700 109.357, 50 105.614, 50 100.500 C 50 94.972, 42.092 90.942, 37.736 94.250 M 77.455 97.455 C 71.960 102.949, 75.384 112.035, 82.924 111.968 C 86.861 111.933, 89.069 110.635, 90.837 107.316 C 92.712 103.794, 92.197 101.043, 89.077 97.923 C 85.347 94.193, 80.895 94.014, 77.455 97.455 M 118.500 97.195 C 115.799 98.727, 115.033 100.023, 115.015 103.095 C 114.985 108.280, 121.879 111.001, 125.345 107.171 C 127.061 105.276, 127.514 101.316, 126.235 99.400 C 125.578 98.416, 121.617 95.953, 120.816 96.030 C 120.642 96.047, 119.600 96.571, 118.500 97.195 M 134.633 98.701 C 133.556 99.778, 133.936 104.536, 135.200 105.800 C 137.550 108.150, 144 106.684, 144 103.800 C 144 103.360, 142.908 103, 141.573 103 C 140.183 103, 138.316 101.945, 137.205 100.534 C 136.138 99.178, 134.981 98.353, 134.633 98.701 M 111.635 115.073 C 106.783 118.889, 109.298 126, 115.500 126 C 119.246 126, 122 123.183, 122 119.350 C 122 117.126, 117.777 113, 115.500 113 C 114.823 113, 113.084 113.933, 111.635 115.073 M 48.455 124.455 C 43.629 129.280, 46.640 137, 53.348 137 C 55.146 137, 57.435 136.402, 58.435 135.671 C 60.007 134.522, 60.566 134.657, 62.580 136.671 C 69.290 143.381, 79.865 134.183, 74.006 126.734 C 71.508 123.559, 65.812 122.955, 62.934 125.560 C 61.358 126.986, 60.991 126.900, 58.651 124.560 C 55.418 121.327, 51.621 121.288, 48.455 124.455 M 133.441 126.439 C 131.809 127.649, 131.694 128.196, 132.718 129.874 C 133.511 131.174, 133.750 134.126, 133.404 138.333 C 132.931 144.070, 133.104 144.959, 134.938 146.244 C 136.747 147.511, 136.867 148.083, 135.904 150.845 C 135.114 153.112, 134.177 154, 132.576 154 C 129.783 154, 126 157.920, 126 160.814 C 126 166.393, 134.297 169.134, 137.666 164.667 C 139.194 162.642, 139.793 162.473, 142.213 163.386 C 145.730 164.714, 145.742 165.597, 142.256 166.472 C 138.205 167.489, 137 168.871, 137 172.500 C 137 176.398, 138.575 177.895, 143.523 178.697 C 147.196 179.293, 147.219 179.275, 146.573 176.333 C 146.090 174.135, 146.468 172.675, 148.034 170.684 C 150.286 167.820, 152.861 167.320, 156.187 169.100 C 158.110 170.129, 158.215 169.969, 157.822 166.600 C 157.449 163.403, 157.655 163, 159.666 163 C 162.678 163, 164.294 166.096, 163.025 169.435 C 162.391 171.102, 162.391 172.898, 163.025 174.565 C 164.046 177.251, 162.837 181, 160.950 181 C 160.411 181, 159.168 182.320, 158.187 183.933 C 156.867 186.103, 156.025 186.628, 154.951 185.949 C 152.892 184.646, 148.616 184.784, 147.200 186.200 C 145.358 188.042, 145.775 192.827, 147.938 194.679 C 149.667 196.160, 149.721 196.560, 148.438 198.392 C 147.647 199.521, 147 201.443, 147 202.663 C 147 205.340, 145.246 206.646, 143.713 205.113 C 142.106 203.506, 139 203.745, 139 205.474 C 139 206.285, 137.650 207.647, 136 208.500 C 134.350 209.353, 133 210.715, 133 211.526 C 133 213.740, 136.697 216.996, 139.250 217.030 C 141.308 217.058, 141.345 217.151, 139.689 218.114 C 138.693 218.693, 137.343 218.964, 136.689 218.715 C 136.035 218.466, 134.375 218.715, 133 219.268 C 131.625 219.821, 129.719 220.361, 128.765 220.468 C 126.298 220.746, 123 223.983, 123 226.125 C 123 227.123, 124.350 228.938, 126 230.158 C 129.814 232.978, 129.818 234.114, 126.012 233.352 C 121.580 232.466, 118 235.154, 118 239.368 C 118 241.316, 118.756 243.374, 119.829 244.345 C 122.396 246.669, 127.552 246.478, 129.291 243.995 C 130.377 242.445, 131.386 242.127, 133.734 242.597 C 136.671 243.184, 137.369 244.058, 139.864 250.273 C 140.611 252.131, 141.937 253.237, 143.885 253.627 C 146.094 254.069, 146.931 254.906, 147.373 257.115 C 147.728 258.891, 148.919 260.462, 150.433 261.152 L 152.912 262.281 150.456 264.213 C 145.452 268.149, 149.078 275.822, 155.349 274.568 C 162.133 273.211, 162.466 273.305, 162.998 276.734 C 164.023 283.337, 169.977 286.698, 175.269 283.661 C 177.827 282.192, 178.318 282.175, 179.646 283.504 C 180.469 284.327, 182.686 285, 184.571 285 C 186.457 285, 188 285.450, 188 286 C 188 288.259, 192.112 291, 195.500 291 C 200.009 291, 203 288.089, 203 283.700 C 203 281.885, 202.471 279.871, 201.824 279.224 C 200.922 278.322, 201.038 277.615, 202.324 276.195 C 203.246 275.176, 204 273.575, 204 272.636 C 204 271.259, 204.373 271.129, 205.934 271.965 C 208.579 273.380, 213.318 273.267, 214.922 271.750 C 216.014 270.718, 216.043 270.893, 215.087 272.750 C 214.393 274.100, 213.006 275, 211.620 275 C 207.215 275, 204.403 280.295, 206.579 284.490 C 207.361 285.996, 208.007 287.740, 208.017 288.364 C 208.040 289.964, 216.123 297.587, 218.643 298.387 C 221.640 299.338, 225.837 297.452, 227.154 294.562 C 228.191 292.286, 228.452 292.203, 230.364 293.542 C 233.220 295.543, 235.663 295.372, 239.680 292.889 C 242.835 290.939, 243.233 290.901, 244.877 292.389 C 247.165 294.459, 254.165 294.483, 258.128 292.434 C 259.800 291.569, 261.788 289.359, 262.564 287.502 C 263.337 285.651, 264.427 283.854, 264.985 283.509 C 266.718 282.438, 266.101 277.101, 264 275 C 262.109 273.109, 258.023 272.311, 256.750 273.583 C 256.429 273.904, 257.029 275.029, 258.083 276.083 C 261.943 279.943, 259.005 282.679, 253.922 279.958 C 252.385 279.136, 252.188 278.517, 252.987 277.024 C 254.552 274.100, 254.195 271.195, 252 269 C 249.284 266.284, 245.424 266.485, 242.409 269.500 C 239.007 272.902, 237.236 272.749, 237.772 269.099 C 238.294 265.545, 235.162 262, 231.500 262 C 227.873 262, 224.706 265.547, 225.219 269.037 C 225.592 271.577, 225.433 271.767, 223.706 270.842 C 222.644 270.274, 220.701 270.015, 219.388 270.266 C 216.985 270.725, 216.140 269.650, 218 268.500 C 220 267.264, 219.093 261.002, 216.545 258.455 C 213.677 255.586, 207.044 255.038, 205 257.500 C 204.315 258.325, 202.460 259, 200.878 259 C 198.526 259, 198 258.572, 198 256.655 C 198 253.518, 195.028 251, 191.326 251 C 188.243 251, 185.056 253.531, 184.930 256.079 C 184.888 256.924, 184.511 256.690, 184 255.500 C 182.517 252.049, 182.903 251.241, 186.340 250.596 C 192.522 249.436, 195.979 243.496, 193.986 237.457 C 193.092 234.750, 191.713 233.381, 187.960 231.480 C 183.765 229.354, 183.001 228.495, 182.423 225.257 C 182.054 223.191, 180.909 220.572, 179.878 219.437 C 178.033 217.407, 178.047 217.341, 180.772 215.327 C 182.679 213.916, 184.528 213.424, 186.711 213.744 C 190.882 214.357, 195 210.494, 195 205.969 C 195 202.278, 190.310 197, 187.031 197 C 184.328 197, 180 201.280, 180 203.955 C 180 205.434, 179.351 206, 177.655 206 C 174.999 206, 172 208.826, 172 211.329 C 172 212.248, 172.900 213.900, 174 215 C 175.556 216.556, 175.667 217, 174.500 217 C 172.230 217, 169 220.703, 169 223.306 C 169 224.574, 170.113 227.120, 171.474 228.965 C 173.780 232.091, 173.831 232.405, 172.224 233.599 C 170.761 234.687, 170.359 234.578, 169.570 232.879 C 169.058 231.779, 167.401 230.630, 165.887 230.327 C 163.458 229.842, 163.241 229.496, 164.042 227.388 C 166.082 222.024, 160.893 216.950, 155.474 219.010 C 154.085 219.538, 152.710 220.592, 152.418 221.352 C 152.026 222.374, 151.142 221.988, 149.021 219.867 C 147.444 218.290, 145.169 217, 143.966 217 L 141.778 217 144.063 215.150 C 146.022 213.564, 146.699 213.481, 148.799 214.571 C 151.240 215.837, 153.358 215.574, 155.769 213.707 C 156.642 213.031, 157.602 213.235, 158.847 214.362 C 162.097 217.302, 167.583 216.228, 169.052 212.364 C 170.220 209.291, 168.721 205.363, 166.057 204.518 C 164.926 204.159, 164 203.056, 164 202.067 C 164 201.079, 163.049 199.060, 161.886 197.582 C 160.723 196.104, 160.018 194.649, 160.318 194.349 C 161.164 193.503, 165.743 197.242, 166.898 199.722 C 168.858 203.933, 176.192 203.868, 178.126 199.622 C 178.679 198.410, 180.112 196.986, 181.311 196.459 C 186.804 194.043, 186.621 185.328, 181.026 182.851 C 179.402 182.132, 178.425 181.056, 178.714 180.303 C 178.989 179.586, 178.872 178.213, 178.453 177.250 C 178.035 176.287, 177.798 174.664, 177.928 173.642 C 178.450 169.510, 176.915 166.864, 172.974 165.100 L 169.018 163.328 171.556 161.970 C 173.787 160.776, 174.058 160.061, 173.797 156.056 L 173.500 151.500 169.658 151.805 C 164.806 152.190, 161 149.848, 161 146.477 C 161 142.962, 157.440 139.708, 154.126 140.195 C 151.649 140.558, 151.477 140.354, 151.817 137.439 C 152.107 134.955, 151.610 133.838, 149.458 132.145 C 147.958 130.965, 146.194 130, 145.539 130 C 144.885 130, 143.292 128.875, 142 127.500 C 139.355 124.685, 136.315 124.308, 133.441 126.439 M 79.923 128.923 C 78.161 130.685, 77 132.900, 77 134.500 C 77 138.274, 81.987 143, 85.969 143 C 93.146 143, 96.733 133.643, 91.545 128.455 C 88.105 125.014, 83.653 125.193, 79.923 128.923 M 165.015 127.750 C 165.024 128.713, 165.508 130.175, 166.091 131 C 167.034 132.333, 167.103 132.333, 166.711 131 C 166.469 130.175, 166.675 128.713, 167.170 127.750 C 167.838 126.452, 167.673 126, 166.535 126 C 165.691 126, 165.007 126.787, 165.015 127.750 M 108.357 131.042 C 105.846 131.996, 103 135.740, 103 138.088 C 103 140.546, 106.880 145, 109.022 145 C 110.055 145, 112.900 146.350, 115.345 148 C 121.424 152.103, 125.932 152.058, 129.464 147.860 C 131.166 145.837, 131.998 143.797, 131.803 142.122 C 131.551 139.958, 130.856 139.420, 127.646 138.902 C 123.939 138.305, 122.048 136.778, 122.015 134.357 C 121.998 133.047, 119.216 131.748, 118.016 132.490 C 117.574 132.763, 115.702 132.366, 113.856 131.607 C 111.766 130.748, 109.692 130.534, 108.357 131.042 M 40.069 137.613 C 38.364 138.330, 36.707 139.599, 36.387 140.433 C 35.871 141.778, 35.481 141.783, 32.952 140.475 C 29.154 138.511, 27.764 138.611, 24.635 141.073 C 17.355 146.799, 26.077 157.837, 33.676 152.514 C 35.552 151.200, 35.863 151.200, 36.368 152.516 C 37.276 154.884, 43.422 157.362, 46.481 156.594 C 54.001 154.707, 56.772 144.957, 51.250 139.812 C 47.849 136.643, 44.120 135.910, 40.069 137.613 M 147 144 C 147 144.550, 147.450 145, 148 145 C 148.550 145, 149 144.550, 149 144 C 149 143.450, 148.550 143, 148 143 C 147.450 143, 147 143.450, 147 144 M 101.077 151.589 C 96.958 155.054, 96.827 159.981, 100.750 163.904 C 103.276 166.430, 103.491 167.250, 103.390 173.967 C 103.265 182.275, 104.860 185, 109.845 185 C 113.358 185, 115.595 182.589, 116.338 178 C 116.650 176.075, 117.199 173.064, 117.557 171.309 C 118.084 168.731, 117.736 167.645, 115.740 165.649 C 114.101 164.010, 113.556 162.729, 114.120 161.840 C 114.587 161.103, 114.976 159.078, 114.985 157.339 C 115.003 153.630, 110.292 149, 106.500 149 C 105.209 149, 102.769 150.165, 101.077 151.589 M 78.455 154.455 C 75.594 157.315, 75.421 158.728, 77.557 161.777 C 80.590 166.108, 88 163.549, 88 158.171 C 88 155.658, 84.713 152, 82.455 152 C 81.605 152, 79.805 153.105, 78.455 154.455 M 2.911 154.871 C -0.300 157.471, -0.300 163.529, 2.911 166.129 C 7.804 170.091, 16 166.567, 16 160.500 C 16 154.433, 7.804 150.909, 2.911 154.871 M 85 167.063 C 83.625 167.620, 81.974 168.769, 81.332 169.617 C 80.425 170.814, 79.714 170.917, 78.148 170.079 C 72.158 166.873, 65 170.864, 65 177.409 C 65 180.277, 65.962 181.910, 70.328 186.455 C 73.585 189.844, 76.501 192, 77.828 192 C 80.190 192, 84 188.759, 84 186.750 C 84 185.936, 85.562 185.500, 88.477 185.500 C 92.028 185.500, 93.523 184.931, 95.705 182.750 C 103.078 175.376, 94.720 163.127, 85 167.063 M 39.500 174.155 C 36.272 175.921, 35 178.142, 35 182.017 C 35 189.625, 44.033 193.058, 49.545 187.545 C 52.986 184.105, 52.807 179.653, 49.077 175.923 C 46.029 172.875, 42.897 172.297, 39.500 174.155 M 126.223 177.557 C 123.774 179.272, 123.211 183.811, 125.200 185.800 C 126.899 187.499, 131.569 187.288, 133.429 185.429 C 135.684 183.173, 135.370 179.372, 132.777 177.557 C 131.555 176.701, 130.080 176, 129.500 176 C 128.920 176, 127.445 176.701, 126.223 177.557 M 18 190.706 C 15.219 191.723, 12.108 195.233, 11.488 198.053 C 10.680 201.733, 13.203 206.536, 16.967 208.483 C 20.626 210.375, 21.413 210.372, 25.460 208.452 C 36.246 203.334, 29.214 186.607, 18 190.706 M 117.308 201.010 C 114.198 202.262, 111.702 206.512, 112.175 209.748 C 112.529 212.173, 112.244 212.513, 109.775 212.607 C 105.631 212.766, 103 215.637, 103 220 C 103 227.664, 111.929 230.324, 116.718 224.087 C 117.388 223.214, 117.951 221.305, 117.968 219.844 C 117.993 217.796, 118.408 217.294, 119.780 217.653 C 122.758 218.431, 126.814 216.260, 128.511 212.980 C 130.022 210.057, 129.993 209.617, 128.021 205.543 C 125.502 200.340, 122.317 198.992, 117.308 201.010 M 293.200 203.200 C 292.540 203.860, 292 205.200, 292 206.179 C 292 207.718, 291.660 207.802, 289.471 206.805 C 287.345 205.836, 286.508 205.979, 284.221 207.701 C 282.087 209.307, 281.497 210.586, 281.484 213.625 C 281.475 215.756, 281.120 218.474, 280.694 219.664 L 279.920 221.829 277.505 219.414 C 273.842 215.751, 268.817 216.721, 267.024 221.437 C 265.841 224.548, 260.653 225.379, 258.343 222.827 C 256.125 220.375, 251.485 220.515, 248.887 223.113 C 247.267 224.733, 246.903 226.014, 247.325 228.613 C 247.823 231.686, 247.649 232, 245.437 232 C 242.692 232, 239 235.192, 239 237.566 C 239 242.053, 244.365 245.946, 247.923 244.041 C 249.445 243.227, 250.115 243.898, 252.358 248.478 C 253.811 251.446, 255 254.551, 255 255.378 C 255 256.205, 255.427 257.146, 255.950 257.469 C 256.472 257.792, 256.643 260.218, 256.330 262.861 C 255.811 267.241, 256.005 267.859, 258.515 269.833 C 262.052 272.616, 265.507 272.586, 268.330 269.750 C 269.762 268.312, 271.504 267.610, 273.159 267.804 C 274.583 267.972, 276.480 267.377, 277.374 266.483 C 279.143 264.715, 279.566 260.468, 278.066 259.541 C 277.552 259.223, 277.369 257.504, 277.658 255.720 C 278.596 249.941, 274.023 247.722, 266.878 250.488 C 265.597 250.984, 265.351 250.614, 265.710 248.736 C 266.144 246.464, 264.958 244.518, 259.646 238.791 C 258.347 237.391, 256.995 236.951, 255.135 237.323 C 253.085 237.733, 252.245 237.358, 251.452 235.677 C 250.494 233.646, 250.674 233.502, 254.136 233.526 C 256.177 233.540, 258.669 234.222, 259.674 235.042 C 267.900 241.752, 272.784 242.786, 275.643 238.423 C 276.900 236.503, 277.098 235.187, 276.416 233.269 C 275.666 231.158, 275.952 230.195, 278 227.941 C 280.293 225.419, 280.645 225.320, 282.250 226.750 C 283.212 227.608, 284 229.130, 284 230.132 C 284 231.134, 285.139 232.700, 286.530 233.612 C 289.036 235.254, 289.041 235.283, 287.030 236.691 C 284.087 238.753, 284.338 243.520, 287.500 245.592 C 290.176 247.346, 290.872 250, 288.655 250 C 286.612 250, 284 253.367, 284 256 C 284 257.288, 284.745 259.165, 285.655 260.171 C 287.205 261.884, 287.185 262, 285.329 262 C 281.989 262, 278.636 266.428, 279.334 269.918 C 279.664 271.570, 279.499 273.191, 278.967 273.520 C 278.435 273.849, 278 275.216, 278 276.559 C 278 278.439, 277.472 279, 275.700 279 C 272.645 279, 271 280.795, 271 284.129 C 271 290.138, 277.823 292.213, 280.760 287.096 C 282.753 283.623, 288.332 282.189, 290.687 284.544 C 293.962 287.819, 302 285.221, 302 280.887 C 302 279.303, 306.914 276, 309.269 276 C 312.236 276, 315.990 271.916, 316.615 268.009 C 317.218 264.237, 317.299 264.174, 320.799 264.742 C 323.894 265.245, 324.709 264.920, 326.934 262.301 C 328.345 260.640, 330.557 258.728, 331.849 258.052 C 333.764 257.051, 334.125 256.196, 333.802 253.428 L 333.405 250.032 335.517 252.016 C 338.162 254.501, 343.165 254.580, 345.345 252.171 C 349.467 247.617, 345.519 240.329, 339.462 241.312 C 336.209 241.840, 336.159 241.792, 336.673 238.629 C 337.034 236.401, 336.703 234.998, 335.598 234.081 C 334.719 233.352, 334 231.995, 334 231.066 C 334 230.136, 332.650 228.378, 331 227.158 C 329.193 225.822, 328 224.034, 328 222.661 C 328 221.408, 327.438 219.646, 326.750 218.746 C 324.729 216.099, 316.002 213.266, 311.372 213.753 C 307.915 214.116, 306.981 213.811, 305.622 211.871 C 304.730 210.597, 304 208.530, 304 207.277 C 304 206.010, 303.389 205, 302.622 205 C 301.865 205, 300.685 204.325, 300 203.500 C 298.505 201.698, 294.863 201.537, 293.200 203.200 M 195 211 C 193.900 212.100, 193 213.675, 193 214.500 C 193 215.422, 192.063 216, 190.571 216 C 183.831 216, 183.146 225.429, 189.580 229.644 C 192.023 231.245, 192.479 231.262, 194.958 229.839 C 197.212 228.545, 197.968 228.503, 199.451 229.588 C 200.945 230.680, 201.061 231.386, 200.169 233.946 C 199.427 236.074, 199.419 237.904, 200.143 239.980 C 200.973 242.362, 200.863 243.280, 199.591 244.552 C 196.209 247.934, 198.665 254, 203.416 254 C 206.150 254, 209 251.107, 209 248.332 C 209 247.169, 210.032 245.851, 211.447 245.206 C 214.908 243.629, 217.308 239.551, 216.802 236.106 C 216.509 234.107, 216.756 233.353, 217.598 233.676 C 218.270 233.934, 220.210 233.426, 221.910 232.547 L 225 230.949 225 233.819 C 225 237.718, 227.973 240.222, 232.125 239.820 C 235.642 239.480, 236.659 238.121, 239.004 230.632 C 240.830 224.797, 238.324 221.956, 229.919 220.333 C 221.470 218.701, 215.499 220.158, 212.843 224.500 L 211.007 227.500 211.004 223.702 C 211.001 220.939, 210.319 219.273, 208.500 217.588 C 207.125 216.313, 206 214.560, 206 213.692 C 206 211.653, 202.200 209, 199.277 209 C 198.025 209, 196.100 209.900, 195 211 M 47.635 219.073 C 44.566 221.487, 44.086 226.250, 46.557 229.777 C 48.889 233.107, 55.163 232.880, 57.927 229.365 C 60.677 225.870, 60.545 222.454, 57.545 219.455 C 54.546 216.455, 51.130 216.323, 47.635 219.073 M 294.956 223.671 C 297.571 226.995, 297.557 230.443, 294.919 233.081 C 293.010 234.990, 292.969 235.308, 294.419 236.910 C 295.288 237.871, 296 239.153, 296 239.759 C 296 240.365, 297.012 241.005, 298.250 241.180 C 299.915 241.417, 300.890 240.720, 302.003 238.500 C 303.242 236.026, 304.075 235.526, 306.753 235.647 C 309.424 235.769, 310 235.425, 310 233.712 C 310 232.566, 310.945 230.622, 312.101 229.392 L 314.202 227.156 311.191 225.599 C 309.536 224.743, 308.006 223.518, 307.793 222.878 C 307.500 221.999, 306.880 221.994, 305.268 222.857 C 302.386 224.399, 299.072 224.286, 295.706 222.530 L 292.912 221.073 294.956 223.671 M 84 224 C 82.900 225.100, 82 227.125, 82 228.500 C 82 229.875, 82.900 231.900, 84 233 C 85.100 234.100, 87.125 235, 88.500 235 C 89.875 235, 91.900 234.100, 93 233 C 94.100 231.900, 95 229.875, 95 228.500 C 95 227.125, 94.100 225.100, 93 224 C 91.900 222.900, 89.875 222, 88.500 222 C 87.125 222, 85.100 222.900, 84 224 M 150.561 227.773 C 149.002 229.331, 150.191 234.005, 152.635 235.927 C 156.126 238.674, 157.844 238.541, 159.025 235.435 C 160.321 232.026, 160.313 232, 157.955 232 C 156.830 232, 154.832 230.923, 153.515 229.606 C 152.198 228.289, 150.869 227.464, 150.561 227.773 M 135.500 229.868 C 137.586 230.308, 138.957 231.483, 140 233.728 C 140.825 235.504, 141.968 236.966, 142.540 236.978 C 144.821 237.026, 152 244.378, 152 246.668 C 152 248.333, 152.572 249, 154 249 C 156.595 249, 160 252.431, 160 255.045 C 160 256.170, 158.899 258.192, 157.553 259.538 C 155.329 261.762, 155.262 262.070, 156.817 262.902 C 157.970 263.519, 159.157 263.359, 160.455 262.409 C 163.499 260.184, 166.603 260.739, 169.347 264 C 170.735 265.650, 172.315 267, 172.859 267 C 173.402 267, 175.157 268.103, 176.758 269.450 L 179.670 271.900 178.591 268.450 C 177.884 266.194, 176.888 265, 175.710 265 C 173.033 265, 169 260.473, 169 257.469 C 169 255.910, 170.173 253.673, 171.891 251.955 C 174.293 249.553, 174.547 248.869, 173.391 247.910 C 172.626 247.275, 172 246.119, 172 245.342 C 172 244.565, 171.268 242.813, 170.374 241.447 C 169.108 239.515, 168.446 239.215, 167.387 240.094 C 165.898 241.329, 161 240.521, 161 239.040 C 161 238.533, 159.827 238.727, 158.394 239.470 C 153.464 242.028, 147.737 237.787, 148.809 232.371 C 148.958 231.614, 147.613 231.402, 144.727 231.727 C 141.552 232.085, 140.071 231.791, 139.088 230.606 C 138.355 229.723, 136.573 229.053, 135.128 229.118 C 132.600 229.232, 132.614 229.261, 135.500 229.868 M 276.200 241.200 C 273.543 243.857, 275.473 249, 279.129 249 C 281.190 249, 284 246.404, 284 244.500 C 284 241.002, 278.658 238.742, 276.200 241.200 M 214.661 245.822 C 213.747 246.832, 213 248.565, 213 249.674 C 213 252.122, 215.976 255, 218.508 255 C 220.820 255, 226.652 256.817, 230.154 258.627 C 233.609 260.414, 236.038 260.362, 238.777 258.443 C 240.789 257.034, 241 257.034, 241 258.443 C 241 263.147, 249.114 265.742, 252.415 262.094 C 256.955 257.077, 251.499 249.241, 245.138 251.642 C 242.367 252.688, 242.168 252.591, 241.636 249.930 C 240.839 245.945, 238.726 245.177, 226.822 244.545 C 217.480 244.049, 216.139 244.189, 214.661 245.822 M 88.073 247.635 C 85.708 250.641, 85.549 251.916, 87.110 255.343 C 88.194 257.720, 91.768 260, 94.412 260 C 95.137 260, 96.916 259.067, 98.365 257.927 C 101.619 255.368, 102.055 249.265, 99.171 246.655 C 96.246 244.008, 90.529 244.513, 88.073 247.635 M 307.443 245.709 C 305.009 246.019, 304.194 246.751, 303.443 249.299 C 302.753 251.642, 301.672 252.744, 299.411 253.411 C 297.185 254.068, 296.068 255.185, 295.411 257.411 C 294.755 259.635, 293.602 260.790, 291.293 261.537 C 288.279 262.511, 288.204 262.646, 290.043 263.795 C 291.119 264.467, 292 265.692, 292 266.517 C 292 267.767, 292.334 267.809, 294 266.768 C 295.100 266.081, 296 264.693, 296 263.683 C 296 261.257, 301.061 256.274, 304.367 255.444 C 306.073 255.016, 308.339 255.453, 310.850 256.696 L 314.710 258.606 315.701 255.982 C 316.577 253.662, 316.363 253.171, 313.845 251.726 C 311.366 250.303, 310.453 248.463, 310.882 245.750 C 310.947 245.338, 310.887 245.072, 310.750 245.160 C 310.613 245.248, 309.124 245.495, 307.443 245.709 M 115.110 253.396 C 108.306 257.167, 108.531 268.643, 115.472 271.805 C 120.203 273.961, 123.914 273.286, 127.600 269.600 C 130.241 266.959, 131 265.375, 131 262.500 C 131 259.625, 130.241 258.041, 127.600 255.400 C 123.864 251.664, 119.499 250.963, 115.110 253.396 M 191 265.918 C 191 266.973, 190.727 268.548, 190.393 269.418 C 189.354 272.125, 191.431 271.134, 192.750 268.293 C 194.372 264.799, 194.326 264, 192.500 264 C 191.675 264, 191 264.863, 191 265.918 M 226.803 276.111 C 227.101 278.141, 226.530 279.531, 224.705 281.222 L 222.198 283.546 224.566 284.663 C 226.577 285.612, 227.025 285.495, 227.535 283.889 C 227.865 282.849, 229.005 281.533, 230.068 280.964 C 233.029 279.379, 232.534 275.640, 229.197 274.380 C 226.503 273.364, 226.410 273.431, 226.803 276.111 M 241.500 281 C 241.160 281.550, 241.557 282, 242.382 282 C 243.207 282, 244.160 281.550, 244.500 281 C 244.840 280.450, 244.443 280, 243.618 280 C 242.793 280, 241.840 280.450, 241.500 281" stroke="none" fill="black" fill-rule="evenodd"/>
</svg>