<svg id="svg604" width="1335.1" height="460.61" version="1.1" viewBox="0 0 1335.1 460.61" xmlns="http://www.w3.org/2000/svg">
 <title id="title10">Caspita</title>
 <g id="g596" transform="translate(-49.144 -39.863)">
  <path id="path12" d="m70.357 255a10.607 10.695 0 0 1-10.606 10.695 10.607 10.695 0 0 1-10.607-10.694 10.607 10.695 0 0 1 10.605-10.696 10.607 10.695 0 0 1 10.608 10.694l-10.607 1e-3z" fill="#940b98" fill-opacity=".97647"/>
  <path id="path14" d="m98.111 236.44a10.43 10.518 0 0 1-10.429 10.518 10.43 10.518 0 0 1-10.43-10.517 10.43 10.518 0 0 1 10.429-10.519 10.43 10.518 0 0 1 10.431 10.517l-10.43 1e-3z" fill="#2b5cee" fill-opacity=".87059"/>
  <g id="g22" fill-opacity=".98039">
   <path id="path16" d="m123.21 236.97a14.849 14.054 0 0 1-14.849 14.054 14.849 14.054 0 0 1-14.85-14.053 14.849 14.054 0 0 1 14.848-14.055 14.849 14.054 0 0 1 14.851 14.052l-14.849 2e-3z" fill="#4ebde6"/>
   <path id="path18" d="m131.17 214.08a10.872 10.96 0 0 1-10.871 10.96 10.872 10.96 0 0 1-10.872-10.959 10.872 10.96 0 0 1 10.871-10.961 10.872 10.96 0 0 1 10.873 10.959l-10.872 2e-3z" fill="#cd31d2"/>
   <path id="path20" d="m150.97 216.2a11.137 10.96 0 0 1-11.137 10.96 11.137 10.96 0 0 1-11.137-10.959 11.137 10.96 0 0 1 11.136-10.961 11.137 10.96 0 0 1 11.138 10.959l-11.137 2e-3z" fill="#940b98"/>
  </g>
  <path id="path24" d="m135.76 188.44a10.607 10.253 0 0 1-10.606 10.253 10.607 10.253 0 0 1-10.607-10.252 10.607 10.253 0 0 1 10.605-10.254 10.607 10.253 0 0 1 10.608 10.252l-10.607 1e-3z" fill="#c2b6c2" fill-opacity=".98431"/>
  <path id="path26" d="m116.14 174.74a10.96 10.872 0 0 1-10.96 10.872 10.96 10.872 0 0 1-10.961-10.871 10.96 10.872 0 0 1 10.959-10.873 10.96 10.872 0 0 1 10.961 10.87l-10.96 2e-3z" fill="#2b5cee" fill-opacity=".98039"/>
  <path id="path28" d="m131.7 138.06a12.374 12.374 0 0 1-12.374 12.374 12.374 12.374 0 0 1-12.375-12.374 12.374 12.374 0 0 1 12.373-12.375 12.374 12.374 0 0 1 12.376 12.373l-12.374 2e-3z" fill="#e014d9" fill-opacity=".98039"/>
  <path id="path30" d="m154.15 122.86a10.872 10.607 0 0 1-10.871 10.607 10.872 10.607 0 0 1-10.872-10.606 10.872 10.607 0 0 1 10.871-10.607 10.872 10.607 0 0 1 10.873 10.605l-10.872 1e-3z" fill-opacity="0"/>
  <g id="g40" fill-opacity=".98431">
   <path id="path32" d="m193.39 132.49a8.9272 8.7504 0 0 1-8.9269 8.7504 8.9272 8.7504 0 0 1-8.9275-8.7498 8.9272 8.7504 0 0 1 8.9263-8.7511 8.9272 8.7504 0 0 1 8.9282 8.7492l-8.9272 1e-3z" fill="#14bba5"/>
   <path id="path34" d="m207.01 121.4a11.27 11.093 0 0 1-11.269 11.093 11.27 11.093 0 0 1-11.27-11.092 11.27 11.093 0 0 1 11.268-11.094 11.27 11.093 0 0 1 11.271 11.091l-11.27 2e-3z" fill="#e014d8"/>
   <path id="path36" d="m201.35 104.39a14.231 13.877 0 0 1-14.23 13.877 14.231 13.877 0 0 1-14.231-13.876 14.231 13.877 0 0 1 14.229-13.878 14.231 13.877 0 0 1 14.232 13.875l-14.231 2e-3z" fill="#d63ff0"/>
   <path id="path38" d="m152.74 123.39a9.3692 9.5459 0 0 1-9.3688 9.5459 9.3692 9.5459 0 0 1-9.3695-9.5453 9.3692 9.5459 0 0 1 9.3682-9.5466 9.3692 9.5459 0 0 1 9.3702 9.5446l-9.3692 1e-3z" fill="#c2b6c2"/>
  </g>
  <path id="path42" d="m226.98 108.36a8.7504 9.0156 0 0 1-8.7501 9.0156 8.7504 9.0156 0 0 1-8.7508-9.015 8.7504 9.0156 0 0 1 8.7495-9.0162 8.7504 9.0156 0 0 1 8.7514 9.0143l-8.7504 1e-3z" fill="#f20ce7" fill-opacity=".98039"/>
  <path id="path44" d="m230.16 87.328a14.142 14.496 0 0 1-14.142 14.496 14.142 14.496 0 0 1-14.143-14.495 14.142 14.496 0 0 1 14.141-14.497 14.142 14.496 0 0 1 14.144 14.494l-14.142 2e-3z" fill="#050f98" fill-opacity=".98431"/>
  <path id="path46" d="m263.93 69.473a8.5737 9.0156 0 0 1-8.5734 9.0156 8.5737 9.0156 0 0 1-8.574-9.015 8.5737 9.0156 0 0 1 8.5728-9.0162 8.5737 9.0156 0 0 1 8.5746 9.0144l-8.5737 0.0013z" fill="#f20ce7" fill-opacity=".98039"/>
  <path id="path48" d="m268.35 103.77a7.6898 7.2478 0 0 1-7.6895 7.2478 7.6898 7.2478 0 0 1-7.69-7.2473 7.6898 7.2478 0 0 1 7.689-7.2484 7.6898 7.2478 0 0 1 7.6906 7.2468l-7.6898 1e-3z" fill="#f20be7" fill-opacity=".79216"/>
  <path id="path50" d="m266.4 96.167a11.314 12.021 0 0 1-11.313 12.021 11.314 12.021 0 0 1-11.314-12.02 11.314 12.021 0 0 1 11.313-12.022 11.314 12.021 0 0 1 11.315 12.019l-11.314 0.0017z" fill="#e014d9" fill-opacity=".98039"/>
  <path id="path52" d="m270.11 99.437a7.513 7.513 0 0 1-7.5128 7.513 7.513 7.513 0 0 1-7.5133-7.5125 7.513 7.513 0 0 1 7.5122-7.5135 7.513 7.513 0 0 1 7.5138 7.512l-7.513 1e-3z" fill="#1b2671" fill-opacity=".92157"/>
  <path id="path54" d="m258.38 120a8.625 9 0 0 1-8.6247 9 8.625 9 0 0 1-8.6253-8.9994 8.625 9 0 0 1 8.6241-9.0006 8.625 9 0 0 1 8.6259 8.9987l-8.625 1e-3z" fill="#f20ce7" fill-opacity=".85882"/>
  <path id="path56" d="m290.12 110.5a9.3125 9.375 0 0 1-9.3122 9.375 9.3125 9.375 0 0 1-9.3128-9.3744 9.3125 9.375 0 0 1 9.3115-9.3756 9.3125 9.375 0 0 1 9.3135 9.3737l-9.3125 1e-3z" fill="#232ee9" fill-opacity=".87843"/>
  <path id="path58" d="m281.75 122.88a13.438 13.875 0 0 1-13.437 13.875 13.438 13.875 0 0 1-13.438-13.874 13.438 13.875 0 0 1 13.436-13.876 13.438 13.875 0 0 1 13.439 13.873l-13.438 2e-3z" fill="#d653ee" fill-opacity=".98039"/>
  <path id="path60" d="m241.57 133.07a8.8388 9.0598 0 0 1-8.8385 9.0598 8.8388 9.0598 0 0 1-8.8392-9.0592 8.8388 9.0598 0 0 1 8.8379-9.0604 8.8388 9.0598 0 0 1 8.8398 9.0585l-8.8388 1e-3z" fill="#f20ce7" fill-opacity=".86667"/>
  <path id="path62" d="m260.92 147.08a7.9108 8.6621 0 0 1-7.9105 8.662 7.9108 8.6621 0 0 1-7.911-8.6614 7.9108 8.6621 0 0 1 7.9099-8.6627 7.9108 8.6621 0 0 1 7.9116 8.6608l-7.9108 1e-3z" fill="#2a9155" fill-opacity=".98039"/>
  <path id="path64" d="m267.82 148.58a7.2478 7.4246 0 0 1-7.2476 7.4246 7.2478 7.4246 0 0 1-7.2481-7.4241 7.2478 7.4246 0 0 1 7.2471-7.4251 7.2478 7.4246 0 0 1 7.2486 7.4236l-7.2478 1e-3z" fill="#1f8f78" fill-opacity=".98039"/>
  <path id="path66" d="m214.16 140.14a7.292 7.4688 0 0 1-7.2918 7.4688 7.292 7.4688 0 0 1-7.2923-7.4683 7.292 7.4688 0 0 1 7.2913-7.4693 7.292 7.4688 0 0 1 7.2928 7.4678l-7.292 1e-3z" fill="#1f8e78" fill-opacity=".86667"/>
  <path id="path68" d="m226.23 149.71a10.673 9.789 0 0 1-10.673 9.789 10.673 9.789 0 0 1-10.673-9.7883 10.673 9.789 0 0 1 10.672-9.7897 10.673 9.789 0 0 1 10.674 9.7876l-10.673 1e-3z" fill="#2b5cee" fill-opacity=".98039"/>
  <path id="path70" d="m205.88 164.75a9.0938 9.4375 0 0 1-9.0934 9.4375 9.0938 9.4375 0 0 1-9.0941-9.4368 9.0938 9.4375 0 0 1 9.0928-9.4382 9.0938 9.4375 0 0 1 9.0947 9.4362l-9.0938 1e-3z" fill="#f20ce7" fill-opacity=".98039"/>
  <path id="path72" d="m185.81 193.84a8.75 8.5312 0 0 1-8.7497 8.5312 8.75 8.5312 0 0 1-8.7503-8.5306 8.75 8.5312 0 0 1 8.7491-8.5318 8.75 8.5312 0 0 1 8.7509 8.5301l-8.75 1e-3z" fill="#14bba5" fill-opacity=".86667"/>
  <path id="path74" d="m199.81 180.44a11.375 11.438 0 0 1-11.375 11.438 11.375 11.438 0 0 1-11.375-11.437 11.375 11.438 0 0 1 11.374-11.438 11.375 11.438 0 0 1 11.376 11.436l-11.375 2e-3z" fill="#e014d9" fill-opacity=".86667"/>
  <path id="path76" d="m195.81 162.47a10.844 11.156 0 0 1-10.843 11.156 10.844 11.156 0 0 1-10.844-11.155 10.844 11.156 0 0 1 10.843-11.157 10.844 11.156 0 0 1 10.845 11.155l-10.844 2e-3z" fill="#940b98" fill-opacity=".98039"/>
  <path id="path78" d="m171.62 179.25a11.594 11.938 0 0 1-11.593 11.938 11.594 11.938 0 0 1-11.594-11.937 11.594 11.938 0 0 1 11.593-11.938 11.594 11.938 0 0 1 11.595 11.936l-11.594 2e-3z" fill="#e014d9" fill-opacity=".98039"/>
  <path id="path80" d="m174.81 220.28a11.5 11.469 0 0 1-11.5 11.469 11.5 11.469 0 0 1-11.5-11.468 11.5 11.469 0 0 1 11.499-11.47 11.5 11.469 0 0 1 11.501 11.467l-11.5 2e-3z" fill="#323eac" fill-opacity=".85882"/>
  <g id="g88" fill-opacity=".98039">
   <path id="path82" d="m92.125 306.81a14.5 14.312 0 0 1-14.499 14.312 14.5 14.312 0 0 1-14.501-14.312 14.5 14.312 0 0 1 14.498-14.314 14.5 14.312 0 0 1 14.502 14.31l-14.5 2e-3z" fill="#4ebde6"/>
   <path id="path84" d="m129.12 290.19a8.8125 8.8125 0 0 1-8.8122 8.8125 8.8125 8.8125 0 0 1-8.8128-8.8119 8.8125 8.8125 0 0 1 8.8116-8.8131 8.8125 8.8125 0 0 1 8.8134 8.8113l-8.8125 1e-3z" fill="#e7f0ef"/>
   <path id="path86" d="m118.5 283.56a12 12.188 0 0 1-12 12.188 12 12.188 0 0 1-12-12.187 12 12.188 0 0 1 11.999-12.188 12 12.188 0 0 1 12.001 12.186l-12 2e-3z" fill="#e014d9"/>
  </g>
  <path id="path90" d="m161.88 288a9.5 9.25 0 0 1-9.4997 9.25 9.5 9.25 0 0 1-9.5003-9.2494 9.5 9.25 0 0 1 9.499-9.2506 9.5 9.25 0 0 1 9.501 9.2487l-9.5 1e-3z" fill="#f20ce7" fill-opacity=".86667"/>
  <path id="path92" d="m158.75 277.44a11.562 11.562 0 0 1-11.562 11.562 11.562 11.562 0 0 1-11.563-11.562 11.562 11.562 0 0 1 11.561-11.563 11.562 11.562 0 0 1 11.564 11.561l-11.562 2e-3z" fill="#323eac" fill-opacity=".98039"/>
  <path id="path94" d="m180.38 275.5a13.5 14.25 0 0 1-13.5 14.25 13.5 14.25 0 0 1-13.5-14.249 13.5 14.25 0 0 1 13.499-14.251 13.5 14.25 0 0 1 13.501 14.248l-13.5 2e-3z" fill="#4ebde6" fill-opacity=".98039"/>
  <path id="path96" d="m167.5 252.38a9 8.875 0 0 1-8.9997 8.875 9 8.875 0 0 1-9.0003-8.8744 9 8.875 0 0 1 8.9991-8.8756 9 8.875 0 0 1 9.0009 8.8738l-9 1e-3z" fill="#14bba5" fill-opacity=".86667"/>
  <path id="path98" d="m129 340.62a10.75 10.625 0 0 1-10.75 10.625 10.75 10.625 0 0 1-10.75-10.624 10.75 10.625 0 0 1 10.749-10.626 10.75 10.625 0 0 1 10.751 10.624l-10.75 1e-3z" fill="#cd31d2" fill-opacity=".98039"/>
  <path id="path100" d="m162.12 324.62a8.75 8.75 0 0 1-8.7497 8.75 8.75 8.75 0 0 1-8.7503-8.7494 8.75 8.75 0 0 1 8.7491-8.7506 8.75 8.75 0 0 1 8.7509 8.7488l-8.75 1e-3z" fill="#e7f0ef" fill-opacity=".86667"/>
  <path id="path102" d="m172.38 318.06a10.75 10.688 0 0 1-10.75 10.688 10.75 10.688 0 0 1-10.75-10.687 10.75 10.688 0 0 1 10.749-10.688 10.75 10.688 0 0 1 10.751 10.686l-10.75 1e-3z" fill="#c2b5c2" fill-opacity=".86667"/>
  <path id="path104" d="m176.12 345.5a9.375 9.5 0 0 1-9.3747 9.5 9.375 9.5 0 0 1-9.3753-9.4993 9.375 9.5 0 0 1 9.374-9.5007 9.375 9.5 0 0 1 9.376 9.4987l-9.375 1e-3z" fill="#f20ce7" fill-opacity=".86274"/>
  <path id="path106" d="m207.88 316.62a9.8125 9.5 0 0 1-9.8122 9.5 9.8125 9.5 0 0 1-9.8128-9.4993 9.8125 9.5 0 0 1 9.8115-9.5007 9.8125 9.5 0 0 1 9.8135 9.4987l-9.8125 1e-3z" fill="#e7f0ef" fill-opacity=".86667"/>
  <path id="path108" d="m223 319.69a12.5 12.562 0 0 1-12.5 12.562 12.5 12.562 0 0 1-12.5-12.562 12.5 12.562 0 0 1 12.499-12.563 12.5 12.562 0 0 1 12.501 12.561l-12.5 2e-3z" fill="#0c0c60" fill-opacity=".98039"/>
  <path id="path110" d="m207.5 334.88a11.062 10.875 0 0 1-11.062 10.875 11.062 10.875 0 0 1-11.063-10.874 11.062 10.875 0 0 1 11.061-10.876 11.062 10.875 0 0 1 11.064 10.873l-11.062 2e-3z" fill="#2b5cee" fill-opacity=".98431"/>
  <path id="path112" d="m244.25 321.88a9 9 0 0 1-8.9997 9 9 9 0 0 1-9.0003-8.9994 9 9 0 0 1 8.9991-9.0006 9 9 0 0 1 9.0009 8.9987l-9 1e-3z" fill="#b433db" fill-opacity=".98431"/>
  <path id="path114" d="m235.25 312.5a9.0625 9.375 0 0 1-9.0622 9.375 9.0625 9.375 0 0 1-9.0628-9.3744 9.0625 9.375 0 0 1 9.0616-9.3756 9.0625 9.375 0 0 1 9.0634 9.3737l-9.0625 1e-3z" fill="#ead924" fill-opacity=".87059"/>
  <path id="path116" d="m275.38 321.38a8.4375 8.625 0 0 1-8.4372 8.625 8.4375 8.625 0 0 1-8.4378-8.6244 8.4375 8.625 0 0 1 8.4366-8.6256 8.4375 8.625 0 0 1 8.4384 8.6238l-8.4375 1e-3z" fill="#ec14da" fill-opacity=".86274"/>
  <path id="path118" d="m257.88 295.25a7.4375 7.5 0 0 1-7.4372 7.5 7.4375 7.5 0 0 1-7.4378-7.4995 7.4375 7.5 0 0 1 7.4367-7.5005 7.4375 7.5 0 0 1 7.4383 7.499l-7.4375 1e-3z" fill="#1f8f78" fill-opacity=".98039"/>
  <path id="path120" d="m272.5 289.38a7.5 7.125 0 0 1-7.4997 7.125 7.5 7.125 0 0 1-7.5003-7.1245 7.5 7.125 0 0 1 7.4992-7.1255 7.5 7.125 0 0 1 7.5008 7.124l-7.5 9.9e-4z" fill="#eb14da" fill-opacity=".8549"/>
  <path id="path122" d="m263.38 297.12a6.75 6.75 0 0 1-6.7498 6.75 6.75 6.75 0 0 1-6.7502-6.7495 6.75 6.75 0 0 1 6.7493-6.7505 6.75 6.75 0 0 1 6.7507 6.7491l-6.75 9.4e-4z" fill="#0d2969" fill-opacity=".86274"/>
  <path id="path124" d="m268.38 312.38a12.312 12.25 0 0 1-12.312 12.25 12.312 12.25 0 0 1-12.313-12.249 12.312 12.25 0 0 1 12.311-12.251 12.312 12.25 0 0 1 12.314 12.248l-12.312 2e-3z" fill="#0c0c60" fill-opacity=".98039"/>
  <path id="path126" d="m259.62 320.56a9 8.9375 0 0 1-8.9997 8.9375 9 8.9375 0 0 1-9.0003-8.9369 9 8.9375 0 0 1 8.9991-8.9381 9 8.9375 0 0 1 9.0009 8.9362l-9 1e-3z" fill="#d509ef" fill-opacity=".85882"/>
  <path id="path128" d="m219.62 177.88a9.125 9.375 0 0 1-9.1247 9.375 9.125 9.375 0 0 1-9.1253-9.3744 9.125 9.375 0 0 1 9.124-9.3756 9.125 9.375 0 0 1 9.126 9.3737l-9.125 1e-3z" fill="#14bba5" fill-opacity=".98039"/>
  <path id="path130" d="m248.28 162.99a9.4576 9.2808 0 0 1-9.4572 9.2808 9.4576 9.2808 0 0 1-9.4579-9.2801 9.4576 9.2808 0 0 1 9.4566-9.2814 9.4576 9.2808 0 0 1 9.4585 9.2795l-9.4576 1e-3z" fill="#242eea" fill-opacity=".98039"/>
  <path id="path132" d="m241.74 178.68a7.9991 7.9991 0 0 1-7.9989 7.9991 7.9991 7.9991 0 0 1-7.9994-7.9986 7.9991 7.9991 0 0 1 7.9983-7.9997 7.9991 7.9991 0 0 1 8 7.998l-7.9991 1e-3z" fill="#1f8f79" fill-opacity=".86274"/>
  <path id="path134" d="m247.66 168.6a9.4576 9.325 0 0 1-9.4572 9.325 9.4576 9.325 0 0 1-9.4579-9.3243 9.4576 9.325 0 0 1 9.4566-9.3256 9.4576 9.325 0 0 1 9.4585 9.3237l-9.4576 1e-3z" fill="#e7d824" fill-opacity=".8902"/>
  <path id="path136" d="m263.04 195.16a7.3804 7.1595 0 0 1-7.3802 7.1594 7.3804 7.1595 0 0 1-7.3807-7.159 7.3804 7.1595 0 0 1 7.3797-7.16 7.3804 7.1595 0 0 1 7.3812 7.1585l-7.3804 1e-3z" fill="#1d248c" fill-opacity=".98039"/>
  <path id="path138" d="m260.12 200.69a7.9375 7.5625 0 0 1-7.9372 7.5625 7.9375 7.5625 0 0 1-7.9378-7.562 7.9375 7.5625 0 0 1 7.9367-7.563 7.9375 7.5625 0 0 1 7.9383 7.5614l-7.9375 1e-3z" fill="#e5eeee" fill-opacity=".87843"/>
  <path id="path140" d="m261.31 179.06a8.625 8.625 0 0 1-8.6247 8.625 8.625 8.625 0 0 1-8.6253-8.6244 8.625 8.625 0 0 1 8.6241-8.6256 8.625 8.625 0 0 1 8.6259 8.6238l-8.625 1e-3z" fill="#2a9054" fill-opacity=".98431"/>
  <path id="path142" d="m251.5 193.25a8.2188 8.5625 0 0 1-8.2185 8.5625 8.2188 8.5625 0 0 1-8.219-8.5619 8.2188 8.5625 0 0 1 8.2179-8.5631 8.2188 8.5625 0 0 1 8.2196 8.5613l-8.2188 1e-3z" fill="#1f8f78" fill-opacity=".99608"/>
  <path id="path144" d="m236.44 194.06a10.688 10.625 0 0 1-10.687 10.625 10.688 10.625 0 0 1-10.688-10.624 10.688 10.625 0 0 1 10.686-10.626 10.688 10.625 0 0 1 10.689 10.624l-10.688 1e-3z" fill="#2b5cee" fill-opacity=".98431"/>
  <path id="path146" d="m211.69 200.82a8.8388 9.104 0 0 1-8.8385 9.104 8.8388 9.104 0 0 1-8.8392-9.1034 8.8388 9.104 0 0 1 8.8379-9.1046 8.8388 9.104 0 0 1 8.8398 9.1027l-8.8388 1e-3z" fill="#f20ce7" fill-opacity=".86667"/>
  <path id="path148" d="m225.57 231.67a11.579 11.756 0 0 1-11.578 11.756 11.579 11.756 0 0 1-11.579-11.755 11.579 11.756 0 0 1 11.578-11.756 11.579 11.756 0 0 1 11.58 11.754l-11.579 2e-3z" fill="#0c0c60" fill-opacity=".98039"/>
  <path id="path150" d="m217.97 228.79a11.004 10.916 0 0 1-11.004 10.916 11.004 10.916 0 0 1-11.005-10.915 11.004 10.916 0 0 1 11.003-10.917 11.004 10.916 0 0 1 11.006 10.914l-11.004 2e-3z" fill="#df13d8" fill-opacity=".82353"/>
  <path id="path152" d="m205.59 224.68a10.165 10.607 0 0 1-10.164 10.607 10.165 10.607 0 0 1-10.165-10.606 10.165 10.607 0 0 1 10.164-10.607 10.165 10.607 0 0 1 10.166 10.605l-10.165 1e-3z" fill="#930a98" fill-opacity=".88235"/>
  <path id="path154" d="m227.42 218.89a8.5737 8.6179 0 0 1-8.5734 8.6179 8.5737 8.6179 0 0 1-8.574-8.6173 8.5737 8.6179 0 0 1 8.5728-8.6185 8.5737 8.6179 0 0 1 8.5746 8.6167l-8.5737 1e-3z" fill="#ead823" fill-opacity=".8549"/>
  <path id="path156" d="m240.59 215.67a8.6179 8.6621 0 0 1-8.6176 8.6621 8.6179 8.6621 0 0 1-8.6182-8.6614 8.6179 8.6621 0 0 1 8.617-8.6627 8.6179 8.6621 0 0 1 8.6188 8.6608l-8.6179 1e-3z" fill="#080e82" fill-opacity=".86274"/>
  <path id="path158" d="m240.59 229.85a7.6898 8.0875 0 0 1-7.6895 8.0875 7.6898 8.0875 0 0 1-7.6901-8.087 7.6898 8.0875 0 0 1 7.689-8.0881 7.6898 8.0875 0 0 1 7.6906 8.0864l-7.6898 1e-3z" fill="#1e8f77" fill-opacity=".8549"/>
  <path id="path160" d="m251.55 223.45a8.6621 8.9272 0 0 1-8.6618 8.9272 8.6621 8.9272 0 0 1-8.6624-8.9266 8.6621 8.9272 0 0 1 8.6612-8.9278 8.6621 8.9272 0 0 1 8.663 8.926l-8.6621 1e-3z" fill="#d50aef" fill-opacity=".98039"/>
  <path id="path162" d="m202.32 250.93a11.711 11.579 0 0 1-11.711 11.579 11.711 11.579 0 0 1-11.712-11.578 11.711 11.579 0 0 1 11.71-11.58 11.711 11.579 0 0 1 11.713 11.577l-11.711 2e-3z" fill="#323eac" fill-opacity=".98039"/>
  <path id="path164" d="m233.88 255.18a8.8388 9.1924 0 0 1-8.8385 9.1924 8.8388 9.1924 0 0 1-8.8392-9.1917 8.8388 9.1924 0 0 1 8.8379-9.193 8.8388 9.1924 0 0 1 8.8398 9.1911l-8.8388 1e-3z" fill="#242eea" fill-opacity=".86667"/>
  <path id="path166" d="m264.02 235.25a8.4411 8.2643 0 0 1-8.4408 8.2643 8.4411 8.2643 0 0 1-8.4414-8.2637 8.4411 8.2643 0 0 1 8.4402-8.2649 8.4411 8.2643 0 0 1 8.442 8.2632l-8.4411 1e-3z" fill="#2a7a90" fill-opacity=".86667"/>
  <path id="path168" d="m255.88 247a14.805 13.568 0 0 1-14.805 13.568 14.805 13.568 0 0 1-14.806-13.567 14.805 13.568 0 0 1 14.803-13.569 14.805 13.568 0 0 1 14.807 13.566l-14.805 2e-3z" fill="#4ebde6" fill-opacity=".98039"/>
  <path id="path170" d="m223 267.99a9.104 8.9272 0 0 1-9.1037 8.9272 9.104 8.9272 0 0 1-9.1043-8.9266 9.104 8.9272 0 0 1 9.103-8.9278 9.104 8.9272 0 0 1 9.105 8.926l-9.104 1e-3z" fill="#ead924" fill-opacity=".86667"/>
  <path id="path172" d="m206.3 268.57a10.165 10.386 0 0 1-10.164 10.386 10.165 10.386 0 0 1-10.165-10.385 10.165 10.386 0 0 1 10.164-10.386 10.165 10.386 0 0 1 10.166 10.384l-10.165 1e-3z" fill="#2b5cee" fill-opacity=".98039"/>
  <path id="path174" d="m243.86 281.52a9.2808 8.8388 0 0 1-9.2804 8.8388 9.2808 8.8388 0 0 1-9.2811-8.8382 9.2808 8.8388 0 0 1 9.2798-8.8394 9.2808 8.8388 0 0 1 9.2818 8.8376l-9.2808 1e-3z" fill="#f29c13" fill-opacity=".86274"/>
  <path id="path176" d="m228.93 283.95a7.9991 8.3527 0 0 1-7.9989 8.3527 7.9991 8.3527 0 0 1-7.9994-8.3521 7.9991 8.3527 0 0 1 7.9983-8.3533 7.9991 8.3527 0 0 1 8 8.3515l-7.9992 1e-3z" fill="#1f8f78" fill-opacity=".98039"/>
  <path id="path178" d="m215.76 289.96a8.9714 8.7946 0 0 1-8.9711 8.7946 8.9714 8.7946 0 0 1-8.9717-8.794 8.9714 8.7946 0 0 1 8.9705-8.7952 8.9714 8.7946 0 0 1 8.9724 8.7934l-8.9714 1e-3z" fill="#f29c12" fill-opacity=".86667"/>
  <path id="path180" d="m204.09 280.15a8.9714 8.6179 0 0 1-8.9711 8.6179 8.9714 8.6179 0 0 1-8.9717-8.6173 8.9714 8.6179 0 0 1 8.9705-8.6185 8.9714 8.6179 0 0 1 8.9724 8.6167l-8.9714 1e-3z" fill="#2a9155" fill-opacity=".86274"/>
  <path id="path182" d="m184.38 376.97a10.938 10.781 0 0 1-10.937 10.781 10.938 10.781 0 0 1-10.938-10.78 10.938 10.781 0 0 1 10.936-10.782 10.938 10.781 0 0 1 10.939 10.78l-10.938 2e-3z" fill="#2b5cee" fill-opacity=".98039"/>
  <path id="path184" d="m206.75 368.81a9.2188 9.25 0 0 1-9.2184 9.25 9.2188 9.25 0 0 1-9.2191-9.2494 9.2188 9.25 0 0 1 9.2178-9.2506 9.2188 9.25 0 0 1 9.2197 9.2487l-9.2188 1e-3z" fill="#e7f0ef" fill-opacity=".86667"/>
  <path id="path186" d="m224 360.94a9.25 9.1875 0 0 1-9.2497 9.1875 9.25 9.1875 0 0 1-9.2503-9.1869 9.25 9.1875 0 0 1 9.249-9.1881 9.25 9.1875 0 0 1 9.251 9.1862l-9.25 1e-3z" fill="#f20ce7" fill-opacity=".98039"/>
  <path id="path188" d="m236.62 356.62a9.5 9.25 0 0 1-9.4997 9.25 9.5 9.25 0 0 1-9.5003-9.2494 9.5 9.25 0 0 1 9.499-9.2506 9.5 9.25 0 0 1 9.501 9.2487l-9.5 1e-3z" fill="#b638e7" fill-opacity=".87451"/>
  <path id="path190" d="m227.75 342.94a8.0625 7.8125 0 0 1-8.0622 7.8125 8.0625 7.8125 0 0 1-8.0628-7.812 8.0625 7.8125 0 0 1 8.0617-7.813 8.0625 7.8125 0 0 1 8.0633 7.8114l-8.0625 1e-3z" fill="#23917a"/>
  <path id="path192" d="m252.88 371a9.6875 9.125 0 0 1-9.6872 9.125 9.6875 9.125 0 0 1-9.6878-9.1244 9.6875 9.125 0 0 1 9.6865-9.1256 9.6875 9.125 0 0 1 9.6885 9.1237l-9.6875 1e-3z" fill="#b433db" fill-opacity=".98039"/>
  <path id="path194" d="m238 339.75a8.125 7.625 0 0 1-8.1247 7.625 8.125 7.625 0 0 1-8.1253-7.6245 8.125 7.625 0 0 1 8.1242-7.6255 8.125 7.625 0 0 1 8.1258 7.6239l-8.125 1e-3z" fill="#b63ae7" fill-opacity=".88235"/>
  <path id="path196" d="m245.12 363.38a8.125 7.875 0 0 1-8.1247 7.875 8.125 7.875 0 0 1-8.1253-7.8744 8.125 7.875 0 0 1 8.1242-7.8756 8.125 7.875 0 0 1 8.1258 7.8739l-8.125 1e-3z" fill="#1f8e77" fill-opacity=".87059"/>
  <path id="path198" d="m251.38 340.25a11.438 10.875 0 0 1-11.437 10.875 11.438 10.875 0 0 1-11.438-10.874 11.438 10.875 0 0 1 11.436-10.876 11.438 10.875 0 0 1 11.439 10.873l-11.438 2e-3z" fill="#2b5cee" fill-opacity=".98039"/>
  <path id="path200" d="m264.62 353.69a8.9375 8.6875 0 0 1-8.9372 8.6875 8.9375 8.6875 0 0 1-8.9378-8.6869 8.9375 8.6875 0 0 1 8.9366-8.6881 8.9375 8.6875 0 0 1 8.9384 8.6863l-8.9375 1e-3z" fill="#080e81" fill-opacity=".97647"/>
  <path id="path202" d="m269 341.06a9.3125 9.1875 0 0 1-9.3122 9.1875 9.3125 9.1875 0 0 1-9.3128-9.1869 9.3125 9.1875 0 0 1 9.3115-9.1881 9.3125 9.1875 0 0 1 9.3135 9.1862l-9.3125 1e-3z" fill="#e7f0ef" fill-opacity=".98431"/>
  <path id="path204" d="m293.75 373.06a8.75 8.8125 0 0 1-8.7497 8.8125 8.75 8.8125 0 0 1-8.7503-8.8119 8.75 8.8125 0 0 1 8.7491-8.8131 8.75 8.8125 0 0 1 8.7509 8.8113l-8.75 1e-3z" fill="#080e82" fill-opacity=".87059"/>
  <path id="path206" d="m275.88 354.94a7.5 7.6875 0 0 1-7.4997 7.6875 7.5 7.6875 0 0 1-7.5003-7.687 7.5 7.6875 0 0 1 7.4992-7.688 7.5 7.6875 0 0 1 7.5008 7.6864l-7.5 1e-3z" fill="#b639e7" fill-opacity=".86667"/>
  <path id="path208" d="m224.25 391.38a14.938 14.5 0 0 1-14.937 14.5 14.938 14.5 0 0 1-14.938-14.499 14.938 14.5 0 0 1 14.936-14.501 14.938 14.5 0 0 1 14.939 14.498l-14.938 2e-3z" fill="#d653ee" fill-opacity=".98431"/>
  <path id="path210" d="m263.12 381.75a9.5 9 0 0 1-9.4997 9 9.5 9 0 0 1-9.5003-8.9994 9.5 9 0 0 1 9.499-9.0006 9.5 9 0 0 1 9.501 8.9987l-9.5 1e-3z" fill="#0fab0f" fill-opacity=".98431"/>
  <path id="path212" d="m261.38 401.81a9.25 9.4375 0 0 1-9.2497 9.4375 9.25 9.4375 0 0 1-9.2503-9.4368 9.25 9.4375 0 0 1 9.249-9.4382 9.25 9.4375 0 0 1 9.251 9.4362l-9.25 1e-3z" fill="#b433db" fill-opacity=".87059"/>
  <path id="path214" d="m278.12 398.12a9.5625 9.5 0 0 1-9.5622 9.5 9.5625 9.5 0 0 1-9.5628-9.4993 9.5625 9.5 0 0 1 9.5615-9.5007 9.5625 9.5 0 0 1 9.5635 9.4987l-9.5625 1e-3z" fill="#f20ce7" fill-opacity=".86667"/>
  <path id="path216" d="m289.5 409.06a11.75 12.312 0 0 1-11.75 12.312 11.75 12.312 0 0 1-11.75-12.312 11.75 12.312 0 0 1 11.749-12.313 11.75 12.312 0 0 1 11.751 12.311l-11.75 2e-3z" fill="#0d0d61" fill-opacity=".98431"/>
  <path id="path218" d="m304.5 397.25a9.75 9.625 0 0 1-9.7497 9.625 9.75 9.625 0 0 1-9.7503-9.6243 9.75 9.625 0 0 1 9.749-9.6257 9.75 9.625 0 0 1 9.751 9.6237l-9.75 1e-3z" fill="#b433db" fill-opacity=".86667"/>
  <path id="path220" d="m282.88 378.81a8.5625 8.8125 0 0 1-8.5622 8.8125 8.5625 8.8125 0 0 1-8.5628-8.8119 8.5625 8.8125 0 0 1 8.5616-8.8131 8.5625 8.8125 0 0 1 8.5634 8.8113l-8.5625 1e-3z" fill="#e7f0ef" fill-opacity=".85882"/>
  <path id="path222" d="m288.38 357.38a7.625 7.75 0 0 1-7.6247 7.75 7.625 7.75 0 0 1-7.6253-7.7495 7.625 7.75 0 0 1 7.6242-7.7505 7.625 7.75 0 0 1 7.6258 7.7489l-7.625 1e-3z" fill="#1f8e78" fill-opacity=".86667"/>
  <path id="path224" d="m293.75 345.75a7.5625 7.125 0 0 1-7.5622 7.125 7.5625 7.125 0 0 1-7.5628-7.1245 7.5625 7.125 0 0 1 7.5617-7.1255 7.5625 7.125 0 0 1 7.5633 7.124l-7.5625 9.9e-4z" fill="#1a2e63" fill-opacity=".92941"/>
  <path id="path226" d="m295.75 384.69a10.875 10.688 0 0 1-10.875 10.688 10.875 10.688 0 0 1-10.875-10.687 10.875 10.688 0 0 1 10.874-10.688 10.875 10.688 0 0 1 10.876 10.686l-10.875 1e-3z" fill="#2b5cee" fill-opacity=".98039"/>
  <path id="path228" d="m325.38 394.62a9.3125 9.125 0 0 1-9.3122 9.125 9.3125 9.125 0 0 1-9.3128-9.1244 9.3125 9.125 0 0 1 9.3115-9.1256 9.3125 9.125 0 0 1 9.3135 9.1237l-9.3125 1e-3z" fill="#b433db" fill-opacity=".8902"/>
  <path id="path230" d="m323.38 403.88a9.625 9.25 0 0 1-9.6247 9.25 9.625 9.25 0 0 1-9.6253-9.2494 9.625 9.25 0 0 1 9.624-9.2506 9.625 9.25 0 0 1 9.626 9.2487l-9.625 1e-3z" fill="#f20ce7" fill-opacity=".86667"/>
  <path id="path232" d="m304.75 411.58a9.5625 9.8125 0 0 1-9.5622 9.8125 9.5625 9.8125 0 0 1-9.5628-9.8118 9.5625 9.8125 0 0 1 9.5615-9.8132 9.5625 9.8125 0 0 1 9.5635 9.8111l-9.5625 1e-3z" fill="#3f6dee" fill-opacity=".97647"/>
  <path id="path234" d="m321 419.69a10.625 10.062 0 0 1-10.625 10.062 10.625 10.062 0 0 1-10.625-10.062 10.625 10.062 0 0 1 10.624-10.063 10.625 10.062 0 0 1 10.626 10.061l-10.625 1e-3z" fill="#2c5cee" fill-opacity=".98824"/>
  <path id="path236" d="m313 384.44a8.375 8.8125 0 0 1-8.3747 8.8125 8.375 8.8125 0 0 1-8.3753-8.8119 8.375 8.8125 0 0 1 8.3741-8.8131 8.375 8.8125 0 0 1 8.3759 8.8113l-8.375 1e-3z" fill="#d50eef"/>
  <path id="path238" d="m309.25 361.56a13.062 14.062 0 0 1-13.062 14.062 13.062 14.062 0 0 1-13.063-14.062 13.062 14.062 0 0 1 13.061-14.063 13.062 14.062 0 0 1 13.064 14.061l-13.062 2e-3z" fill="#51bce2"/>
  <path id="path240" d="m292.25 338.81a9.375 9.1875 0 0 1-9.3747 9.1875 9.375 9.1875 0 0 1-9.3753-9.1869 9.375 9.1875 0 0 1 9.374-9.1881 9.375 9.1875 0 0 1 9.376 9.1862l-9.375 1e-3z" fill="#0fac0f" fill-opacity=".87451"/>
  <path id="path242" d="m294.25 322.31a8.5 8.0625 0 0 1-8.4997 8.0625 8.5 8.0625 0 0 1-8.5003-8.0619 8.5 8.0625 0 0 1 8.4991-8.0631 8.5 8.0625 0 0 1 8.5009 8.0614l-8.5 1e-3z" fill="#1f8f78" fill-opacity=".98431"/>
  <path id="path244" d="m310.12 314.94a10.625 11.312 0 0 1-10.625 11.312 10.625 11.312 0 0 1-10.625-11.312 10.625 11.312 0 0 1 10.624-11.313 10.625 11.312 0 0 1 10.626 11.311l-10.625 2e-3z" fill="#041f6f"/>
  <path id="path246" d="m312.75 342.69a7.625 7.3125 0 0 1-7.6247 7.3125 7.625 7.3125 0 0 1-7.6253-7.312 7.625 7.3125 0 0 1 7.6242-7.313 7.625 7.3125 0 0 1 7.6258 7.3115l-7.625 1e-3z" fill="#080d82" fill-opacity=".98039"/>
  <path id="path248" d="m308.62 335.5a6.9375 7 0 0 1-6.9373 7 6.9375 7 0 0 1-6.9377-6.9995 6.9375 7 0 0 1 6.9368-7.0005 6.9375 7 0 0 1 6.9382 6.999l-6.9375 9.8e-4z" fill="#1c7e78" fill-opacity=".99608"/>
  <path id="path250" d="m322.81 324.77a8.4375 8.3125 0 0 1-8.4372 8.3125 8.4375 8.3125 0 0 1-8.4378-8.3119 8.4375 8.3125 0 0 1 8.4366-8.3131 8.4375 8.3125 0 0 1 8.4384 8.3113l-8.4375 1e-3z" fill="#091482" fill-opacity=".8"/>
  <path id="path252" d="m320.5 331.81a7.875 7.6875 0 0 1-7.8747 7.6875 7.875 7.6875 0 0 1-7.8753-7.687 7.875 7.6875 0 0 1 7.8742-7.688 7.875 7.6875 0 0 1 7.8758 7.6864l-7.875 1e-3z" fill="#297991" fill-opacity=".99608"/>
  <path id="path254" d="m327.62 372.69a7.375 7.4375 0 0 1-7.3747 7.4375 7.375 7.4375 0 0 1-7.3753-7.437 7.375 7.4375 0 0 1 7.3742-7.438 7.375 7.4375 0 0 1 7.3758 7.4365l-7.375 1e-3z" fill="#0d2768" fill-opacity=".86274"/>
  <path id="path256" d="m338.38 357.44a11.875 10.938 0 0 1-11.875 10.938 11.875 10.938 0 0 1-11.875-10.937 11.875 10.938 0 0 1 11.874-10.938 11.875 10.938 0 0 1 11.876 10.936l-11.875 2e-3z" fill="#0c0c60" fill-opacity=".98039"/>
  <path id="path258" d="m339.88 359.5a5.875 6 0 0 1-5.8748 6 5.875 6 0 0 1-5.8752-5.9996 5.875 6 0 0 1 5.8744-6.0004 5.875 6 0 0 1 5.8756 5.9992l-5.875 8.4e-4z" fill="#297b91" fill-opacity=".87059"/>
  <path id="path260" d="m331.12 338.62a10.188 10.375 0 0 1-10.187 10.375 10.188 10.375 0 0 1-10.188-10.374 10.188 10.375 0 0 1 10.186-10.376 10.188 10.375 0 0 1 10.189 10.374l-10.188 1e-3z" fill="#122f84" fill-opacity=".98431"/>
  <path id="path262" d="m349.5 343.69a9.25 9.8125 0 0 1-9.2497 9.8125 9.25 9.8125 0 0 1-9.2503-9.8118 9.25 9.8125 0 0 1 9.249-9.8132 9.25 9.8125 0 0 1 9.251 9.8111l-9.25 1e-3z" fill="#080e81" fill-opacity=".86667"/>
  <path id="path264" d="m357.88 340.88a8.0625 8.125 0 0 1-8.0622 8.125 8.0625 8.125 0 0 1-8.0628-8.1244 8.0625 8.125 0 0 1 8.0617-8.1256 8.0625 8.125 0 0 1 8.0633 8.1239l-8.0625 1e-3z" fill="#2a7b91" fill-opacity=".86667"/>
  <path id="path266" d="m366.62 353a9.125 8.625 0 0 1-9.1247 8.625 9.125 8.625 0 0 1-9.1253-8.6244 9.125 8.625 0 0 1 9.124-8.6256 9.125 8.625 0 0 1 9.126 8.6238l-9.125 0.0012z" fill="#080e82" fill-opacity=".87059"/>
  <path id="path268" d="m368.5 343.69a7.8125 8.0625 0 0 1-7.8122 8.0625 7.8125 8.0625 0 0 1-7.8128-8.0619 7.8125 8.0625 0 0 1 7.8117-8.0631 7.8125 8.0625 0 0 1 7.8133 8.0614l-7.8125 1e-3z" fill="#2a7b91" fill-opacity=".98431"/>
  <path id="path270" d="m347.62 373.88a7.5 7.75 0 0 1-7.4997 7.75 7.5 7.75 0 0 1-7.5003-7.7495 7.5 7.75 0 0 1 7.4992-7.7505 7.5 7.75 0 0 1 7.5008 7.7489l-7.5 1e-3z" fill="#0d2869" fill-opacity=".98039"/>
  <path id="path272" d="m361.88 375.69a9.75 9.4375 0 0 1-9.7497 9.4375 9.75 9.4375 0 0 1-9.7503-9.4368 9.75 9.4375 0 0 1 9.749-9.4382 9.75 9.4375 0 0 1 9.751 9.4362l-9.75 1e-3z" fill="#0fab0f" fill-opacity=".98431"/>
  <path id="path274" d="m388.38 384.88a9.125 9 0 0 1-9.1247 9 9.125 9 0 0 1-9.1253-8.9994 9.125 9 0 0 1 9.124-9.0006 9.125 9 0 0 1 9.126 8.9987l-9.125 1e-3z" fill="#b433db" fill-opacity=".98039"/>
  <path id="path276" d="m371.88 377.19a10 10.812 0 0 1-9.9996 10.812 10 10.812 0 0 1-10-10.812 10 10.812 0 0 1 9.999-10.813 10 10.812 0 0 1 10.001 10.811l-10 2e-3z" fill="#2b5cee" fill-opacity=".98039"/>
  <path id="path278" d="m341.75 393.94a11.188 11.438 0 0 1-11.187 11.438 11.188 11.438 0 0 1-11.188-11.437 11.188 11.438 0 0 1 11.186-11.438 11.188 11.438 0 0 1 11.189 11.436l-11.188 2e-3z" fill="#0f0e5f" fill-opacity=".99608"/>
  <path id="path280" d="m509.74 369.15a9 9.25 0 0 1-8.9997 9.25 9 9.25 0 0 1-9.0003-9.2494 9 9.25 0 0 1 8.9991-9.2506 9 9.25 0 0 1 9.0009 9.2487l-9 1e-3z" fill="#b433db" fill-opacity=".98039"/>
  <path id="path282" d="m495.12 380.38a5.8125 5.875 0 0 1-5.8123 5.875 5.8125 5.875 0 0 1-5.8127-5.8746 5.8125 5.875 0 0 1 5.8119-5.8754 5.8125 5.875 0 0 1 5.8131 5.8742l-5.8125 8.2e-4z" fill="#2f8e0f" fill-opacity=".98039"/>
  <path id="path284" d="m500.75 354.56a8.1875 8.1875 0 0 1-8.1872 8.1875 8.1875 8.1875 0 0 1-8.1878-8.1869 8.1875 8.1875 0 0 1 8.1866-8.1881 8.1875 8.1875 0 0 1 8.1884 8.1864l-8.1875 1e-3z" fill="#308b11"/>
  <path id="path286" d="m479.25 354.19a8.75 8.5625 0 0 1-8.7497 8.5625 8.75 8.5625 0 0 1-8.7503-8.5619 8.75 8.5625 0 0 1 8.7491-8.5631 8.75 8.5625 0 0 1 8.7509 8.5613l-8.75 1e-3z" fill="#ec14da" fill-opacity=".98039"/>
  <path id="path288" d="m491.38 341.88a11.562 10.875 0 0 1-11.562 10.875 11.562 10.875 0 0 1-11.563-10.874 11.562 10.875 0 0 1 11.561-10.876 11.562 10.875 0 0 1 11.564 10.873l-11.562 2e-3z" fill="#940b99" fill-opacity=".99608"/>
  <path id="path290" d="m495.5 365.81a15.625 15.312 0 0 1-15.624 15.312 15.625 15.312 0 0 1-15.626-15.311 15.625 15.312 0 0 1 15.623-15.314 15.625 15.312 0 0 1 15.627 15.31l-15.625 2e-3z" fill="#d63ef0"/>
  <path id="path292" d="m487.12 386.06a9 9.3125 0 0 1-8.9997 9.3125 9 9.3125 0 0 1-9.0003-9.3118 9 9.3125 0 0 1 8.9991-9.3132 9 9.3125 0 0 1 9.0009 9.3112l-9 1e-3z" fill="#f00a5f" fill-opacity=".98039"/>
  <path id="path294" d="m472.62 396.19a15.438 15.312 0 0 1-15.437 15.312 15.438 15.312 0 0 1-15.438-15.311 15.438 15.312 0 0 1 15.436-15.314 15.438 15.312 0 0 1 15.439 15.31l-15.438 2e-3z" fill="#d641f0"/>
  <path id="path296" d="m450.81 414.22a9.0625 8.9375 0 0 1-9.0622 8.9375 9.0625 8.9375 0 0 1-9.0628-8.9369 9.0625 8.9375 0 0 1 9.0616-8.9381 9.0625 8.9375 0 0 1 9.0634 8.9362l-9.0625 1e-3z" fill="#f20ce7" fill-opacity=".98039"/>
  <path id="path298" d="m438.62 398.81a9.5 9.4375 0 0 1-9.4997 9.4375 9.5 9.4375 0 0 1-9.5003-9.4368 9.5 9.4375 0 0 1 9.499-9.4382 9.5 9.4375 0 0 1 9.501 9.4362l-9.5 1e-3z" fill="#b433db" fill-opacity=".98039"/>
  <path id="path300" d="m425.12 420.44a7.9375 8.3125 0 0 1-7.9372 8.3125 7.9375 8.3125 0 0 1-7.9378-8.3119 7.9375 8.3125 0 0 1 7.9367-8.3131 7.9375 8.3125 0 0 1 7.9383 8.3113l-7.9375 1e-3z" fill="#b639e7" fill-opacity=".97647"/>
  <path id="path302" d="m437.5 412.12a9.25 9.125 0 0 1-9.2497 9.125 9.25 9.125 0 0 1-9.2503-9.1244 9.25 9.125 0 0 1 9.249-9.1256 9.25 9.125 0 0 1 9.251 9.1237l-9.25 1e-3z" fill="#0fab0f" fill-opacity=".98431"/>
  <path id="path304" d="m457.25 405.94a10.625 11.062 0 0 1-10.625 11.062 10.625 11.062 0 0 1-10.625-11.062 10.625 11.062 0 0 1 10.624-11.063 10.625 11.062 0 0 1 10.626 11.061l-10.625 2e-3z" fill="#2b5cee" fill-opacity=".98039"/>
  <path id="path306" d="m461.75 349.38a8.25 8.25 0 0 1-8.2497 8.25 8.25 8.25 0 0 1-8.2503-8.2494 8.25 8.25 0 0 1 8.2491-8.2506 8.25 8.25 0 0 1 8.2509 8.2488l-8.25 1e-3z" fill="#f29c13" fill-opacity=".86274"/>
  <path id="path308" d="m464.62 362.69a7.75 7.5625 0 0 1-7.7497 7.5625 7.75 7.5625 0 0 1-7.7503-7.562 7.75 7.5625 0 0 1 7.7492-7.563 7.75 7.5625 0 0 1 7.7508 7.5614l-7.75 1e-3z" fill="#0d2769" fill-opacity=".86667"/>
  <path id="path310" d="m443.75 362.31a7.625 7.3125 0 0 1-7.6247 7.3125 7.625 7.3125 0 0 1-7.6253-7.312 7.625 7.3125 0 0 1 7.6242-7.313 7.625 7.3125 0 0 1 7.6258 7.3115l-7.625 1e-3z" fill="#0d2869" fill-opacity=".98431"/>
  <path id="path312" d="m444.75 381.94a9.5 9.4375 0 0 1-9.4997 9.4375 9.5 9.4375 0 0 1-9.5003-9.4368 9.5 9.4375 0 0 1 9.499-9.4382 9.5 9.4375 0 0 1 9.501 9.4362l-9.5 1e-3z" fill="#f29c12" fill-opacity=".98039"/>
  <path id="path314" d="m454.25 372.12a8.75 9 0 0 1-8.7497 9 8.75 9 0 0 1-8.7503-8.9994 8.75 9 0 0 1 8.7491-9.0006 8.75 9 0 0 1 8.7509 8.9987l-8.75 1e-3z" fill="#d50aef" fill-opacity=".98039"/>
  <path id="path316" d="m450.38 315.31a6.375 6.3125 0 0 1-6.3748 6.3125 6.375 6.3125 0 0 1-6.3752-6.3121 6.375 6.3125 0 0 1 6.3743-6.3129 6.375 6.3125 0 0 1 6.3757 6.3116l-6.375 8.8e-4z" fill="#2f8f0f" fill-opacity=".91765"/>
  <path id="path318" d="m439.38 338.19a8.625 8.9375 0 0 1-8.6247 8.9375 8.625 8.9375 0 0 1-8.6253-8.9369 8.625 8.9375 0 0 1 8.6241-8.9381 8.625 8.9375 0 0 1 8.6259 8.9362l-8.625 1e-3z" fill="#b333db" fill-opacity=".87059"/>
  <path id="path320" d="m445.62 346.06a9.1875 9.0625 0 0 1-9.1872 9.0625 9.1875 9.0625 0 0 1-9.1878-9.0619 9.1875 9.0625 0 0 1 9.1865-9.0631 9.1875 9.0625 0 0 1 9.1885 9.0612l-9.1875 1e-3z" fill="#d50aef" fill-opacity=".98039"/>
  <path id="path322" d="m440.85 325.96a9.125 9.25 0 0 1-9.1247 9.25 9.125 9.25 0 0 1-9.1253-9.2494 9.125 9.25 0 0 1 9.124-9.2506 9.125 9.25 0 0 1 9.126 9.2487l-9.125 1e-3z" fill="#ec13d9" fill-opacity=".87451"/>
  <path id="path324" d="m463.6 306.87a8.375 7.625 0 0 1-8.3747 7.625 8.375 7.625 0 0 1-8.3753-7.6245 8.375 7.625 0 0 1 8.3741-7.6255 8.375 7.625 0 0 1 8.3759 7.6239l-8.375 1e-3z" fill="#ead924" fill-opacity=".98039"/>
  <path id="path326" d="m473.12 318.06a8.4375 8.1875 0 0 1-8.4372 8.1875 8.4375 8.1875 0 0 1-8.4378-8.1869 8.4375 8.1875 0 0 1 8.4366-8.1881 8.4375 8.1875 0 0 1 8.4384 8.1864l-8.4375 1e-3z" fill="#ead924" fill-opacity=".98039"/>
  <path id="path328" d="m461.75 327.44a12.875 12.812 0 0 1-12.875 12.812 12.875 12.812 0 0 1-12.875-12.812 12.875 12.812 0 0 1 12.874-12.813 12.875 12.812 0 0 1 12.876 12.811l-12.875 2e-3z" fill="#d640ed" fill-opacity=".99608"/>
  <path id="path330" d="m476.62 334.81a9.5625 9.3125 0 0 1-9.5622 9.3125 9.5625 9.3125 0 0 1-9.5628-9.3118 9.5625 9.3125 0 0 1 9.5615-9.3132 9.5625 9.3125 0 0 1 9.5635 9.3112l-9.5625 1e-3z" fill="#2f8e0f" fill-opacity=".98039"/>
  <path id="path332" d="m427.25 367.62a6.375 6.125 0 0 1-6.3748 6.125 6.375 6.125 0 0 1-6.3752-6.1246 6.375 6.125 0 0 1 6.3743-6.1254 6.375 6.125 0 0 1 6.3757 6.1241l-6.375 8.6e-4z" fill="#2f8e0f" fill-opacity=".98039"/>
  <path id="path334" d="m411.5 348.75a9.25 9.5 0 0 1-9.2497 9.5 9.25 9.5 0 0 1-9.2503-9.4993 9.25 9.5 0 0 1 9.249-9.5007 9.25 9.5 0 0 1 9.251 9.4987l-9.25 1e-3z" fill="#080e82" fill-opacity=".99608"/>
  <path id="path336" d="m418 356.12a8.1875 8 0 0 1-8.1872 8 8.1875 8 0 0 1-8.1878-7.9994 8.1875 8 0 0 1 8.1866-8.0006 8.1875 8 0 0 1 8.1884 7.9989l-8.1875 1e-3z" fill="#b432db" fill-opacity=".86274"/>
  <path id="path338" d="m421.88 339.62a9.4375 9.375 0 0 1-9.4372 9.375 9.4375 9.375 0 0 1-9.4378-9.3744 9.4375 9.375 0 0 1 9.4365-9.3756 9.4375 9.375 0 0 1 9.4385 9.3737l-9.4375 1e-3z" fill="#ec14da" fill-opacity=".98039"/>
  <path id="path340" d="m395.38 344.25a8.9375 9.125 0 0 1-8.9372 9.125 8.9375 9.125 0 0 1-8.9378-9.1244 8.9375 9.125 0 0 1 8.9366-9.1256 8.9375 9.125 0 0 1 8.9384 9.1237l-8.9375 1e-3z" fill="#2a7b91" fill-opacity=".98039"/>
  <path id="path342" d="m385.12 358.94a8.8125 8.9375 0 0 1-8.8122 8.9375 8.8125 8.9375 0 0 1-8.8128-8.9369 8.8125 8.9375 0 0 1 8.8116-8.9381 8.8125 8.9375 0 0 1 8.8134 8.9362l-8.8125 1e-3z" fill="#b433db" fill-opacity=".86667"/>
  <path id="path344" d="m398.25 364.69a8.25 7.9375 0 0 1-8.2497 7.9375 8.25 7.9375 0 0 1-8.2503-7.937 8.25 7.9375 0 0 1 8.2491-7.938 8.25 7.9375 0 0 1 8.2509 7.9364l-8.25 1e-3z" fill="#0d2869" fill-opacity=".99608"/>
  <path id="path346" d="m421.12 392.06a6.3125 6.8125 0 0 1-6.3123 6.8125 6.3125 6.8125 0 0 1-6.3127-6.812 6.3125 6.8125 0 0 1 6.3118-6.813 6.3125 6.8125 0 0 1 6.3132 6.8116l-6.3125 9.5e-4z" fill="#0d2768" fill-opacity=".86667"/>
  <path id="path348" d="m401 382.94a6.25 6.4375 0 0 1-6.2498 6.4375 6.25 6.4375 0 0 1-6.2502-6.437 6.25 6.4375 0 0 1 6.2494-6.438 6.25 6.4375 0 0 1 6.2506 6.4366l-6.25 9e-4z" fill="#232a79" fill-opacity=".98039"/>
  <path id="path350" d="m416 380.88a7.875 8.25 0 0 1-7.8747 8.25 7.875 8.25 0 0 1-7.8753-8.2494 7.875 8.25 0 0 1 7.8742-8.2506 7.875 8.25 0 0 1 7.8758 8.2488l-7.875 1e-3z" fill="#b432dc" fill-opacity=".73333"/>
  <g id="g358" fill-opacity=".98039">
   <path id="path352" d="m410.38 395.12a10.25 10.375 0 0 1-10.25 10.375 10.25 10.375 0 0 1-10.25-10.374 10.25 10.375 0 0 1 10.249-10.376 10.25 10.375 0 0 1 10.251 10.374l-10.25 1e-3z" fill="#2b5cee"/>
   <path id="path354" d="m403.62 371.88a9.0625 9.625 0 0 1-9.0622 9.625 9.0625 9.625 0 0 1-9.0628-9.6243 9.0625 9.625 0 0 1 9.0616-9.6257 9.0625 9.625 0 0 1 9.0634 9.6237l-9.0625 1e-3z" fill="#0fab0f"/>
   <path id="path356" d="m408.25 413.38a9.125 9.25 0 0 1-9.1247 9.25 9.125 9.25 0 0 1-9.1253-9.2494 9.125 9.25 0 0 1 9.124-9.2506 9.125 9.25 0 0 1 9.126 9.2487l-9.125 1e-3z" fill="#f20ce7"/>
  </g>
  <path id="path360" d="m401.99 425.5a9 8.9375 0 0 1-8.9997 8.9375 9 8.9375 0 0 1-9.0003-8.9369 9 8.9375 0 0 1 8.999-8.9381 9 8.9375 0 0 1 9.001 8.9362l-9 1e-3z" fill="#0d2869" fill-opacity=".86667"/>
  <path id="path362" d="m389.69 424.27a9.25 10.062 0 0 1-9.2497 10.062 9.25 10.062 0 0 1-9.2503-10.062 9.25 10.062 0 0 1 9.249-10.063 9.25 10.062 0 0 1 9.251 10.061l-9.25 1e-3z" fill="#2d5deb" fill-opacity=".99608"/>
  <path id="path364" d="m366.5 399.62a9.1875 9.5 0 0 1-9.1872 9.5 9.1875 9.5 0 0 1-9.1878-9.4993 9.1875 9.5 0 0 1 9.1865-9.5007 9.1875 9.5 0 0 1 9.1885 9.4987l-9.1875 1e-3z" fill="#b333db" fill-opacity=".86667"/>
  <path id="path366" d="m372.62 411.06a6.9375 7.3125 0 0 1-6.9373 7.3125 6.9375 7.3125 0 0 1-6.9377-7.312 6.9375 7.3125 0 0 1 6.9368-7.313 6.9375 7.3125 0 0 1 6.9382 7.3115l-6.9375 1e-3z" fill="#0d2869" fill-opacity=".87059"/>
  <path id="path368" d="m387 405.81a8 8.8125 0 0 1-7.9997 8.8125 8 8.8125 0 0 1-8.0003-8.8119 8 8.8125 0 0 1 7.9992-8.8131 8 8.8125 0 0 1 8.0008 8.8113l-8 1e-3z" fill="#d50aef" fill-opacity=".98039"/>
  <path id="path370" d="m371.23 423.39a9.6875 9.875 0 0 1-9.6872 9.875 9.6875 9.875 0 0 1-9.6878-9.8743 9.6875 9.875 0 0 1 9.6865-9.8757 9.6875 9.875 0 0 1 9.6885 9.8736l-9.6875 1e-3z" fill="#2c5bee" fill-opacity=".98431"/>
  <path id="path372" d="m336.38 427.69a6.0625 6.0625 0 0 1-6.0623 6.0625 6.0625 6.0625 0 0 1-6.0627-6.0621 6.0625 6.0625 0 0 1 6.0619-6.0629 6.0625 6.0625 0 0 1 6.0631 6.0616l-6.0625 8.5e-4z" fill="#b639e6" fill-opacity=".96863"/>
  <path id="path374" d="m351.62 410.25a8.6875 8.75 0 0 1-8.6872 8.75 8.6875 8.75 0 0 1-8.6878-8.7494 8.6875 8.75 0 0 1 8.6866-8.7506 8.6875 8.75 0 0 1 8.6884 8.7488l-8.6875 1e-3z" fill="#b432dc" fill-opacity=".87451"/>
  <path id="path376" d="m351.65 428.1a9.4375 9.8125 0 0 1-9.4372 9.8125 9.4375 9.8125 0 0 1-9.4378-9.8118 9.4375 9.8125 0 0 1 9.4365-9.8132 9.4375 9.8125 0 0 1 9.4385 9.8111l-9.4375 1e-3z" fill="#2d5bee" fill-opacity=".98824"/>
  <path id="path378" d="m339.88 417.44a8.875 9.5625 0 0 1-8.8747 9.5625 8.875 9.5625 0 0 1-8.8753-9.5618 8.875 9.5625 0 0 1 8.8741-9.5632 8.875 9.5625 0 0 1 8.8759 9.5612l-8.875 1e-3z" fill="#0faa0f" fill-opacity=".98039"/>
  <path id="path380" d="m288.38 279.81a4.5 4.3125 0 0 1-4.4998 4.3125 4.5 4.3125 0 0 1-4.5002-4.3122 4.5 4.3125 0 0 1 4.4995-4.3128 4.5 4.3125 0 0 1 4.5005 4.3119l-4.5 6e-4z" fill="#0808cd" fill-opacity=".98039"/>
  <path id="path382" d="m288.88 292.31a13.75 13.688 0 0 1-13.75 13.688 13.75 13.688 0 0 1-13.75-13.687 13.75 13.688 0 0 1 13.749-13.688 13.75 13.688 0 0 1 13.751 13.686l-13.75 2e-3z" fill="#4dbce4"/>
  <path id="path384" d="m287.88 304a8.9375 8.375 0 0 1-8.9372 8.375 8.9375 8.375 0 0 1-8.9378-8.3744 8.9375 8.375 0 0 1 8.9366-8.3756 8.9375 8.375 0 0 1 8.9384 8.3738l-8.9375 1e-3z" fill="#0fab0f" fill-opacity=".98039"/>
  <path id="path386" d="m296 293.62a9.625 9.625 0 0 1-9.6247 9.625 9.625 9.625 0 0 1-9.6253-9.6243 9.625 9.625 0 0 1 9.624-9.6257 9.625 9.625 0 0 1 9.626 9.6237l-9.625 1e-3z" fill="#041d6f" fill-opacity=".98431"/>
  <path id="path388" d="m287.38 270.56a10.25 10.062 0 0 1-10.25 10.062 10.25 10.062 0 0 1-10.25-10.062 10.25 10.062 0 0 1 10.249-10.063 10.25 10.062 0 0 1 10.251 10.061l-10.25 1e-3z" fill="#041e6f" fill-opacity=".98039"/>
  <path id="path390" d="m246.25 271.38a7.625 7.875 0 0 1-7.6247 7.875 7.625 7.875 0 0 1-7.6253-7.8744 7.625 7.875 0 0 1 7.6242-7.8756 7.625 7.875 0 0 1 7.6258 7.8739l-7.625 1e-3z" fill="#1f8d78" fill-opacity=".99608"/>
  <path id="path392" d="m259.62 263.12a8.75 8.5 0 0 1-8.7497 8.5 8.75 8.5 0 0 1-8.7503-8.4994 8.75 8.5 0 0 1 8.7491-8.5006 8.75 8.5 0 0 1 8.7509 8.4988l-8.75 1e-3z" fill="#0fab0f" fill-opacity=".98039"/>
  <path id="path394" d="m260.88 274.56a7.625 8.0625 0 0 1-7.6247 8.0625 7.625 8.0625 0 0 1-7.6253-8.0619 7.625 8.0625 0 0 1 7.6242-8.0631 7.625 8.0625 0 0 1 7.6258 8.0614l-7.625 1e-3z" fill="#ead924" fill-opacity=".98039"/>
  <path id="path396" d="m281.25 249.88a10 10 0 0 1-9.9996 10 10 10 0 0 1-10-9.9993 10 10 0 0 1 9.999-10.001 10 10 0 0 1 10.001 9.9986l-10 1e-3z" fill="#0c0e61" fill-opacity=".99608"/>
  <path id="path398" d="m269.12 247.12a10.125 10.125 0 0 1-10.125 10.125 10.125 10.125 0 0 1-10.125-10.124 10.125 10.125 0 0 1 10.124-10.126 10.125 10.125 0 0 1 10.126 10.124l-10.125 1e-3z" fill="#0f326a" fill-opacity=".99608"/>
  <path id="path400" d="m280.5 235.69a9.125 8.8125 0 0 1-9.1247 8.8125 9.125 8.8125 0 0 1-9.1253-8.8119 9.125 8.8125 0 0 1 9.124-8.8131 9.125 8.8125 0 0 1 9.126 8.8113l-9.125 1e-3z" fill="#ead924" fill-opacity=".98039"/>
  <path id="path402" d="m276.88 212a11.062 10.875 0 0 1-11.062 10.875 11.062 10.875 0 0 1-11.063-10.874 11.062 10.875 0 0 1 11.061-10.876 11.062 10.875 0 0 1 11.064 10.873l-11.062 2e-3z" fill="#0d2869"/>
  <path id="path404" d="m284.5 214.56a6.375 6.4375 0 0 1-6.3748 6.4375 6.375 6.4375 0 0 1-6.3752-6.437 6.375 6.4375 0 0 1 6.3743-6.438 6.375 6.4375 0 0 1 6.3757 6.4366l-6.375 9e-4z" fill="#0808cd" fill-opacity=".98039"/>
  <path id="path406" d="m291.88 189.69a6.5625 6.9375 0 0 1-6.5623 6.9375 6.5625 6.9375 0 0 1-6.5627-6.937 6.5625 6.9375 0 0 1 6.5618-6.938 6.5625 6.9375 0 0 1 6.5632 6.9365l-6.5625 9.7e-4z" fill="#0c2768" fill-opacity=".96863"/>
  <path id="path408" d="m289.12 192.88a9.0625 9 0 0 1-9.0622 9 9.0625 9 0 0 1-9.0628-8.9994 9.0625 9 0 0 1 9.0616-9.0006 9.0625 9 0 0 1 9.0634 8.9987l-9.0625 1e-3z" fill="#11ab16"/>
  <path id="path410" d="m284.25 200.38a8.0625 8.75 0 0 1-8.0622 8.75 8.0625 8.75 0 0 1-8.0628-8.7494 8.0625 8.75 0 0 1 8.0617-8.7506 8.0625 8.75 0 0 1 8.0633 8.7488l-8.0625 1e-3z" fill="#041e6f" fill-opacity=".98039"/>
  <path id="path412" d="m285.12 187.31a13.5 12.938 0 0 1-13.5 12.938 13.5 12.938 0 0 1-13.5-12.937 13.5 12.938 0 0 1 13.499-12.938 13.5 12.938 0 0 1 13.501 12.936l-13.5 2e-3z" fill="#4dbbe5" fill-opacity=".99608"/>
  <path id="path414" d="m294.75 162.44a10.688 10.312 0 0 1-10.687 10.312 10.688 10.312 0 0 1-10.688-10.312 10.688 10.312 0 0 1 10.686-10.313 10.688 10.312 0 0 1 10.689 10.311l-10.688 1e-3z" fill="#0f1062"/>
  <path id="path416" d="m300.75 172.12a10.188 10.125 0 0 1-10.187 10.125 10.188 10.125 0 0 1-10.188-10.124 10.188 10.125 0 0 1 10.186-10.126 10.188 10.125 0 0 1 10.189 10.124l-10.188 1e-3z" fill="#041e6f" fill-opacity=".99608"/>
  <g id="g424" fill-opacity=".98039">
   <path id="path418" d="m279.12 170.19a8.9375 9.5625 0 0 1-8.9372 9.5625 8.9375 9.5625 0 0 1-8.9378-9.5618 8.9375 9.5625 0 0 1 8.9366-9.5632 8.9375 9.5625 0 0 1 8.9384 9.5612l-8.9375 1e-3z" fill="#d50aef"/>
   <path id="path420" d="m312.12 158.88a6.625 6.75 0 0 1-6.6248 6.75 6.625 6.75 0 0 1-6.6252-6.7495 6.625 6.75 0 0 1 6.6243-6.7505 6.625 6.75 0 0 1 6.6257 6.7491l-6.625 9.4e-4z" fill="#0808cd"/>
   <path id="path422" d="m294 138.56a9.5 9.0625 0 0 1-9.4997 9.0625 9.5 9.0625 0 0 1-9.5003-9.0619 9.5 9.0625 0 0 1 9.499-9.0631 9.5 9.0625 0 0 1 9.501 9.0612l-9.5 1e-3z" fill="#080e82"/>
  </g>
  <g id="g432" fill-opacity=".87059">
   <path id="path426" d="m307.12 128.44a9 8.9375 0 0 1-8.9997 8.9375 9 8.9375 0 0 1-9.0003-8.9369 9 8.9375 0 0 1 8.9991-8.9381 9 8.9375 0 0 1 9.0009 8.9362l-9 1e-3z" fill="#f20be7"/>
   <path id="path428" d="m313.25 139.38a9.1875 9.125 0 0 1-9.1872 9.125 9.1875 9.125 0 0 1-9.1878-9.1244 9.1875 9.125 0 0 1 9.1865-9.1256 9.1875 9.125 0 0 1 9.1885 9.1237l-9.1875 1e-3z" fill="#0fab0f"/>
   <path id="path430" d="m326.25 122.88a8.375 8.5 0 0 1-8.3747 8.5 8.375 8.5 0 0 1-8.3753-8.4994 8.375 8.5 0 0 1 8.3741-8.5006 8.375 8.5 0 0 1 8.3759 8.4988l-8.375 1e-3z" fill="#080e82"/>
  </g>
  <path id="path434" d="m319.62 129.38a8.75 9 0 0 1-8.7497 9 8.75 9 0 0 1-8.7503-8.9994 8.75 9 0 0 1 8.7491-9.0006 8.75 9 0 0 1 8.7509 8.9987l-8.75 1e-3z" fill="#e6efee" fill-opacity=".86667"/>
  <path id="path436" d="m335.75 137.62a9.25 10 0 0 1-9.2497 10 9.25 10 0 0 1-9.2503-9.9993 9.25 10 0 0 1 9.249-10.001 9.25 10 0 0 1 9.251 9.9986l-9.25 1e-3z" fill="#122f83" fill-opacity=".98431"/>
  <path id="path438" d="m325.12 145.19a9.5 9.9375 0 0 1-9.4997 9.9375 9.5 9.9375 0 0 1-9.5003-9.9368 9.5 9.9375 0 0 1 9.499-9.9382 9.5 9.9375 0 0 1 9.501 9.9361l-9.5 1e-3z" fill="#061e70" fill-opacity=".99216"/>
  <path id="path440" d="m355.12 133a9.1875 9 0 0 1-9.1872 9 9.1875 9 0 0 1-9.1878-8.9994 9.1875 9 0 0 1 9.1865-9.0006 9.1875 9 0 0 1 9.1885 8.9987l-9.1875 1e-3z" fill="#ec13d9" fill-opacity=".89804"/>
  <path id="path442" d="m367 127.12a10.062 10.125 0 0 1-10.062 10.125 10.062 10.125 0 0 1-10.063-10.124 10.062 10.125 0 0 1 10.061-10.126 10.062 10.125 0 0 1 10.064 10.124l-10.062 1e-3z" fill="#0fab0f" fill-opacity=".95686"/>
  <path id="path444" d="m379.38 123.38a8.625 8.875 0 0 1-8.6247 8.875 8.625 8.875 0 0 1-8.6253-8.8744 8.625 8.875 0 0 1 8.6241-8.8756 8.625 8.875 0 0 1 8.6259 8.8738l-8.625 1e-3z" fill="#2a7b91" fill-opacity=".87843"/>
  <path id="path446" d="m384.12 108.38a9.5 9.125 0 0 1-9.4997 9.125 9.5 9.125 0 0 1-9.5003-9.1244 9.5 9.125 0 0 1 9.499-9.1256 9.5 9.125 0 0 1 9.501 9.1237l-9.5 1e-3z" fill="#0fab0f" fill-opacity=".98039"/>
  <path id="path448" d="m409.12 133.31a11.375 12.062 0 0 1-11.375 12.062 11.375 12.062 0 0 1-11.375-12.062 11.375 12.062 0 0 1 11.374-12.063 11.375 12.062 0 0 1 11.376 12.061l-11.375 2e-3z" fill="#f20ce7" fill-opacity=".98039"/>
  <path id="path450" d="m407.38 110.44a8.8125 8.9375 0 0 1-8.8122 8.9375 8.8125 8.9375 0 0 1-8.8128-8.9369 8.8125 8.9375 0 0 1 8.8116-8.9381 8.8125 8.9375 0 0 1 8.8134 8.9362l-8.8125 1e-3z" fill="#f20ce7" fill-opacity=".98431"/>
  <path id="path452" d="m399.62 126.69a12.188 12.312 0 0 1-12.187 12.312 12.188 12.312 0 0 1-12.188-12.312 12.188 12.312 0 0 1 12.186-12.313 12.188 12.312 0 0 1 12.189 12.311l-12.188 2e-3z" fill="#0c0c60" fill-opacity=".98039"/>
  <path id="path454" d="m415.25 136.38a8.375 8.625 0 0 1-8.3747 8.625 8.375 8.625 0 0 1-8.3753-8.6244 8.375 8.625 0 0 1 8.3741-8.6256 8.375 8.625 0 0 1 8.3759 8.6238l-8.375 1e-3z" fill="#041e6f" fill-opacity=".99608"/>
  <path id="path456" d="m417.88 119.81a7.8125 8.0625 0 0 1-7.8122 8.0625 7.8125 8.0625 0 0 1-7.8128-8.0619 7.8125 8.0625 0 0 1 7.8117-8.0631 7.8125 8.0625 0 0 1 7.8133 8.0614l-7.8125 1e-3z" fill="#0d2869" fill-opacity=".98431"/>
  <path id="path458" d="m427.12 139.19a9.3125 9.8125 0 0 1-9.3122 9.8125 9.3125 9.8125 0 0 1-9.3128-9.8118 9.3125 9.8125 0 0 1 9.3115-9.8132 9.3125 9.8125 0 0 1 9.3135 9.8111l-9.3125 1e-3z" fill="#2a4690" fill-opacity=".99216"/>
  <path id="path460" d="m443 124.56a7.8125 7.4375 0 0 1-7.8122 7.4375 7.8125 7.4375 0 0 1-7.8128-7.437 7.8125 7.4375 0 0 1 7.8117-7.438 7.8125 7.4375 0 0 1 7.8133 7.4365l-7.8125 1e-3z" fill="#f20ce7" fill-opacity=".98824"/>
  <path id="path462" d="m437.75 113.44a7.6875 7.5625 0 0 1-7.6872 7.5625 7.6875 7.5625 0 0 1-7.6878-7.562 7.6875 7.5625 0 0 1 7.6867-7.563 7.6875 7.5625 0 0 1 7.6883 7.5614l-7.6875 1e-3z" fill="#0d2869" fill-opacity=".87059"/>
  <path id="path464" d="m429.62 119.81a6.75 6.5625 0 0 1-6.7498 6.5625 6.75 6.5625 0 0 1-6.7502-6.562 6.75 6.5625 0 0 1 6.7493-6.563 6.75 6.5625 0 0 1 6.7507 6.5616l-6.75 9.2e-4z" fill="#294690"/>
  <path id="path466" d="m440.5 133.88a11.438 10.875 0 0 1-11.437 10.875 11.438 10.875 0 0 1-11.438-10.874 11.438 10.875 0 0 1 11.436-10.876 11.438 10.875 0 0 1 11.439 10.873l-11.438 2e-3z" fill="#20176c" fill-opacity=".9451"/>
  <path id="path468" d="m434.12 98.812a8.875 7.8125 0 0 1-8.8747 7.8125 8.875 7.8125 0 0 1-8.8753-7.812 8.875 7.8125 0 0 1 8.8741-7.813 8.875 7.8125 0 0 1 8.8759 7.8114l-8.875 0.0011z" fill="#f20ce7" fill-opacity=".95294"/>
  <path id="path470" d="m434.25 106.12a6.875 6.75 0 0 1-6.8748 6.75 6.875 6.75 0 0 1-6.8752-6.7495 6.875 6.75 0 0 1 6.8743-6.7505 6.875 6.75 0 0 1 6.8757 6.7491l-6.875 9.4e-4z" fill="#0fa911" fill-opacity=".99608"/>
  <path id="path472" d="m424.38 107.25a8.5625 8.625 0 0 1-8.5622 8.625 8.5625 8.625 0 0 1-8.5628-8.6244 8.5625 8.625 0 0 1 8.5616-8.6256 8.5625 8.625 0 0 1 8.5634 8.6238l-8.5625 1e-3z" fill="#ef2571" fill-opacity=".97647"/>
  <path id="path474" d="m437.25 151.12a5.4375 5.5 0 0 1-5.4373 5.5 5.4375 5.5 0 0 1-5.4377-5.4996 5.4375 5.5 0 0 1 5.4369-5.5004 5.4375 5.5 0 0 1 5.4381 5.4992l-5.4375 7.7e-4z" fill="#0808cd" fill-opacity=".98039"/>
  <path id="path476" d="m442.12 157.5a6.125 5.75 0 0 1-6.1248 5.75 6.125 5.75 0 0 1-6.1252-5.7496 6.125 5.75 0 0 1 6.1244-5.7504 6.125 5.75 0 0 1 6.1256 5.7492l-6.125 8e-4z" fill="#0808cd" fill-opacity=".98039"/>
  <path id="path478" d="m469 168.69a8.5625 8.8125 0 0 1-8.5622 8.8125 8.5625 8.8125 0 0 1-8.5628-8.8119 8.5625 8.8125 0 0 1 8.5616-8.8131 8.5625 8.8125 0 0 1 8.5634 8.8113l-8.5625 1e-3z" fill="#b433dc" fill-opacity=".87843"/>
  <path id="path480" d="m468.12 155a8.3125 8.375 0 0 1-8.3122 8.375 8.3125 8.375 0 0 1-8.3128-8.3744 8.3125 8.375 0 0 1 8.3116-8.3756 8.3125 8.375 0 0 1 8.3134 8.3738l-8.3125 1e-3z" fill="#b432dc" fill-opacity=".87451"/>
  <path id="path482" d="m453 145.56a7.6875 7.5625 0 0 1-7.6872 7.5625 7.6875 7.5625 0 0 1-7.6878-7.562 7.6875 7.5625 0 0 1 7.6867-7.563 7.6875 7.5625 0 0 1 7.6883 7.5614l-7.6875 1e-3z" fill="#f20ce7"/>
  <path id="path484" d="m461 165.62a8.875 9.25 0 0 1-8.8747 9.25 8.875 9.25 0 0 1-8.8753-9.2494 8.875 9.25 0 0 1 8.8741-9.2506 8.875 9.25 0 0 1 8.8759 9.2487l-8.875 1e-3z" fill="#f20ce7" fill-opacity=".98039"/>
  <path id="path486" d="m479.38 152.75a8.875 8.875 0 0 1-8.8747 8.875 8.875 8.875 0 0 1-8.8753-8.8744 8.875 8.875 0 0 1 8.8741-8.8756 8.875 8.875 0 0 1 8.8759 8.8738l-8.875 1e-3z" fill="#ef0a60" fill-opacity=".99608"/>
  <path id="path488" d="m478 128.06a7.9375 8.6875 0 0 1-7.9372 8.6875 7.9375 8.6875 0 0 1-7.9378-8.6869 7.9375 8.6875 0 0 1 7.9367-8.6881 7.9375 8.6875 0 0 1 7.9383 8.6863l-7.9375 1e-3z" fill="#f20ce7" fill-opacity=".98039"/>
  <path id="path490" d="m466.5 134.94a8.0625 8.0625 0 0 1-8.0622 8.0625 8.0625 8.0625 0 0 1-8.0628-8.0619 8.0625 8.0625 0 0 1 8.0617-8.0631 8.0625 8.0625 0 0 1 8.0633 8.0614l-8.0625 1e-3z" fill="#f20ce7" fill-opacity=".98039"/>
  <path id="path492" d="m478.5 107.44a7.5 8.4375 0 0 1-7.4997 8.4375 7.5 8.4375 0 0 1-7.5003-8.4369 7.5 8.4375 0 0 1 7.4992-8.4381 7.5 8.4375 0 0 1 7.5008 8.4363l-7.5 1e-3z" fill="#080e81" fill-opacity=".98431"/>
  <path id="path494" d="m465.88 115.44a14.375 13.562 0 0 1-14.374 13.562 14.375 13.562 0 0 1-14.376-13.562 14.375 13.562 0 0 1 14.373-13.563 14.375 13.562 0 0 1 14.377 13.561l-14.375 2e-3z" fill="#050f99" fill-opacity=".98039"/>
  <path id="path496" d="m485.08 144.12a9.0598 8.1759 0 0 1-9.0595 8.1759 9.0598 8.1759 0 0 1-9.0601-8.1754 9.0598 8.1759 0 0 1 9.0588-8.1765 9.0598 8.1759 0 0 1 9.0608 8.1748l-9.0598 1e-3z" fill="#b433db" fill-opacity=".98824"/>
  <path id="path498" d="m489.41 93.338a7.6014 7.6898 0 0 1-7.6011 7.6898 7.6014 7.6898 0 0 1-7.6017-7.6892 7.6014 7.6898 0 0 1 7.6006-7.6903 7.6014 7.6898 0 0 1 7.6022 7.6887l-7.6014 0.0011z" fill="#b639e7" fill-opacity=".98431"/>
  <path id="path500" d="m501.43 104.56a9.3692 9.104 0 0 1-9.3688 9.104 9.3692 9.104 0 0 1-9.3695-9.1034 9.3692 9.104 0 0 1 9.3682-9.1046 9.3692 9.104 0 0 1 9.3702 9.1027l-9.3692 1e-3z" fill="#991010"/>
  <path id="path502" d="m501.69 118.66a9.104 8.5295 0 0 1-9.1037 8.5295 9.104 8.5295 0 0 1-9.1043-8.5289 9.104 8.5295 0 0 1 9.103-8.5301 9.104 8.5295 0 0 1 9.105 8.5283l-9.104 1e-3z" fill="#d50aef" fill-opacity=".98431"/>
  <path id="path504" d="m494.89 129.89a9.5901 9.1482 0 0 1-9.5898 9.1482 9.5901 9.1482 0 0 1-9.5905-9.1476 9.5901 9.1482 0 0 1 9.5891-9.1488 9.5901 9.1482 0 0 1 9.5911 9.1469l-9.5901 1e-3z" fill="#f00a5f" fill-opacity=".98039"/>
  <path id="path506" d="m461.39 83.306a8.5737 9.0598 0 0 1-8.5734 9.0598 8.5737 9.0598 0 0 1-8.574-9.0592 8.5737 9.0598 0 0 1 8.5728-9.0604 8.5737 9.0598 0 0 1 8.5746 9.0585l-8.5737 0.0013z" fill="#0c246c" fill-opacity=".99608"/>
  <path id="path508" d="m454.58 94.001a8.9714 9.0598 0 0 1-8.9711 9.0598 8.9714 9.0598 0 0 1-8.9717-9.0592 8.9714 9.0598 0 0 1 8.9705-9.0604 8.9714 9.0598 0 0 1 8.9724 9.0585l-8.9714 0.0013z" fill="#ec14da" fill-opacity=".97647"/>
  <path id="path510" d="m458.12 69.473a7.0711 7.2478 0 0 1-7.0708 7.2478 7.0711 7.2478 0 0 1-7.0713-7.2473 7.0711 7.2478 0 0 1 7.0703-7.2484 7.0711 7.2478 0 0 1 7.0718 7.2468l-7.0711 1e-3z" fill="#b639e7" fill-opacity=".86274"/>
  <path id="path512" d="m474.12 92.012a8.8388 7.955 0 0 1-8.8385 7.955 8.8388 7.955 0 0 1-8.8391-7.9544 8.8388 7.955 0 0 1 8.8379-7.9555 8.8388 7.955 0 0 1 8.8398 7.9538l-8.8388 0.0011z" fill="#f20ce7" fill-opacity=".98431"/>
  <path id="path514" d="m477.3 86.621a7.955 8.8388 0 0 1-7.9547 8.8388 7.955 8.8388 0 0 1-7.9552-8.8382 7.955 8.8388 0 0 1 7.9541-8.8395 7.955 8.8388 0 0 1 7.9558 8.8376l-7.955 0.0012z" fill="#b639e7" fill-opacity=".98431"/>
  <path id="path516" d="m446.01 90.686a7.4246 7.4246 0 0 1-7.4244 7.4246 7.4246 7.4246 0 0 1-7.4249-7.4241 7.4246 7.4246 0 0 1 7.4238-7.4251 7.4246 7.4246 0 0 1 7.4254 7.4236l-7.4246 1e-3z" fill="#4a2e91" fill-opacity=".75686"/>
  <path id="path518" d="m447.16 80.875a12.463 11.756 0 0 1-12.462 11.756 12.463 11.756 0 0 1-12.463-11.755 12.463 11.756 0 0 1 12.461-11.756 12.463 11.756 0 0 1 12.464 11.754l-12.463 0.0016z" fill="#d743f0" fill-opacity=".8902"/>
  <path id="path520" d="m443.36 63.021a9.5017 9.1924 0 0 1-9.5014 9.1924 9.5017 9.1924 0 0 1-9.5021-9.1917 9.5017 9.1924 0 0 1 9.5008-9.193 9.5017 9.1924 0 0 1 9.5027 9.1911l-9.5017 0.0013z" fill="#d50aef" fill-opacity=".97647"/>
  <path id="path522" d="m412.24 90.2a6.2756 6.3198 0 0 1-6.2754 6.3198 6.2756 6.3198 0 0 1-6.2758-6.3193 6.2756 6.3198 0 0 1 6.2749-6.3202 6.2756 6.3198 0 0 1 6.2762 6.3189l-6.2756 8.83e-4z" fill="#2f8e0f" fill-opacity=".98039"/>
  <path id="path524" d="m421.35 77.428a6.7175 7.3362 0 0 1-6.7173 7.3362 6.7175 7.3362 0 0 1-6.7177-7.3357 6.7175 7.3362 0 0 1 6.7168-7.3367 6.7175 7.3362 0 0 1 6.7182 7.3352l-6.7175 1e-3z" fill="#102a6b" fill-opacity=".99608"/>
  <path id="path526" d="m407.47 73.937a7.6898 7.9108 0 0 1-7.6895 7.9108 7.6898 7.9108 0 0 1-7.6901-7.9102 7.6898 7.9108 0 0 1 7.689-7.9113 7.6898 7.9108 0 0 1 7.6906 7.9097l-7.6898 0.0011z" fill="#080e82" fill-opacity=".98039"/>
  <path id="path528" d="m408.88 59.132a8.1759 8.3085 0 0 1-8.1756 8.3085 8.1759 8.3085 0 0 1-8.1762-8.3079 8.1759 8.3085 0 0 1 8.1751-8.3091 8.1759 8.3085 0 0 1 8.1768 8.3073l-8.1759 0.0012z" fill="#2a7b91" fill-opacity=".98039"/>
  <path id="path530" d="m416.31 68.324a8.5737 9.0156 0 0 1-8.5734 9.0156 8.5737 9.0156 0 0 1-8.574-9.015 8.5737 9.0156 0 0 1 8.5728-9.0162 8.5737 9.0156 0 0 1 8.5746 9.0144l-8.5737 0.0013z" fill="#f00a5f" fill-opacity=".98431"/>
  <path id="path532" d="m418.34 52.37a7.4688 7.8224 0 0 1-7.4686 7.8224 7.4688 7.8224 0 0 1-7.4691-7.8218 7.4688 7.8224 0 0 1 7.468-7.8229 7.4688 7.8224 0 0 1 7.4696 7.8213l-7.4688 0.0011z" fill="#0d2869" fill-opacity=".98039"/>
  <path id="path534" d="m397.22 49.984a5.8336 5.9662 0 0 1-5.8334 5.9662 5.8336 5.9662 0 0 1-5.8338-5.9658 5.8336 5.9662 0 0 1 5.833-5.9666 5.8336 5.9662 0 0 1 5.8342 5.9654l-5.8336 8.33e-4z" fill="#2e8e0f" fill-opacity=".86667"/>
  <path id="path536" d="m376.18 49.895a8.7946 9.0598 0 0 1-8.7943 9.0598 8.7946 9.0598 0 0 1-8.795-9.0592 8.7946 9.0598 0 0 1 8.7937-9.0604 8.7946 9.0598 0 0 1 8.7956 9.0585l-8.7946 0.0013z" fill="#297b90" fill-opacity=".80392"/>
  <path id="path538" d="m379.72 57.718a6.9827 7.1595 0 0 1-6.9824 7.1595 6.9827 7.1595 0 0 1-6.9829-7.159 6.9827 7.1595 0 0 1 6.982-7.16 6.9827 7.1595 0 0 1 6.9834 7.1585l-6.9827 9.99e-4z" fill="#0c2768" fill-opacity=".8902"/>
  <path id="path540" d="m380.25 46.05a6.0546 6.1872 0 0 1-6.0544 6.1872 6.0546 6.1872 0 0 1-6.0548-6.1868 6.0546 6.1872 0 0 1 6.054-6.1876 6.0546 6.1872 0 0 1 6.0552 6.1863l-6.0546 8.63e-4z" fill="#2f8e0f" fill-opacity=".99608"/>
  <path id="path542" d="m356.74 48.569a8.2201 7.9991 0 0 1-8.2198 7.9991 8.2201 7.9991 0 0 1-8.2204-7.9986 8.2201 7.9991 0 0 1 8.2193-7.9997 8.2201 7.9991 0 0 1 8.221 7.998l-8.2201 0.0011z" fill="#0d2869" fill-opacity=".98039"/>
  <path id="path544" d="m398.45 87.416a8.0875 8.4853 0 0 1-8.0872 8.4853 8.0875 8.4853 0 0 1-8.0878-8.4847 8.0875 8.4853 0 0 1 8.0867-8.4859 8.0875 8.4853 0 0 1 8.0884 8.4841l-8.0875 0.0012z" fill="#ec17da"/>
  <path id="path546" d="m385.11 82.511a5.7894 6.143 0 0 1-5.7892 6.143 5.7894 6.143 0 0 1-5.7896-6.1426 5.7894 6.143 0 0 1 5.7888-6.1434 5.7894 6.143 0 0 1 5.79 6.1421l-5.7894 8.58e-4z" fill="#0d2768" fill-opacity=".86667"/>
  <path id="path548" d="m382.72 72.346a8.2201 8.5295 0 0 1-8.2198 8.5295 8.2201 8.5295 0 0 1-8.2204-8.5289 8.2201 8.5295 0 0 1 8.2192-8.5301 8.2201 8.5295 0 0 1 8.221 8.5283l-8.2201 0.0012z" fill="#080e81" fill-opacity=".86667"/>
  <path id="path550" d="m390.23 75.263a6.0104 5.8778 0 0 1-6.0102 5.8778 6.0104 5.8778 0 0 1-6.0106-5.8774 6.0104 5.8778 0 0 1 6.0098-5.8782 6.0104 5.8778 0 0 1 6.011 5.877l-6.0104 8.21e-4z" fill="#0d2769" fill-opacity=".87451"/>
  <path id="path552" d="m389.97 94.178a6.6733 6.4082 0 0 1-6.6731 6.4082 6.6733 6.4082 0 0 1-6.6736-6.4077 6.6733 6.4082 0 0 1 6.6726-6.4086 6.6733 6.4082 0 0 1 6.674 6.4073l-6.6733 8.95e-4z" fill="#328f13" fill-opacity=".99608"/>
  <path id="path554" d="m363.72 79.947a8.0875 7.9991 0 0 1-8.0872 7.9991 8.0875 7.9991 0 0 1-8.0878-7.9986 8.0875 7.9991 0 0 1 8.0867-7.9997 8.0875 7.9991 0 0 1 8.0884 7.998l-8.0875 0.0011z" fill="#080e82" fill-opacity=".87843"/>
  <path id="path556" d="m373.09 76.721a8.0433 8.0433 0 0 1-8.043 8.0433 8.0433 8.0433 0 0 1-8.0436-8.0428 8.0433 8.0433 0 0 1 8.0425-8.0439 8.0433 8.0433 0 0 1 8.0442 8.0422l-8.0433 0.0011z" fill="#0d2869" fill-opacity=".98039"/>
  <path id="path558" d="m319.97 52.458a6.5849 6.3198 0 0 1-6.5847 6.3198 6.5849 6.3198 0 0 1-6.5852-6.3193 6.5849 6.3198 0 0 1 6.5842-6.3202 6.5849 6.3198 0 0 1 6.5856 6.3189l-6.5849 8.83e-4z" fill="#2f8e0f" fill-opacity=".98039"/>
  <path id="path560" d="m348 60.938a7.75 8.0625 0 0 1-7.7497 8.0625 7.75 8.0625 0 0 1-7.7503-8.0619 7.75 8.0625 0 0 1 7.7492-8.0631 7.75 8.0625 0 0 1 7.7508 8.0614l-7.75 0.0011z" fill="#2a7a90" fill-opacity=".94902"/>
  <path id="path562" d="m332.5 58.812a7.625 7.4375 0 0 1-7.6247 7.4375 7.625 7.4375 0 0 1-7.6253-7.437 7.625 7.4375 0 0 1 7.6242-7.438 7.625 7.4375 0 0 1 7.6258 7.4365l-7.625 1e-3z" fill="#0d2869" fill-opacity=".98039"/>
  <path id="path564" d="m331.25 80.438a6.0625 6.0625 0 0 1-6.0623 6.0625 6.0625 6.0625 0 0 1-6.0627-6.0621 6.0625 6.0625 0 0 1 6.0619-6.0629 6.0625 6.0625 0 0 1 6.0631 6.0617l-6.0625 8.46e-4z" fill="#0d2869" fill-opacity=".87059"/>
  <g id="g572" fill-opacity=".98039">
   <path id="path566" d="m350.88 73.312a13.25 12.688 0 0 1-13.25 12.688 13.25 12.688 0 0 1-13.25-12.687 13.25 12.688 0 0 1 13.249-12.688 13.25 12.688 0 0 1 13.251 12.686l-13.25 0.0018z" fill="#0808cd"/>
   <path id="path568" d="m346.88 74.75a6.0625 6 0 0 1-6.0623 6 6.0625 6 0 0 1-6.0627-5.9996 6.0625 6 0 0 1 6.0619-6.0004 6.0625 6 0 0 1 6.0631 5.9992l-6.0625 8.38e-4z" fill="#ec14da"/>
   <path id="path570" d="m299.25 79.875a8.1875 8.125 0 0 1-8.1872 8.125 8.1875 8.125 0 0 1-8.1878-8.1244 8.1875 8.125 0 0 1 8.1866-8.1256 8.1875 8.125 0 0 1 8.1884 8.1239l-8.1875 0.0011z" fill="#2a7b91"/>
  </g>
  <path id="path574" d="m295.5 93.125a6.3125 6.125 0 0 1-6.3123 6.125 6.3125 6.125 0 0 1-6.3127-6.1246 6.3125 6.125 0 0 1 6.3118-6.1254 6.3125 6.125 0 0 1 6.3132 6.1241l-6.3125 8.55e-4z" fill="#0c2868" fill-opacity=".88235"/>
  <path id="path576" d="m293.62 85.75a13.875 14 0 0 1-13.875 14 13.875 14 0 0 1-13.875-13.999 13.875 14 0 0 1 13.874-14.001 13.875 14 0 0 1 13.876 13.998l-13.875 2e-3z" fill="#d653ee" fill-opacity=".98431"/>
  <path id="path578" d="m318.38 85.875a8.3125 8.75 0 0 1-8.3122 8.75 8.3125 8.75 0 0 1-8.3128-8.7494 8.3125 8.75 0 0 1 8.3116-8.7506 8.3125 8.75 0 0 1 8.3134 8.7488l-8.3125 0.0012z" fill="#080e82" fill-opacity=".86667"/>
  <path id="path580" d="m311.88 96.375a8.5 8.75 0 0 1-8.4997 8.75 8.5 8.75 0 0 1-8.5003-8.7494 8.5 8.75 0 0 1 8.4991-8.7506 8.5 8.75 0 0 1 8.5009 8.7488l-8.5 0.0012z" fill="#080e82" fill-opacity=".98039"/>
  <path id="path582" d="m302.25 67.938a6.9375 7.1875 0 0 1-6.9373 7.1875 6.9375 7.1875 0 0 1-6.9377-7.187 6.9375 7.1875 0 0 1 6.9368-7.188 6.9375 7.1875 0 0 1 6.9382 7.1865l-6.9375 1e-3z" fill="#0d2869" fill-opacity=".86667"/>
  <path id="path584" d="m327.75 67.5a14.312 15.375 0 0 1-14.312 15.375 14.312 15.375 0 0 1-14.313-15.374 14.312 15.375 0 0 1 14.311-15.376 14.312 15.375 0 0 1 14.314 15.373l-14.312 0.0021z" fill="#d353ed" fill-opacity=".99608"/>
  <path id="path586" d="m330.12 102a9.0625 9.375 0 0 1-9.0622 9.375 9.0625 9.375 0 0 1-9.0628-9.3744 9.0625 9.375 0 0 1 9.0616-9.3756 9.0625 9.375 0 0 1 9.0634 9.3737l-9.0625 1e-3z" fill="#d50aef" fill-opacity=".98039"/>
  <path id="path588" d="m347.5 103.88a8.5 8.125 0 0 1-8.4997 8.125 8.5 8.125 0 0 1-8.5003-8.1244 8.5 8.125 0 0 1 8.4991-8.1256 8.5 8.125 0 0 1 8.5009 8.1239l-8.5 1e-3z" fill="#080e82" fill-opacity=".86667"/>
  <path id="path590" d="m348.75 93.188a8.5625 8.3125 0 0 1-8.5622 8.3125 8.5625 8.3125 0 0 1-8.5628-8.3119 8.5625 8.3125 0 0 1 8.5616-8.3131 8.5625 8.3125 0 0 1 8.5634 8.3113l-8.5625 0.0012z" fill="#e7f0ef" fill-opacity=".86667"/>
  <path id="path592" d="m365.5 98.875a9 8.75 0 0 1-8.9997 8.75 9 8.75 0 0 1-9.0003-8.7494 9 8.75 0 0 1 8.9991-8.7506 9 8.75 0 0 1 9.0009 8.7488l-9 0.0012z" fill="#ec14da" fill-opacity=".98039"/>
  <path id="path594" d="m358.38 86.062a8 7.5625 0 0 1-7.9997 7.5625 8 7.5625 0 0 1-8.0003-7.562 8 7.5625 0 0 1 7.9992-7.563 8 7.5625 0 0 1 8.0008 7.5614l-8 0.0011z" fill="#0c2769" fill-opacity=".99608"/>
 </g>
 <text id="aspita_text" transform="matrix(2.4668 0 0 2.4293 -676.46 40.223)" fill="#b762cd" font-family="sans-serif" font-size="144px" style="line-height:1.25;shape-inside:url(#rect614);white-space:pre" xml:space="preserve"><tspan x="469.80078" y="143.6563"><tspan fill="#b762cd" font-family="'Calisto MT'" font-size="144px" font-style="italic" font-weight="bold" style="font-variant-caps:normal;font-variant-east-asian:normal;font-variant-ligatures:normal;font-variant-numeric:normal">aspita</tspan></tspan></text>
</svg>
