<svg id="svg598" width="633" height="633" version="1.1" viewBox="0 0 633 633" xmlns="http://www.w3.org/2000/svg">
 <title id="title10">Caspita Icon</title>
 <path id="icon_path_1" d="m107.42 332.61a10.607 10.695 0 0 1-10.606 10.695 10.607 10.695 0 0 1-10.607-10.694 10.607 10.695 0 0 1 10.605-10.696 10.607 10.695 0 0 1 10.608 10.694l-10.607 1e-3z" fill="#940b98" fill-opacity=".97647"/>
 <path id="icon_path_2" d="m135.17 314.05a10.43 10.518 0 0 1-10.429 10.518 10.43 10.518 0 0 1-10.43-10.517 10.43 10.518 0 0 1 10.429-10.519 10.43 10.518 0 0 1 10.431 10.517l-10.43 1e-3z" fill="#2b5cee" fill-opacity=".87059"/>
 <path id="icon_path_3" d="m160.27 314.58a14.849 14.054 0 0 1-14.849 14.054 14.849 14.054 0 0 1-14.85-14.053 14.849 14.054 0 0 1 14.848-14.055 14.849 14.054 0 0 1 14.851 14.052l-14.849 2e-3z" fill="#4ebde6"/>
 <path id="icon_path_4" d="m168.23 291.69a10.872 10.96 0 0 1-10.871 10.96 10.872 10.96 0 0 1-10.872-10.959 10.872 10.96 0 0 1 10.871-10.961 10.872 10.96 0 0 1 10.873 10.959l-10.872 2e-3z" fill="#cd31d2"/>
 <path id="icon_path_5" d="m188.03 293.81a11.137 10.96 0 0 1-11.137 10.96 11.137 10.96 0 0 1-11.137-10.959 11.137 10.96 0 0 1 11.136-10.961 11.137 10.96 0 0 1 11.138 10.959l-11.137 2e-3z" fill="#940b98"/>
 <path id="icon_path_6" d="m172.82 266.05a10.607 10.253 0 0 1-10.606 10.253 10.607 10.253 0 0 1-10.607-10.252 10.607 10.253 0 0 1 10.605-10.254 10.607 10.253 0 0 1 10.608 10.252l-10.607 1e-3z" fill="#c2b6c2" fill-opacity=".98431"/>
 <path id="icon_path_7" d="m153.2 252.35a10.96 10.872 0 0 1-10.96 10.872 10.96 10.872 0 0 1-10.961-10.871 10.96 10.872 0 0 1 10.959-10.873 10.96 10.872 0 0 1 10.961 10.87l-10.96 2e-3z" fill="#2b5cee" fill-opacity=".98039"/>
 <path id="icon_path_8" d="m168.76 215.67a12.374 12.374 0 0 1-12.374 12.374 12.374 12.374 0 0 1-12.375-12.374 12.374 12.374 0 0 1 12.373-12.375 12.374 12.374 0 0 1 12.376 12.373l-12.374 2e-3z" fill="#e014d9" fill-opacity=".98039"/>
 <path id="icon_path_9" d="m191.21 200.47a10.872 10.607 0 0 1-10.871 10.607 10.872 10.607 0 0 1-10.872-10.606 10.872 10.607 0 0 1 10.871-10.607 10.872 10.607 0 0 1 10.873 10.605l-10.872 1e-3z" fill-opacity="0"/>
 <path id="icon_path_10" d="m230.45 210.1a8.9272 8.7504 0 0 1-8.9269 8.7504 8.9272 8.7504 0 0 1-8.9275-8.7498 8.9272 8.7504 0 0 1 8.9263-8.7511 8.9272 8.7504 0 0 1 8.9282 8.7492l-8.9272 1e-3z" fill="#14bba5"/>
 <path id="icon_path_11" d="m244.07 199.01a11.27 11.093 0 0 1-11.269 11.093 11.27 11.093 0 0 1-11.27-11.092 11.27 11.093 0 0 1 11.268-11.094 11.27 11.093 0 0 1 11.271 11.091l-11.27 2e-3z" fill="#e014d8"/>
 <path id="icon_path_12" d="m238.41 182a14.231 13.877 0 0 1-14.23 13.877 14.231 13.877 0 0 1-14.231-13.876 14.231 13.877 0 0 1 14.229-13.878 14.231 13.877 0 0 1 14.232 13.875l-14.231 2e-3z" fill="#d63ff0"/>
 <path id="icon_path_13" d="m189.8 201a9.3692 9.5459 0 0 1-9.3688 9.5459 9.3692 9.5459 0 0 1-9.3695-9.5453 9.3692 9.5459 0 0 1 9.3682-9.5466 9.3692 9.5459 0 0 1 9.3702 9.5446l-9.3692 1e-3z" fill="#c2b6c2"/>
 <path id="icon_path_14" d="m264.04 185.97a8.7504 9.0156 0 0 1-8.7501 9.0156 8.7504 9.0156 0 0 1-8.7508-9.015 8.7504 9.0156 0 0 1 8.7495-9.0162 8.7504 9.0156 0 0 1 8.7514 9.0143l-8.7504 1e-3z" fill="#f20ce7" fill-opacity=".98039"/>
 <path id="icon_path_15" d="m267.22 164.94a14.142 14.496 0 0 1-14.142 14.496 14.142 14.496 0 0 1-14.143-14.495 14.142 14.496 0 0 1 14.141-14.497 14.142 14.496 0 0 1 14.144 14.494l-14.142 2e-3z" fill="#050f98" fill-opacity=".98431"/>
 <path id="icon_path_16" d="m300.99 147.09a8.5737 9.0156 0 0 1-8.5734 9.0156 8.5737 9.0156 0 0 1-8.574-9.015 8.5737 9.0156 0 0 1 8.5728-9.0162 8.5737 9.0156 0 0 1 8.5746 9.0144l-8.5737 1e-3z" fill="#f20ce7" fill-opacity=".98039"/>
 <path id="icon_path_17" d="m305.41 181.38a7.6898 7.2478 0 0 1-7.6895 7.2478 7.6898 7.2478 0 0 1-7.69-7.2473 7.6898 7.2478 0 0 1 7.689-7.2484 7.6898 7.2478 0 0 1 7.6906 7.2468l-7.6898 1e-3z" fill="#f20be7" fill-opacity=".79216"/>
 <path id="icon_path_18" d="m303.46 173.78a11.314 12.021 0 0 1-11.313 12.021 11.314 12.021 0 0 1-11.314-12.02 11.314 12.021 0 0 1 11.313-12.022 11.314 12.021 0 0 1 11.315 12.019l-11.314 2e-3z" fill="#e014d9" fill-opacity=".98039"/>
 <path id="icon_path_19" d="m307.17 177.05a7.513 7.513 0 0 1-7.5128 7.513 7.513 7.513 0 0 1-7.5133-7.5125 7.513 7.513 0 0 1 7.5122-7.5135 7.513 7.513 0 0 1 7.5138 7.512l-7.513 1e-3z" fill="#1b2671" fill-opacity=".92157"/>
 <path id="icon_path_20" d="m295.44 197.61a8.625 9 0 0 1-8.6247 9 8.625 9 0 0 1-8.6253-8.9994 8.625 9 0 0 1 8.6241-9.0006 8.625 9 0 0 1 8.6259 8.9987l-8.625 1e-3z" fill="#f20ce7" fill-opacity=".85882"/>
 <path id="icon_path_21" d="m327.18 188.11a9.3125 9.375 0 0 1-9.3122 9.375 9.3125 9.375 0 0 1-9.3128-9.3744 9.3125 9.375 0 0 1 9.3115-9.3756 9.3125 9.375 0 0 1 9.3135 9.3737l-9.3125 1e-3z" fill="#232ee9" fill-opacity=".87843"/>
 <path id="icon_path_22" d="m318.81 200.49a13.438 13.875 0 0 1-13.437 13.875 13.438 13.875 0 0 1-13.438-13.874 13.438 13.875 0 0 1 13.436-13.876 13.438 13.875 0 0 1 13.439 13.873l-13.438 2e-3z" fill="#d653ee" fill-opacity=".98039"/>
 <path id="icon_path_23" d="m278.63 210.68a8.8388 9.0598 0 0 1-8.8385 9.0598 8.8388 9.0598 0 0 1-8.8392-9.0592 8.8388 9.0598 0 0 1 8.8379-9.0604 8.8388 9.0598 0 0 1 8.8398 9.0585l-8.8388 1e-3z" fill="#f20ce7" fill-opacity=".86667"/>
 <path id="icon_path_24" d="m297.98 224.69a7.9108 8.6621 0 0 1-7.9105 8.662 7.9108 8.6621 0 0 1-7.911-8.6614 7.9108 8.6621 0 0 1 7.9099-8.6627 7.9108 8.6621 0 0 1 7.9116 8.6608l-7.9108 1e-3z" fill="#2a9155" fill-opacity=".98039"/>
 <path id="icon_path_25" d="m304.88 226.19a7.2478 7.4246 0 0 1-7.2476 7.4246 7.2478 7.4246 0 0 1-7.2481-7.4241 7.2478 7.4246 0 0 1 7.2471-7.4251 7.2478 7.4246 0 0 1 7.2486 7.4236l-7.2478 1e-3z" fill="#1f8f78" fill-opacity=".98039"/>
 <path id="icon_path_26" d="m251.22 217.75a7.292 7.4688 0 0 1-7.2918 7.4688 7.292 7.4688 0 0 1-7.2923-7.4683 7.292 7.4688 0 0 1 7.2913-7.4693 7.292 7.4688 0 0 1 7.2928 7.4678l-7.292 1e-3z" fill="#1f8e78" fill-opacity=".86667"/>
 <path id="icon_path_27" d="m263.29 227.32a10.673 9.789 0 0 1-10.673 9.789 10.673 9.789 0 0 1-10.673-9.7883 10.673 9.789 0 0 1 10.672-9.7897 10.673 9.789 0 0 1 10.674 9.7876l-10.673 1e-3z" fill="#2b5cee" fill-opacity=".98039"/>
 <path id="icon_path_28" d="m242.94 242.36a9.0938 9.4375 0 0 1-9.0934 9.4375 9.0938 9.4375 0 0 1-9.0941-9.4368 9.0938 9.4375 0 0 1 9.0928-9.4382 9.0938 9.4375 0 0 1 9.0947 9.4362l-9.0938 1e-3z" fill="#f20ce7" fill-opacity=".98039"/>
 <path id="icon_path_29" d="m222.87 271.45a8.75 8.5312 0 0 1-8.7497 8.5312 8.75 8.5312 0 0 1-8.7503-8.5306 8.75 8.5312 0 0 1 8.7491-8.5318 8.75 8.5312 0 0 1 8.7509 8.5301l-8.75 1e-3z" fill="#14bba5" fill-opacity=".86667"/>
 <path id="icon_path_30" d="m236.87 258.05a11.375 11.438 0 0 1-11.375 11.438 11.375 11.438 0 0 1-11.375-11.437 11.375 11.438 0 0 1 11.374-11.438 11.375 11.438 0 0 1 11.376 11.436l-11.375 2e-3z" fill="#e014d9" fill-opacity=".86667"/>
 <path id="icon_path_31" d="m232.87 240.08a10.844 11.156 0 0 1-10.843 11.156 10.844 11.156 0 0 1-10.844-11.155 10.844 11.156 0 0 1 10.843-11.157 10.844 11.156 0 0 1 10.845 11.155l-10.844 2e-3z" fill="#940b98" fill-opacity=".98039"/>
 <path id="icon_path_32" d="m208.68 256.86a11.594 11.938 0 0 1-11.593 11.938 11.594 11.938 0 0 1-11.594-11.937 11.594 11.938 0 0 1 11.593-11.938 11.594 11.938 0 0 1 11.595 11.936l-11.594 2e-3z" fill="#e014d9" fill-opacity=".98039"/>
 <path id="icon_path_33" d="m211.87 297.89a11.5 11.469 0 0 1-11.5 11.469 11.5 11.469 0 0 1-11.5-11.468 11.5 11.469 0 0 1 11.499-11.47 11.5 11.469 0 0 1 11.501 11.467l-11.5 2e-3z" fill="#323eac" fill-opacity=".85882"/>
 <path id="icon_path_34" d="m129.18 384.42a14.5 14.312 0 0 1-14.499 14.312 14.5 14.312 0 0 1-14.501-14.312 14.5 14.312 0 0 1 14.498-14.314 14.5 14.312 0 0 1 14.502 14.31l-14.5 2e-3z" fill="#4ebde6"/>
 <path id="icon_path_35" d="m166.18 367.8a8.8125 8.8125 0 0 1-8.8122 8.8125 8.8125 8.8125 0 0 1-8.8128-8.8119 8.8125 8.8125 0 0 1 8.8116-8.8131 8.8125 8.8125 0 0 1 8.8134 8.8113l-8.8125 1e-3z" fill="#e7f0ef"/>
 <path id="icon_path_36" d="m155.56 361.17a12 12.188 0 0 1-12 12.188 12 12.188 0 0 1-12-12.187 12 12.188 0 0 1 11.999-12.188 12 12.188 0 0 1 12.001 12.186l-12 2e-3z" fill="#e014d9"/>
 <path id="icon_path_37" d="m198.94 365.61a9.5 9.25 0 0 1-9.4997 9.25 9.5 9.25 0 0 1-9.5003-9.2494 9.5 9.25 0 0 1 9.499-9.2506 9.5 9.25 0 0 1 9.501 9.2487l-9.5 1e-3z" fill="#f20ce7" fill-opacity=".86667"/>
 <path id="icon_path_38" d="m195.81 355.05a11.562 11.562 0 0 1-11.562 11.562 11.562 11.562 0 0 1-11.563-11.562 11.562 11.562 0 0 1 11.561-11.563 11.562 11.562 0 0 1 11.564 11.561l-11.562 2e-3z" fill="#323eac" fill-opacity=".98039"/>
 <path id="icon_path_39" d="m217.44 353.11a13.5 14.25 0 0 1-13.5 14.25 13.5 14.25 0 0 1-13.5-14.249 13.5 14.25 0 0 1 13.499-14.251 13.5 14.25 0 0 1 13.501 14.248l-13.5 2e-3z" fill="#4ebde6" fill-opacity=".98039"/>
 <path id="icon_path_40" d="m204.56 329.99a9 8.875 0 0 1-8.9997 8.875 9 8.875 0 0 1-9.0003-8.8744 9 8.875 0 0 1 8.9991-8.8756 9 8.875 0 0 1 9.0009 8.8738l-9 1e-3z" fill="#14bba5" fill-opacity=".86667"/>
 <path id="icon_path_41" d="m166.06 418.23a10.75 10.625 0 0 1-10.75 10.625 10.75 10.625 0 0 1-10.75-10.624 10.75 10.625 0 0 1 10.749-10.626 10.75 10.625 0 0 1 10.751 10.624l-10.75 1e-3z" fill="#cd31d2" fill-opacity=".98039"/>
 <path id="icon_path_42" d="m199.18 402.23a8.75 8.75 0 0 1-8.7497 8.75 8.75 8.75 0 0 1-8.7503-8.7494 8.75 8.75 0 0 1 8.7491-8.7506 8.75 8.75 0 0 1 8.7509 8.7488l-8.75 1e-3z" fill="#e7f0ef" fill-opacity=".86667"/>
 <path id="icon_path_43" d="m209.44 395.67a10.75 10.688 0 0 1-10.75 10.688 10.75 10.688 0 0 1-10.75-10.687 10.75 10.688 0 0 1 10.749-10.688 10.75 10.688 0 0 1 10.751 10.686l-10.75 1e-3z" fill="#c2b5c2" fill-opacity=".86667"/>
 <path id="icon_path_44" d="m213.18 423.11a9.375 9.5 0 0 1-9.3747 9.5 9.375 9.5 0 0 1-9.3753-9.4993 9.375 9.5 0 0 1 9.374-9.5007 9.375 9.5 0 0 1 9.376 9.4987l-9.375 1e-3z" fill="#f20ce7" fill-opacity=".86274"/>
 <path id="icon_path_45" d="m244.94 394.23a9.8125 9.5 0 0 1-9.8122 9.5 9.8125 9.5 0 0 1-9.8128-9.4993 9.8125 9.5 0 0 1 9.8115-9.5007 9.8125 9.5 0 0 1 9.8135 9.4987l-9.8125 1e-3z" fill="#e7f0ef" fill-opacity=".86667"/>
 <path id="icon_path_46" d="m260.06 397.3a12.5 12.562 0 0 1-12.5 12.562 12.5 12.562 0 0 1-12.5-12.562 12.5 12.562 0 0 1 12.499-12.563 12.5 12.562 0 0 1 12.501 12.561l-12.5 2e-3z" fill="#0c0c60" fill-opacity=".98039"/>
 <path id="icon_path_47" d="m244.56 412.49a11.062 10.875 0 0 1-11.062 10.875 11.062 10.875 0 0 1-11.063-10.874 11.062 10.875 0 0 1 11.061-10.876 11.062 10.875 0 0 1 11.064 10.873l-11.062 2e-3z" fill="#2b5cee" fill-opacity=".98431"/>
 <path id="icon_path_48" d="m281.31 399.49a9 9 0 0 1-8.9997 9 9 9 0 0 1-9.0003-8.9994 9 9 0 0 1 8.9991-9.0006 9 9 0 0 1 9.0009 8.9987l-9 1e-3z" fill="#b433db" fill-opacity=".98431"/>
 <path id="icon_path_49" d="m272.31 390.11a9.0625 9.375 0 0 1-9.0622 9.375 9.0625 9.375 0 0 1-9.0628-9.3744 9.0625 9.375 0 0 1 9.0616-9.3756 9.0625 9.375 0 0 1 9.0634 9.3737l-9.0625 1e-3z" fill="#ead924" fill-opacity=".87059"/>
 <path id="icon_path_50" d="m312.44 398.99a8.4375 8.625 0 0 1-8.4372 8.625 8.4375 8.625 0 0 1-8.4378-8.6244 8.4375 8.625 0 0 1 8.4366-8.6256 8.4375 8.625 0 0 1 8.4384 8.6238l-8.4375 1e-3z" fill="#ec14da" fill-opacity=".86274"/>
 <path id="icon_path_51" d="m294.94 372.86a7.4375 7.5 0 0 1-7.4372 7.5 7.4375 7.5 0 0 1-7.4378-7.4995 7.4375 7.5 0 0 1 7.4367-7.5005 7.4375 7.5 0 0 1 7.4383 7.499l-7.4375 1e-3z" fill="#1f8f78" fill-opacity=".98039"/>
 <path id="icon_path_52" d="m309.56 366.99a7.5 7.125 0 0 1-7.4997 7.125 7.5 7.125 0 0 1-7.5003-7.1245 7.5 7.125 0 0 1 7.4992-7.1255 7.5 7.125 0 0 1 7.5008 7.124l-7.5 9.9e-4z" fill="#eb14da" fill-opacity=".8549"/>
 <path id="icon_path_53" d="m300.44 374.73a6.75 6.75 0 0 1-6.7498 6.75 6.75 6.75 0 0 1-6.7502-6.7495 6.75 6.75 0 0 1 6.7493-6.7505 6.75 6.75 0 0 1 6.7507 6.7491l-6.75 9.4e-4z" fill="#0d2969" fill-opacity=".86274"/>
 <path id="icon_path_54" d="m305.44 389.99a12.312 12.25 0 0 1-12.312 12.25 12.312 12.25 0 0 1-12.313-12.249 12.312 12.25 0 0 1 12.311-12.251 12.312 12.25 0 0 1 12.314 12.248l-12.312 2e-3z" fill="#0c0c60" fill-opacity=".98039"/>
 <path id="icon_path_55" d="m296.68 398.17a9 8.9375 0 0 1-8.9997 8.9375 9 8.9375 0 0 1-9.0003-8.9369 9 8.9375 0 0 1 8.9991-8.9381 9 8.9375 0 0 1 9.0009 8.9362l-9 1e-3z" fill="#d509ef" fill-opacity=".85882"/>
 <path id="icon_path_56" d="m256.68 255.49a9.125 9.375 0 0 1-9.1247 9.375 9.125 9.375 0 0 1-9.1253-9.3744 9.125 9.375 0 0 1 9.124-9.3756 9.125 9.375 0 0 1 9.126 9.3737l-9.125 1e-3z" fill="#14bba5" fill-opacity=".98039"/>
 <path id="icon_path_57" d="m285.34 240.6a9.4576 9.2808 0 0 1-9.4572 9.2808 9.4576 9.2808 0 0 1-9.4579-9.2801 9.4576 9.2808 0 0 1 9.4566-9.2814 9.4576 9.2808 0 0 1 9.4585 9.2795l-9.4576 1e-3z" fill="#242eea" fill-opacity=".98039"/>
 <path id="icon_path_58" d="m278.8 256.29a7.9991 7.9991 0 0 1-7.9989 7.9991 7.9991 7.9991 0 0 1-7.9994-7.9986 7.9991 7.9991 0 0 1 7.9983-7.9997 7.9991 7.9991 0 0 1 8 7.998l-7.9991 1e-3z" fill="#1f8f79" fill-opacity=".86274"/>
 <path id="icon_path_59" d="m284.72 246.21a9.4576 9.325 0 0 1-9.4572 9.325 9.4576 9.325 0 0 1-9.4579-9.3243 9.4576 9.325 0 0 1 9.4566-9.3256 9.4576 9.325 0 0 1 9.4585 9.3237l-9.4576 1e-3z" fill="#e7d824" fill-opacity=".8902"/>
 <path id="icon_path_60" d="m300.1 272.77a7.3804 7.1595 0 0 1-7.3802 7.1594 7.3804 7.1595 0 0 1-7.3807-7.159 7.3804 7.1595 0 0 1 7.3797-7.16 7.3804 7.1595 0 0 1 7.3812 7.1585l-7.3804 1e-3z" fill="#1d248c" fill-opacity=".98039"/>
 <path id="icon_path_61" d="m297.18 278.3a7.9375 7.5625 0 0 1-7.9372 7.5625 7.9375 7.5625 0 0 1-7.9378-7.562 7.9375 7.5625 0 0 1 7.9367-7.563 7.9375 7.5625 0 0 1 7.9383 7.5614l-7.9375 1e-3z" fill="#e5eeee" fill-opacity=".87843"/>
 <path id="icon_path_62" d="m298.37 256.67a8.625 8.625 0 0 1-8.6247 8.625 8.625 8.625 0 0 1-8.6253-8.6244 8.625 8.625 0 0 1 8.6241-8.6256 8.625 8.625 0 0 1 8.6259 8.6238l-8.625 1e-3z" fill="#2a9054" fill-opacity=".98431"/>
 <path id="icon_path_63" d="m288.56 270.86a8.2188 8.5625 0 0 1-8.2185 8.5625 8.2188 8.5625 0 0 1-8.219-8.5619 8.2188 8.5625 0 0 1 8.2179-8.5631 8.2188 8.5625 0 0 1 8.2196 8.5613l-8.2188 1e-3z" fill="#1f8f78" fill-opacity=".99608"/>
 <path id="icon_path_64" d="m273.5 271.67a10.688 10.625 0 0 1-10.687 10.625 10.688 10.625 0 0 1-10.688-10.624 10.688 10.625 0 0 1 10.686-10.626 10.688 10.625 0 0 1 10.689 10.624l-10.688 1e-3z" fill="#2b5cee" fill-opacity=".98431"/>
 <path id="icon_path_65" d="m248.75 278.43a8.8388 9.104 0 0 1-8.8385 9.104 8.8388 9.104 0 0 1-8.8392-9.1034 8.8388 9.104 0 0 1 8.8379-9.1046 8.8388 9.104 0 0 1 8.8398 9.1027l-8.8388 1e-3z" fill="#f20ce7" fill-opacity=".86667"/>
 <path id="icon_path_66" d="m262.63 309.28a11.579 11.756 0 0 1-11.578 11.756 11.579 11.756 0 0 1-11.579-11.755 11.579 11.756 0 0 1 11.578-11.756 11.579 11.756 0 0 1 11.58 11.754l-11.579 2e-3z" fill="#0c0c60" fill-opacity=".98039"/>
 <path id="icon_path_67" d="m255.03 306.4a11.004 10.916 0 0 1-11.004 10.916 11.004 10.916 0 0 1-11.005-10.915 11.004 10.916 0 0 1 11.003-10.917 11.004 10.916 0 0 1 11.006 10.914l-11.004 2e-3z" fill="#df13d8" fill-opacity=".82353"/>
 <path id="icon_path_68" d="m242.65 302.29a10.165 10.607 0 0 1-10.164 10.607 10.165 10.607 0 0 1-10.165-10.606 10.165 10.607 0 0 1 10.164-10.607 10.165 10.607 0 0 1 10.166 10.605l-10.165 1e-3z" fill="#930a98" fill-opacity=".88235"/>
 <path id="icon_path_69" d="m264.48 296.5a8.5737 8.6179 0 0 1-8.5734 8.6179 8.5737 8.6179 0 0 1-8.574-8.6173 8.5737 8.6179 0 0 1 8.5728-8.6185 8.5737 8.6179 0 0 1 8.5746 8.6167l-8.5737 1e-3z" fill="#ead823" fill-opacity=".8549"/>
 <path id="icon_path_70" d="m277.65 293.28a8.6179 8.6621 0 0 1-8.6176 8.6621 8.6179 8.6621 0 0 1-8.6182-8.6614 8.6179 8.6621 0 0 1 8.617-8.6627 8.6179 8.6621 0 0 1 8.6188 8.6608l-8.6179 1e-3z" fill="#080e82" fill-opacity=".86274"/>
 <path id="icon_path_71" d="m277.65 307.46a7.6898 8.0875 0 0 1-7.6895 8.0875 7.6898 8.0875 0 0 1-7.6901-8.087 7.6898 8.0875 0 0 1 7.689-8.0881 7.6898 8.0875 0 0 1 7.6906 8.0864l-7.6898 1e-3z" fill="#1e8f77" fill-opacity=".8549"/>
 <path id="icon_path_72" d="m288.61 301.06a8.6621 8.9272 0 0 1-8.6618 8.9272 8.6621 8.9272 0 0 1-8.6624-8.9266 8.6621 8.9272 0 0 1 8.6612-8.9278 8.6621 8.9272 0 0 1 8.663 8.926l-8.6621 1e-3z" fill="#d50aef" fill-opacity=".98039"/>
 <path id="icon_path_73" d="m239.38 328.54a11.711 11.579 0 0 1-11.711 11.579 11.711 11.579 0 0 1-11.712-11.578 11.711 11.579 0 0 1 11.71-11.58 11.711 11.579 0 0 1 11.713 11.577l-11.711 2e-3z" fill="#323eac" fill-opacity=".98039"/>
 <path id="icon_path_74" d="m270.94 332.79a8.8388 9.1924 0 0 1-8.8385 9.1924 8.8388 9.1924 0 0 1-8.8392-9.1917 8.8388 9.1924 0 0 1 8.8379-9.193 8.8388 9.1924 0 0 1 8.8398 9.1911l-8.8388 1e-3z" fill="#242eea" fill-opacity=".86667"/>
 <path id="icon_path_75" d="m301.08 312.86a8.4411 8.2643 0 0 1-8.4408 8.2643 8.4411 8.2643 0 0 1-8.4414-8.2637 8.4411 8.2643 0 0 1 8.4402-8.2649 8.4411 8.2643 0 0 1 8.442 8.2632l-8.4411 1e-3z" fill="#2a7a90" fill-opacity=".86667"/>
 <path id="icon_path_76" d="m292.94 324.61a14.805 13.568 0 0 1-14.805 13.568 14.805 13.568 0 0 1-14.806-13.567 14.805 13.568 0 0 1 14.803-13.569 14.805 13.568 0 0 1 14.807 13.566l-14.805 2e-3z" fill="#4ebde6" fill-opacity=".98039"/>
 <path id="icon_path_77" d="m260.06 345.6a9.104 8.9272 0 0 1-9.1037 8.9272 9.104 8.9272 0 0 1-9.1043-8.9266 9.104 8.9272 0 0 1 9.103-8.9278 9.104 8.9272 0 0 1 9.105 8.926l-9.104 1e-3z" fill="#ead924" fill-opacity=".86667"/>
 <path id="icon_path_78" d="m243.36 346.18a10.165 10.386 0 0 1-10.164 10.386 10.165 10.386 0 0 1-10.165-10.385 10.165 10.386 0 0 1 10.164-10.386 10.165 10.386 0 0 1 10.166 10.384l-10.165 1e-3z" fill="#2b5cee" fill-opacity=".98039"/>
 <path id="icon_path_79" d="m280.92 359.13a9.2808 8.8388 0 0 1-9.2804 8.8388 9.2808 8.8388 0 0 1-9.2811-8.8382 9.2808 8.8388 0 0 1 9.2798-8.8394 9.2808 8.8388 0 0 1 9.2818 8.8376l-9.2808 1e-3z" fill="#f29c13" fill-opacity=".86274"/>
 <path id="icon_path_80" d="m265.99 361.56a7.9991 8.3527 0 0 1-7.9989 8.3527 7.9991 8.3527 0 0 1-7.9994-8.3521 7.9991 8.3527 0 0 1 7.9983-8.3533 7.9991 8.3527 0 0 1 8 8.3515l-7.9992 1e-3z" fill="#1f8f78" fill-opacity=".98039"/>
 <path id="icon_path_81" d="m252.82 367.57a8.9714 8.7946 0 0 1-8.9711 8.7946 8.9714 8.7946 0 0 1-8.9717-8.794 8.9714 8.7946 0 0 1 8.9705-8.7952 8.9714 8.7946 0 0 1 8.9724 8.7934l-8.9714 1e-3z" fill="#f29c12" fill-opacity=".86667"/>
 <path id="icon_path_82" d="m241.15 357.76a8.9714 8.6179 0 0 1-8.9711 8.6179 8.9714 8.6179 0 0 1-8.9717-8.6173 8.9714 8.6179 0 0 1 8.9705-8.6185 8.9714 8.6179 0 0 1 8.9724 8.6167l-8.9714 1e-3z" fill="#2a9155" fill-opacity=".86274"/>
 <path id="icon_path_83" d="m221.44 454.58a10.938 10.781 0 0 1-10.937 10.781 10.938 10.781 0 0 1-10.938-10.78 10.938 10.781 0 0 1 10.936-10.782 10.938 10.781 0 0 1 10.939 10.78l-10.938 2e-3z" fill="#2b5cee" fill-opacity=".98039"/>
 <path id="icon_path_84" d="m243.81 446.42a9.2188 9.25 0 0 1-9.2184 9.25 9.2188 9.25 0 0 1-9.2191-9.2494 9.2188 9.25 0 0 1 9.2178-9.2506 9.2188 9.25 0 0 1 9.2197 9.2487l-9.2188 1e-3z" fill="#e7f0ef" fill-opacity=".86667"/>
 <path id="icon_path_85" d="m261.06 438.55a9.25 9.1875 0 0 1-9.2497 9.1875 9.25 9.1875 0 0 1-9.2503-9.1869 9.25 9.1875 0 0 1 9.249-9.1881 9.25 9.1875 0 0 1 9.251 9.1862l-9.25 1e-3z" fill="#f20ce7" fill-opacity=".98039"/>
 <path id="icon_path_86" d="m273.68 434.23a9.5 9.25 0 0 1-9.4997 9.25 9.5 9.25 0 0 1-9.5003-9.2494 9.5 9.25 0 0 1 9.499-9.2506 9.5 9.25 0 0 1 9.501 9.2487l-9.5 1e-3z" fill="#b638e7" fill-opacity=".87451"/>
 <path id="icon_path_87" d="m264.81 420.55a8.0625 7.8125 0 0 1-8.0622 7.8125 8.0625 7.8125 0 0 1-8.0628-7.812 8.0625 7.8125 0 0 1 8.0617-7.813 8.0625 7.8125 0 0 1 8.0633 7.8114l-8.0625 1e-3z" fill="#23917a"/>
 <path id="icon_path_88" d="m289.94 448.61a9.6875 9.125 0 0 1-9.6872 9.125 9.6875 9.125 0 0 1-9.6878-9.1244 9.6875 9.125 0 0 1 9.6865-9.1256 9.6875 9.125 0 0 1 9.6885 9.1237l-9.6875 1e-3z" fill="#b433db" fill-opacity=".98039"/>
 <path id="icon_path_89" d="m275.06 417.36a8.125 7.625 0 0 1-8.1247 7.625 8.125 7.625 0 0 1-8.1253-7.6245 8.125 7.625 0 0 1 8.1242-7.6255 8.125 7.625 0 0 1 8.1258 7.6239l-8.125 1e-3z" fill="#b63ae7" fill-opacity=".88235"/>
 <path id="icon_path_90" d="m282.18 440.99a8.125 7.875 0 0 1-8.1247 7.875 8.125 7.875 0 0 1-8.1253-7.8744 8.125 7.875 0 0 1 8.1242-7.8756 8.125 7.875 0 0 1 8.1258 7.8739l-8.125 1e-3z" fill="#1f8e77" fill-opacity=".87059"/>
 <path id="icon_path_91" d="m288.44 417.86a11.438 10.875 0 0 1-11.437 10.875 11.438 10.875 0 0 1-11.438-10.874 11.438 10.875 0 0 1 11.436-10.876 11.438 10.875 0 0 1 11.439 10.873l-11.438 2e-3z" fill="#2b5cee" fill-opacity=".98039"/>
 <path id="icon_path_92" d="m301.68 431.3a8.9375 8.6875 0 0 1-8.9372 8.6875 8.9375 8.6875 0 0 1-8.9378-8.6869 8.9375 8.6875 0 0 1 8.9366-8.6881 8.9375 8.6875 0 0 1 8.9384 8.6863l-8.9375 1e-3z" fill="#080e81" fill-opacity=".97647"/>
 <path id="icon_path_93" d="m306.06 418.67a9.3125 9.1875 0 0 1-9.3122 9.1875 9.3125 9.1875 0 0 1-9.3128-9.1869 9.3125 9.1875 0 0 1 9.3115-9.1881 9.3125 9.1875 0 0 1 9.3135 9.1862l-9.3125 1e-3z" fill="#e7f0ef" fill-opacity=".98431"/>
 <path id="icon_path_94" d="m330.81 450.67a8.75 8.8125 0 0 1-8.7497 8.8125 8.75 8.8125 0 0 1-8.7503-8.8119 8.75 8.8125 0 0 1 8.7491-8.8131 8.75 8.8125 0 0 1 8.7509 8.8113l-8.75 1e-3z" fill="#080e82" fill-opacity=".87059"/>
 <path id="icon_path_95" d="m312.94 432.55a7.5 7.6875 0 0 1-7.4997 7.6875 7.5 7.6875 0 0 1-7.5003-7.687 7.5 7.6875 0 0 1 7.4992-7.688 7.5 7.6875 0 0 1 7.5008 7.6864l-7.5 1e-3z" fill="#b639e7" fill-opacity=".86667"/>
 <path id="icon_path_96" d="m261.31 468.99a14.938 14.5 0 0 1-14.937 14.5 14.938 14.5 0 0 1-14.938-14.499 14.938 14.5 0 0 1 14.936-14.501 14.938 14.5 0 0 1 14.939 14.498l-14.938 2e-3z" fill="#d653ee" fill-opacity=".98431"/>
 <path id="icon_path_97" d="m300.18 459.36a9.5 9 0 0 1-9.4997 9 9.5 9 0 0 1-9.5003-8.9994 9.5 9 0 0 1 9.499-9.0006 9.5 9 0 0 1 9.501 8.9987l-9.5 1e-3z" fill="#0fab0f" fill-opacity=".98431"/>
 <path id="icon_path_98" d="m298.44 479.42a9.25 9.4375 0 0 1-9.2497 9.4375 9.25 9.4375 0 0 1-9.2503-9.4368 9.25 9.4375 0 0 1 9.249-9.4382 9.25 9.4375 0 0 1 9.251 9.4362l-9.25 1e-3z" fill="#b433db" fill-opacity=".87059"/>
 <path id="icon_path_99" d="m315.18 475.73a9.5625 9.5 0 0 1-9.5622 9.5 9.5625 9.5 0 0 1-9.5628-9.4993 9.5625 9.5 0 0 1 9.5615-9.5007 9.5625 9.5 0 0 1 9.5635 9.4987l-9.5625 1e-3z" fill="#f20ce7" fill-opacity=".86667"/>
 <path id="icon_path_100" d="m326.56 486.67a11.75 12.312 0 0 1-11.75 12.312 11.75 12.312 0 0 1-11.75-12.312 11.75 12.312 0 0 1 11.749-12.313 11.75 12.312 0 0 1 11.751 12.311l-11.75 2e-3z" fill="#0d0d61" fill-opacity=".98431"/>
 <path id="icon_path_101" d="m341.56 474.86a9.75 9.625 0 0 1-9.7497 9.625 9.75 9.625 0 0 1-9.7503-9.6243 9.75 9.625 0 0 1 9.749-9.6257 9.75 9.625 0 0 1 9.751 9.6237l-9.75 1e-3z" fill="#b433db" fill-opacity=".86667"/>
 <path id="icon_path_102" d="m319.94 456.42a8.5625 8.8125 0 0 1-8.5622 8.8125 8.5625 8.8125 0 0 1-8.5628-8.8119 8.5625 8.8125 0 0 1 8.5616-8.8131 8.5625 8.8125 0 0 1 8.5634 8.8113l-8.5625 1e-3z" fill="#e7f0ef" fill-opacity=".85882"/>
 <path id="icon_path_103" d="m325.44 434.99a7.625 7.75 0 0 1-7.6247 7.75 7.625 7.75 0 0 1-7.6253-7.7495 7.625 7.75 0 0 1 7.6242-7.7505 7.625 7.75 0 0 1 7.6258 7.7489l-7.625 1e-3z" fill="#1f8e78" fill-opacity=".86667"/>
 <path id="icon_path_104" d="m330.81 423.36a7.5625 7.125 0 0 1-7.5622 7.125 7.5625 7.125 0 0 1-7.5628-7.1245 7.5625 7.125 0 0 1 7.5617-7.1255 7.5625 7.125 0 0 1 7.5633 7.124l-7.5625 9.9e-4z" fill="#1a2e63" fill-opacity=".92941"/>
 <path id="icon_path_105" d="m332.81 462.3a10.875 10.688 0 0 1-10.875 10.688 10.875 10.688 0 0 1-10.875-10.687 10.875 10.688 0 0 1 10.874-10.688 10.875 10.688 0 0 1 10.876 10.686l-10.875 1e-3z" fill="#2b5cee" fill-opacity=".98039"/>
 <path id="icon_path_106" d="m362.44 472.23a9.3125 9.125 0 0 1-9.3122 9.125 9.3125 9.125 0 0 1-9.3128-9.1244 9.3125 9.125 0 0 1 9.3115-9.1256 9.3125 9.125 0 0 1 9.3135 9.1237l-9.3125 1e-3z" fill="#b433db" fill-opacity=".8902"/>
 <path id="icon_path_107" d="m360.44 481.49a9.625 9.25 0 0 1-9.6247 9.25 9.625 9.25 0 0 1-9.6253-9.2494 9.625 9.25 0 0 1 9.624-9.2506 9.625 9.25 0 0 1 9.626 9.2487l-9.625 1e-3z" fill="#f20ce7" fill-opacity=".86667"/>
 <path id="icon_path_108" d="m341.81 489.19a9.5625 9.8125 0 0 1-9.5622 9.8125 9.5625 9.8125 0 0 1-9.5628-9.8118 9.5625 9.8125 0 0 1 9.5615-9.8132 9.5625 9.8125 0 0 1 9.5635 9.8111l-9.5625 1e-3z" fill="#3f6dee" fill-opacity=".97647"/>
 <path id="icon_path_109" d="m358.06 497.3a10.625 10.062 0 0 1-10.625 10.062 10.625 10.062 0 0 1-10.625-10.062 10.625 10.062 0 0 1 10.624-10.063 10.625 10.062 0 0 1 10.626 10.061l-10.625 1e-3z" fill="#2c5cee" fill-opacity=".98824"/>
 <path id="icon_path_110" d="m350.06 462.05a8.375 8.8125 0 0 1-8.3747 8.8125 8.375 8.8125 0 0 1-8.3753-8.8119 8.375 8.8125 0 0 1 8.3741-8.8131 8.375 8.8125 0 0 1 8.3759 8.8113l-8.375 1e-3z" fill="#d50eef"/>
 <path id="icon_path_111" d="m346.31 439.17a13.062 14.062 0 0 1-13.062 14.062 13.062 14.062 0 0 1-13.063-14.062 13.062 14.062 0 0 1 13.061-14.063 13.062 14.062 0 0 1 13.064 14.061l-13.062 2e-3z" fill="#51bce2"/>
 <path id="icon_path_112" d="m329.31 416.42a9.375 9.1875 0 0 1-9.3747 9.1875 9.375 9.1875 0 0 1-9.3753-9.1869 9.375 9.1875 0 0 1 9.374-9.1881 9.375 9.1875 0 0 1 9.376 9.1862l-9.375 1e-3z" fill="#0fac0f" fill-opacity=".87451"/>
 <path id="icon_path_113" d="m331.31 399.92a8.5 8.0625 0 0 1-8.4997 8.0625 8.5 8.0625 0 0 1-8.5003-8.0619 8.5 8.0625 0 0 1 8.4991-8.0631 8.5 8.0625 0 0 1 8.5009 8.0614l-8.5 1e-3z" fill="#1f8f78" fill-opacity=".98431"/>
 <path id="icon_path_114" d="m347.18 392.55a10.625 11.312 0 0 1-10.625 11.312 10.625 11.312 0 0 1-10.625-11.312 10.625 11.312 0 0 1 10.624-11.313 10.625 11.312 0 0 1 10.626 11.311l-10.625 2e-3z" fill="#041f6f"/>
 <path id="icon_path_115" d="m349.81 420.3a7.625 7.3125 0 0 1-7.6247 7.3125 7.625 7.3125 0 0 1-7.6253-7.312 7.625 7.3125 0 0 1 7.6242-7.313 7.625 7.3125 0 0 1 7.6258 7.3115l-7.625 1e-3z" fill="#080d82" fill-opacity=".98039"/>
 <path id="icon_path_116" d="m345.68 413.11a6.9375 7 0 0 1-6.9373 7 6.9375 7 0 0 1-6.9377-6.9995 6.9375 7 0 0 1 6.9368-7.0005 6.9375 7 0 0 1 6.9382 6.999l-6.9375 9.8e-4z" fill="#1c7e78" fill-opacity=".99608"/>
 <path id="icon_path_117" d="m359.87 402.38a8.4375 8.3125 0 0 1-8.4372 8.3125 8.4375 8.3125 0 0 1-8.4378-8.3119 8.4375 8.3125 0 0 1 8.4366-8.3131 8.4375 8.3125 0 0 1 8.4384 8.3113l-8.4375 1e-3z" fill="#091482" fill-opacity=".8"/>
 <path id="icon_path_118" d="m357.56 409.42a7.875 7.6875 0 0 1-7.8747 7.6875 7.875 7.6875 0 0 1-7.8753-7.687 7.875 7.6875 0 0 1 7.8742-7.688 7.875 7.6875 0 0 1 7.8758 7.6864l-7.875 1e-3z" fill="#297991" fill-opacity=".99608"/>
 <path id="icon_path_119" d="m364.68 450.3a7.375 7.4375 0 0 1-7.3747 7.4375 7.375 7.4375 0 0 1-7.3753-7.437 7.375 7.4375 0 0 1 7.3742-7.438 7.375 7.4375 0 0 1 7.3758 7.4365l-7.375 1e-3z" fill="#0d2768" fill-opacity=".86274"/>
 <path id="icon_path_120" d="m375.44 435.05a11.875 10.938 0 0 1-11.875 10.938 11.875 10.938 0 0 1-11.875-10.937 11.875 10.938 0 0 1 11.874-10.938 11.875 10.938 0 0 1 11.876 10.936l-11.875 2e-3z" fill="#0c0c60" fill-opacity=".98039"/>
 <path id="icon_path_121" d="m376.94 437.11a5.875 6 0 0 1-5.8748 6 5.875 6 0 0 1-5.8752-5.9996 5.875 6 0 0 1 5.8744-6.0004 5.875 6 0 0 1 5.8756 5.9992l-5.875 8.4e-4z" fill="#297b91" fill-opacity=".87059"/>
 <path id="icon_path_122" d="m368.18 416.23a10.188 10.375 0 0 1-10.187 10.375 10.188 10.375 0 0 1-10.188-10.374 10.188 10.375 0 0 1 10.186-10.376 10.188 10.375 0 0 1 10.189 10.374l-10.188 1e-3z" fill="#122f84" fill-opacity=".98431"/>
 <path id="icon_path_123" d="m386.56 421.3a9.25 9.8125 0 0 1-9.2497 9.8125 9.25 9.8125 0 0 1-9.2503-9.8118 9.25 9.8125 0 0 1 9.249-9.8132 9.25 9.8125 0 0 1 9.251 9.8111l-9.25 1e-3z" fill="#080e81" fill-opacity=".86667"/>
 <path id="icon_path_124" d="m394.94 418.49a8.0625 8.125 0 0 1-8.0622 8.125 8.0625 8.125 0 0 1-8.0628-8.1244 8.0625 8.125 0 0 1 8.0617-8.1256 8.0625 8.125 0 0 1 8.0633 8.1239l-8.0625 1e-3z" fill="#2a7b91" fill-opacity=".86667"/>
 <path id="icon_path_125" d="m403.68 430.61a9.125 8.625 0 0 1-9.1247 8.625 9.125 8.625 0 0 1-9.1253-8.6244 9.125 8.625 0 0 1 9.124-8.6256 9.125 8.625 0 0 1 9.126 8.6238l-9.125 1e-3z" fill="#080e82" fill-opacity=".87059"/>
 <path id="icon_path_126" d="m405.56 421.3a7.8125 8.0625 0 0 1-7.8122 8.0625 7.8125 8.0625 0 0 1-7.8128-8.0619 7.8125 8.0625 0 0 1 7.8117-8.0631 7.8125 8.0625 0 0 1 7.8133 8.0614l-7.8125 1e-3z" fill="#2a7b91" fill-opacity=".98431"/>
 <path id="icon_path_127" d="m384.68 451.49a7.5 7.75 0 0 1-7.4997 7.75 7.5 7.75 0 0 1-7.5003-7.7495 7.5 7.75 0 0 1 7.4992-7.7505 7.5 7.75 0 0 1 7.5008 7.7489l-7.5 1e-3z" fill="#0d2869" fill-opacity=".98039"/>
 <path id="icon_path_128" d="m398.94 453.3a9.75 9.4375 0 0 1-9.7497 9.4375 9.75 9.4375 0 0 1-9.7503-9.4368 9.75 9.4375 0 0 1 9.749-9.4382 9.75 9.4375 0 0 1 9.751 9.4362l-9.75 1e-3z" fill="#0fab0f" fill-opacity=".98431"/>
 <path id="icon_path_129" d="m425.44 462.49a9.125 9 0 0 1-9.1247 9 9.125 9 0 0 1-9.1253-8.9994 9.125 9 0 0 1 9.124-9.0006 9.125 9 0 0 1 9.126 8.9987l-9.125 1e-3z" fill="#b433db" fill-opacity=".98039"/>
 <path id="icon_path_130" d="m408.94 454.8a10 10.812 0 0 1-9.9996 10.812 10 10.812 0 0 1-10-10.812 10 10.812 0 0 1 9.999-10.813 10 10.812 0 0 1 10.001 10.811l-10 2e-3z" fill="#2b5cee" fill-opacity=".98039"/>
 <path id="icon_path_131" d="m378.81 471.55a11.188 11.438 0 0 1-11.187 11.438 11.188 11.438 0 0 1-11.188-11.437 11.188 11.438 0 0 1 11.186-11.438 11.188 11.438 0 0 1 11.189 11.436l-11.188 2e-3z" fill="#0f0e5f" fill-opacity=".99608"/>
 <path id="icon_path_132" d="m546.8 446.76a9 9.25 0 0 1-8.9997 9.25 9 9.25 0 0 1-9.0003-9.2494 9 9.25 0 0 1 8.9991-9.2506 9 9.25 0 0 1 9.0009 9.2487l-9 1e-3z" fill="#b433db" fill-opacity=".98039"/>
 <path id="icon_path_133" d="m532.18 457.99a5.8125 5.875 0 0 1-5.8123 5.875 5.8125 5.875 0 0 1-5.8127-5.8746 5.8125 5.875 0 0 1 5.8119-5.8754 5.8125 5.875 0 0 1 5.8131 5.8742l-5.8125 8.2e-4z" fill="#2f8e0f" fill-opacity=".98039"/>
 <path id="icon_path_134" d="m537.81 432.17a8.1875 8.1875 0 0 1-8.1872 8.1875 8.1875 8.1875 0 0 1-8.1878-8.1869 8.1875 8.1875 0 0 1 8.1866-8.1881 8.1875 8.1875 0 0 1 8.1884 8.1864l-8.1875 1e-3z" fill="#308b11"/>
 <path id="icon_path_135" d="m516.31 431.8a8.75 8.5625 0 0 1-8.7497 8.5625 8.75 8.5625 0 0 1-8.7503-8.5619 8.75 8.5625 0 0 1 8.7491-8.5631 8.75 8.5625 0 0 1 8.7509 8.5613l-8.75 1e-3z" fill="#ec14da" fill-opacity=".98039"/>
 <path id="icon_path_136" d="m528.44 419.49a11.562 10.875 0 0 1-11.562 10.875 11.562 10.875 0 0 1-11.563-10.874 11.562 10.875 0 0 1 11.561-10.876 11.562 10.875 0 0 1 11.564 10.873l-11.562 2e-3z" fill="#940b99" fill-opacity=".99608"/>
 <path id="icon_path_137" d="m532.56 443.42a15.625 15.312 0 0 1-15.624 15.312 15.625 15.312 0 0 1-15.626-15.311 15.625 15.312 0 0 1 15.623-15.314 15.625 15.312 0 0 1 15.627 15.31l-15.625 2e-3z" fill="#d63ef0"/>
 <path id="icon_path_138" d="m524.18 463.67a9 9.3125 0 0 1-8.9997 9.3125 9 9.3125 0 0 1-9.0003-9.3118 9 9.3125 0 0 1 8.9991-9.3132 9 9.3125 0 0 1 9.0009 9.3112l-9 1e-3z" fill="#f00a5f" fill-opacity=".98039"/>
 <path id="icon_path_139" d="m509.68 473.8a15.438 15.312 0 0 1-15.437 15.312 15.438 15.312 0 0 1-15.438-15.311 15.438 15.312 0 0 1 15.436-15.314 15.438 15.312 0 0 1 15.439 15.31l-15.438 2e-3z" fill="#d641f0"/>
 <path id="icon_path_140" d="m487.87 491.83a9.0625 8.9375 0 0 1-9.0622 8.9375 9.0625 8.9375 0 0 1-9.0628-8.9369 9.0625 8.9375 0 0 1 9.0616-8.9381 9.0625 8.9375 0 0 1 9.0634 8.9362l-9.0625 1e-3z" fill="#f20ce7" fill-opacity=".98039"/>
 <path id="icon_path_141" d="m475.68 476.42a9.5 9.4375 0 0 1-9.4997 9.4375 9.5 9.4375 0 0 1-9.5003-9.4368 9.5 9.4375 0 0 1 9.499-9.4382 9.5 9.4375 0 0 1 9.501 9.4362l-9.5 1e-3z" fill="#b433db" fill-opacity=".98039"/>
 <path id="icon_path_142" d="m462.18 498.05a7.9375 8.3125 0 0 1-7.9372 8.3125 7.9375 8.3125 0 0 1-7.9378-8.3119 7.9375 8.3125 0 0 1 7.9367-8.3131 7.9375 8.3125 0 0 1 7.9383 8.3113l-7.9375 1e-3z" fill="#b639e7" fill-opacity=".97647"/>
 <path id="icon_path_143" d="m474.56 489.73a9.25 9.125 0 0 1-9.2497 9.125 9.25 9.125 0 0 1-9.2503-9.1244 9.25 9.125 0 0 1 9.249-9.1256 9.25 9.125 0 0 1 9.251 9.1237l-9.25 1e-3z" fill="#0fab0f" fill-opacity=".98431"/>
 <path id="icon_path_144" d="m494.31 483.55a10.625 11.062 0 0 1-10.625 11.062 10.625 11.062 0 0 1-10.625-11.062 10.625 11.062 0 0 1 10.624-11.063 10.625 11.062 0 0 1 10.626 11.061l-10.625 2e-3z" fill="#2b5cee" fill-opacity=".98039"/>
 <path id="icon_path_145" d="m498.81 426.99a8.25 8.25 0 0 1-8.2497 8.25 8.25 8.25 0 0 1-8.2503-8.2494 8.25 8.25 0 0 1 8.2491-8.2506 8.25 8.25 0 0 1 8.2509 8.2488l-8.25 1e-3z" fill="#f29c13" fill-opacity=".86274"/>
 <path id="icon_path_146" d="m501.68 440.3a7.75 7.5625 0 0 1-7.7497 7.5625 7.75 7.5625 0 0 1-7.7503-7.562 7.75 7.5625 0 0 1 7.7492-7.563 7.75 7.5625 0 0 1 7.7508 7.5614l-7.75 1e-3z" fill="#0d2769" fill-opacity=".86667"/>
 <path id="icon_path_147" d="m480.81 439.92a7.625 7.3125 0 0 1-7.6247 7.3125 7.625 7.3125 0 0 1-7.6253-7.312 7.625 7.3125 0 0 1 7.6242-7.313 7.625 7.3125 0 0 1 7.6258 7.3115l-7.625 1e-3z" fill="#0d2869" fill-opacity=".98431"/>
 <path id="icon_path_148" d="m481.81 459.55a9.5 9.4375 0 0 1-9.4997 9.4375 9.5 9.4375 0 0 1-9.5003-9.4368 9.5 9.4375 0 0 1 9.499-9.4382 9.5 9.4375 0 0 1 9.501 9.4362l-9.5 1e-3z" fill="#f29c12" fill-opacity=".98039"/>
 <path id="icon_path_149" d="m491.31 449.73a8.75 9 0 0 1-8.7497 9 8.75 9 0 0 1-8.7503-8.9994 8.75 9 0 0 1 8.7491-9.0006 8.75 9 0 0 1 8.7509 8.9987l-8.75 1e-3z" fill="#d50aef" fill-opacity=".98039"/>
 <path id="icon_path_150" d="m487.44 392.92a6.375 6.3125 0 0 1-6.3748 6.3125 6.375 6.3125 0 0 1-6.3752-6.3121 6.375 6.3125 0 0 1 6.3743-6.3129 6.375 6.3125 0 0 1 6.3757 6.3116l-6.375 8.8e-4z" fill="#2f8f0f" fill-opacity=".91765"/>
 <path id="icon_path_151" d="m476.44 415.8a8.625 8.9375 0 0 1-8.6247 8.9375 8.625 8.9375 0 0 1-8.6253-8.9369 8.625 8.9375 0 0 1 8.6241-8.9381 8.625 8.9375 0 0 1 8.6259 8.9362l-8.625 1e-3z" fill="#b333db" fill-opacity=".87059"/>
 <path id="icon_path_152" d="m482.68 423.67a9.1875 9.0625 0 0 1-9.1872 9.0625 9.1875 9.0625 0 0 1-9.1878-9.0619 9.1875 9.0625 0 0 1 9.1865-9.0631 9.1875 9.0625 0 0 1 9.1885 9.0612l-9.1875 1e-3z" fill="#d50aef" fill-opacity=".98039"/>
 <path id="icon_path_153" d="m477.91 403.57a9.125 9.25 0 0 1-9.1247 9.25 9.125 9.25 0 0 1-9.1253-9.2494 9.125 9.25 0 0 1 9.124-9.2506 9.125 9.25 0 0 1 9.126 9.2487l-9.125 1e-3z" fill="#ec13d9" fill-opacity=".87451"/>
 <path id="icon_path_154" d="m500.66 384.48a8.375 7.625 0 0 1-8.3747 7.625 8.375 7.625 0 0 1-8.3753-7.6245 8.375 7.625 0 0 1 8.3741-7.6255 8.375 7.625 0 0 1 8.3759 7.6239l-8.375 1e-3z" fill="#ead924" fill-opacity=".98039"/>
 <path id="icon_path_155" d="m510.18 395.67a8.4375 8.1875 0 0 1-8.4372 8.1875 8.4375 8.1875 0 0 1-8.4378-8.1869 8.4375 8.1875 0 0 1 8.4366-8.1881 8.4375 8.1875 0 0 1 8.4384 8.1864l-8.4375 1e-3z" fill="#ead924" fill-opacity=".98039"/>
 <path id="icon_path_156" d="m498.81 405.05a12.875 12.812 0 0 1-12.875 12.812 12.875 12.812 0 0 1-12.875-12.812 12.875 12.812 0 0 1 12.874-12.813 12.875 12.812 0 0 1 12.876 12.811l-12.875 2e-3z" fill="#d640ed" fill-opacity=".99608"/>
 <path id="icon_path_157" d="m513.68 412.42a9.5625 9.3125 0 0 1-9.5622 9.3125 9.5625 9.3125 0 0 1-9.5628-9.3118 9.5625 9.3125 0 0 1 9.5615-9.3132 9.5625 9.3125 0 0 1 9.5635 9.3112l-9.5625 1e-3z" fill="#2f8e0f" fill-opacity=".98039"/>
 <path id="icon_path_158" d="m464.31 445.23a6.375 6.125 0 0 1-6.3748 6.125 6.375 6.125 0 0 1-6.3752-6.1246 6.375 6.125 0 0 1 6.3743-6.1254 6.375 6.125 0 0 1 6.3757 6.1241l-6.375 8.6e-4z" fill="#2f8e0f" fill-opacity=".98039"/>
 <path id="icon_path_159" d="m448.56 426.36a9.25 9.5 0 0 1-9.2497 9.5 9.25 9.5 0 0 1-9.2503-9.4993 9.25 9.5 0 0 1 9.249-9.5007 9.25 9.5 0 0 1 9.251 9.4987l-9.25 1e-3z" fill="#080e82" fill-opacity=".99608"/>
 <path id="icon_path_160" d="m455.06 433.73a8.1875 8 0 0 1-8.1872 8 8.1875 8 0 0 1-8.1878-7.9994 8.1875 8 0 0 1 8.1866-8.0006 8.1875 8 0 0 1 8.1884 7.9989l-8.1875 1e-3z" fill="#b432db" fill-opacity=".86274"/>
 <path id="icon_path_161" d="m458.94 417.23a9.4375 9.375 0 0 1-9.4372 9.375 9.4375 9.375 0 0 1-9.4378-9.3744 9.4375 9.375 0 0 1 9.4365-9.3756 9.4375 9.375 0 0 1 9.4385 9.3737l-9.4375 1e-3z" fill="#ec14da" fill-opacity=".98039"/>
 <path id="icon_path_162" d="m432.44 421.86a8.9375 9.125 0 0 1-8.9372 9.125 8.9375 9.125 0 0 1-8.9378-9.1244 8.9375 9.125 0 0 1 8.9366-9.1256 8.9375 9.125 0 0 1 8.9384 9.1237l-8.9375 1e-3z" fill="#2a7b91" fill-opacity=".98039"/>
 <path id="icon_path_163" d="m422.18 436.55a8.8125 8.9375 0 0 1-8.8122 8.9375 8.8125 8.9375 0 0 1-8.8128-8.9369 8.8125 8.9375 0 0 1 8.8116-8.9381 8.8125 8.9375 0 0 1 8.8134 8.9362l-8.8125 1e-3z" fill="#b433db" fill-opacity=".86667"/>
 <path id="icon_path_164" d="m435.31 442.3a8.25 7.9375 0 0 1-8.2497 7.9375 8.25 7.9375 0 0 1-8.2503-7.937 8.25 7.9375 0 0 1 8.2491-7.938 8.25 7.9375 0 0 1 8.2509 7.9364l-8.25 1e-3z" fill="#0d2869" fill-opacity=".99608"/>
 <path id="icon_path_165" d="m458.18 469.67a6.3125 6.8125 0 0 1-6.3123 6.8125 6.3125 6.8125 0 0 1-6.3127-6.812 6.3125 6.8125 0 0 1 6.3118-6.813 6.3125 6.8125 0 0 1 6.3132 6.8116l-6.3125 9.5e-4z" fill="#0d2768" fill-opacity=".86667"/>
 <path id="icon_path_166" d="m438.06 460.55a6.25 6.4375 0 0 1-6.2498 6.4375 6.25 6.4375 0 0 1-6.2502-6.437 6.25 6.4375 0 0 1 6.2494-6.438 6.25 6.4375 0 0 1 6.2506 6.4366l-6.25 9e-4z" fill="#232a79" fill-opacity=".98039"/>
 <path id="icon_path_167" d="m453.06 458.49a7.875 8.25 0 0 1-7.8747 8.25 7.875 8.25 0 0 1-7.8753-8.2494 7.875 8.25 0 0 1 7.8742-8.2506 7.875 8.25 0 0 1 7.8758 8.2488l-7.875 1e-3z" fill="#b432dc" fill-opacity=".73333"/>
 <path id="icon_path_168" d="m447.44 472.73a10.25 10.375 0 0 1-10.25 10.375 10.25 10.375 0 0 1-10.25-10.374 10.25 10.375 0 0 1 10.249-10.376 10.25 10.375 0 0 1 10.251 10.374l-10.25 1e-3z" fill="#2b5cee"/>
 <path id="icon_path_169" d="m440.68 449.49a9.0625 9.625 0 0 1-9.0622 9.625 9.0625 9.625 0 0 1-9.0628-9.6243 9.0625 9.625 0 0 1 9.0616-9.6257 9.0625 9.625 0 0 1 9.0634 9.6237l-9.0625 1e-3z" fill="#0fab0f"/>
 <path id="icon_path_170" d="m445.31 490.99a9.125 9.25 0 0 1-9.1247 9.25 9.125 9.25 0 0 1-9.1253-9.2494 9.125 9.25 0 0 1 9.124-9.2506 9.125 9.25 0 0 1 9.126 9.2487l-9.125 1e-3z" fill="#f20ce7"/>
 <path id="icon_path_171" d="m439.05 503.11a9 8.9375 0 0 1-8.9997 8.9375 9 8.9375 0 0 1-9.0003-8.9369 9 8.9375 0 0 1 8.999-8.9381 9 8.9375 0 0 1 9.001 8.9362l-9 1e-3z" fill="#0d2869" fill-opacity=".86667"/>
 <path id="icon_path_172" d="m426.75 501.88a9.25 10.062 0 0 1-9.2497 10.062 9.25 10.062 0 0 1-9.2503-10.062 9.25 10.062 0 0 1 9.249-10.063 9.25 10.062 0 0 1 9.251 10.061l-9.25 1e-3z" fill="#2d5deb" fill-opacity=".99608"/>
 <path id="icon_path_173" d="m403.56 477.23a9.1875 9.5 0 0 1-9.1872 9.5 9.1875 9.5 0 0 1-9.1878-9.4993 9.1875 9.5 0 0 1 9.1865-9.5007 9.1875 9.5 0 0 1 9.1885 9.4987l-9.1875 1e-3z" fill="#b333db" fill-opacity=".86667"/>
 <path id="icon_path_174" d="m409.68 488.67a6.9375 7.3125 0 0 1-6.9373 7.3125 6.9375 7.3125 0 0 1-6.9377-7.312 6.9375 7.3125 0 0 1 6.9368-7.313 6.9375 7.3125 0 0 1 6.9382 7.3115l-6.9375 1e-3z" fill="#0d2869" fill-opacity=".87059"/>
 <path id="icon_path_175" d="m424.06 483.42a8 8.8125 0 0 1-7.9997 8.8125 8 8.8125 0 0 1-8.0003-8.8119 8 8.8125 0 0 1 7.9992-8.8131 8 8.8125 0 0 1 8.0008 8.8113l-8 1e-3z" fill="#d50aef" fill-opacity=".98039"/>
 <path id="icon_path_176" d="m408.29 501a9.6875 9.875 0 0 1-9.6872 9.875 9.6875 9.875 0 0 1-9.6878-9.8743 9.6875 9.875 0 0 1 9.6865-9.8757 9.6875 9.875 0 0 1 9.6885 9.8736l-9.6875 1e-3z" fill="#2c5bee" fill-opacity=".98431"/>
 <path id="icon_path_177" d="m373.44 505.3a6.0625 6.0625 0 0 1-6.0623 6.0625 6.0625 6.0625 0 0 1-6.0627-6.0621 6.0625 6.0625 0 0 1 6.0619-6.0629 6.0625 6.0625 0 0 1 6.0631 6.0616l-6.0625 8.5e-4z" fill="#b639e6" fill-opacity=".96863"/>
 <path id="icon_path_178" d="m388.68 487.86a8.6875 8.75 0 0 1-8.6872 8.75 8.6875 8.75 0 0 1-8.6878-8.7494 8.6875 8.75 0 0 1 8.6866-8.7506 8.6875 8.75 0 0 1 8.6884 8.7488l-8.6875 1e-3z" fill="#b432dc" fill-opacity=".87451"/>
 <path id="icon_path_179" d="m388.71 505.71a9.4375 9.8125 0 0 1-9.4372 9.8125 9.4375 9.8125 0 0 1-9.4378-9.8118 9.4375 9.8125 0 0 1 9.4365-9.8132 9.4375 9.8125 0 0 1 9.4385 9.8111l-9.4375 1e-3z" fill="#2d5bee" fill-opacity=".98824"/>
 <path id="icon_path_180" d="m376.94 495.05a8.875 9.5625 0 0 1-8.8747 9.5625 8.875 9.5625 0 0 1-8.8753-9.5618 8.875 9.5625 0 0 1 8.8741-9.5632 8.875 9.5625 0 0 1 8.8759 9.5612l-8.875 1e-3z" fill="#0faa0f" fill-opacity=".98039"/>
 <path id="icon_path_181" d="m325.44 357.42a4.5 4.3125 0 0 1-4.4998 4.3125 4.5 4.3125 0 0 1-4.5002-4.3122 4.5 4.3125 0 0 1 4.4995-4.3128 4.5 4.3125 0 0 1 4.5005 4.3119l-4.5 6e-4z" fill="#0808cd" fill-opacity=".98039"/>
 <path id="icon_path_182" d="m325.94 369.92a13.75 13.688 0 0 1-13.75 13.688 13.75 13.688 0 0 1-13.75-13.687 13.75 13.688 0 0 1 13.749-13.688 13.75 13.688 0 0 1 13.751 13.686l-13.75 2e-3z" fill="#4dbce4"/>
 <path id="icon_path_183" d="m324.94 381.61a8.9375 8.375 0 0 1-8.9372 8.375 8.9375 8.375 0 0 1-8.9378-8.3744 8.9375 8.375 0 0 1 8.9366-8.3756 8.9375 8.375 0 0 1 8.9384 8.3738l-8.9375 1e-3z" fill="#0fab0f" fill-opacity=".98039"/>
 <path id="icon_path_184" d="m333.06 371.23a9.625 9.625 0 0 1-9.6247 9.625 9.625 9.625 0 0 1-9.6253-9.6243 9.625 9.625 0 0 1 9.624-9.6257 9.625 9.625 0 0 1 9.626 9.6237l-9.625 1e-3z" fill="#041d6f" fill-opacity=".98431"/>
 <path id="icon_path_185" d="m324.44 348.17a10.25 10.062 0 0 1-10.25 10.062 10.25 10.062 0 0 1-10.25-10.062 10.25 10.062 0 0 1 10.249-10.063 10.25 10.062 0 0 1 10.251 10.061l-10.25 1e-3z" fill="#041e6f" fill-opacity=".98039"/>
 <path id="icon_path_186" d="m283.31 348.99a7.625 7.875 0 0 1-7.6247 7.875 7.625 7.875 0 0 1-7.6253-7.8744 7.625 7.875 0 0 1 7.6242-7.8756 7.625 7.875 0 0 1 7.6258 7.8739l-7.625 1e-3z" fill="#1f8d78" fill-opacity=".99608"/>
 <path id="icon_path_187" d="m296.68 340.73a8.75 8.5 0 0 1-8.7497 8.5 8.75 8.5 0 0 1-8.7503-8.4994 8.75 8.5 0 0 1 8.7491-8.5006 8.75 8.5 0 0 1 8.7509 8.4988l-8.75 1e-3z" fill="#0fab0f" fill-opacity=".98039"/>
 <path id="icon_path_188" d="m297.94 352.17a7.625 8.0625 0 0 1-7.6247 8.0625 7.625 8.0625 0 0 1-7.6253-8.0619 7.625 8.0625 0 0 1 7.6242-8.0631 7.625 8.0625 0 0 1 7.6258 8.0614l-7.625 1e-3z" fill="#ead924" fill-opacity=".98039"/>
 <path id="icon_path_189" d="m318.31 327.49a10 10 0 0 1-9.9996 10 10 10 0 0 1-10-9.9993 10 10 0 0 1 9.999-10.001 10 10 0 0 1 10.001 9.9986l-10 1e-3z" fill="#0c0e61" fill-opacity=".99608"/>
 <path id="icon_path_190" d="m306.18 324.73a10.125 10.125 0 0 1-10.125 10.125 10.125 10.125 0 0 1-10.125-10.124 10.125 10.125 0 0 1 10.124-10.126 10.125 10.125 0 0 1 10.126 10.124l-10.125 1e-3z" fill="#0f326a" fill-opacity=".99608"/>
 <path id="icon_path_191" d="m317.56 313.3a9.125 8.8125 0 0 1-9.1247 8.8125 9.125 8.8125 0 0 1-9.1253-8.8119 9.125 8.8125 0 0 1 9.124-8.8131 9.125 8.8125 0 0 1 9.126 8.8113l-9.125 1e-3z" fill="#ead924" fill-opacity=".98039"/>
 <path id="icon_path_192" d="m313.94 289.61a11.062 10.875 0 0 1-11.062 10.875 11.062 10.875 0 0 1-11.063-10.874 11.062 10.875 0 0 1 11.061-10.876 11.062 10.875 0 0 1 11.064 10.873l-11.062 2e-3z" fill="#0d2869"/>
 <path id="icon_path_193" d="m321.56 292.17a6.375 6.4375 0 0 1-6.3748 6.4375 6.375 6.4375 0 0 1-6.3752-6.437 6.375 6.4375 0 0 1 6.3743-6.438 6.375 6.4375 0 0 1 6.3757 6.4366l-6.375 9e-4z" fill="#0808cd" fill-opacity=".98039"/>
 <path id="icon_path_194" d="m328.94 267.3a6.5625 6.9375 0 0 1-6.5623 6.9375 6.5625 6.9375 0 0 1-6.5627-6.937 6.5625 6.9375 0 0 1 6.5618-6.938 6.5625 6.9375 0 0 1 6.5632 6.9365l-6.5625 9.7e-4z" fill="#0c2768" fill-opacity=".96863"/>
 <path id="icon_path_195" d="m326.18 270.49a9.0625 9 0 0 1-9.0622 9 9.0625 9 0 0 1-9.0628-8.9994 9.0625 9 0 0 1 9.0616-9.0006 9.0625 9 0 0 1 9.0634 8.9987l-9.0625 1e-3z" fill="#11ab16"/>
 <path id="icon_path_196" d="m321.31 277.99a8.0625 8.75 0 0 1-8.0622 8.75 8.0625 8.75 0 0 1-8.0628-8.7494 8.0625 8.75 0 0 1 8.0617-8.7506 8.0625 8.75 0 0 1 8.0633 8.7488l-8.0625 1e-3z" fill="#041e6f" fill-opacity=".98039"/>
 <path id="icon_path_197" d="m322.18 264.92a13.5 12.938 0 0 1-13.5 12.938 13.5 12.938 0 0 1-13.5-12.937 13.5 12.938 0 0 1 13.499-12.938 13.5 12.938 0 0 1 13.501 12.936l-13.5 2e-3z" fill="#4dbbe5" fill-opacity=".99608"/>
 <path id="icon_path_198" d="m331.81 240.05a10.688 10.312 0 0 1-10.687 10.312 10.688 10.312 0 0 1-10.688-10.312 10.688 10.312 0 0 1 10.686-10.313 10.688 10.312 0 0 1 10.689 10.311l-10.688 1e-3z" fill="#0f1062"/>
 <path id="icon_path_199" d="m337.81 249.73a10.188 10.125 0 0 1-10.187 10.125 10.188 10.125 0 0 1-10.188-10.124 10.188 10.125 0 0 1 10.186-10.126 10.188 10.125 0 0 1 10.189 10.124l-10.188 1e-3z" fill="#041e6f" fill-opacity=".99608"/>
 <path id="icon_path_200" d="m316.18 247.8a8.9375 9.5625 0 0 1-8.9372 9.5625 8.9375 9.5625 0 0 1-8.9378-9.5618 8.9375 9.5625 0 0 1 8.9366-9.5632 8.9375 9.5625 0 0 1 8.9384 9.5612l-8.9375 1e-3z" fill="#d50aef"/>
 <path id="icon_path_201" d="m349.18 236.49a6.625 6.75 0 0 1-6.6248 6.75 6.625 6.75 0 0 1-6.6252-6.7495 6.625 6.75 0 0 1 6.6243-6.7505 6.625 6.75 0 0 1 6.6257 6.7491l-6.625 9.4e-4z" fill="#0808cd"/>
 <path id="icon_path_202" d="m331.06 216.17a9.5 9.0625 0 0 1-9.4997 9.0625 9.5 9.0625 0 0 1-9.5003-9.0619 9.5 9.0625 0 0 1 9.499-9.0631 9.5 9.0625 0 0 1 9.501 9.0612l-9.5 1e-3z" fill="#080e82"/>
 <path id="icon_path_203" d="m344.18 206.05a9 8.9375 0 0 1-8.9997 8.9375 9 8.9375 0 0 1-9.0003-8.9369 9 8.9375 0 0 1 8.9991-8.9381 9 8.9375 0 0 1 9.0009 8.9362l-9 1e-3z" fill="#f20be7"/>
 <path id="icon_path_204" d="m350.31 216.99a9.1875 9.125 0 0 1-9.1872 9.125 9.1875 9.125 0 0 1-9.1878-9.1244 9.1875 9.125 0 0 1 9.1865-9.1256 9.1875 9.125 0 0 1 9.1885 9.1237l-9.1875 1e-3z" fill="#0fab0f"/>
 <path id="icon_path_205" d="m363.31 200.49a8.375 8.5 0 0 1-8.3747 8.5 8.375 8.5 0 0 1-8.3753-8.4994 8.375 8.5 0 0 1 8.3741-8.5006 8.375 8.5 0 0 1 8.3759 8.4988l-8.375 1e-3z" fill="#080e82"/>
 <path id="icon_path_206" d="m356.68 206.99a8.75 9 0 0 1-8.7497 9 8.75 9 0 0 1-8.7503-8.9994 8.75 9 0 0 1 8.7491-9.0006 8.75 9 0 0 1 8.7509 8.9987l-8.75 1e-3z" fill="#e6efee" fill-opacity=".86667"/>
 <path id="icon_path_207" d="m372.81 215.23a9.25 10 0 0 1-9.2497 10 9.25 10 0 0 1-9.2503-9.9993 9.25 10 0 0 1 9.249-10.001 9.25 10 0 0 1 9.251 9.9986l-9.25 1e-3z" fill="#122f83" fill-opacity=".98431"/>
 <path id="icon_path_208" d="m362.18 222.8a9.5 9.9375 0 0 1-9.4997 9.9375 9.5 9.9375 0 0 1-9.5003-9.9368 9.5 9.9375 0 0 1 9.499-9.9382 9.5 9.9375 0 0 1 9.501 9.9361l-9.5 1e-3z" fill="#061e70" fill-opacity=".99216"/>
 <path id="icon_path_209" d="m392.18 210.61a9.1875 9 0 0 1-9.1872 9 9.1875 9 0 0 1-9.1878-8.9994 9.1875 9 0 0 1 9.1865-9.0006 9.1875 9 0 0 1 9.1885 8.9987l-9.1875 1e-3z" fill="#ec13d9" fill-opacity=".89804"/>
 <path id="icon_path_210" d="m404.06 204.73a10.062 10.125 0 0 1-10.062 10.125 10.062 10.125 0 0 1-10.063-10.124 10.062 10.125 0 0 1 10.061-10.126 10.062 10.125 0 0 1 10.064 10.124l-10.062 1e-3z" fill="#0fab0f" fill-opacity=".95686"/>
 <path id="icon_path_211" d="m416.44 200.99a8.625 8.875 0 0 1-8.6247 8.875 8.625 8.875 0 0 1-8.6253-8.8744 8.625 8.875 0 0 1 8.6241-8.8756 8.625 8.875 0 0 1 8.6259 8.8738l-8.625 1e-3z" fill="#2a7b91" fill-opacity=".87843"/>
 <path id="icon_path_212" d="m421.18 185.99a9.5 9.125 0 0 1-9.4997 9.125 9.5 9.125 0 0 1-9.5003-9.1244 9.5 9.125 0 0 1 9.499-9.1256 9.5 9.125 0 0 1 9.501 9.1237l-9.5 1e-3z" fill="#0fab0f" fill-opacity=".98039"/>
 <path id="icon_path_213" d="m446.18 210.92a11.375 12.062 0 0 1-11.375 12.062 11.375 12.062 0 0 1-11.375-12.062 11.375 12.062 0 0 1 11.374-12.063 11.375 12.062 0 0 1 11.376 12.061l-11.375 2e-3z" fill="#f20ce7" fill-opacity=".98039"/>
 <path id="icon_path_214" d="m444.44 188.05a8.8125 8.9375 0 0 1-8.8122 8.9375 8.8125 8.9375 0 0 1-8.8128-8.9369 8.8125 8.9375 0 0 1 8.8116-8.9381 8.8125 8.9375 0 0 1 8.8134 8.9362l-8.8125 1e-3z" fill="#f20ce7" fill-opacity=".98431"/>
 <path id="icon_path_215" d="m436.68 204.3a12.188 12.312 0 0 1-12.187 12.312 12.188 12.312 0 0 1-12.188-12.312 12.188 12.312 0 0 1 12.186-12.313 12.188 12.312 0 0 1 12.189 12.311l-12.188 2e-3z" fill="#0c0c60" fill-opacity=".98039"/>
 <path id="icon_path_216" d="m452.31 213.99a8.375 8.625 0 0 1-8.3747 8.625 8.375 8.625 0 0 1-8.3753-8.6244 8.375 8.625 0 0 1 8.3741-8.6256 8.375 8.625 0 0 1 8.3759 8.6238l-8.375 1e-3z" fill="#041e6f" fill-opacity=".99608"/>
 <path id="icon_path_217" d="m454.94 197.42a7.8125 8.0625 0 0 1-7.8122 8.0625 7.8125 8.0625 0 0 1-7.8128-8.0619 7.8125 8.0625 0 0 1 7.8117-8.0631 7.8125 8.0625 0 0 1 7.8133 8.0614l-7.8125 1e-3z" fill="#0d2869" fill-opacity=".98431"/>
 <path id="icon_path_218" d="m464.18 216.8a9.3125 9.8125 0 0 1-9.3122 9.8125 9.3125 9.8125 0 0 1-9.3128-9.8118 9.3125 9.8125 0 0 1 9.3115-9.8132 9.3125 9.8125 0 0 1 9.3135 9.8111l-9.3125 1e-3z" fill="#2a4690" fill-opacity=".99216"/>
 <path id="icon_path_219" d="m480.06 202.17a7.8125 7.4375 0 0 1-7.8122 7.4375 7.8125 7.4375 0 0 1-7.8128-7.437 7.8125 7.4375 0 0 1 7.8117-7.438 7.8125 7.4375 0 0 1 7.8133 7.4365l-7.8125 1e-3z" fill="#f20ce7" fill-opacity=".98824"/>
 <path id="icon_path_220" d="m474.81 191.05a7.6875 7.5625 0 0 1-7.6872 7.5625 7.6875 7.5625 0 0 1-7.6878-7.562 7.6875 7.5625 0 0 1 7.6867-7.563 7.6875 7.5625 0 0 1 7.6883 7.5614l-7.6875 1e-3z" fill="#0d2869" fill-opacity=".87059"/>
 <path id="icon_path_221" d="m466.68 197.42a6.75 6.5625 0 0 1-6.7498 6.5625 6.75 6.5625 0 0 1-6.7502-6.562 6.75 6.5625 0 0 1 6.7493-6.563 6.75 6.5625 0 0 1 6.7507 6.5616l-6.75 9.2e-4z" fill="#294690"/>
 <path id="icon_path_222" d="m477.56 211.49a11.438 10.875 0 0 1-11.437 10.875 11.438 10.875 0 0 1-11.438-10.874 11.438 10.875 0 0 1 11.436-10.876 11.438 10.875 0 0 1 11.439 10.873l-11.438 2e-3z" fill="#20176c" fill-opacity=".9451"/>
 <path id="icon_path_223" d="m471.18 176.42a8.875 7.8125 0 0 1-8.8747 7.8125 8.875 7.8125 0 0 1-8.8753-7.812 8.875 7.8125 0 0 1 8.8741-7.813 8.875 7.8125 0 0 1 8.8759 7.8114l-8.875 1e-3z" fill="#f20ce7" fill-opacity=".95294"/>
 <path id="icon_path_224" d="m471.31 183.73a6.875 6.75 0 0 1-6.8748 6.75 6.875 6.75 0 0 1-6.8752-6.7495 6.875 6.75 0 0 1 6.8743-6.7505 6.875 6.75 0 0 1 6.8757 6.7491l-6.875 9.4e-4z" fill="#0fa911" fill-opacity=".99608"/>
 <path id="icon_path_225" d="m461.44 184.86a8.5625 8.625 0 0 1-8.5622 8.625 8.5625 8.625 0 0 1-8.5628-8.6244 8.5625 8.625 0 0 1 8.5616-8.6256 8.5625 8.625 0 0 1 8.5634 8.6238l-8.5625 1e-3z" fill="#ef2571" fill-opacity=".97647"/>
 <path id="icon_path_226" d="m474.31 228.73a5.4375 5.5 0 0 1-5.4373 5.5 5.4375 5.5 0 0 1-5.4377-5.4996 5.4375 5.5 0 0 1 5.4369-5.5004 5.4375 5.5 0 0 1 5.4381 5.4992l-5.4375 7.7e-4z" fill="#0808cd" fill-opacity=".98039"/>
 <path id="icon_path_227" d="m479.18 235.11a6.125 5.75 0 0 1-6.1248 5.75 6.125 5.75 0 0 1-6.1252-5.7496 6.125 5.75 0 0 1 6.1244-5.7504 6.125 5.75 0 0 1 6.1256 5.7492l-6.125 8e-4z" fill="#0808cd" fill-opacity=".98039"/>
 <path id="icon_path_228" d="m506.06 246.3a8.5625 8.8125 0 0 1-8.5622 8.8125 8.5625 8.8125 0 0 1-8.5628-8.8119 8.5625 8.8125 0 0 1 8.5616-8.8131 8.5625 8.8125 0 0 1 8.5634 8.8113l-8.5625 1e-3z" fill="#b433dc" fill-opacity=".87843"/>
 <path id="icon_path_229" d="m505.18 232.61a8.3125 8.375 0 0 1-8.3122 8.375 8.3125 8.375 0 0 1-8.3128-8.3744 8.3125 8.375 0 0 1 8.3116-8.3756 8.3125 8.375 0 0 1 8.3134 8.3738l-8.3125 1e-3z" fill="#b432dc" fill-opacity=".87451"/>
 <path id="icon_path_230" d="m490.06 223.17a7.6875 7.5625 0 0 1-7.6872 7.5625 7.6875 7.5625 0 0 1-7.6878-7.562 7.6875 7.5625 0 0 1 7.6867-7.563 7.6875 7.5625 0 0 1 7.6883 7.5614l-7.6875 1e-3z" fill="#f20ce7"/>
 <path id="icon_path_231" d="m498.06 243.23a8.875 9.25 0 0 1-8.8747 9.25 8.875 9.25 0 0 1-8.8753-9.2494 8.875 9.25 0 0 1 8.8741-9.2506 8.875 9.25 0 0 1 8.8759 9.2487l-8.875 1e-3z" fill="#f20ce7" fill-opacity=".98039"/>
 <path id="icon_path_232" d="m516.44 230.36a8.875 8.875 0 0 1-8.8747 8.875 8.875 8.875 0 0 1-8.8753-8.8744 8.875 8.875 0 0 1 8.8741-8.8756 8.875 8.875 0 0 1 8.8759 8.8738l-8.875 1e-3z" fill="#ef0a60" fill-opacity=".99608"/>
 <path id="icon_path_233" d="m515.06 205.67a7.9375 8.6875 0 0 1-7.9372 8.6875 7.9375 8.6875 0 0 1-7.9378-8.6869 7.9375 8.6875 0 0 1 7.9367-8.6881 7.9375 8.6875 0 0 1 7.9383 8.6863l-7.9375 1e-3z" fill="#f20ce7" fill-opacity=".98039"/>
 <path id="icon_path_234" d="m503.56 212.55a8.0625 8.0625 0 0 1-8.0622 8.0625 8.0625 8.0625 0 0 1-8.0628-8.0619 8.0625 8.0625 0 0 1 8.0617-8.0631 8.0625 8.0625 0 0 1 8.0633 8.0614l-8.0625 1e-3z" fill="#f20ce7" fill-opacity=".98039"/>
 <path id="icon_path_235" d="m515.56 185.05a7.5 8.4375 0 0 1-7.4997 8.4375 7.5 8.4375 0 0 1-7.5003-8.4369 7.5 8.4375 0 0 1 7.4992-8.4381 7.5 8.4375 0 0 1 7.5008 8.4363l-7.5 1e-3z" fill="#080e81" fill-opacity=".98431"/>
 <path id="icon_path_236" d="m502.94 193.05a14.375 13.562 0 0 1-14.374 13.562 14.375 13.562 0 0 1-14.376-13.562 14.375 13.562 0 0 1 14.373-13.563 14.375 13.562 0 0 1 14.377 13.561l-14.375 2e-3z" fill="#050f99" fill-opacity=".98039"/>
 <path id="icon_path_237" d="m522.14 221.73a9.0598 8.1759 0 0 1-9.0595 8.1759 9.0598 8.1759 0 0 1-9.0601-8.1754 9.0598 8.1759 0 0 1 9.0588-8.1765 9.0598 8.1759 0 0 1 9.0608 8.1748l-9.0598 1e-3z" fill="#b433db" fill-opacity=".98824"/>
 <path id="icon_path_238" d="m526.47 170.95a7.6014 7.6898 0 0 1-7.6011 7.6898 7.6014 7.6898 0 0 1-7.6017-7.6892 7.6014 7.6898 0 0 1 7.6006-7.6903 7.6014 7.6898 0 0 1 7.6022 7.6887l-7.6014 1e-3z" fill="#b639e7" fill-opacity=".98431"/>
 <path id="icon_path_239" d="m538.49 182.17a9.3692 9.104 0 0 1-9.3688 9.104 9.3692 9.104 0 0 1-9.3695-9.1034 9.3692 9.104 0 0 1 9.3682-9.1046 9.3692 9.104 0 0 1 9.3702 9.1027l-9.3692 1e-3z" fill="#991010"/>
 <path id="icon_path_240" d="m538.75 196.27a9.104 8.5295 0 0 1-9.1037 8.5295 9.104 8.5295 0 0 1-9.1043-8.5289 9.104 8.5295 0 0 1 9.103-8.5301 9.104 8.5295 0 0 1 9.105 8.5283l-9.104 1e-3z" fill="#d50aef" fill-opacity=".98431"/>
 <path id="icon_path_241" d="m531.95 207.5a9.5901 9.1482 0 0 1-9.5898 9.1482 9.5901 9.1482 0 0 1-9.5905-9.1476 9.5901 9.1482 0 0 1 9.5891-9.1488 9.5901 9.1482 0 0 1 9.5911 9.1469l-9.5901 1e-3z" fill="#f00a5f" fill-opacity=".98039"/>
 <path id="icon_path_242" d="m498.45 160.92a8.5737 9.0598 0 0 1-8.5734 9.0598 8.5737 9.0598 0 0 1-8.574-9.0592 8.5737 9.0598 0 0 1 8.5728-9.0604 8.5737 9.0598 0 0 1 8.5746 9.0585l-8.5737 1e-3z" fill="#0c246c" fill-opacity=".99608"/>
 <path id="icon_path_243" d="m491.64 171.61a8.9714 9.0598 0 0 1-8.9711 9.0598 8.9714 9.0598 0 0 1-8.9717-9.0592 8.9714 9.0598 0 0 1 8.9705-9.0604 8.9714 9.0598 0 0 1 8.9724 9.0585l-8.9714 1e-3z" fill="#ec14da" fill-opacity=".97647"/>
 <path id="icon_path_244" d="m495.18 147.09a7.0711 7.2478 0 0 1-7.0708 7.2478 7.0711 7.2478 0 0 1-7.0713-7.2473 7.0711 7.2478 0 0 1 7.0703-7.2484 7.0711 7.2478 0 0 1 7.0718 7.2468l-7.0711 1e-3z" fill="#b639e7" fill-opacity=".86274"/>
 <path id="icon_path_245" d="m511.18 169.62a8.8388 7.955 0 0 1-8.8385 7.955 8.8388 7.955 0 0 1-8.8391-7.9544 8.8388 7.955 0 0 1 8.8379-7.9555 8.8388 7.955 0 0 1 8.8398 7.9538l-8.8388 1e-3z" fill="#f20ce7" fill-opacity=".98431"/>
 <path id="icon_path_246" d="m514.36 164.23a7.955 8.8388 0 0 1-7.9547 8.8388 7.955 8.8388 0 0 1-7.9552-8.8382 7.955 8.8388 0 0 1 7.9541-8.8395 7.955 8.8388 0 0 1 7.9558 8.8376l-7.955 1e-3z" fill="#b639e7" fill-opacity=".98431"/>
 <path id="icon_path_247" d="m483.07 168.3a7.4246 7.4246 0 0 1-7.4244 7.4246 7.4246 7.4246 0 0 1-7.4249-7.4241 7.4246 7.4246 0 0 1 7.4238-7.4251 7.4246 7.4246 0 0 1 7.4254 7.4236l-7.4246 1e-3z" fill="#4a2e91" fill-opacity=".75686"/>
 <path id="icon_path_248" d="m484.22 158.49a12.463 11.756 0 0 1-12.462 11.756 12.463 11.756 0 0 1-12.463-11.755 12.463 11.756 0 0 1 12.461-11.756 12.463 11.756 0 0 1 12.464 11.754l-12.463 2e-3z" fill="#d743f0" fill-opacity=".8902"/>
 <path id="icon_path_249" d="m480.42 140.63a9.5017 9.1924 0 0 1-9.5014 9.1924 9.5017 9.1924 0 0 1-9.5021-9.1917 9.5017 9.1924 0 0 1 9.5008-9.193 9.5017 9.1924 0 0 1 9.5027 9.1911l-9.5017 1e-3z" fill="#d50aef" fill-opacity=".97647"/>
 <path id="icon_path_250" d="m449.3 167.81a6.2756 6.3198 0 0 1-6.2754 6.3198 6.2756 6.3198 0 0 1-6.2758-6.3193 6.2756 6.3198 0 0 1 6.2749-6.3202 6.2756 6.3198 0 0 1 6.2762 6.3189l-6.2756 8.8e-4z" fill="#2f8e0f" fill-opacity=".98039"/>
 <path id="icon_path_251" d="m458.41 155.04a6.7175 7.3362 0 0 1-6.7173 7.3362 6.7175 7.3362 0 0 1-6.7177-7.3357 6.7175 7.3362 0 0 1 6.7168-7.3367 6.7175 7.3362 0 0 1 6.7182 7.3352l-6.7175 1e-3z" fill="#102a6b" fill-opacity=".99608"/>
 <path id="icon_path_252" d="m444.53 151.55a7.6898 7.9108 0 0 1-7.6895 7.9108 7.6898 7.9108 0 0 1-7.6901-7.9102 7.6898 7.9108 0 0 1 7.689-7.9113 7.6898 7.9108 0 0 1 7.6906 7.9097l-7.6898 1e-3z" fill="#080e82" fill-opacity=".98039"/>
 <path id="icon_path_253" d="m445.94 136.74a8.1759 8.3085 0 0 1-8.1756 8.3085 8.1759 8.3085 0 0 1-8.1762-8.3079 8.1759 8.3085 0 0 1 8.1751-8.3091 8.1759 8.3085 0 0 1 8.1768 8.3073l-8.1759 1e-3z" fill="#2a7b91" fill-opacity=".98039"/>
 <path id="icon_path_254" d="m453.37 145.94a8.5737 9.0156 0 0 1-8.5734 9.0156 8.5737 9.0156 0 0 1-8.574-9.015 8.5737 9.0156 0 0 1 8.5728-9.0162 8.5737 9.0156 0 0 1 8.5746 9.0144l-8.5737 1e-3z" fill="#f00a5f" fill-opacity=".98431"/>
 <path id="icon_path_255" d="m455.4 129.98a7.4688 7.8224 0 0 1-7.4686 7.8224 7.4688 7.8224 0 0 1-7.4691-7.8218 7.4688 7.8224 0 0 1 7.468-7.8229 7.4688 7.8224 0 0 1 7.4696 7.8213l-7.4688 1e-3z" fill="#0d2869" fill-opacity=".98039"/>
 <path id="icon_path_256" d="m434.28 127.6a5.8336 5.9662 0 0 1-5.8334 5.9662 5.8336 5.9662 0 0 1-5.8338-5.9658 5.8336 5.9662 0 0 1 5.833-5.9666 5.8336 5.9662 0 0 1 5.8342 5.9654l-5.8336 8.3e-4z" fill="#2e8e0f" fill-opacity=".86667"/>
 <path id="icon_path_257" d="m413.24 127.51a8.7946 9.0598 0 0 1-8.7943 9.0598 8.7946 9.0598 0 0 1-8.795-9.0592 8.7946 9.0598 0 0 1 8.7937-9.0604 8.7946 9.0598 0 0 1 8.7956 9.0585l-8.7946 1e-3z" fill="#297b90" fill-opacity=".80392"/>
 <path id="icon_path_258" d="m416.78 135.33a6.9827 7.1595 0 0 1-6.9824 7.1595 6.9827 7.1595 0 0 1-6.9829-7.159 6.9827 7.1595 0 0 1 6.982-7.16 6.9827 7.1595 0 0 1 6.9834 7.1585l-6.9827 1e-3z" fill="#0c2768" fill-opacity=".8902"/>
 <path id="icon_path_259" d="m417.31 123.66a6.0546 6.1872 0 0 1-6.0544 6.1872 6.0546 6.1872 0 0 1-6.0548-6.1868 6.0546 6.1872 0 0 1 6.054-6.1876 6.0546 6.1872 0 0 1 6.0552 6.1863l-6.0546 8.6e-4z" fill="#2f8e0f" fill-opacity=".99608"/>
 <path id="icon_path_260" d="m393.8 126.18a8.2201 7.9991 0 0 1-8.2198 7.9991 8.2201 7.9991 0 0 1-8.2204-7.9986 8.2201 7.9991 0 0 1 8.2193-7.9997 8.2201 7.9991 0 0 1 8.221 7.998l-8.2201 1e-3z" fill="#0d2869" fill-opacity=".98039"/>
 <path id="icon_path_261" d="m435.51 165.03a8.0875 8.4853 0 0 1-8.0872 8.4853 8.0875 8.4853 0 0 1-8.0878-8.4847 8.0875 8.4853 0 0 1 8.0867-8.4859 8.0875 8.4853 0 0 1 8.0884 8.4841l-8.0875 1e-3z" fill="#ec17da"/>
 <path id="icon_path_262" d="m422.17 160.12a5.7894 6.143 0 0 1-5.7892 6.143 5.7894 6.143 0 0 1-5.7896-6.1426 5.7894 6.143 0 0 1 5.7888-6.1434 5.7894 6.143 0 0 1 5.79 6.1421l-5.7894 8.6e-4z" fill="#0d2768" fill-opacity=".86667"/>
 <path id="icon_path_263" d="m419.78 149.96a8.2201 8.5295 0 0 1-8.2198 8.5295 8.2201 8.5295 0 0 1-8.2204-8.5289 8.2201 8.5295 0 0 1 8.2192-8.5301 8.2201 8.5295 0 0 1 8.221 8.5283l-8.2201 1e-3z" fill="#080e81" fill-opacity=".86667"/>
 <path id="icon_path_264" d="m427.29 152.88a6.0104 5.8778 0 0 1-6.0102 5.8778 6.0104 5.8778 0 0 1-6.0106-5.8774 6.0104 5.8778 0 0 1 6.0098-5.8782 6.0104 5.8778 0 0 1 6.011 5.877l-6.0104 8.2e-4z" fill="#0d2769" fill-opacity=".87451"/>
 <path id="icon_path_265" d="m427.03 171.79a6.6733 6.4082 0 0 1-6.6731 6.4082 6.6733 6.4082 0 0 1-6.6736-6.4077 6.6733 6.4082 0 0 1 6.6726-6.4086 6.6733 6.4082 0 0 1 6.674 6.4073l-6.6733 9e-4z" fill="#328f13" fill-opacity=".99608"/>
 <path id="icon_path_266" d="m400.78 157.56a8.0875 7.9991 0 0 1-8.0872 7.9991 8.0875 7.9991 0 0 1-8.0878-7.9986 8.0875 7.9991 0 0 1 8.0867-7.9997 8.0875 7.9991 0 0 1 8.0884 7.998l-8.0875 1e-3z" fill="#080e82" fill-opacity=".87843"/>
 <path id="icon_path_267" d="m410.15 154.33a8.0433 8.0433 0 0 1-8.043 8.0433 8.0433 8.0433 0 0 1-8.0436-8.0428 8.0433 8.0433 0 0 1 8.0425-8.0439 8.0433 8.0433 0 0 1 8.0442 8.0422l-8.0433 1e-3z" fill="#0d2869" fill-opacity=".98039"/>
 <path id="icon_path_268" d="m357.03 130.07a6.5849 6.3198 0 0 1-6.5847 6.3198 6.5849 6.3198 0 0 1-6.5852-6.3193 6.5849 6.3198 0 0 1 6.5842-6.3202 6.5849 6.3198 0 0 1 6.5856 6.3189l-6.5849 8.8e-4z" fill="#2f8e0f" fill-opacity=".98039"/>
 <path id="icon_path_269" d="m385.06 138.55a7.75 8.0625 0 0 1-7.7497 8.0625 7.75 8.0625 0 0 1-7.7503-8.0619 7.75 8.0625 0 0 1 7.7492-8.0631 7.75 8.0625 0 0 1 7.7508 8.0614l-7.75 1e-3z" fill="#2a7a90" fill-opacity=".94902"/>
 <path id="icon_path_270" d="m369.56 136.42a7.625 7.4375 0 0 1-7.6247 7.4375 7.625 7.4375 0 0 1-7.6253-7.437 7.625 7.4375 0 0 1 7.6242-7.438 7.625 7.4375 0 0 1 7.6258 7.4365l-7.625 1e-3z" fill="#0d2869" fill-opacity=".98039"/>
 <path id="icon_path_271" d="m368.31 158.05a6.0625 6.0625 0 0 1-6.0623 6.0625 6.0625 6.0625 0 0 1-6.0627-6.0621 6.0625 6.0625 0 0 1 6.0619-6.0629 6.0625 6.0625 0 0 1 6.0631 6.0617l-6.0625 8.5e-4z" fill="#0d2869" fill-opacity=".87059"/>
 <path id="icon_path_272" d="m387.94 150.92a13.25 12.688 0 0 1-13.25 12.688 13.25 12.688 0 0 1-13.25-12.687 13.25 12.688 0 0 1 13.249-12.688 13.25 12.688 0 0 1 13.251 12.686l-13.25 2e-3z" fill="#0808cd"/>
 <path id="icon_path_273" d="m383.94 152.36a6.0625 6 0 0 1-6.0623 6 6.0625 6 0 0 1-6.0627-5.9996 6.0625 6 0 0 1 6.0619-6.0004 6.0625 6 0 0 1 6.0631 5.9992l-6.0625 8.4e-4z" fill="#ec14da"/>
 <path id="icon_path_274" d="m336.31 157.49a8.1875 8.125 0 0 1-8.1872 8.125 8.1875 8.125 0 0 1-8.1878-8.1244 8.1875 8.125 0 0 1 8.1866-8.1256 8.1875 8.125 0 0 1 8.1884 8.1239l-8.1875 1e-3z" fill="#2a7b91"/>
 <path id="icon_path_275" d="m332.56 170.74a6.3125 6.125 0 0 1-6.3123 6.125 6.3125 6.125 0 0 1-6.3127-6.1246 6.3125 6.125 0 0 1 6.3118-6.1254 6.3125 6.125 0 0 1 6.3132 6.1241l-6.3125 8.6e-4z" fill="#0c2868" fill-opacity=".88235"/>
 <path id="icon_path_276" d="m330.68 163.36a13.875 14 0 0 1-13.875 14 13.875 14 0 0 1-13.875-13.999 13.875 14 0 0 1 13.874-14.001 13.875 14 0 0 1 13.876 13.998l-13.875 2e-3z" fill="#d653ee" fill-opacity=".98431"/>
 <path id="icon_path_277" d="m355.44 163.49a8.3125 8.75 0 0 1-8.3122 8.75 8.3125 8.75 0 0 1-8.3128-8.7494 8.3125 8.75 0 0 1 8.3116-8.7506 8.3125 8.75 0 0 1 8.3134 8.7488l-8.3125 1e-3z" fill="#080e82" fill-opacity=".86667"/>
 <path id="icon_path_278" d="m348.94 173.99a8.5 8.75 0 0 1-8.4997 8.75 8.5 8.75 0 0 1-8.5003-8.7494 8.5 8.75 0 0 1 8.4991-8.7506 8.5 8.75 0 0 1 8.5009 8.7488l-8.5 1e-3z" fill="#080e82" fill-opacity=".98039"/>
 <path id="icon_path_279" d="m339.31 145.55a6.9375 7.1875 0 0 1-6.9373 7.1875 6.9375 7.1875 0 0 1-6.9377-7.187 6.9375 7.1875 0 0 1 6.9368-7.188 6.9375 7.1875 0 0 1 6.9382 7.1865l-6.9375 1e-3z" fill="#0d2869" fill-opacity=".86667"/>
 <path id="icon_path_280" d="m364.81 145.11a14.312 15.375 0 0 1-14.312 15.375 14.312 15.375 0 0 1-14.313-15.374 14.312 15.375 0 0 1 14.311-15.376 14.312 15.375 0 0 1 14.314 15.373l-14.312 2e-3z" fill="#d353ed" fill-opacity=".99608"/>
 <path id="icon_path_281" d="m367.18 179.61a9.0625 9.375 0 0 1-9.0622 9.375 9.0625 9.375 0 0 1-9.0628-9.3744 9.0625 9.375 0 0 1 9.0616-9.3756 9.0625 9.375 0 0 1 9.0634 9.3737l-9.0625 1e-3z" fill="#d50aef" fill-opacity=".98039"/>
 <path id="icon_path_282" d="m384.56 181.49a8.5 8.125 0 0 1-8.4997 8.125 8.5 8.125 0 0 1-8.5003-8.1244 8.5 8.125 0 0 1 8.4991-8.1256 8.5 8.125 0 0 1 8.5009 8.1239l-8.5 1e-3z" fill="#080e82" fill-opacity=".86667"/>
 <path id="icon_path_283" d="m385.81 170.8a8.5625 8.3125 0 0 1-8.5622 8.3125 8.5625 8.3125 0 0 1-8.5628-8.3119 8.5625 8.3125 0 0 1 8.5616-8.3131 8.5625 8.3125 0 0 1 8.5634 8.3113l-8.5625 1e-3z" fill="#e7f0ef" fill-opacity=".86667"/>
 <path id="icon_path_284" d="m402.56 176.49a9 8.75 0 0 1-8.9997 8.75 9 8.75 0 0 1-9.0003-8.7494 9 8.75 0 0 1 8.9991-8.7506 9 8.75 0 0 1 9.0009 8.7488l-9 1e-3z" fill="#ec14da" fill-opacity=".98039"/>
 <path id="icon_path_285" d="m395.44 163.67a8 7.5625 0 0 1-7.9997 7.5625 8 7.5625 0 0 1-8.0003-7.562 8 7.5625 0 0 1 7.9992-7.563 8 7.5625 0 0 1 8.0008 7.5614l-8 1e-3z" fill="#0c2769" fill-opacity=".99608"/>
</svg>
